<?xml version="1.0" encoding="UTF-8"?>
<svg width="48px" height="48px" viewBox="0 0 48 48" version="1.1" xmlns="http://www.w3.org/2000/svg"
>
    <!-- Generator: Sketch 54.1 (76490) - https://sketchapp.com -->
    <title>_icon/tags/l/active</title>
    <desc>Created with Sketch.</desc>
    <defs>
        <linearGradient x1="0%" y1="5.00118144%" x2="100%" y2="94.9988186%" id="linearGradient-1">
            <stop stop-color="#972C86" offset="0%"></stop>
            <stop stop-color="#794997" offset="40%"></stop>
            <stop stop-color="#007180" offset="100%"></stop>
        </linearGradient>
    </defs>
    <g id="_icon/tags/l/active" stroke="none" stroke-width="1" fill="none" fill-rule="evenodd">
        <path d="M35.9441,14 C35.9441,13.1714271 35.2726729,12.5 34.4441,12.5 C33.6155271,12.5 32.9441,13.1714271 32.9441,14 C32.9441,14.8285729 33.6155271,15.5 34.4441,15.5 C35.2726729,15.5 35.9441,14.8285729 35.9441,14 Z M38.9441,14 C38.9441,16.4854271 36.9295271,18.5 34.4441,18.5 C31.9586729,18.5 29.9441,16.4854271 29.9441,14 C29.9441,11.5145729 31.9586729,9.5 34.4441,9.5 C36.9295271,9.5 38.9441,11.5145729 38.9441,14 Z M17.6451602,40.9464398 C18.2309466,41.5322263 18.2309466,42.4819737 17.6451602,43.0677602 C17.0593737,43.6535466 16.1096263,43.6535466 15.5238398,43.0677602 L4.07683983,31.6207602 C2.64094931,30.1848697 2.64094931,27.8576407 4.07681498,26.4234647 L25.4228398,5.07643983 C26.1121019,4.38717774 27.0476143,4.0001 28.0227318,4.00010002 L40.967749,4.00210052 C42.996648,4.00378986 44.6415,5.64811956 44.6415,7.67675238 L44.6445,20.6221 C44.6445,21.5969322 44.2574594,22.5314609 43.5654694,23.2234442 L23.7814694,42.9074442 C23.1942006,43.4917445 22.2444562,43.4893381 21.6601558,42.9020694 C21.0758555,42.3148006 21.0782619,41.3650562 21.6655306,40.7807558 L41.4468398,21.0994398 C41.5734924,20.9727873 41.6445,20.8013359 41.6445,20.6224476 L41.6415,7.6771 C41.6415,7.30477113 41.3390435,7.00241071 40.9662682,7.00209998 L28.0225,7.0001 C27.8428465,7.0001 27.6705175,7.07140286 27.544185,7.19773533 L6.1975357,28.5453843 C5.93405069,28.8085593 5.93405069,29.2353303 6.19816017,29.4994398 L17.6451602,40.9464398 Z"
              id="Stroke-3" fill="url(#linearGradient-1)" fill-rule="nonzero"></path>
    </g>
</svg>