<svg xmlns="http://www.w3.org/2000/svg" width="48" height="48" viewBox="0 0 48 48">
    <defs>
        <linearGradient id="a" x1="0%" y1="0%" y2="100%">
            <stop offset="0%" stop-color="#972C86"/>
            <stop offset="40%" stop-color="#794997"/>
            <stop offset="100%" stop-color="#007180"/>
        </linearGradient>
    </defs>
    <g fill="none" fill-rule="evenodd">
        <path fill="url(#a)" fill-rule="nonzero"
              d="M19 14v-3.962C19 6.645 21.244 4 24.539 4h11.448A2.994 2.994 0 0 1 39 7.013V37a1.5 1.5 0 0 1-3 0c.006-20 .002-30-.013-30H24.539C23.02 7 22 8.203 22 10.038V15.5a1.5 1.5 0 0 1-1.5 1.5h-6.462C12.393 17 11 18.436 11 20.139V40.88c0 .057.057.12.013.12H34a1.5 1.5 0 0 1 0 3H11.013C9.335 44 8 42.534 8 40.88V20.139C8 16.799 10.716 14 14.038 14H19zm-3 11a1.5 1.5 0 0 1 0-3h15a1.5 1.5 0 0 1 0 3H16zm0 5h15c2 0 2 3 0 3H16c-2 0-2-3 0-3zm10-16h5c2 0 2 3 0 3h-5c-2 0-2-3 0-3z"/>
    </g>
</svg>
