<svg xmlns="http://www.w3.org/2000/svg" width="24" height="24" viewBox="0 0 24 24">
    <g fill="none" fill-rule="evenodd">
        <path fill="#972C86"
              d="M19.163 13.406l.089-.019c2.905-.444 3.912 3.747 1.015 4.612L6.751 21.888c-1.819.437-3.309-.445-3.673-1.954-.358-1.485.533-2.95 2.255-3.353a.712.712 0 0 1 .857.517.698.698 0 0 1-.527.84c-.95.223-1.38.93-1.2 1.675.18.75.894 1.173 1.92.927l13.477-3.879c1.177-.351.787-2.034-.35-1.9l-2.628.748c-.663.188-1.184-.567-.759-1.1.634-.796 1.042-1.825 1.041-2.777-.002-1.236-.34-1.98-1.314-3.31-.038-.051-.172-.232-.191-.26-1.284-1.745-1.86-3.068-1.785-5.012a6.4 6.4 0 0 0-.5.435 5.336 5.336 0 0 0-1.335 2.014c-.27.742-.288 1.322-.16 2.326.199 1.563.095 2.155-.946 2.734-1.131.629-2.341.33-3.003-.758-.345-.567-.522-1.308-.526-2.184-.882 1.304-1.319 2.825-1.097 4.564.44 3.457 3.706 5.362 7.423 3.81.361-.15.779.015.933.37a.693.693 0 0 1-.377.915c-4.595 1.918-8.834-.554-9.39-4.922-.282-2.21.324-4.145 1.501-5.763.587-.807 1.179-1.363 1.594-1.663.538-.389 1.276.099 1.111.734-.755 2.913.072 4.27 1.13 3.682.345-.192.367-.314.235-1.347-.153-1.202-.13-1.976.233-2.969.36-.983.94-1.827 1.677-2.538.768-.742 1.537-1.205 2.076-1.432.515-.217 1.072.209.983.752-.394 2.4-.003 3.56 1.376 5.436l.192.261c1.133 1.544 1.58 2.53 1.583 4.123 0 .693-.152 1.397-.42 2.06l.996-.284zm1.309 5.96a.579.579 0 0 1 .345-.749.596.596 0 0 1 .764.34c.661 1.721-1.11 3.478-3.198 2.785l-.06-.023-1.67-.761a.577.577 0 0 1-.289-.772.597.597 0 0 1 .787-.283l1.64.746c1.134.358 1.983-.494 1.68-1.282z"/>
    </g>
</svg>
