<?xml version="1.0" encoding="UTF-8"?>
<svg width="32px" height="32px" viewBox="0 0 32 32" version="1.1" xmlns="http://www.w3.org/2000/svg"
>
    <!-- Generator: Sketch 54.1 (76490) - https://sketchapp.com -->
    <title>_icon/clap/m/white</title>
    <desc>Created with Sketch.</desc>
    <g id="_icon/clap/m/white" stroke="none" stroke-width="1" fill="none" fill-rule="evenodd" strokeLinecap="round">
        <g id="Group" transform="translate(1.000000, 1.000000)" stroke="#FFFFFF" stroke-width="2">
            <path d="M14.5593037,32.6108957 C11.3355777,31.798225 8.73906577,29.0186722 8.22747281,25.4149008 C8.21820555,25.3496203 7.68776459,21.6130795 6.63614991,14.2052785 C6.247699,12.6640059 7.85867748,11.0172688 8.84311544,10.8802986"
                  id="Combined-Shape-Copy" stroke-linejoin="round"
                  transform="translate(10.568090, 21.745597) rotate(-40.000000) translate(-10.568090, -21.745597) "></path>
            <path d="M24.6004394,23.1262853 C23.0818997,24.3877493 21.2176222,24.9902564 19.3421847,24.9707967 C16.8990884,24.9454468 14.4370539,23.8646335 12.6957053,21.8101277 C12.6315025,21.7343788 12.5687864,21.6579047 12.5075547,21.580742 C12.4769892,21.5495837 12.447343,21.5171008 12.4186944,21.4833003 L5.34599024,13.1386688 C4.70698698,12.3847497 4.80631812,11.2607432 5.56785255,10.62813 L5.62402903,10.5814637 C6.38556345,9.94885048 7.52092357,10.0471883 8.15992682,10.8011074 L6.39991313,8.72457977 C5.76090988,7.97066069 5.86024102,6.84665418 6.62177544,6.21404096 L6.67795192,6.16737467 C7.43948635,5.53476144 8.57484646,5.63309927 9.21384972,6.38701835 L7.45383603,4.31049074 C6.81483277,3.55657166 6.91416391,2.43256514 7.67569833,1.79995192 L7.73187482,1.75328563 C8.49340924,1.12067241 9.62876936,1.21901023 10.2677726,1.97292931 L11.4411151,3.35728106 C10.8021118,2.60336198 10.901443,1.47935546 11.6629774,0.846742241 L11.7191539,0.800075951 C12.4806883,0.167462729 13.6160484,0.265800557 14.2550517,1.01971964 L22.7319327,11.0210495 L22.5428179,5.65966548 C22.4994504,4.43020056 23.4710397,3.39871755 24.7129235,3.35578369 L24.8045341,3.35261657 C26.0464179,3.30968271 27.0883199,4.27155617 27.1316874,5.50102109 L27.5346718,16.9255841 C27.5439799,17.1894668 27.506532,17.4442291 27.4296909,17.6820543 C27.2470213,19.7507919 26.2940859,21.7193585 24.6004394,23.1262853 Z"
                  id="Combined-Shape" stroke-linejoin="round"
                  transform="translate(16.230449, 12.677189) rotate(2.000000) translate(-16.230449, -12.677189) "></path>
            <path d="M10.3255225,9.6038431 L10.3255225,16.8324145" id="Line"
                  transform="translate(10.325523, 13.218129) rotate(-38.000000) translate(-10.325523, -13.218129) "></path>
            <path d="M12.0963222,5.94088058 L12.0963222,13.169452" id="Line-Copy"
                  transform="translate(12.096322, 9.555166) rotate(-38.000000) translate(-12.096322, -9.555166) "></path>
            <path d="M14.7099917,2.89416834 L14.7099917,11.0263112" id="Line-Copy-2"
                  transform="translate(14.709992, 6.960240) rotate(-38.000000) translate(-14.709992, -6.960240) "></path>
        </g>
    </g>
</svg>