<?xml version="1.0" encoding="UTF-8"?>
<svg width="32px" height="32px" viewBox="0 0 32 32" version="1.1" xmlns="http://www.w3.org/2000/svg"
>
    <!-- Generator: Sketch 54.1 (76490) - https://sketchapp.com -->
    <title>_icon/tags/m/white</title>
    <desc>Created with Sketch.</desc>
    <g id="_icon/tags/m/white" stroke="none" stroke-width="1" fill="none" fill-rule="evenodd">
        <path d="M11.0614562,27.6832987 L3.37804992,19.9998924 C2.78639664,19.4082391 2.78639664,18.4473079 3.37804992,17.8543069 L16.9200367,4.31232008 C17.2044077,4.02794914 17.5898583,3.86891705 17.9928295,3.86891705 L27.0226176,3.87026478 C27.8595577,3.87026478 28.5388134,4.54952049 28.5388134,5.38646056 L28.5401611,14.4162487 C28.5401611,14.8192199 28.381129,15.2046705 28.0967581,15.4890415 L15.9927988,27.5229189"
              id="Stroke-1" stroke="#FFFFFF" stroke-width="3" strokeLinecap="round" stroke-linejoin="round"></path>
        <path d="M24.7670574,9.66374991 C24.7670574,10.77967 23.8613831,11.6853443 22.745463,11.6853443 C21.629543,11.6853443 20.7238687,10.77967 20.7238687,9.66374991 C20.7238687,8.54782982 21.629543,7.64215555 22.745463,7.64215555 C23.8613831,7.64215555 24.7670574,8.54782982 24.7670574,9.66374991"
              id="Fill-3" fill="#FFFFFF"></path>
    </g>
</svg>