<svg xmlns="http://www.w3.org/2000/svg" width="48" height="48">
    <defs>
        <linearGradient x1="0%" y1="0%" x2="100%" y2="100%" id="A">
            <stop stop-color="#972c86" offset="0%"/>
            <stop stop-color="#794997" offset="40%"/>
            <stop stop-color="#007180" offset="100%"/>
        </linearGradient>
    </defs>
    <path d="M22.907 8.762c.49.426.824.768 1.288 1.307.455-.534.787-.878 1.275-1.304 1.918-1.674 4.395-2.635 7.7-2.635 6.208 0 11.234 5.09 11.234 11.357 0 3.438-1.095 6.513-3.305 9.73-1.305 1.9-2.953 3.817-5.436 6.4l-7.078 7.288a1.5 1.5 0 0 1-2.179-2.062l7.1-7.3c2.38-2.486 3.936-4.295 5.13-6.033 1.888-2.748 2.778-5.25 2.778-8.033 0-4.62-3.69-8.357-8.234-8.357-2.567 0-4.347.69-5.727 1.896-.083.072-2.202 2.635-3.24 2.635-1.033 0-3.18-2.564-3.26-2.632-1.392-1.208-3.168-1.9-5.708-1.9C10.7 9.13 7 12.867 7 17.486c0 2.934.94 5.53 2.942 8.378 1.407 2 3.218 4.012 6.38 7.2l4.247 4.244c1.777 1.788 3.278 3.34 4.764 4.94a1.5 1.5 0 1 1-2.199 2.041c-1.46-1.573-2.938-3.102-4.693-4.868l-4.246-4.243c-3.273-3.292-5.174-5.403-6.705-7.58C5.15 24.268 4 21.086 4 17.486 4 11.218 9.025 6.13 15.234 6.13c3.277 0 5.746.96 7.673 2.632zM14 19.13a3 3 0 1 1 0-6 3 3 0 1 1 0 6z"
          fill="url(#A)" fill-rule="nonzero"/>
</svg>