<svg xmlns="http://www.w3.org/2000/svg" width="24" height="24" stroke="#972C86" fill="none">
    <path d="M3 22.45c-1-2.682-1.5-5.33-1.5-7.947A26.33 26.33 0 0 1 5.096 1C5.3 4.244 4.998 6.8 6 8.633M9 8c3.612-.696 6.612-.487 9 .628 1.003-1.84.694-4.383.887-7.628a26.33 26.33 0 0 1 3.596 13.503c0 2.616-.5 5.265-1.5 7.947m-17.725.006c-.362-1.3.22-1.95 1.742-1.956s3.856.495 7 1.5c2.987-1 5.32-1.5 7-1.5s2.274.652 1.785 1.956"
          stroke-linejoin="round" strokeLinecap="round" stroke-width="2"/>
    <path d="M7.073 17.24c-1.154-.3-2.07-1.073-2.75-2.3 1.197-.715 2.373-.917 3.527-.608s2.07 1.073 2.75 2.3c-1.197.715-2.373.917-3.527.608zm9.78 0c-1.154.3-2.33.107-3.527-.608.68-1.218 1.597-1.98 2.75-2.3s2.33-.106 3.527.608c-.68 1.217-1.597 1.98-2.75 2.3z"
          stroke-linejoin="round" stroke-width="1.5"/>
</svg>