<?xml version="1.0" encoding="UTF-8"?>
<svg width="48px" height="48px" viewBox="0 0 48 48" version="1.1" xmlns="http://www.w3.org/2000/svg"
>
    <!-- Generator: Sketch 54.1 (76490) - https://sketchapp.com -->
    <title>_icon/about/l/active</title>
    <desc>Created with Sketch.</desc>
    <defs>
        <linearGradient x1="0%" y1="0%" x2="100%" y2="100%" id="linearGradient-1">
            <stop stop-color="#972C86" offset="0%"></stop>
            <stop stop-color="#794997" offset="40%"></stop>
            <stop stop-color="#007180" offset="100%"></stop>
        </linearGradient>
    </defs>
    <g id="_icon/about/l/active" stroke="none" stroke-width="1" fill="none" fill-rule="evenodd">
        <path d="M22.5898,33.0367 L22.5898,21.3942 L20.5898,21.3942 C19.7613729,21.3942 19.0898,20.7226271 19.0898,19.8942 C19.0898,19.0657729 19.7613729,18.3942 20.5898,18.3942 L24.0898,18.3942 C24.9182271,18.3942 25.5898,19.0657729 25.5898,19.8942 L25.5898,33.0367 L28.5898,33.0367 C29.4182271,33.0367 30.0898,33.7082729 30.0898,34.5367 C30.0898,35.3651271 29.4182271,36.0367 28.5898,36.0367 L24.1289119,36.0367 C24.115915,36.0370327 24.102877,36.0372 24.0898,36.0372 C24.076723,36.0372 24.063685,36.0370327 24.0506881,36.0367 L19.5898,36.0367 C18.7613729,36.0367 18.0898,35.3651271 18.0898,34.5367 C18.0898,33.7082729 18.7613729,33.0367 19.5898,33.0367 L22.5898,33.0367 Z M34.4460118,38.0443743 C35.1107192,37.5499498 36.0503812,37.6879914 36.5448057,38.3526988 C37.0392302,39.0174062 36.9011886,39.9570682 36.2364812,40.4514927 C29.3296742,45.5889328 19.8563125,45.8984673 12.5881964,41.0280038 C3.18414324,34.7259072 0.669901858,21.9932016 6.97217613,12.5888834 C13.2744012,3.18463856 26.0071701,0.669717332 35.4112966,6.97186314 C44.8155414,13.2740882 47.3304626,26.0068571 41.0283168,35.4109836 C40.5671314,36.0991692 39.635382,36.2831893 38.9471964,35.8220038 C38.2590107,35.3608184 38.0749907,34.429069 38.5361761,33.7408834 C43.9159394,25.7131455 41.7690872,14.8438697 33.7411964,9.46400382 C25.7134585,4.08424055 14.8441826,6.23109273 9.46431681,14.2589836 C4.08438736,22.2869694 6.2306537,33.1561635 14.258268,38.535844 C20.4629939,42.6937152 28.5506793,42.4294565 34.4460118,38.0443743 Z M26,13.3815 C26,14.7625 24.881,15.8815 23.5,15.8815 C22.12,15.8815 21,14.7625 21,13.3815 C21,12.0005 22.12,10.8815 23.5,10.8815 C24.881,10.8815 26,12.0005 26,13.3815 Z"
              id="Combined-Shape" fill="url(#linearGradient-1)" fill-rule="nonzero"></path>
    </g>
</svg>