<?xml version="1.0" encoding="UTF-8"?>
<svg width="24px" height="24px" viewBox="0 0 24 24" version="1.1" xmlns="http://www.w3.org/2000/svg"
>
    <!-- Generator: Sketch 54.1 (76490) - https://sketchapp.com -->
    <title>_icon/ifeellike/r/secundary</title>
    <desc>Created with Sketch.</desc>
    <g id="_icon/ifeellike/r/secundary" stroke="none" stroke-width="1" fill="none" fill-rule="evenodd">
        <path d="M17.9691726,20.0253169 C14.6670004,22.4809119 10.0470704,22.7275825 6.43379187,20.3064325 C1.84608363,17.2319388 0.61943556,11.020728 3.6938334,6.43287657 C6.76823125,1.8461363 12.9792482,0.619449946 17.5669565,3.69394373 C21.7368933,6.48843302 23.1302055,11.8762973 21.038015,16.2797013"
              id="Stroke-1" stroke="#972C86" stroke-width="2" strokeLinecap="round" stroke-linejoin="round"></path>
        <path d="M8,14.5 C8.67472974,15.9696277 10.2091405,17 12.0004281,17 C13.7908595,17 15.3252703,15.9696277 16,14.5"
              id="Stroke-1" stroke="#972C86" stroke-width="2" strokeLinecap="round" stroke-linejoin="round"></path>
        <path d="M10.2119,9.5575 C10.2119,10.1975 9.6929,10.7155 9.0539,10.7155 C8.4159,10.7155 7.8969,10.1975 7.8969,9.5575 C7.8969,8.9175 8.4159,8.4005 9.0539,8.4005 C9.6929,8.4005 10.2119,8.9175 10.2119,9.5575"
              id="Fill-3" fill="#972C86"></path>
        <path d="M16.3345,9.5575 C16.3345,10.1975 15.8155,10.7155 15.1765,10.7155 C14.5385,10.7155 14.0195,10.1975 14.0195,9.5575 C14.0195,8.9175 14.5385,8.4005 15.1765,8.4005 C15.8155,8.4005 16.3345,8.9175 16.3345,9.5575"
              id="Fill-5" fill="#972C86"></path>
    </g>
</svg>