<?xml version="1.0" encoding="UTF-8"?>
<svg width="32px" height="32px" viewBox="0 0 32 32" version="1.1" xmlns="http://www.w3.org/2000/svg"
>
    <!-- Generator: Sketch 54.1 (76490) - https://sketchapp.com -->
    <title>_icon/ifeellike/m/white</title>
    <desc>Created with Sketch.</desc>
    <g id="_icon/ifeellike/m/white" stroke="none" stroke-width="1" fill="none" fill-rule="evenodd">
        <g id="Group" transform="translate(3.500000, 3.500000)">
            <path d="M20.217167,22.8200421 C16.0365203,25.9288002 10.1875537,26.2410827 5.61303718,23.1759316 C-0.195135798,19.2836539 -1.74810818,11.4203245 2.14416952,5.61215154 C6.03644722,-0.194614764 13.8997766,-1.74758715 19.7079496,2.14469055 C24.9872117,5.68248543 26.7511857,12.5034665 24.1024113,18.0781309"
                  id="Stroke-1" stroke="#FFFFFF" stroke-width="3" strokeLinecap="round" stroke-linejoin="round"></path>
            <path d="M7.03350051,14.7700466 C7.98262791,16.8373393 10.1410496,18.2867413 12.6608143,18.2867413 C15.1793744,18.2867413 17.3377962,16.8373393 18.2869236,14.7700466"
                  id="Stroke-1" stroke="#FFFFFF" stroke-width="3" strokeLinecap="round" stroke-linejoin="round"></path>
            <path d="M10.1449313,9.224219 C10.1449313,10.1244928 9.41486549,10.853152 8.51599833,10.853152 C7.61853784,10.853152 6.88847202,10.1244928 6.88847202,9.224219 C6.88847202,8.32394516 7.61853784,7.59669269 8.51599833,7.59669269 C9.41486549,7.59669269 10.1449313,8.32394516 10.1449313,9.224219"
                  id="Fill-3" fill="#FFFFFF"></path>
            <path d="M18.7574573,9.224219 C18.7574573,10.1244928 18.0273915,10.853152 17.1285243,10.853152 C16.2310638,10.853152 15.500998,10.1244928 15.500998,9.224219 C15.500998,8.32394516 16.2310638,7.59669269 17.1285243,7.59669269 C18.0273915,7.59669269 18.7574573,8.32394516 18.7574573,9.224219"
                  id="Fill-5" fill="#FFFFFF"></path>
        </g>
    </g>
</svg>