<?xml version="1.0" encoding="UTF-8"?>
<svg width="375px" height="386px" viewBox="0 0 375 386" version="1.1" xmlns="http://www.w3.org/2000/svg"
>
    <!-- Generator: Sketch 62 (91390) - https://sketch.com -->
    <title>Placeholder2</title>
    <desc>Created with Sketch.</desc>
    <defs>
        <linearGradient x1="39.4146913%" y1="50.6305079%" x2="64.0600536%" y2="56.5306993%" id="linearGradient-1">
            <stop stop-color="#E6F1F2" stop-opacity="0" offset="0%"></stop>
            <stop stop-color="#E6F1F2" offset="100%"></stop>
        </linearGradient>
    </defs>
    <g id="Screens-←" stroke="none" stroke-width="1" fill="none" fill-rule="evenodd">
        <g id="Empty-states" transform="translate(-1018.000000, -159.000000)">
            <g id="Group-72">
                <g id="Placeholder2" transform="translate(1018.000000, 159.000000)">
                    <g id="Group-57" transform="translate(0.000000, 11.000000)">
                        <circle id="Oval" fill="#FFFFFF" cx="187.5" cy="187.5" r="187.5"></circle>
                        <text id="Start-typing-already" font-family="OpenSans-SemiBold, Open Sans" font-size="18"
                              font-weight="500" line-spacing="20" letter-spacing="-0.3" fill="#972C86">
                            <tspan x="103" y="304"></tspan>
                        </text>
                        <text id="Driff-isn’t-filling" font-family="Helvetica" font-size="14" font-weight="normal"
                              line-spacing="24" letter-spacing="-0.0875" fill="#999999">
                            <tspan x="127.258301" y="320"></tspan>
                        </text>
                    </g>
                    <g id="Group-55" transform="translate(59.000000, 0.000000)">
                        <path d="M201.4,265.264122 C201.4,268.191842 156.315157,270.564122 100.7,270.564122 C45.084843,270.564122 0,268.191842 0,265.264122 C0,262.337462 45.084843,259.964122 100.7,259.964122 C156.315157,259.964122 201.4,262.337462 201.4,265.264122"
                              id="Fill-1-Copy-2" fill="#DEDEDE" opacity="0.5"></path>
                        <polygon id="Fill-20" fill="#DEDEDE"
                                 points="85.5118747 265.787469 72.1741138 179.329894 69.7373692 179.662469 83.0287033 265.787469"></polygon>
                        <path d="M66.7403193,78.3892739 C66.7403193,78.3892739 83.4990733,111.657374 93.7235845,113.557424 C103.948096,115.460124 150.478377,98.6432239 150.478377,98.6432239 L150.478377,92.0089489 L103.948096,93.1219489 L88.2200172,59.9161239 L66.7403193,78.3892739 Z"
                              id="Fill-21" fill="#F6BCA7"></path>
                        <path d="M84.8764905,37.8731589 C69.5662532,38.6469589 58.9915511,45.1050089 51.7025411,55.9408589 C32.745809,84.1222839 36.0076244,134.286784 36.0076244,134.286784 L84.4891583,134.286784 C84.4891583,134.286784 99.4863462,93.4264339 84.8764905,37.8731589"
                              id="Fill-22" fill="#007180"></path>
                        <path d="M90.4376272,238.974371 L86.4940008,248.057246 C83.9551172,248.779371 81.2265469,247.952571 79.5206931,245.941221 L79.2116232,245.578171 L81.4653134,238.974371 L90.4376272,238.974371 Z"
                              id="Fill-23" fill="#F6BCA7"></path>
                        <path d="M74.6693562,22.8544164 L72.7963658,40.1907164 C72.7963658,40.1907164 75.2636194,44.8162914 80.5629088,45.3873664 C85.8635246,45.9584414 86.2760601,42.1424414 86.2760601,42.1424414 L87.4950956,30.8468164 L79.8718125,27.9609664 L74.6693562,22.8544164 Z"
                              id="Fill-24" fill="#F6BCA7"></path>
                        <path d="M87.8092062,34.2682314 C89.446083,34.3954314 92.3139338,34.2907564 93.1801255,33.6693314 C98.6956312,26.6865814 95.9140017,5.91588136 95.9140017,5.91588136 L76.7821742,7.13355636 L74.7765358,20.6061564 C74.2406377,24.2035314 75.4517143,27.8393314 78.0356982,30.4005564 C80.8611016,32.5868064 84.2449532,33.9926314 87.8092062,34.2682314"
                              id="Fill-25" fill="#FECFBE"></path>
                        <path d="M84.7774025,8.35308636 C84.7774025,8.35308636 92.0571272,10.0225864 98.1337341,9.60653636 C104.211667,9.19048636 101.10505,2.21436136 101.10505,2.21436136 C101.10505,2.21436136 94.7498825,3.75136136 87.0310927,1.74928636 C81.822004,0.397786361 80.5101149,-0.782788639 76.9206588,0.658811361 C72.0458431,2.61848636 72.2594065,11.0653614 72.2594065,11.0653614 L72.901423,28.9541864 L73.8763861,30.1983614 C73.8763861,30.1983614 75.2201108,18.6072614 75.6047902,15.0416864 C76.7760724,13.5245614 77.8584804,13.6424864 78.6464098,14.1380364 C79.5006632,14.6746614 79.9092192,15.7068364 79.8004478,16.7111864 L77.8253184,34.9988364 C77.8253184,34.9988364 90.2690315,41.2753614 93.3358543,40.6857364 C96.4013506,40.0961114 95.8813703,26.3293614 95.8813703,26.3293614 C95.8813703,26.3293614 91.2930744,24.4783364 88.3230847,27.1574864 C85.3796246,29.8127864 82.5223857,26.4141614 82.5223857,26.4141614 L84.7774025,8.35308636 Z"
                              id="Fill-26" fill="#343434"></path>
                        <path d="M77.2148721,13.5179364 C78.5373731,13.5497364 79.6595756,14.9383364 79.7232467,16.6184364 C79.7869177,18.2985364 78.7668543,19.6341364 77.4456797,19.6023364 C76.1231787,19.5692114 75.0009763,18.1819364 74.9373052,16.5005114 C74.8736341,14.8204114 75.8936976,13.4861364 77.2148721,13.5179364"
                              id="Fill-27" fill="#FECFBE"></path>
                        <path d="M84.4898215,134.286386 C84.4898215,134.286386 122.583687,144.390836 136.379084,163.015036 C139.877013,167.736011 140.009661,174.142386 136.657645,178.968036 C116.745847,207.637061 90.4231685,240.282411 90.4231685,240.282411 L80.0965183,240.282411 C80.0965183,240.282411 93.7353902,196.155936 110.230175,167.007261 C111.815319,156.235011 84.4898215,134.286386 84.4898215,134.286386"
                              id="Fill-28" fill="#1A1A1A"></path>
                        <path d="M150.478377,92.0086839 L158.800715,93.3403089 L166.609706,101.789834 C166.609706,101.789834 162.804033,103.632909 157.093535,97.7300339 C145.823757,96.9337089 148.882621,94.9104339 148.882621,94.9104339 L150.478377,92.0086839 Z"
                              id="Fill-29" fill="#F6BCA7"></path>
                        <path d="M57.8928274,88.1869864 C57.8928274,88.1869864 74.6515813,121.453761 84.8760926,123.355136 C95.1019304,125.256511 139.804321,103.425811 139.804321,103.425811 L141.630885,96.2668364 L95.1019304,102.919661 L84.0616336,80.1071364 L57.8928274,88.1869864 Z"
                              id="Fill-30" fill="#FECFBE"></path>
                        <polygon id="Fill-31" fill="#FECFBE"
                                 points="158.338039 245.092029 159.851553 254.087454 152.157966 254.087454 150.088657 245.092029"></polygon>
                        <path d="M159.235801,99.8940239 C159.294166,99.1255239 158.844489,98.4100239 158.125537,98.1304489 L151.160188,95.4221489 C149.435763,94.7516989 147.525631,94.7397739 145.794574,95.3890239 L138.907488,96.7405239 L138.171291,97.9754239 L137.684473,104.315549 C139.022892,103.765674 139.805515,103.426474 139.805515,103.426474 L144.224022,102.864674 C144.224022,102.864674 153.725601,109.278999 156.79773,101.941149 C158.076457,109.041824 160.082095,108.171299 160.082095,108.171299 L159.235801,99.8940239 Z"
                              id="Fill-32" fill="#FECFBE"></path>
                        <path d="M36.0072265,134.286386 C36.0072265,134.286386 30.2277512,155.164411 49.2839693,167.818161 C59.5748046,174.651186 77.1082231,175.330911 106.705981,177.543661 C112.271893,177.959711 116.626729,182.505786 117.998309,187.911786 C124.800501,214.745686 149.835167,247.885261 149.835167,247.885261 L160.082228,247.885261 L143.460102,179.871686 C142.268922,174.620711 137.963167,163.889536 134.339222,160.145086 C114.445995,139.589036 84.4900868,134.286386 84.4900868,134.286386 L36.0072265,134.286386 Z"
                              id="Fill-33" fill="#343434"></path>
                        <path d="M30.8022498,178.266979 L30.8022498,175.810429 C30.4746092,175.805129 22.5992947,175.552054 22.5992947,162.703529 C22.5992947,148.772479 31.3155978,127.669204 31.404472,127.457204 L29.1308845,126.513804 C28.7647759,127.396254 20.14,148.287529 20.14,162.703529 C20.14,178.089429 30.6948049,178.266979 30.8022498,178.266979"
                              id="Fill-34" fill="#DEDEDE"></path>
                        <path d="M44.3346054,130.341729 C29.982087,126.985504 28.1926648,128.877604 28.1926648,128.877604 C28.1926648,128.877604 32.6071918,111.917604 28.3942899,101.790629 C45.9980119,91.6411289 49.2558479,103.715854 49.2558479,103.715854 C49.2558479,103.715854 52.2974675,113.974004 44.3346054,130.341729"
                              id="Fill-35" fill="#946DAC"></path>
                        <polygon id="Fill-36" fill="#DEDEDE"
                                 points="25.0481103 265.787469 38.3394444 179.662469 35.9026998 179.329894 22.5649389 265.787469"></polygon>
                        <polygon id="Fill-38" fill="#DEDEDE"
                                 points="132.81828 265.787469 129.982264 265.291919 142.989201 117.224209 145.82389 117.719759"></polygon>
                        <path d="M77.9850267,243.514749 L89.0757297,249.691899 L92.2977507,256.251974 C92.2977507,256.251974 104.184342,260.939824 104.350152,260.939824 C104.515962,260.941149 105.935296,265.697899 105.935296,265.697899 L83.5920595,265.607799 L72.3143228,250.949324 L77.9850267,243.514749 Z"
                              id="Fill-41" fill="#343434"></path>
                        <path d="M73.951067,248.803089 L72.3141901,250.949589 L83.5919269,265.608064 L105.935164,265.698164 C105.935164,265.698164 105.664562,264.790539 105.34488,263.768964 L84.4302625,263.290639 L73.951067,248.803089 Z"
                              id="Fill-42" fill="#1A1A1A"></path>
                        <path d="M147.175043,265.828809 L149.800147,252.855734 L162.741291,252.907409 L168.852386,258.214034 L179.891356,260.665284 C181.215184,260.958109 182.220656,262.036659 182.422281,263.373584 L182.813593,265.973234 L147.175043,265.828809 Z"
                              id="Fill-43" fill="#343434"></path>
                        <polygon id="Fill-44" fill="#1A1A1A"
                                 points="147.65178 263.470044 147.175573 265.828544 182.814123 265.974294 182.458627 263.610494"></polygon>
                        <path d="M85.4283064,79.2205789 L57.1716199,90.0325789 C52.721278,78.4282289 55.4392365,66.6012789 63.2429209,63.6160539 C71.0452789,60.6295039 80.979291,67.6162289 85.4283064,79.2205789"
                              id="Fill-45" fill="#338D99"></path>
                        <path d="M89.2567943,179.496844 L30.8027804,179.496844 L30.8027804,168.027644 C51.3061887,158.605569 89.2567943,173.760919 89.2567943,173.760919 L89.2567943,179.496844 Z"
                              id="Fill-48" fill="#794997"></path>
                        <polygon id="Fill-49" fill="#FFFFFF"
                                 points="220.257748 51.0559814 223.831287 54.7726064 220.016329 76.6655814 216.392384 78.7471564"></polygon>
                        <polygon id="Fill-39" fill="#DEDEDE"
                                 points="253.131515 265.787469 255.966204 265.291919 242.926758 117.224209 240.092069 117.719759"></polygon>
                        <path d="M77.9578269,89.2657796 C77.737892,90.7197334 77.9565296,91.4221046 78.7258509,92.5583951 C78.7364572,92.5740607 78.8110185,92.6839778 78.8329117,92.7163637 C79.4650132,93.6514095 79.714116,94.2490871 79.715677,95.2138036 C79.7161276,95.6335612 79.631271,96.0599601 79.4814391,96.4614179 L80.0374448,96.2896795 L80.0868262,96.2780034 C81.707413,96.0089155 82.2694523,98.5478591 80.6532114,99.0713963 L73.1129331,101.427065 C72.0980349,101.692036 71.2667537,101.157826 71.0636869,100.243614 C70.8638651,99.3440114 71.360905,98.4562695 72.3215515,98.2124094 C72.5347311,98.1582937 72.7487197,98.2985616 72.7995082,98.5257065 C72.8502968,98.7528513 72.7186528,98.980858 72.5054731,99.0349737 C71.9757783,99.1694367 71.7358109,99.5980323 71.8359513,100.048866 C71.9369866,100.50373 72.3350672,100.75955 72.9068364,100.610712 L80.42613,98.2611769 C81.0827044,98.0484887 80.8650647,97.0290637 80.2311344,97.1102523 L78.764586,97.5632379 C78.3948181,97.6774513 78.1043959,97.2200708 78.3414439,96.8968394 C78.6950056,96.4147333 78.922698,95.7915071 78.9220793,95.2150162 C78.9208676,94.4662469 78.7328378,94.0151029 78.1889696,93.2105776 C78.1675374,93.1788737 78.0932111,93.0693029 78.0822456,93.0531068 C77.3662453,91.9955716 77.0441803,91.1944019 77.0866759,90.0167991 C76.9916421,90.0975706 76.8982234,90.1853044 76.8078086,90.2800718 C76.477416,90.6263697 76.2205518,91.0318612 76.0630007,91.5002716 C75.9118767,91.9493456 75.9022949,92.3007521 75.9735118,92.9087418 C76.0844433,93.8557819 76.0266963,94.2140968 75.4459326,94.5649207 C74.8146601,94.9459287 74.139749,94.7654085 73.7703205,94.1060894 C73.5779172,93.7627072 73.4789774,93.3133833 73.4770779,92.7831425 C72.9849877,93.5727622 72.7413774,94.4943855 72.8649179,95.5474534 C73.1105136,97.6417355 74.9326148,98.7952088 77.0060384,97.855525 C77.2077007,97.7641308 77.4407148,97.8642302 77.5264899,98.0791032 C77.612265,98.2939762 77.5183199,98.5422548 77.3166576,98.6336489 C74.7530489,99.7954865 72.3877183,98.2981242 72.0774453,95.6523156 C71.9203532,94.3132517 72.2586234,93.1416648 72.9154451,92.1614989 C73.2429135,91.6728224 73.5728528,91.3360204 73.8044901,91.1541721 C74.1045534,90.9186054 74.5162999,91.213915 74.4244116,91.5987873 C74.0032092,93.362985 74.4641636,94.1856504 75.0546657,93.8292495 C75.2472777,93.7128977 75.2592496,93.6386134 75.1860229,93.0134655 C75.1007154,92.2851812 75.1134936,91.8165454 75.3159521,91.2149279 C75.5162648,90.6193843 75.8399827,90.108356 76.2512797,89.677259 C76.6797404,89.228172 77.1087986,88.9474964 77.4096222,88.8099659 C77.6970993,88.6785372 78.0076039,88.9367113 77.9578269,89.2657796 Z M81.3861245,99.6513946 C81.755023,100.694477 80.766947,101.758347 79.6018931,101.338905 L79.5685416,101.324704 L78.6365923,100.86386 C78.4709405,100.781946 78.398975,100.572457 78.4758528,100.395953 C78.5527307,100.21945 78.7493399,100.14277 78.9149917,100.224684 L79.8295587,100.676933 C80.4624272,100.893383 80.9362644,100.377706 80.767273,99.8998731 C80.7028762,99.7177871 80.7892068,99.5145534 80.9600979,99.445938 C81.1309891,99.3773225 81.3217277,99.4693086 81.3861245,99.6513946 Z"
                              id="Combined-Shape-Copy" fill="#F6BCA7"
                              transform="translate(76.320000, 95.135000) rotate(-23.000000) translate(-76.320000, -95.135000) "></path>
                        <polygon id="Fill-52" fill="url(#linearGradient-1)"
                                 points="175.749289 100.526426 210.320022 98.2116514 218.939758 44.598557 186.764648 30.496582"></polygon>
                        <path d="M257.008022,120.029234 L130.449849,120.029234 C130.449849,117.478609 132.520485,115.410284 135.07396,115.410284 L252.383911,115.410284 C254.937386,115.410284 257.008022,117.478609 257.008022,120.029234"
                              id="Fill-37" fill="#C2C2C2"></path>
                        <polygon id="Fill-40" fill="#999999"
                                 points="145.82389 115.410151 172.398599 115.410151 172.398599 113.204026 145.82389 113.204026"></polygon>
                        <path d="M182.091855,115.409886 L182.091855,112.559811 L200.931857,112.559811 C206.020236,112.559811 210.381703,108.761036 211.074126,103.726036 L220.913574,42.8731589 L223.731019,43.3289589 L213.89555,104.147386 C213.014767,110.553761 207.438243,115.409886 200.931857,115.409886 L182.091855,115.409886 Z"
                              id="Fill-50" fill="#F4F4F4"></path>
                        <polygon id="Fill-55" fill="#C2C2C2"
                                 points="220.913574 42.8731589 218.992831 44.3584839 209.913854 98.4917564 211.614402 100.391806"></polygon>
                    </g>
                </g>
            </g>
        </g>
    </g>
</svg>