<svg xmlns="http://www.w3.org/2000/svg" width="543" height="350" viewBox="0 0 543 350"><g transform="translate(-328 -277)"><g transform="translate(328 280)" opacity="0.346"><path d="M.218-189.873C7.506-105.008,398.558,58.791,471.155-21.592s2.8-231.24-149.333-269.871S-7.07-274.738.218-189.873Z" transform="translate(500) rotate(180)" fill="#f2f2f2" fill-rule="evenodd"/><path d="M166.125,255C171.49,195.106,459.341,79.51,512.779,136.238S552.692,312.285,440.7,339.547,160.76,314.887,166.125,255Z" fill="#dde3e9" fill-rule="evenodd"/></g><g transform="translate(556 277)"><path d="M48.007,51.986c0,.01-.008.02-.014.032.006-.01.014-.05.014-.032" fill="#c5cfd6" fill-rule="evenodd"/><path d="M48,52a.087.087,0,0,0,0,.01c0-.01.018-.04,0-.01" fill="#c5cfd6" fill-rule="evenodd"/><path d="M48.067,51.832c-.014.04-.032.078-.048.118.008-.02.016-.036.024-.056-.208.52-.076.182.024-.062" fill="#c5cfd6" fill-rule="evenodd"/><path d="M48.022,51.953,48,52.009c-.058.112.024-.056.024-.056" fill="#c5cfd6" fill-rule="evenodd"/><path d="M48,52h0v0Z" fill="#c5cfd6" fill-rule="evenodd"/><path d="M48,52s0,0,0,0,0,0,0,0" fill="#c5cfd6" fill-rule="evenodd"/><path d="M47.99,52.016c-.012.024.056-.092,0,0" fill="#c5cfd6" fill-rule="evenodd"/><path d="M48,52l0,0s0,0,0,0" fill="#c5cfd6" fill-rule="evenodd"/><rect width="95" height="63" rx="4" fill="#dde3e9"/><g transform="translate(8 18)"><path d="M28,0,0,45H56Z" fill="#cca8d2" fill-rule="evenodd"/><path d="M55.5,12,31,45H80Z" fill="#c5cfd6" fill-rule="evenodd"/></g><circle cx="9" cy="9" r="9" transform="translate(65 12)" fill="#fff"/></g><g transform="translate(688 277)"><path d="M48.007,51.986c0,.01-.008.02-.014.032.006-.01.014-.05.014-.032" fill="#c5cfd6" fill-rule="evenodd"/><path d="M48,52a.087.087,0,0,0,0,.01c0-.01.018-.04,0-.01" fill="#c5cfd6" fill-rule="evenodd"/><path d="M48.067,51.832c-.014.04-.032.078-.048.118.008-.02.016-.036.024-.056-.208.52-.076.182.024-.062" fill="#c5cfd6" fill-rule="evenodd"/><path d="M48.022,51.953,48,52.009c-.058.112.024-.056.024-.056" fill="#c5cfd6" fill-rule="evenodd"/><path d="M48,52h0v0Z" fill="#c5cfd6" fill-rule="evenodd"/><path d="M48,52s0,0,0,0,0,0,0,0" fill="#c5cfd6" fill-rule="evenodd"/><path d="M47.99,52.016c-.012.024.056-.092,0,0" fill="#c5cfd6" fill-rule="evenodd"/><path d="M48,52l0,0s0,0,0,0" fill="#c5cfd6" fill-rule="evenodd"/><rect width="95" height="63" rx="4" fill="#dde3e9"/><g transform="translate(8 18)"><path d="M28,0,0,45H56Z" fill="#cca8d2" fill-rule="evenodd"/><path d="M55.5,12,31,45H80Z" fill="#c5cfd6" fill-rule="evenodd"/></g><circle cx="9" cy="9" r="9" transform="translate(65 12)" fill="#fff"/></g><g transform="translate(688 374)"><path d="M48.007,51.986c0,.01-.008.02-.014.032.006-.01.014-.05.014-.032" fill="#c5cfd6" fill-rule="evenodd"/><path d="M48,52a.087.087,0,0,0,0,.01c0-.01.018-.04,0-.01" fill="#c5cfd6" fill-rule="evenodd"/><path d="M48.067,51.832c-.014.04-.032.078-.048.118.008-.02.016-.036.024-.056-.208.52-.076.182.024-.062" fill="#c5cfd6" fill-rule="evenodd"/><path d="M48.022,51.953,48,52.009c-.058.112.024-.056.024-.056" fill="#c5cfd6" fill-rule="evenodd"/><path d="M48,52h0v0Z" fill="#c5cfd6" fill-rule="evenodd"/><path d="M48,52s0,0,0,0,0,0,0,0" fill="#c5cfd6" fill-rule="evenodd"/><path d="M47.99,52.016c-.012.024.056-.092,0,0" fill="#c5cfd6" fill-rule="evenodd"/><path d="M48,52l0,0s0,0,0,0" fill="#c5cfd6" fill-rule="evenodd"/><rect width="95" height="63" rx="4" fill="#dde3e9"/><g transform="translate(8 18)"><path d="M28,0,0,45H56Z" fill="#cca8d2" fill-rule="evenodd"/><path d="M55.5,12,31,45H80Z" fill="#c5cfd6" fill-rule="evenodd"/></g><circle cx="9" cy="9" r="9" transform="translate(65 12)" fill="#fff"/></g><g transform="translate(556 374)"><path d="M48.007,51.986c0,.01-.008.02-.014.032.006-.01.014-.05.014-.032" fill="#c5cfd6" fill-rule="evenodd"/><path d="M48,52a.087.087,0,0,0,0,.01c0-.01.018-.04,0-.01" fill="#c5cfd6" fill-rule="evenodd"/><path d="M48.067,51.832c-.014.04-.032.078-.048.118.008-.02.016-.036.024-.056-.208.52-.076.182.024-.062" fill="#c5cfd6" fill-rule="evenodd"/><path d="M48.022,51.953,48,52.009c-.058.112.024-.056.024-.056" fill="#c5cfd6" fill-rule="evenodd"/><path d="M48,52h0v0Z" fill="#c5cfd6" fill-rule="evenodd"/><path d="M48,52s0,0,0,0,0,0,0,0" fill="#c5cfd6" fill-rule="evenodd"/><path d="M47.99,52.016c-.012.024.056-.092,0,0" fill="#c5cfd6" fill-rule="evenodd"/><path d="M48,52l0,0s0,0,0,0" fill="#c5cfd6" fill-rule="evenodd"/><rect width="95" height="63" rx="4" fill="#dde3e9"/><g transform="translate(8 18)"><path d="M28,0,0,45H56Z" fill="#cca8d2" fill-rule="evenodd"/><path d="M55.5,12,31,45H80Z" fill="#c5cfd6" fill-rule="evenodd"/></g><circle cx="9" cy="9" r="9" transform="translate(65 12)" fill="#fff"/></g><g transform="translate(347 262)"><g transform="translate(66)"><g transform="translate(43.625 25.145)"><path d="M30.815,7.409C35.5,16.17,34.94,38.394,28.89,39.96c-2.413.624-7.553-.905-12.785-4.071l3.284,23.325H0L6.674,27.976C2.952,23.589.433,18.212.854,12.188,2.067-5.171,26.134-1.352,30.815,7.409Z" fill="#b28b67" fill-rule="evenodd"/></g><path d="M45.914,32.888C50.335,14.65,75.35,25.973,80.163,22.9c1.052,6.621-2.341,11.96-14.271,10.929-2.633,1.476-4.506,4.246-6.761,7.879a4.8,4.8,0,0,0-1.772-.336,4.871,4.871,0,0,0-3.387,8.348c-1.121,1.588-2.378,3.249-3.819,4.963-5.37-3.235-9.365-12.656-4.256-21.758Z" fill="#191847" fill-rule="evenodd"/></g><g transform="translate(0 152)"><path d="M167.879-7.871c-15.458,12.606-9.49,123.24-10.521,124.632q-.688.928-73.526,15.746l2.1,8.564q85.212-4.167,90.174-10.492,7.1-9.056,17.5-101.336Z" transform="matrix(0.574, -0.819, 0.819, 0.574, 4.598, 142.033)" fill="#b28b67" fill-rule="evenodd"/><path d="M167.879-7.871c-15.458,12.606-9.49,123.24-10.521,124.632q-.688.928-73.526,15.746l2.1,8.564q85.212-4.167,90.174-10.492,7.1-9.056,17.5-101.336Z" transform="matrix(0.574, -0.819, 0.819, 0.574, 4.598, 142.033)" fill="rgba(0,0,0,0.1)" fill-rule="evenodd"/><path d="M92.028,123.5l3.7,13.793c42.352,4.9,70.264-1.1,80.083-10.448q9.819-9.345,17.545-101.06L165.835-13.524c-36.8,27.766-14.782,118.767-15.722,120.848S126.842,111.035,92.028,123.5Z" transform="matrix(0.574, -0.819, 0.819, 0.574, 9.439, 143.65)" fill="#2f3676" fill-rule="evenodd"/><g transform="matrix(0.94, 0.342, -0.342, 0.94, 163.189, 127.749)"><path d="M1.949,20.7A15.68,15.68,0,0,0,.8,25.511a39.684,39.684,0,0,0,.72,6.273H46.553q1.755-5.775-2.027-6.236t-6.284-.832l-20.7-9.185a1.043,1.043,0,0,0-1.376.53l-.01.024L14.9,19.1h0a14.414,14.414,0,0,1-5.69,1.626A12.059,12.059,0,0,1,4.745,19.5h0A2.086,2.086,0,0,0,2,20.572Q1.972,20.634,1.949,20.7Z" fill="#e4e4e4" fill-rule="evenodd"/></g><path d="M105.256,0l-41.9,100.419-41.178,84.9H31.9L138.188,0Z" fill="#b28b67" fill-rule="evenodd"/><g transform="translate(19.432 160.861)"><path d="M1.949,20.7A15.68,15.68,0,0,0,.8,25.511a39.684,39.684,0,0,0,.72,6.273H46.553q1.755-5.775-2.027-6.236t-6.284-.832l-20.7-9.185a1.043,1.043,0,0,0-1.376.53l-.01.024L14.9,19.1h0a14.414,14.414,0,0,1-5.69,1.626A12.059,12.059,0,0,1,4.745,19.5h0A2.086,2.086,0,0,0,2,20.572Q1.972,20.634,1.949,20.7Z" fill="#e4e4e4" fill-rule="evenodd"/></g><path d="M25.9,167.678l21.587,4.042C64.178,147.22,134.032,46.764,141.691,0H93.632C68.056,33.806,41.81,142.773,25.9,167.678Z" fill="#5c63ab" fill-rule="evenodd"/></g><g transform="translate(18 67)"><path d="M152.091,55.858l25.791,18.916a69.471,69.471,0,0,1,17.532,7.037c1.109,1.009,2.448,3.052-2.149,2.7l-.614-.046c-4.407-.319-8.864-.4-9.47,1.094-.634,1.566,2.148,3.44.866,5.553q-1.282,2.113-12.117-10.6L146.39,69.935Zm50.4-69.569c-3.049,3.455-6.1,7.226-5.231,8.675s4.043.357,4.961,2.651Q203.137-.089,186.452.9L162.624,14.91,154.8,1.89,185.446-7.3a69.441,69.441,0,0,1,16.178-9.75C203.1-17.326,205.538-17.165,202.489-13.71Z" fill="#b28b67" fill-rule="evenodd"/><path d="M102.684,12.647C123.02,34.277,147.827,48.389,181.662,60.9l-7.519,15.013c-34.913-3.278-53.577-5.9-68.2-27.565C102.269,42.913,95.708,24.2,91.777,14.484Z" transform="matrix(0.966, 0.259, -0.259, 0.966, 16.119, -33.877)" fill="#6c147c" fill-rule="evenodd"/><path d="M72.768,92.064h62.257Q113.872,27.626,113.414,3.611c-.016-.816-1.525-2.254-2.192-2.066Q103.9,3.611,95.546,0C80.787,23.709,75.683,52.9,72.768,92.064Z" fill="#f2f2f2" fill-rule="evenodd"/><path d="M181.05-7.268l3.3,16.453C159.109,25.4,133.554,37.956,111.162,36.172c9.724,41.659,9.276,75.763-12.191,75.763h-33.2C60.5,76.545,74.36,27.477,87.206,2.727A4.379,4.379,0,0,1,91.2,0h9.646l.013.038C118.7.184,147.658,3.439,181.05-7.268Z" fill="#7a1b8b" fill-rule="evenodd"/></g></g></g></svg>