<svg xmlns="http://www.w3.org/2000/svg" width="483" height="434.869" viewBox="0 0 483 434.869"><g transform="translate(-358 -209.131)"><g transform="translate(512 209)" opacity="0.5"><path d="M1.908,2.672C.335,4.243.946,9.824.913,11.89c-.051,3.216.149,6.4.418,9.606.18,2.145,1.2,22.618,4.021,21.045,1.593-.886.594-6.808.591-8.681-.006-4.164-.18-8.319-.457-12.474A109.174,109.174,0,0,1,5.215,9.851c.036-.943.919-11.412-3.307-7.179" fill="#ddc8e1" fill-rule="evenodd"/><path d="M70.409.149C56.9.256,43.388.923,29.881,1.331c-6.5.2-12.995.446-19.487.807-2.212.123-6.957-.585-8.8.593C-2.5,5.348,4.1,5.96,5.859,5.9,32.59,4.927,59.329,3.65,86.082,3.59c13.124-.029,26.241.344,39.365.261,5.017-.032,10.573-2.193,11.84,3.646,1.43,6.59-.213,13.927-.66,20.548a116.174,116.174,0,0,0,.007,13.166c.128,2.829-.2,6.018.3,8.794.481,2.674,2.4,4.277,4.166,1.282,1.053-1.79.529-6.209.6-8.282.094-2.792.006-5.584.006-8.377,0-6.817.962-13.607.834-20.422-.082-4.395-.315-12.362-5.858-13.418-6.1-1.163-13.607.006-19.853-.065C101.344.546,85.892.028,70.409.149" fill="#ddc8e1" fill-rule="evenodd"/><path d="M33.174,42.786q-7.643,0-15.287.115c-4.37.072-11.24-.839-15.308.725C-.2,44.7-.944,47.8,2.58,48.633c3.843.9,9.636-.573,13.657-.644,20.164-.356,40.522-.82,60.658.455,18.868,1.195,38.1,2.353,56.994,1.092,1.59-.106,9.7-.429,6-3.468-2.158-1.774-10.907-.607-13.712-.692-9.894-.3-19.8-.365-29.69-.74C86.722,44.265,77,43.168,67.238,42.9c-11.345-.316-22.716-.11-34.065-.11" fill="#ddc8e1" fill-rule="evenodd"/><path d="M28.075,13.8c7.942.347,15.8,11.865,7.764,17.431-7.539,5.223-21.667-.5-17.475-10.629-.6,1.464.762-1.591.779-1.611a21.789,21.789,0,0,1,3.211-2.719,12.686,12.686,0,0,1,3.651-2.2c.89-.279.75.77,2.07-.267M24.207,9.65C20.49,11.1,18.794,12.738,16.239,15.7c-1.768,2.05-4.021,3.129-4,5.9,0,.613.792,1.287.928,1.878.188.816-.03,1.862.119,2.729C14.824,35.156,25.5,38.174,33.317,36.484c6.808-1.472,11.9-8.007,10.323-15.114C42.052,14.216,31.444,6.819,24.207,9.65" fill="#ddc8e1" fill-rule="evenodd"/><path d="M20.9,22.143c0,3.219,5.085,3.219,5.085,0,0-3.183-5.085-3.319-5.085,0" fill="#ddc8e1" fill-rule="evenodd"/><path d="M27.258,21.491c0,2.558,4.041,2.558,4.041,0,0-2.529-4.041-2.637-4.041,0" fill="#ddc8e1" fill-rule="evenodd"/><path d="M28.51,26.767c-1.294.5-2.935-.534-4,.146-1.881,1.2,0,2.294,1.013,2.778,4.54,2.179,5.348-3.829,2.984-2.924" fill="#ddc8e1" fill-rule="evenodd"/><path d="M97.85,19.632h0m-19.772-2.89c-3.4.767-6.267,3.941-9.959,3.516-2.829-.325-4.745-3.056-7.538-3.452-3.573-.508-13.3,7.643-8.185,9.041,2.983.816,4.638-4.635,7.273-4.925,2.085-.229,4.92,2.327,7.08,2.691,4.03.679,6.8-1.541,10.335-2.972,3.844-1.556,6.032-.155,9.375,1.574,2.639,1.365,5.124,2.253,8.144,1.69,2.834-.528,6.394-3.442,9.247-3.143,2.794.293,4.788,3.209,7.662,3.479,1.185.111,2.949.515,2.749-1.313-.159-1.464-1.793-1.216-2.814-1.748-2.628-1.368-5.086-3.792-8.257-3.585-2.386.156-4.557,1.832-6.756,2.634-7.2,2.626-11.248-5.081-18.356-3.487" fill="#ddc8e1" fill-rule="evenodd"/><path d="M84.092,63.111c-13.889.127-27.824.334-41.674,1.447-3.283.264-36.81,3.429-36.747,3.657.118.422,4.43,1.066,4.4,1.166q-.436-1.081-1.993-.895c31.8,0,63.494-2.847,95.334-2.335,8,.128,16.03.075,24.025.327,2,.063,6.941,1.494,8.509.592,4.114-2.365-3.36-2.638-4.6-2.738-15.669-1.253-31.546-1.379-47.259-1.222" fill="#69a1ac" fill-rule="evenodd"/><path d="M1.556,69.859c-2.076,2.082-.164,9.571-.083,12.385.118,4.069.021,8.168.378,12.226a82.7,82.7,0,0,0,2.256,14.074c.67,2.478,3.022,6.416,3.953,1.914.665-3.216-.345-7.482-.7-10.759a126.813,126.813,0,0,1-.6-13.112c-.016-3.838-.09-7.691-.4-11.517-.163-1.986-1.163-8.832-4.8-5.212" fill="#69a1ac" fill-rule="evenodd"/><path d="M53.794,108c-9.856.169-19.733.4-29.572,1.017-4.033.253-8.062.629-12.08,1.055-.82.087-9.895.455-5.84,3.8,1.83,1.512,9.359-.578,11.846-.8,4.182-.367,8.364-.6,12.558-.782,9.718-.413,19.467-.777,29.195-.608,17.766.308,35.419.446,53.19.05,2.525-.056,22.306.472,22.978-2.155.541-2.117-6.533-1.146-7.822-1.107-4.732.141-9.464.108-14.2.084-20.051-.1-40.219-.9-60.255-.561" fill="#69a1ac" fill-rule="evenodd"/><path d="M132.719,66.347c.313,8.775,1.807,17.54,2.285,26.342.218,4.024.475,8.043.672,12.068.064,1.3-.46,4.427,1.076,5.174,2.106,1.024,2.39-1.04,2.784-2.436,1.139-4.033.369-9.271.265-13.414-.1-4.011-.107-8.03-.4-12.034-.3-4.091-1.127-8.1-1.509-12.18-.162-1.724.4-4.593-1.427-5.663a2.509,2.509,0,0,0-3.744,2.142" fill="#69a1ac" fill-rule="evenodd"/><path d="M35.845,80.944l.112.087-.112-.087m-8.376-2.6c3.123.892,5.688.56,8.672,2.833,2.473,1.885,5.01,4.643,5.831,7.692,1.9,7.043-4.53,10.9-10.554,10.978-6.17.077-15.3-1.354-14.986-9.262.242-6.076,4.679-12,11.037-12.241m.22-3.98c-8.1.4-14.632,9.5-14.562,17.154.085,9.279,10.6,11.669,18.067,11.734,8.429.072,16.835-5.748,14.576-15.227-1.81-7.595-10.292-14.066-18.081-13.661" fill="#69a1ac" fill-rule="evenodd"/><path d="M19.542,86.822c0,2.587,4.088,2.587,4.088,0,0-2.558-4.088-2.668-4.088,0" fill="#69a1ac" fill-rule="evenodd"/><path d="M28.117,85.687c0,2.608,4.121,2.608,4.121,0,0-2.578-4.121-2.689-4.121,0" fill="#69a1ac" fill-rule="evenodd"/><path d="M23.39,91.589c-2.661,2.657,6.687,7.314,8.891,3.618,1.811-3.035-2.132-2.029-3.529-2.193-1.519-.179-4.122-2.661-5.362-1.425" fill="#69a1ac" fill-rule="evenodd"/><path d="M98.124,85.74h0m-35.1-4.325c-2.694.505-11.536,3.488-11.655,6.685-.218,5.81,8.441-.141,10.322-.905,5.108-2.076,7.792,2.159,12.923,2.382,4.457.194,8.554-3.62,12.753-3.169,4.4.472,6.514,5.152,11.592,2.667,2.686-1.314,2.619-3.34-.4-3.531-1.823-.115-3.075.638-4.975-.146-2.972-1.226-4.169-3.222-7.725-2.9-2.684.239-5.109,1.752-7.729,2.337-6,1.34-9.325-4.5-15.108-3.415" fill="#69a1ac" fill-rule="evenodd"/><path d="M118.818,88.263h0m.68-2.419c.03.013.233.295,0,0M116.409,84h0m.067-.023c.6.358,5.414,3.651,1.917,4.426-1.775.394-3.244-3.179-1.917-4.426m-1.594-3.648c-7.713,3.517.587,16.1,6.64,10.989,2.547-2.152,2.882-6.5.4-8.742-1.485-1.343-5.029-3.167-7.045-2.246" fill="#69a1ac" fill-rule="evenodd"/><path d="M42.477,129.921c-9.625,0-19.334-.2-28.945.371-1.618.1-7.78-.212-8.613,1.479-1.525,3.093,4.816,1.557,5.737,1.465,19.138-1.916,39.129-.814,58.33-.267,15.7.446,31.323.724,47.008,1.533q6.184.319,12.362.7c1.343.081,4.722.971,5.005-1.174.262-1.985-3.954-1.537-5.007-1.592q-12.562-.661-25.116-1.374c-20.152-1.136-40.576-1.141-60.761-1.137" fill="#ddc8e1" fill-rule="evenodd"/><path d="M4.609,133.36c-1.8,1.787-.955,8.611-1.005,10.866-.088,3.945-.274,7.886-.357,11.83-.087,4.122.034,8.263.278,12.378.1,1.728,1.521,10.08,3.754,5.3,1-2.136-.024-8.085-.009-10.505.027-4.4.265-8.791.484-13.189.188-3.781.2-7.566.361-11.348.052-1.206.195-9.044-3.5-5.333" fill="#ddc8e1" fill-rule="evenodd"/><path d="M134.98,168.6c-9.367.96-18.883.506-28.286,1.215-8.1.611-16.2.861-24.323,1.033-18.4.388-36.824.767-55.167,2.3-4.18.349-8.356.72-12.547.907-2.1.094-10.893-.86-11.548,1.349-1.116,3.764,8.291,2.274,10.32,2.215,4.462-.129,8.9-.451,13.352-.79,18.7-1.425,37.478-1.851,56.221-2.443,10.194-.322,20.317-1.068,30.488-1.746,5.07-.338,10.153-.349,15.222-.677,1.326-.086,6.021.083,6.975-.984.656-.733.821-2.522-.708-2.379" fill="#ddc8e1" fill-rule="evenodd"/><path d="M131.8,134c.321,8.983.829,17.957,1.132,26.94.091,2.7-.725,7.542.78,9.924,2.418,3.83,4.306-.223,4.749-2.61,1.4-7.533-.1-15.855-.5-23.434-.149-2.892.749-9.327-.648-11.915-1.331-2.465-5.636-2.218-5.517,1.1" fill="#ddc8e1" fill-rule="evenodd"/><path d="M116.079,146.793c3.588.972,4.113,8.774.064,9.351-6.027.859-3.391-7.743-.064-9.351m-1.005-3.1c-1.095-.034-3.621-.336-4.3.555-.565.746.006,2.319-.06,3.029-.237,2.538-2.3,4-1.378,7a7.321,7.321,0,0,0,4.347,4.652c10.785,3.728,10.654-17.111,1.387-15.236" fill="#ddc8e1" fill-rule="evenodd"/><path d="M17.7,145.091l-.08.1.08-.1m8.471-4.507-.127-1.083c5.848,2.76,10.5,7.9,8.559,14.787-1.482,5.258-6.834,7.123-11.821,5.825-5.52-1.437-8.158-5.988-6.67-11.575.687-2.578,2.8-6.042,5.521-6.871,1.269-.386,4.075.6,4.537-1.083M22.753,138.4a8.344,8.344,0,0,0-4.126,1.559,6.738,6.738,0,0,1,4.126-1.559m.042-3.4c-3.654.112-6.048,2.324-8.216,4.98-.68.834-2.98,3.045-2.7,4.168.225.888.814,2.187,2.055,1.2-6.5,12.95,10.288,24,20.535,14.99,9.563-8.4.075-25.729-11.68-25.335" fill="#ddc8e1" fill-rule="evenodd"/><path d="M19.476,147.035a1.339,1.339,0,0,0,2.677,0,1.339,1.339,0,0,0-2.677,0" fill="#ddc8e1" fill-rule="evenodd"/><path d="M24.044,147.329a1.361,1.361,0,0,0,2.72,0,1.361,1.361,0,0,0-2.72,0" fill="#ddc8e1" fill-rule="evenodd"/><path d="M26.117,153.484c-1.273.1-5.931-.329-6.748.786-1.366,1.863.814,1.927,1.885,2.129.965.181,5.159.079,5.75-.778.522-.757.4-2.246-.887-2.136" fill="#ddc8e1" fill-rule="evenodd"/><path d="M82.241,148.653h0m-17.6-1.287c-2.867.211-5.3,1.86-8.038,2.518-2.926.7-4.193-.59-6.854-1.436a6.47,6.47,0,0,0-6.962,1.358c-1.261,1.071-4.026,3.537-3.238,5.44,1.8,4.355,5.888-2.731,7.809-3.06,3-.514,5.662,2.106,9.118,1.356,3.131-.679,5.909-2.829,9.18-2.852,2.735-.019,5.312,1.477,8.012,1.839,4.121.553,6.828-.91,10.638-2,3.3-.942,5.621.3,8.728,1.345,1.42.477,6.159,2.213,5.287-.934-.247-.889-6.492-2.479-7.46-2.785-3.414-1.079-5.577-.658-8.829.582a13.379,13.379,0,0,1-7.9.969c-3.2-.627-6.118-2.6-9.488-2.344" fill="#ddc8e1" fill-rule="evenodd"/></g><g transform="translate(358 414)" opacity="0.346"><path d="M.121-123.043C4.174-68.048,221.6,38.1,261.962-13.992s1.559-149.85-83.029-174.883S-3.931-178.038.121-123.043Z" transform="translate(278) rotate(180)" fill="#f2f2f2" fill-rule="evenodd"/><path d="M244.079,158.351c3.4-46.641,185.885-136.662,219.762-92.485s25.3,137.1-45.692,158.329S240.678,204.992,244.079,158.351Z" fill="#dde3e9" fill-rule="evenodd"/></g><g transform="translate(381 314)"><g transform="translate(425) rotate(180)"><g transform="translate(425 -0.798) rotate(-180)"><g transform="translate(38.024 13.84) rotate(-8)"><g transform="translate(38.515 22.058)"><path d="M27.205,6.5c4.133,7.685,3.642,27.18-1.7,28.554-2.13.548-6.668-.794-11.287-3.571l2.9,20.461H0l5.893-27.4C2.606,20.692.382,15.976.754,10.691,1.825-4.536,23.072-1.186,27.205,6.5Z" fill="#b28b67" fill-rule="evenodd"/></g><path d="M58.959,20.186A22.392,22.392,0,0,0,51.8,19.4a12.264,12.264,0,0,0,.872-6.213,18.9,18.9,0,0,0-2.02-5.617,7.682,7.682,0,0,0-1.494-2.323,5.107,5.107,0,0,0-2.418-1.3,6.484,6.484,0,0,0-2.785,0c-.4.085-.768.27-1.165.372s-.6-.149-.9-.4a5.1,5.1,0,0,0-2.654-1.027,6.859,6.859,0,0,0-3.02.361A5.913,5.913,0,0,0,33.7,4.858a4.207,4.207,0,0,0-.754,1.152c-.073.175-.085.279-.26.343s-.351.061-.518.118a6.517,6.517,0,0,0-3.75,3.391,10.728,10.728,0,0,0-.59,4.417c.057,1.841,1.724,6.646,3.282,8.4a10.478,10.478,0,0,0,5.41,3.048,15.43,15.43,0,0,0-2.827,5.259A25.684,25.684,0,0,0,32.4,37.374a20.8,20.8,0,0,0,.321,6.3,6.826,6.826,0,0,0,3.059,4.444,14.628,14.628,0,0,0,2.355,1.1A15.528,15.528,0,0,0,40.558,50a4.877,4.877,0,0,0,4.608-.983,8.634,8.634,0,0,0,1.239-1.57c.115-.2.184-.328.045-.522a3.738,3.738,0,0,0-.652-.592,6.127,6.127,0,0,1-2.173-4.06c-.194-1.667.255-3.818,1.879-4.545,2-.9,4.213.133,6,1.093a9.781,9.781,0,0,1,4.751-6.291c2.7-1.353,5.792-1.512,8.564-2.673a5.111,5.111,0,0,0,1.99-1.263,2.566,2.566,0,0,0,.572-.933,1.508,1.508,0,0,0-.4-1.172C65.793,24.636,61.3,20.9,58.959,20.186Z" fill="#191847" fill-rule="evenodd"/></g><g transform="translate(0 137.187)"><path d="M92.3,0l52.758,87.842,39.553,74.263h8.519L126.858,0Z" fill="#915b3c" fill-rule="evenodd"/><g transform="translate(177.5 140.715)"><path d="M1.66,18.4A13.363,13.363,0,0,0,.7,22.474,34.889,34.889,0,0,0,1.34,28H41.1q1.55-5.088-1.789-5.493t-5.548-.733l-18.206-8.06a1,1,0,0,0-1.319.51l-.009.021-1.072,2.582h0a12.746,12.746,0,0,1-5.024,1.432,10.389,10.389,0,0,1-3.8-1.023h0A2,2,0,0,0,1.7,18.287Q1.681,18.344,1.66,18.4Z" fill="#e4e4e4" fill-rule="evenodd"/></g><path d="M173.626,150.214l16.429-4.95q-10.8-32.147-26.467-70.753T129.93,0h-46.4a725.656,725.656,0,0,0,42.4,82.538A558.652,558.652,0,0,0,173.626,150.214Z" fill="#571563" fill-rule="evenodd"/><path d="M88.833,0C83.853,30.868,74.25,70.306,73.343,71.524Q72.437,72.741,8.087,93.3l1.84,7.482Q86.665,89.756,90.8,83.673C94.926,77.59,115.551,29.531,123.54,0Z" fill="#915b3c" fill-rule="evenodd"/><path d="M23.167,86.834l3.241,12.05q57.4,5.013,70.335-7.245T126.237,0H81.989Q71.5,65,70.262,67.731T23.167,86.834Z" fill="#7a1b8b" fill-rule="evenodd"/><g transform="translate(27.562 85.114) rotate(80)"><path d="M1.66,18.4A13.363,13.363,0,0,0,.7,22.474,34.889,34.889,0,0,0,1.34,28H41.1q1.55-5.088-1.789-5.493t-5.548-.733l-18.206-8.06a1,1,0,0,0-1.319.51l-.009.021-1.072,2.582h0a12.746,12.746,0,0,1-5.024,1.432,10.389,10.389,0,0,1-3.8-1.023h0A2,2,0,0,0,1.7,18.287Q1.681,18.344,1.66,18.4Z" fill="#e4e4e4" fill-rule="evenodd"/></g></g><g transform="translate(3.93 77.259) rotate(-8)"><path d="M48.322,52.553l15.568.058q-25.606,57.212-26.7,59.911c-1.645,4.048,1.836,10.213,3.325,13.526-4.849,2.154-4.332-5.824-10.448-3-5.583,2.579-9.83,7.252-16.28,3.3-.793-.486-1.662-2.315.438-3.745,5.231-3.561,12.769-9.794,13.787-11.846q2.083-4.2,20.313-58.206ZM180.36,39.046c-3.145,2.6-6.336,5.483-5.776,6.873s3.485.872,3.97,3.009q.485,2.137-14.241.694l-22.776,8.966L136.5,46.1l28.07-3.8a61.441,61.441,0,0,1,15.5-6.3C181.394,35.964,183.505,36.443,180.36,39.046Z" fill="#997659" fill-rule="evenodd"/><path d="M87.805,6.848l12.213-.259c5.341,26.6,23.114,42.144,59.082,33.209l7.872,34.169c-33.7,7.356-64.784-3.578-74.12-39.729C90.434,24.88,88.317,15.106,87.805,6.848Z" transform="translate(4.09 -10.945) rotate(5)" fill="#cca8d2" fill-rule="evenodd"/><path d="M84.941,0l.009.011,18.468,4.2c0,31.184,9.892,51.207,15.131,74.068l.177.78H68.85c-.7,8.012-1.134,16.248-1.359,24.706H30.145Q42.839,36.7,83.731,0h1.21Z" fill="#c5cfd6" fill-rule="evenodd"/><path d="M76.719,34.066q-1.928,29.479,2.268,44.993H68.85a241.428,241.428,0,0,1,7.785-44.7Z" fill="rgba(0,0,0,0.1)" fill-rule="evenodd"/></g></g><g transform="translate(73.688 -0.631) rotate(-7)"><g transform="translate(38.515 -22.058)"><path d="M27.205-6.5c4.133-7.685,3.642-27.18-1.7-28.554-2.13-.548-6.668.794-11.287,3.571l2.9-20.461H0l5.893,27.4C2.606-20.693.382-15.976.754-10.691,1.825,4.536,23.072,1.186,27.205-6.5Z" fill="#b28b67" fill-rule="evenodd"/></g><path d="M55.963-19.7c-2.256.369-8.331.623-9.451.623-.716,0-1.492-.163-1.916.493-.347.537-.22,1.445-.324,2.068-.12.724-.291,1.439-.464,2.151a21.843,21.843,0,0,1-2.277,5.77A17.762,17.762,0,0,1,33.106-.984,27.117,27.117,0,0,1,20.313.771C15.722.4,11.566-1.112,7.231-2.535A27.48,27.48,0,0,0-5.548-3.762C-9.9-3.1-13.19-.741-16.862,1.493a21.115,21.115,0,0,1-12.5,3.439A24.1,24.1,0,0,1-40.761.619,18.57,18.57,0,0,1-48.113-7.7c-1.608-3.89-1.607-8.16,1.038-11.6,3.833-4.983,10.95-6.272,16.871-6.144a32.3,32.3,0,0,1,10.021,1.832c4.312,1.513,8.038,4.078,12.072,6.158a31.458,31.458,0,0,0,5.9,2.356c1.99.561,3.951.818,5.753-.382a27.184,27.184,0,0,1,5.8-3.31,18.731,18.731,0,0,1,6.537-1.171c4.337.033,8.612,1.382,12.824,2.284,3.435.736,7.11,1.47,10.612.762,1.461-.3,3.6-.905,4.123-2.42C34.552-20.939,31.063-31.9,33.568-39.944c1.352-4.342,9.476-9.419,12.635-7.136,2,1.446.786,3.345,0,4.6-1.506,2.4-2.021,5.484.765,7.155,2.4,1.441,4.93-1.981,4.978-1.978.661.052,6.368,3.272,10.3,7.972,3.88-.229,4.468,2.323,3.542,4.41S59.081-20.21,55.963-19.7Z" fill="#191847" fill-rule="evenodd"/></g><g transform="translate(0 -137.985)"><path d="M147.082,6.97C133.562-4.06,138.9-101,138-102.223q-.6-.812-64.354-13.723l1.85-7.506q74.6,3.565,78.934,9.1,6.21,7.927,15.218,88.773Z" transform="matrix(0.574, 0.819, -0.819, 0.574, 4.164, -124.48)" fill="#b28b67" fill-rule="evenodd"/><path d="M147.082,6.97C133.562-4.06,138.9-101,138-102.223q-.6-.812-64.354-13.723l1.85-7.506q74.6,3.565,78.934,9.1,6.21,7.927,15.218,88.773Z" transform="matrix(0.574, 0.819, -0.819, 0.574, 4.164, -124.48)" fill="rgba(0,0,0,0.1)" fill-rule="evenodd"/><path d="M80.832-108.06l3.256-12.089c37.082-4.334,61.513.9,70.1,9.074q8.587,8.178,15.258,88.532L145.309,11.928c-32.188-24.291-12.822-104.05-13.642-105.872S111.3-97.172,80.832-108.06Z" transform="matrix(0.574, 0.819, -0.819, 0.574, 8.398, -125.914)" fill="#2f3676" fill-rule="evenodd"/><g transform="translate(143.09 -111.732) rotate(-20)"><path d="M1.66-18.4A13.363,13.363,0,0,1,.7-22.474,34.889,34.889,0,0,1,1.34-28H41.1q1.55,5.088-1.789,5.493t-5.548.733l-18.206,8.06a1,1,0,0,1-1.319-.51l-.009-.021-1.072-2.582h0a12.746,12.746,0,0,0-5.024-1.432,10.389,10.389,0,0,0-3.8,1.023h0A2,2,0,0,1,1.7-18.287Q1.681-18.344,1.66-18.4Z" fill="#e4e4e4" fill-rule="evenodd"/></g><path d="M92.3,0,55.56-87.842,19.451-162.106H27.97L121.178,0Z" fill="#b28b67" fill-rule="evenodd"/><g transform="translate(17.04 -140.715)"><path d="M1.66-18.4A13.363,13.363,0,0,1,.7-22.474,34.889,34.889,0,0,1,1.34-28H41.1q1.55,5.088-1.789,5.493t-5.548.733l-18.206,8.06a1,1,0,0,1-1.319-.51l-.009-.021-1.072-2.582h0a12.746,12.746,0,0,0-5.024-1.432,10.389,10.389,0,0,0-3.8,1.023h0A2,2,0,0,1,1.7-18.287Q1.681-18.344,1.66-18.4Z" fill="#e4e4e4" fill-rule="evenodd"/></g><path d="M22.712-146.678l18.93-3.536C56.279-128.783,117.534-40.908,124.25,0H82.107C59.679-29.572,36.664-124.893,22.712-146.678Z" fill="#5c63ab" fill-rule="evenodd"/></g><g transform="translate(24.357 -53.066) rotate(-7)"><path d="M36.619-57.883l14.568-2.87q-21.976-40.664-23.571-43.1c-2.392-3.66-.16-10.367.664-13.9-5.172-1.2-3.132,6.534-9.677,4.92-5.974-1.473-11.039-5.253-16.61-.155-.685.627-1.186,2.586,1.149,3.591,5.817,2.5,14.412,7.191,15.806,9.011Q21.8-96.667,36.619-57.883Zm144.093,21.7c-2.291-3.322-4.55-6.918-3.634-8.082s3.567.121,4.614-1.772q1.047-1.893-13.408-4.529L148.992-65.252l-8.226,10.463,25.761,11.233A60.987,60.987,0,0,0,179.6-33.376C180.856-32.978,183-32.858,180.713-36.18Z" fill="#b28b67" fill-rule="evenodd"/><path d="M87.667-6.995,93.7-5.416c14.463-11.68,22.607-42.07,31.854-45.378,8.743-3.127,20.33,1.653,34.05,7.939l5.179-9.242c-11.658-14.948-38.049-29.024-49.744-23.329C96.341-66.322,88.909-28.612,87.667-6.995Z" transform="translate(4.06 10.845) rotate(-5)" fill="#571563" fill-rule="evenodd"/><path d="M63.985-80.471h54.4c2.486,0,2.017,3.564,1.658,5.362C115.891-54.356,99.7-31.985,99.7-2.443L84.013,0C71.035-20.724,66.547-46.239,63.985-80.471Z" fill="#dde3e9" fill-rule="evenodd"/><path d="M85.833,0h3.38q21.128-71.51,11.649-95.294H51.9a176.356,176.356,0,0,0,6.662,35.84Q41.927-89.248,30.6-102.353l-11.4,2.217Q30.212-32.3,83,0Z" fill="#7a1b8b" fill-rule="evenodd"/></g></g></g></g></svg>