<?xml version="1.0" encoding="UTF-8"?>
<svg width="375px" height="382px" viewBox="0 0 375 382" version="1.1" xmlns="http://www.w3.org/2000/svg"
>
    <!-- Generator: Sketch 62 (91390) - https://sketch.com -->
    <title>Placeholder1</title>
    <desc>Created with Sketch.</desc>
    <defs>
        <linearGradient x1="42.2002412%" y1="50.6305079%" x2="60.3601161%" y2="56.5306993%" id="linearGradient-1">
            <stop stop-color="#E6F1F2" stop-opacity="0" offset="0%"></stop>
            <stop stop-color="#E6F1F2" offset="100%"></stop>
        </linearGradient>
    </defs>
    <g id="Screens-←" stroke="none" stroke-width="1" fill="none" fill-rule="evenodd">
        <g id="Empty-states" transform="translate(-419.000000, -163.000000)">
            <g id="Group-72">
                <g id="Placeholder1" transform="translate(419.000000, 163.000000)">
                    <g id="Group-52" transform="translate(0.000000, 7.000000)">
                        <circle id="Oval" fill="#FFFFFF" cx="187.5" cy="187.5" r="187.5"></circle>
                        <text id="Start-typing-already-Copy" font-family="OpenSans-SemiBold, Open Sans" font-size="18"
                              font-weight="500" line-spacing="20" letter-spacing="-0.3" fill="#972C86">
                            <tspan x="103" y="304"></tspan>
                        </text>
                        <text id="Driff-isn’t-filling-Copy" font-family="Helvetica" font-size="14" font-weight="normal"
                              line-spacing="24" letter-spacing="-0.0875" fill="#999999">
                            <tspan x="127.258301" y="320"></tspan>
                        </text>
                    </g>
                    <g id="Group-54" transform="translate(26.000000, 0.000000)">
                        <path d="M270.9,260.999007 C270.9,264.313407 235.441017,266.999007 191.7,266.999007 C147.958983,266.999007 112.5,264.313407 112.5,260.999007 C112.5,257.685807 147.958983,254.999007 191.7,254.999007 C235.441017,254.999007 270.9,257.685807 270.9,260.999007"
                              id="Fill-1-Copy-3" fill="#DEDEDE" opacity="0.5"></path>
                        <polygon id="Fill-52-Copy" fill="url(#linearGradient-1)"
                                 transform="translate(130.500000, 88.800000) scale(-1, 1) rotate(16.000000) translate(-130.500000, -88.800000) "
                                 points="108.9 129.6 141.159202 127.455797 152.1 61.0628241 122.076241 48"></polygon>
                        <path d="M75.2943619,249.353571 C75.2943619,249.353571 81.2063591,254.453352 93.6166102,257.491852 C96.3486273,258.1611 99.2943619,257.266855 99.2943619,261.6 L84.2340675,261.6 L71.7083078,259.517867 L71.7083078,261.6 L64.9430722,261.6 C64.9430722,261.6 63.0712597,250.718168 67.0222383,249.353571 L75.2943619,249.353571 Z"
                              id="Fill-1" fill="#1A1A1A"
                              transform="translate(81.897181, 255.476785) scale(-1, 1) translate(-81.897181, -255.476785) "></path>
                        <path d="M97.3798428,241.159223 L98.1,249.353571 C95.7664693,251.117982 92.7034744,251.230252 90.2670641,249.639987 L89.8278763,249.353571 L88.5,241.159223 L97.3798428,241.159223 Z"
                              id="Fill-3" fill="#A3765B"
                              transform="translate(93.300000, 245.959223) scale(-1, 1) translate(-93.300000, -245.959223) "></path>
                        <path d="M11.2321867,249.353571 C11.2321867,249.353571 17.0149322,254.457365 29.3080322,257.494148 C32.0142594,258.163017 34.9321867,257.269278 34.9321867,261.599974 L20.0140594,261.599974 L7.60654125,259.519017 L7.60654125,261.599974 L0.905432155,261.599974 C0.905432155,261.599974 -1.79101517,250.717397 2.12266665,249.353571 L11.2321867,249.353571 Z"
                              id="Fill-5" fill="#1A1A1A"
                              transform="translate(17.466093, 255.476772) scale(-1, 1) translate(-17.466093, -255.476772) "></path>
                        <path d="M34.754912,241.159223 L38.1,249.353571 C35.5307973,251.117982 32.157178,251.230252 29.4744042,249.639987 L28.9904799,249.353571 L23.7,241.159223 L34.754912,241.159223 Z"
                              id="Fill-8" fill="#B4886E"
                              transform="translate(30.900000, 245.959223) scale(-1, 1) translate(-30.900000, -245.959223) "></path>
                        <polygon id="Fill-10" fill="#A17FB6"
                                 transform="translate(235.500000, 219.559223) scale(-1, 1) translate(-235.500000, -219.559223) "
                                 points="225.4944 261.559223 249.3 178.702464 245.833894 177.559223 221.7 261.559223"></polygon>
                        <polygon id="Fill-12" fill="#A17FB6"
                                 transform="translate(146.700000, 219.559223) scale(-1, 1) translate(-146.700000, -219.559223) "
                                 points="160.5 261.559223 136.366106 177.559223 132.9 178.702464 156.7056 261.559223"></polygon>
                        <path d="M144.362479,56.4627431 L99.3700735,77.5528765 C99.3700735,77.5528765 134.190412,178.476343 195.278511,188.512343 C256.36661,198.54861 292.839857,170.21181 296.100053,168.649676 C208.412392,143.885676 144.362479,56.4627431 144.362479,56.4627431"
                              id="Fill-23" fill="#794997"
                              transform="translate(197.735063, 123.560550) scale(-1, 1) translate(-197.735063, -123.560550) "></path>
                        <path d="M104.519531,77.5528765 C104.519531,77.5528765 144.227247,169.245358 205.315346,179.335009 C266.40371,189.424928 293.986973,163.305548 296.100053,161.873438 C269.639154,154.483332 241.608821,142.373668 221.6731,129.121289 C172.783299,96.6215271 149.511937,56.4632938 149.511937,56.4632938 L104.519531,77.5528765 Z"
                              id="Fill-26" fill="#946DAC"
                              transform="translate(200.309792, 119.055065) scale(-1, 1) translate(-200.309792, -119.055065) "></path>
                        <path d="M121.500185,125.821387 L189.400482,124.760718 C195.5779,124.664002 200.830074,129.272706 201.568727,135.438484 L213.3,243.559223 L203.126039,243.559223 C203.126039,243.559223 178.896666,191.801202 182.84882,164.819309 C186.800975,137.837682 88.5,142.23078 88.5,142.23078 L121.500185,125.821387 Z"
                              id="Fill-29" fill="#1A1A1A"
                              transform="translate(150.900000, 184.159223) scale(-1, 1) translate(-150.900000, -184.159223) "></path>
                        <path d="M26.1,158.359223 C26.1,158.359223 37.6053605,182.395879 83.4612745,182.395879 C129.31772,182.395879 160.627086,165.976206 160.627086,165.976206 C160.627086,165.976206 174.272768,200.867912 219.811198,243.559223 L230.705354,243.559223 L184.641773,147.496956 C180.47593,139.033815 171.694875,133.880328 162.31661,134.39442 L52.5106277,140.112891 L26.1,158.359223 Z"
                              id="Fill-39" fill="#343434"
                              transform="translate(128.402677, 188.959223) scale(-1, 1) translate(-128.402677, -188.959223) "></path>
                        <polygon id="Fill-45" fill="#A17FB6"
                                 transform="translate(200.100000, 221.359223) scale(-1, 1) translate(-200.100000, -221.359223) "
                                 points="155.842137 251.959223 154.5 249.911458 244.358129 190.759223 245.7 192.807521"></polygon>
                        <polygon id="Fill-47" fill="#A17FB6"
                                 transform="translate(182.100000, 221.359223) scale(-1, 1) translate(-182.100000, -221.359223) "
                                 points="226.35839 251.959223 227.7 249.911458 137.841875 190.759223 136.5 192.807521"></polygon>
                        <polygon id="Fill-14" fill="#A3765B"
                                 transform="translate(232.500000, 38.050827) scale(-1, 1) translate(-232.500000, -38.050827) "
                                 points="242.1 37.4962135 237.746642 51.5592231 222.9 46.0462039 235.638208 24.5424316"></polygon>
                        <path d="M215.661839,41.1172764 C217.325559,41.7671127 218.953574,42.1643959 220.02474,41.8488365 C227.673337,36.9274801 230.1,15.9697987 230.1,15.9697987 L223.862559,9.55922314 L211.699313,11.5195406 L205.903465,23.8007872 C204.356313,27.0794946 204.609402,30.9592677 206.585283,34.2508927 C208.915594,37.260966 212.039303,39.7026632 215.661839,41.1172764"
                              id="Fill-16" fill="#B4886E"
                              transform="translate(217.500000, 25.759223) scale(-1, 1) translate(-217.500000, -25.759223) "></path>
                        <path d="M202.660778,19.4871943 C204.088727,17.5477468 205.867684,12.4201592 207.875952,13.7123984 C209.341632,14.6549056 214.640772,17.2083572 216.455867,17.9911035 C220.780101,19.8559778 229.202181,21.4475984 231.97305,14.7071613 C233.358484,11.3366706 231.361375,7.05469943 229.695347,5.31910355 C228.060141,3.61507881 225.802898,2.68971798 223.474975,2.54084376 C218.011624,2.19138396 210.149404,3.23023757 207.843801,1.6250087 C203.96517,-1.07486759 198.691272,-0.352541812 197.234892,3.36087674 C195.679135,7.32768087 195.250272,14.1184685 195.59331,18.6984602 C195.791798,21.347986 196.451832,23.9324644 197.53329,26.3487448 L202.660778,19.4871943 Z"
                              id="Fill-18" fill="#343434"
                              transform="translate(213.960085, 13.174372) scale(-1, 1) translate(-213.960085, -13.174372) "></path>
                        <path d="M226.719818,18.0722104 C228.127967,17.6233844 229.977012,18.5518513 230.849747,20.1459204 C231.7222,21.7402575 231.288379,23.3970283 229.88023,23.8461222 C228.472081,24.2952162 226.623036,23.3667493 225.750583,21.7724122 C224.877565,20.1775392 225.311669,18.5213043 226.719818,18.0722104"
                              id="Fill-21" fill="#B4886E"
                              transform="translate(228.300000, 20.959223) scale(-1, 1) translate(-228.300000, -20.959223) "></path>
                        <path d="M208.438396,158.359223 L257.7,126.442969 C238.845872,93.0212941 238.231858,90.386226 211.818905,45.4530666 C208.676595,40.107655 201.319281,39.1225935 197.00432,43.5611272 C156.247597,85.4879611 208.438396,158.359223 208.438396,158.359223 Z"
                              id="Fill-31" fill="#338D99"
                              transform="translate(219.571875, 99.559223) scale(-1, 1) translate(-219.571875, -99.559223) "></path>
                        <path d="M170.775195,103.235156 C170.775195,102.341316 170.187051,101.552924 169.326734,101.293321 L160.980877,98.7752846 C158.916116,98.1527059 156.692588,98.3086744 154.73654,99.2139137 L147.161318,102.71932 L146.1,102.883061 L146.1,110.265139 C147.60764,109.509132 148.488031,109.047704 148.488031,109.047704 L153.263834,106.674236 C153.263834,106.674236 165.203469,114.584846 168.122029,105.820554 C170.244927,113.925737 172.5,112.739132 172.5,112.739132 L170.775195,103.235156 Z"
                              id="Fill-33" fill="#B4886E"
                              transform="translate(159.300000, 105.600000) scale(-1, 1) translate(-159.300000, -105.600000) "></path>
                        <path d="M170.173162,126.585984 C170.882078,133.784925 177.479816,138.949976 184.615261,137.798349 C217.513265,132.488173 257.7,109.266864 257.7,109.266864 L254.824742,102.277578 L194.162427,115.227539 C194.162427,115.227539 209.1,51.5592231 188.691664,52.7592231 C166.303815,52.7592231 167.821967,102.71804 170.173162,126.585984 Z"
                              id="Fill-35" fill="#4C9BA6"
                              transform="translate(213.300000, 95.350847) scale(-1, 1) translate(-213.300000, -95.350847) "></path>
                        <polygon id="Fill-41" fill="#FFFFFF"
                                 transform="translate(232.510693, 41.249194) scale(-1, 1) translate(-232.510693, -41.249194) "
                                 points="228.552979 34.5079102 241.052344 45.6297363 239.174561 47.9904785 223.969043 42.6429199"></polygon>
                        <polygon id="Fill-43" fill="#DEDEDE"
                                 transform="translate(141.300000, 97.759223) scale(-1, 1) translate(-141.300000, -97.759223) "
                                 points="153.561361 128.359223 100.5 128.359223 100.5 124.651246 151.272863 124.651246 178.811821 67.1592231 182.1 68.7804401"></polygon>
                    </g>
                </g>
            </g>
        </g>
    </g>
</svg>