<svg xmlns="http://www.w3.org/2000/svg" width="412.064" height="498.67" viewBox="0 0 412.064 498.67"><g transform="translate(-397.936 -271)"><g transform="translate(499 271)"><g transform="translate(86 90)"><rect width="225" height="47" rx="4" fill="#fff"/><g transform="translate(9 14.1)"><rect width="167" height="7.05" rx="3" fill="#dde3e9"/><rect width="112.096" height="7.05" rx="3" transform="translate(0 11.75)" fill="#dde3e9"/></g><g transform="translate(193.954 16.5)"><circle cx="7" cy="7" r="7" fill="#dde3e9"/><circle cx="3" cy="3" r="3" transform="translate(4 4)" fill="#f2f2f2"/></g></g><g transform="translate(225 46) rotate(180)"><rect width="225" height="39" rx="4" transform="translate(0 -39)" fill="#fff"/><g transform="translate(9 -11.7)"><rect width="167" height="5.85" rx="2.925" transform="translate(0 -5.85)" fill="#dde3e9"/><rect width="112.096" height="5.85" rx="2.925" transform="translate(0 -15.6)" fill="#dde3e9"/></g><g transform="translate(193.954 -12.5)"><circle cx="7" cy="7" r="7" transform="translate(0 -14)" fill="#dde3e9"/><circle cx="3" cy="3" r="3" transform="translate(4 -10)" fill="#f2f2f2"/></g></g><g transform="translate(86)"><rect width="225" height="39" rx="4" fill="#fff"/><g transform="translate(9 11.7)"><rect width="167" height="5.85" rx="2.925" fill="#dde3e9"/><rect width="112.096" height="5.85" rx="2.925" transform="translate(0 9.75)" fill="#dde3e9"/></g><g transform="translate(193.954 12.5)"><circle cx="7" cy="7" r="7" fill="#dde3e9"/><circle cx="3" cy="3" r="3" transform="translate(4 4)" fill="#f2f2f2"/></g></g></g><g transform="translate(390 366)"><ellipse cx="99.89" cy="99.802" rx="99.89" ry="99.802" transform="translate(33.626 47.431)" fill="#cca8d2"/><g transform="translate(-15.824 -15.81)"><g transform="translate(81.18)"><g transform="translate(53.46 30.69)"><path d="M37.762,9.043C43.5,19.736,42.817,46.86,35.4,48.771c-2.957.762-9.256-1.105-15.668-4.97L23.76,72.27H0L8.179,34.144C3.617,28.79.53,22.228,1.046,14.875,2.533-6.311,32.025-1.651,37.762,9.043Z" fill="#b28b67" fill-rule="evenodd"/></g><path d="M59.814,69.6c-2.982-13.267-11.478-22.311-10.18-28.241a8.994,8.994,0,0,1,6.916-7.375q2.906-11.756,18.745-10C91.134,25.744,100.8,32.321,96.626,46.8c-3.838,0-8.47-1.388-14.877.99Q78.7,48.917,77.388,54.8H74.493q-4.215-6.987-8.311-5.135t-1.862,9L62.894,69.6Z" fill="#191847" fill-rule="evenodd"/></g><g transform="translate(0 184.691)"><path d="M205.075-9.724c-18.849,15.378-11.4,150.547-12.655,152.246q-.838,1.133-89.722,19.127l2.58,10.466q104-4.963,110.051-12.683,8.657-11.052,21.208-123.775Z" transform="matrix(0.574, -0.819, 0.819, 0.574, 5.817, 173.565)" fill="#b28b67" fill-rule="evenodd"/><path d="M205.075-9.724c-18.849,15.378-11.4,150.547-12.655,152.246q-.838,1.133-89.722,19.127l2.58,10.466q104-4.963,110.051-12.683,8.657-11.052,21.208-123.775Z" transform="matrix(0.574, -0.819, 0.819, 0.574, 5.817, 173.565)" fill="rgba(0,0,0,0.1)" fill-rule="evenodd"/><path d="M112.72,150.654l4.54,16.857c51.7,6.047,85.763-1.243,97.734-12.645q11.971-11.4,21.265-123.438L202.6-16.638C157.729,17.228,184.739,128.437,183.6,130.978S155.2,135.476,112.72,150.654Z" transform="matrix(0.574, -0.819, 0.819, 0.574, 11.72, 175.566)" fill="#2f3676" fill-rule="evenodd"/><g transform="matrix(0.94, 0.342, -0.342, 0.94, 199.519, 155.769)"><path d="M2.648,24.528A20.278,20.278,0,0,0,.99,30.99a47.27,47.27,0,0,0,.892,7.62H57.72q2.177-7.016-2.513-7.575t-7.791-1.01L21.45,18.738a.99.99,0,0,0-1.3.513l0,.009L18.477,23.2h0a18.157,18.157,0,0,1-7.055,1.975A16.342,16.342,0,0,1,5.306,23.43h0a1.98,1.98,0,0,0-2.616,1Q2.667,24.477,2.648,24.528Z" fill="#e4e4e4" fill-rule="evenodd"/></g><path d="M128.7,0,77.471,122.466,27.122,226H39L168.967,0Z" fill="#b28b67" fill-rule="evenodd"/><g transform="translate(23.76 196.179)"><path d="M2.648,24.528A20.278,20.278,0,0,0,.99,30.99a47.27,47.27,0,0,0,.892,7.62H57.72q2.177-7.016-2.513-7.575t-7.791-1.01L21.45,18.738a.99.99,0,0,0-1.3.513l0,.009L18.477,23.2h0a18.157,18.157,0,0,1-7.055,1.975A16.342,16.342,0,0,1,5.306,23.43h0a1.98,1.98,0,0,0-2.616,1Q2.667,24.477,2.648,24.528Z" fill="#e4e4e4" fill-rule="evenodd"/></g><path d="M31.669,204.492l26.4,4.929C78.473,179.543,163.885,57.032,173.25,0H114.488C83.214,41.228,51.123,174.119,31.669,204.492Z" fill="#5c63ab" fill-rule="evenodd"/></g><g transform="translate(21.78 80.988)"><path d="M50.993,81.18,71.28,85.205q-30.6,57.032-32.823,60.454c-3.331,5.133-.223,14.54.925,19.494-7.2,1.676-4.362-9.164-13.476-6.9-8.319,2.066-15.373,7.368-23.13.217-.954-.879-1.652-3.627,1.6-5.036,8.1-3.511,20.069-10.086,22.01-12.638Q30.356,135.575,50.993,81.18ZM251.646,50.743c-3.19,4.659-6.335,9.7-5.061,11.336s4.967-.169,6.425,2.486q1.459,2.655-18.67,6.352l-26.866,20.6L196.02,76.841l35.872-15.754a85,85,0,0,1,18.2-14.278C251.846,46.252,254.836,46.084,251.646,50.743Z" fill="#b28b67" fill-rule="evenodd"/><path d="M122.047,9.778l8.4-2.209c20.151,16.393,31.519,59.02,44.4,63.667,12.178,4.394,28.31-2.3,47.412-11.1l7.22,12.965c-16.222,20.953-52.962,40.67-69.254,32.674C134.178,92.988,123.8,40.1,122.047,9.778Z" transform="translate(5.687 -15.1) rotate(5)" fill="#571563" fill-rule="evenodd"/><path d="M89.1,112.86h75.746c3.461,0,2.809-5,2.309-7.52C161.38,76.234,138.839,44.858,138.839,3.426L116.99,0C98.918,29.065,92.669,64.85,89.1,112.86Z" fill="#dde3e9" fill-rule="evenodd"/><path d="M119.524,0h4.707q29.422,100.292,16.222,133.65H72.27c1.079-16.272,4.538-33.481,9.275-50.26q-23.162,41.781-38.938,60.16L26.73,140.44Q42.071,45.3,115.581,0Z" fill="#7a1b8b" fill-rule="evenodd"/></g></g></g></g></svg>