<?xml version="1.0" encoding="UTF-8"?>
<svg width="375px" height="402px" viewBox="0 0 375 402" version="1.1" xmlns="http://www.w3.org/2000/svg"
>
    <!-- Generator: Sketch 62 (91390) - https://sketch.com -->
    <title>Placeholder4</title>
    <desc>Created with Sketch.</desc>
    <g id="Screens-←" stroke="none" stroke-width="1" fill="none" fill-rule="evenodd">
        <g id="Empty-states" transform="translate(-1018.000000, -623.000000)">
            <g id="Group-72">
                <g id="Placeholder4" transform="translate(1018.000000, 623.000000)">
                    <g id="Group-71">
                        <circle id="Oval-Copy-2" fill="#FFFFFF" cx="187.5" cy="214.5" r="187.5"></circle>
                        <text id="Start-typing-already-Copy-3" font-family="OpenSans-SemiBold, Open Sans" font-size="18"
                              font-weight="500" line-spacing="20" letter-spacing="-0.3" fill="#972C86">
                            <tspan x="103" y="331"></tspan>
                        </text>
                        <text id="Driff-isn’t-filling-Copy-3" font-family="Helvetica" font-size="14"
                              font-weight="normal" line-spacing="24" letter-spacing="-0.0875" fill="#999999">
                            <tspan x="127.258301" y="347"></tspan>
                        </text>
                        <path d="M243.563483,280.382166 C243.563483,283.483064 219.834619,285.995666 190.563483,285.995666 C161.292348,285.995666 137.563483,283.483064 137.563483,280.382166 C137.563483,277.282391 161.292348,274.768666 190.563483,274.768666 C219.834619,274.768666 243.563483,277.282391 243.563483,280.382166"
                              id="Fill-1-Copy" fill="#DEDEDE" opacity="0.5"></path>
                        <path d="M212.057628,259.756283 L214.392709,265.833076 C214.96697,267.502261 216.086347,268.918772 217.573004,269.870687 C219.215514,270.92214 221.78771,272.224787 225.614141,273.357007 C220.933605,277.352876 213.485747,273.34441 209.224854,270.393326 C207.148375,268.95508 205.678761,266.809196 205.060782,264.360004 L204.085403,259.756283 L212.057628,259.756283 Z"
                              id="Fill-11" fill="#FFDFB3"></path>
                        <path d="M204.59258,262.91704 C204.59258,262.91704 201.427352,265.405752 202.007294,268.577402 C202.587483,271.748805 203.409479,279.176902 203.409479,279.176902 L206.663872,279.176902 L206.563839,272.24872 C206.573225,271.795733 213.544384,279.176902 214.724768,279.176902 L231.948648,279.176902 C231.948648,279.176902 233.092724,274.503776 222.978814,273.001805 C212.864903,271.499588 204.59258,262.91704 204.59258,262.91704"
                              id="Fill-13" fill="#343434"></path>
                        <path d="M201.728141,111.399745 L186.252732,111.399745 L183.105782,111.399745 L167.63062,111.399745 C167.63062,111.399745 153.670334,137.907141 159.818446,193.065192 C159.818446,193.065192 153.524545,212.459006 157.300837,259.756381 L165.273309,259.756381 L174.998204,201.059153 L184.679381,149.154507 L194.36031,201.059153 L204.085452,259.756381 L212.057678,259.756381 C215.833722,212.459006 209.540068,193.065192 209.540068,193.065192 C216.649959,138.959089 201.728141,111.399745 201.728141,111.399745 Z"
                              id="Fill-20" fill="#1A1A1A"></path>
                        <path d="M217.047233,69.827666 C217.047233,69.827666 234.520135,102.362246 228.231878,105.163355 C224.039706,107.030761 218.245976,103.136682 210.850687,93.4811206 L202.925351,77.402725 L217.047233,69.827666 Z"
                              id="Fill-22-Copy" fill="#F7D19D"></path>
                        <path d="M156.967123,263.797425 L155.097131,273.918993 C154.567823,276.785605 155.079348,279.755708 156.585764,282.251335 C157.980292,284.56147 159.844109,286.931872 161.621478,286.931872 C163.612003,286.931872 165.84631,284.375484 167.388541,282.198232 C168.6408,280.430495 169.083167,278.21817 168.614372,276.103161 L165.692433,262.917139 L156.967123,263.797425 Z"
                              id="Fill-24" fill="#343434"></path>
                        <path d="M157.30096,259.756283 L156.201343,273.067777 C156.075129,274.597164 156.851925,276.086538 158.223977,276.774416 C159.098088,277.212831 160.242412,277.561586 161.669543,277.561586 C163.042336,277.561586 164.153068,277.238765 165.013842,276.824309 C166.459004,276.128033 167.231848,274.519855 167.020915,272.930202 L165.273185,259.756283 L157.30096,259.756283 Z"
                              id="Fill-32" fill="#FFDFB3"></path>
                        <path d="M151.158071,74.1008598 L130.177413,130.307309 L134.583786,132.01626 C134.583786,132.01626 150.978506,106.780389 167.387553,77.7904562 C182.792075,50.5766572 151.158071,74.1008598 151.158071,74.1008598"
                              id="Fill-1" fill="#F7D19D"></path>
                        <path d="M151.158071,74.1008598 C151.158071,74.1008598 161.862544,49.1784242 176.366526,49.1784242 C190.87026,49.1784242 175.024113,51.0247043 193.488397,49.1784242 C206.112013,47.9160378 217.288245,69.8276166 217.288245,69.8276166 L203.166116,77.4026756 C201.202475,80.1808649 200.268374,85.2161428 200.363812,92.5085094 C200.45925,99.8008759 202.221417,108.764679 205.650314,119.399918 L163.655788,119.399918 C166.337669,107.493936 167.683142,98.9866972 167.692208,93.8782028 C167.701274,88.7697084 167.043657,83.6707511 165.719355,78.581331 L151.158071,74.1008598 Z"
                              id="Fill-3" fill="#794997"></path>
                        <path d="M174.33409,38.5754231 L176.366402,49.1782266 L176.448898,49.2397281 C180.492684,52.2362593 185.976692,52.3916185 190.183741,49.6292376 L190.870137,49.1782266 L188.62348,37.5630867 L174.33409,38.5754231 Z"
                              id="Fill-5" fill="#F7D19D"></path>
                        <path d="M169.506169,17.9934309 C169.506169,17.9934309 168.66466,40.7136681 181.707919,40.7136681 C194.750931,40.7136681 194.750931,15.889783 194.750931,15.889783 L183.390936,4.52904696 L169.506169,17.9934309 Z"
                              id="Fill-7" fill="#FFDFB3"></path>
                        <path d="M185.073904,10.8405094 C185.073904,10.8405094 180.311119,18.7443174 174.952337,22.1110926 C172.353219,23.7437229 171.035753,26.7558148 171.687817,29.7553099 C172.508578,33.5306132 176.989543,36.753391 176.406638,40.3081286 C175.458428,46.0912461 178.323064,51.9257384 181.581409,56.7964601 C191.505628,71.6333897 182.123067,95.831886 168.232865,95.831886 C152.585301,95.831886 154.619297,77.4468875 155.775723,74.1534695 C157.033169,70.5725505 156.082983,66.5230839 153.246504,64.0015221 C151.184598,62.1688266 149.310408,59.7737258 149.310408,57.1229862 C149.310408,53.9426914 152.131079,48.5542703 154.726986,44.2694184 C157.374762,39.8991065 160.332762,30.8746867 160.873185,25.7935262 C163.615806,0.00587052118 181.80395,-0.062546817 182.629404,0.00611751518 C191.616528,0.753768355 199.707064,8.43750472 199.859459,17.4542677 C200.037048,27.9441029 203.271681,49.4143034 206.111865,53.3363212 C196.818963,57.4008544 184.696744,50.8117955 188.164293,36.0825552 C188.843033,33.1989003 194.478942,25.182216 194.227749,22.6213822 C193.232363,12.4721517 185.073904,10.8405094 185.073904,10.8405094"
                              id="Fill-9" fill="#343434"></path>
                        <path d="M186.528847,16.6835723 C184.849041,17.8194977 183.042033,18.7867262 181.159444,19.6023004 C179.498163,22.0769333 177.420202,24.2425767 175.050295,26.0728023 C176.163991,29.582834 176.70145,33.2378512 176.566097,36.7780163 C176.535964,37.5644452 176.462112,38.3311145 176.366279,39.0876572 C177.819344,40.1028025 179.576213,40.7138657 181.707771,40.7138657 C190.643273,40.7138657 193.456288,29.0656286 194.342502,21.7276838 C191.433407,20.5643421 188.821445,18.8143896 186.528847,16.6835723"
                              id="Fill-16" fill="#FFDFB3"></path>
                        <path d="M191.4504,26.3082617 C190.542697,25.3654856 190.719545,23.6059003 191.845096,22.3778461 C192.970401,21.149792 194.618839,20.9181116 195.526542,21.8608877 C196.434245,22.8034168 196.257397,24.563002 195.132093,25.7913032 C194.006541,27.0193574 192.35835,27.2507908 191.4504,26.3082617"
                              id="Fill-18" fill="#FFDFB3"></path>
                        <path d="M227.148912,106.771547 C219.995966,111.39972 192.000925,94.4191297 192.000925,94.4191297 L193.48857,89.7912031 C199.839515,89.8403793 204.437272,89.9899742 207.281843,90.2399877 C226.017549,91.8866967 234.301858,102.143373 227.148912,106.771547 Z"
                              id="Fill-22" fill="#FFDFB3"></path>
                        <path d="M133.084334,134.986314 C132.594051,135.277025 131.014525,136.429253 129.423389,139.992882 C127.995517,143.190219 127.117453,150.745519 124.093012,148.207161 C123.355241,144.421237 122.01431,140.041046 122.01431,140.041046 C121.803377,137.717326 123.966304,134.472566 125.7291,132.70977 L131.861961,127.936117 C131.861961,127.936117 135.743225,128.679322 135.931928,128.68278 L136.401464,129.353862 C135.139572,130.754071 133.81025,133.293664 133.084334,134.986314"
                              id="Fill-28" fill="#F7D19D"></path>
                        <path d="M131.14395,135.582112 C131.14395,135.582112 130.935487,135.63324 130.595376,135.802925 C130.557339,135.299798 130.49065,134.804575 130.407907,134.314045 C130.951541,132.568786 131.437872,130.80673 131.961994,129.05579 C132.990477,129.528537 134.435886,130.188998 134.546292,130.218638 L133.545719,142.424834 C133.545719,142.424834 131.96891,142.899063 131.314375,140.379477 C130.659841,137.859644 131.14395,135.582112 131.14395,135.582112"
                              id="Fill-30" fill="#F7D19D"></path>
                        <path d="M187.577979,88.0728905 L186.061929,67.3962818 C185.997464,66.5174771 185.265621,65.8372556 184.384593,65.8372556 L174.613017,65.8372556 C173.632697,65.8372556 172.8601,66.6720953 172.935927,67.6494506 L174.540894,88.3258124 C174.609065,89.2019001 175.339426,89.8781697 176.217984,89.8781697 L185.900395,89.8781697 C186.877998,89.8781697 187.649607,89.0475289 187.577979,88.0728905"
                              id="Fill-34" fill="#FFFFFF"></path>
                        <path d="M190.712678,87.3258819 C190.111989,87.2769771 188.077499,86.9143899 184.913506,84.2658732 C182.075051,81.8895439 177.738824,75.1177094 176.041729,78.9315438 C177.095405,82.8703571 177.851701,87.6541369 177.851701,87.6541369 C178.728282,89.9595789 182.287466,92.0402564 184.779388,92.8980665 L192.81929,94.5912104 C192.81929,94.5912104 196.162354,92.0859503 196.34019,91.9950565 L195.711343,90.3950293 C193.863828,89.6493544 192.186985,88.597407 190.712678,87.3258819"
                              id="Fill-36" fill="#FFDFB3"></path>
                        <path d="M188.168953,87.614825 C188.168953,87.614825 187.946906,87.6629889 187.545293,87.659284 C187.742395,88.1547539 187.908622,88.6563987 188.057065,89.1610075 C189.382682,90.5668973 190.661864,92.0157641 191.970932,93.4367206 C192.728956,92.5107401 193.796218,91.2130336 193.887605,91.1337486 L187.279034,80 C187.279034,80 185.561438,80.2803382 186.107047,82.9775127 C186.653151,85.6751812 188.168953,87.614825 188.168953,87.614825"
                              id="Fill-38" fill="#FFDFB3"></path>
                        <path d="M177.84886,72.9409019 C177.84886,73.7955011 178.541925,74.4885663 179.396525,74.4885663 C180.251371,74.4885663 180.944436,73.7955011 180.944436,72.9409019 C180.944436,72.0858087 180.251371,71.3927435 179.396525,71.3927435 C178.541925,71.3927435 177.84886,72.0858087 177.84886,72.9409019"
                              id="Fill-40" fill="#7FB8BF"></path>
                        <path d="M305.066777,297.184408 C305.066777,298.840408 297.796777,300.184408 288.829777,300.184408 C279.862777,300.184408 272.592777,298.840408 272.592777,297.184408 C272.592777,295.527408 279.862777,294.184408 288.829777,294.184408 C297.796777,294.184408 305.066777,295.527408 305.066777,297.184408"
                              id="Fill-1" fill="#DEDEDE" opacity="0.5"></path>
                        <path d="M295.931477,268.699008 C295.931477,268.699008 323.396477,259.648008 330.299477,246.679008 C333.624477,240.430008 328.904477,233.132008 321.827477,233.269008 C301.134477,233.674008 293.515477,266.539008 293.515477,266.539008 L295.931477,268.699008 Z"
                              id="Fill-4" fill="#7FB8BF"></path>
                        <path d="M293.880677,270.520308 L293.150677,270.089308 C293.907677,268.805308 311.624677,238.651308 328.976677,236.291308 L329.581677,237.024308 C312.635677,239.328308 294.064677,270.209308 293.880677,270.520308"
                              id="Fill-6" fill="#F4F4F4"></path>
                        <path d="M274.840677,247.395308 C271.548677,242.996308 269.635677,239.083308 268.616677,235.690308 C265.851677,226.483308 272.018677,216.913308 281.495677,215.301308 C286.813677,214.396308 293.372677,215.271308 299.542677,221.527308 C313.102677,235.275308 294.834677,272.808308 294.834677,272.808308 L288.242677,272.808308 C288.242677,272.808308 287.993677,264.977308 274.840677,247.395308"
                              id="Fill-8" fill="#338D99"></path>
                        <path d="M280.897777,272.808408 C280.897777,272.808408 261.675777,268.619408 258.188777,253.912408 C257.104777,249.336408 260.839777,244.996408 265.534777,245.236408 C289.338777,246.449408 288.242777,272.808408 288.242777,272.808408 L280.897777,272.808408 Z"
                              id="Fill-10" fill="#7FB8BF"></path>
                        <path d="M291.291877,272.904108 L290.466877,272.712108 C290.554877,272.333108 298.822877,234.516108 277.780877,216.399108 L278.692877,216.038108 C300.124877,234.491108 291.380877,272.520108 291.291877,272.904108"
                              id="Fill-12" fill="#7FB8BF"></path>
                        <path d="M285.100477,273.022308 C284.967477,272.796308 271.619477,250.528308 258.742477,249.204308 L259.219477,248.392308 C272.524477,249.760308 285.285477,271.661308 285.831477,272.593308 L285.100477,273.022308 Z"
                              id="Fill-14" fill="#338D99"></path>
                        <polygon id="Fill-16" fill="#946DAC"
                                 points="276.565877 296.106008 301.093877 296.106008 301.093877 272.808008 276.565877 272.808008"></polygon>
                        <path d="M302.856277,275.766408 L274.820277,275.766408 C273.887277,275.766408 273.125277,275.003408 273.125277,274.072408 C273.125277,273.139408 273.887277,272.376408 274.820277,272.376408 L302.856277,272.376408 C303.788277,272.376408 304.551277,273.139408 304.551277,274.072408 C304.551277,275.003408 303.788277,275.766408 302.856277,275.766408"
                              id="Fill-18" fill="#794997"></path>
                        <path d="M301.094077,296.102408 C301.094077,297.223408 295.603077,298.132408 288.830077,298.132408 C282.056077,298.132408 276.566077,297.223408 276.566077,296.102408 C276.566077,294.981408 282.056077,294.072408 288.830077,294.072408 C295.603077,294.072408 301.094077,294.981408 301.094077,296.102408"
                              id="Fill-19" fill="#946DAC"></path>
                        <path d="M285.609424,281.049833 C285.177223,281.084954 284.746858,281.138298 284.317972,281.200533 C284.084966,281.234376 283.956402,281.517159 284.013468,281.717175 C284.082008,281.957322 284.316085,282.04446 284.549805,282.010518 C285.841818,281.82293 287.198241,281.743405 288.489846,281.978738 C288.93857,282.060473 289.452978,282.198844 289.829235,282.358729 C290.021852,282.440562 290.20947,282.533742 290.39,282.638073 C290.457701,282.677182 291.42926,283.317688 291.905993,284.297978 C292.018725,284.529786 292.068062,284.784854 292.112429,285.039294 C292.114724,285.061349 292.126505,285.147014 292.128748,285.172655 C292.134154,285.234938 292.137775,285.297321 292.139509,285.359801 C292.144507,285.543214 292.132675,285.727168 292.113245,285.90955 C291.924811,287.677126 290.620558,288.91573 289.007518,289.605274 C288.886247,289.657096 288.719996,289.720804 288.534825,289.783776 C288.365158,289.841491 288.193552,289.893804 288.020264,289.940566 C287.72239,290.020975 287.4212,290.080852 287.115982,290.128302 C287.115268,290.1284 287.114809,290.128498 287.114096,290.128597 C287.083548,290.131838 287.053154,290.13567 287.022607,290.138764 C286.964521,290.144659 286.906282,290.14962 286.847992,290.153107 C286.828358,290.154286 286.808776,290.154384 286.789142,290.155121 C286.793629,289.97942 286.790519,289.802441 286.795465,289.629196 C286.809948,289.115845 286.823157,288.602543 286.834733,288.089143 C286.865688,286.713199 286.886291,285.336911 286.88267,283.960624 C286.881752,283.611529 286.878999,283.262386 286.874103,282.913291 C286.866657,282.373219 285.994555,282.371696 286.002051,282.913291 C286.036372,285.390059 285.973085,287.867121 285.902607,290.342857 C285.894804,290.618075 285.96722,290.860727 286.270449,290.953465 C286.448277,291.007841 286.651755,291.004157 286.836365,290.993694 C287.505907,290.95597 288.176417,290.798001 288.805824,290.580302 C290.640345,289.945625 292.279649,288.688797 292.815731,286.81748 C293.237274,285.3459 292.94506,283.80958 291.840971,282.685965 C290.278622,281.095908 287.744267,280.876195 285.609424,281.049833 Z"
                              id="Fill-3" stroke="#794997" fill="#794997" opacity="0.5"></path>
                    </g>
                    <g id="Group-64" transform="translate(122.000000, 0.000000)"></g>
                    <g id="Group-59" transform="translate(258.000000, 215.000000)"></g>
                </g>
            </g>
        </g>
    </g>
</svg>