<svg xmlns="http://www.w3.org/2000/svg" width="483" height="421" viewBox="0 0 483 421"><g transform="translate(-358 -223)"><g transform="translate(358 414)" opacity="0.346"><path d="M.121-123.043C4.174-68.048,221.6,38.1,261.962-13.992s1.559-149.85-83.029-174.883S-3.931-178.038.121-123.043Z" transform="translate(278) rotate(180)" fill="#f2f2f2" fill-rule="evenodd"/><path d="M244.079,158.351c3.4-46.641,185.885-136.662,219.762-92.485s25.3,137.1-45.692,158.329S240.678,204.992,244.079,158.351Z" fill="#dde3e9" fill-rule="evenodd"/></g><g transform="translate(387 223)"><g transform="translate(15)"><rect width="324" height="283" rx="8" fill="#f2f2f2"/><path d="M8,0H316a8,8,0,0,1,8,8V22H0V8A8,8,0,0,1,8,0Z" fill="#c5cfd6" fill-rule="evenodd"/><g transform="translate(9 10)"><circle cx="4" cy="4" r="4" fill="#f2f2f2"/><circle cx="4" cy="4" r="4" transform="translate(12)" fill="#f2f2f2"/><circle cx="4" cy="4" r="4" transform="translate(24)" fill="#f2f2f2"/></g><g transform="translate(16 43)"><g transform="translate(222 89)"><rect width="70" height="135" rx="8" fill="#fff"/><g transform="translate(18 18)"><rect width="34" height="17.284" rx="4" fill="#dde3e9"/><rect width="34" height="16.619" rx="4" transform="translate(0 22.602)" fill="#cca8d2"/><rect width="34" height="16.619" rx="4" transform="translate(0 44.54)" fill="#dde3e9"/><rect width="34" height="16.619" rx="4" transform="translate(0 88.415)" fill="#dde3e9"/><rect width="34" height="16.619" rx="4" transform="translate(0 66.477)" fill="#c5cfd6"/></g></g><g transform="translate(222)"><rect width="70" height="64.113" rx="8" fill="#fff"/><g transform="translate(10 11.873)"><circle cx="16" cy="16" r="16" transform="translate(9)" fill="#dde3e9"/><rect width="50" height="6" rx="3" transform="translate(0 36)" fill="#dde3e9"/><rect width="34" height="6" rx="3" transform="translate(8 46)" fill="#dde3e9"/></g></g><rect width="214" height="37.201" rx="4" fill="#fff"/><g transform="translate(9 11.16)"><rect width="156" height="5.58" rx="2.79" fill="#dde3e9"/><rect width="104.712" height="5.58" rx="2.79" transform="translate(0 9.3)" fill="#dde3e9"/></g><g transform="translate(184.13 11.601)"><circle cx="7" cy="7" r="7" fill="#dde3e9"/><circle cx="3" cy="3" r="3" transform="translate(4 4)" fill="#f2f2f2"/></g><g transform="translate(0 43.534)"><rect width="214" height="30.869" rx="4" fill="#fff"/><g transform="translate(9 9.261)"><rect width="156" height="4.63" rx="2.315" fill="#dde3e9"/><rect width="104.712" height="4.63" rx="2.315" transform="translate(0 7.717)" fill="#dde3e9"/></g><g transform="translate(184.13 8.435)"><circle cx="7" cy="7" r="7" fill="#dde3e9"/><circle cx="3" cy="3" r="3" transform="translate(4 4)" fill="#f2f2f2"/></g></g><g transform="translate(0 80.735)"><rect width="214" height="30.869" rx="4" fill="#fff"/><g transform="translate(9 9.261)"><rect width="156" height="4.63" rx="2.315" fill="#dde3e9"/><rect width="104.712" height="4.63" rx="2.315" transform="translate(0 7.717)" fill="#dde3e9"/></g><g transform="translate(184.13 8.435)"><circle cx="7" cy="7" r="7" fill="#dde3e9"/><circle cx="3" cy="3" r="3" transform="translate(4 4)" fill="#afb9c5"/></g></g><g transform="translate(0 192.339)"><rect width="214" height="30.869" rx="4" fill="#fff"/><g transform="translate(9 9.261)"><rect width="156" height="4.63" rx="2.315" fill="#dde3e9"/><rect width="104.712" height="4.63" rx="2.315" transform="translate(0 7.717)" fill="#dde3e9"/></g><g transform="translate(184.13 8.435)"><circle cx="7" cy="7" r="7" fill="#dde3e9"/><circle cx="3" cy="3" r="3" transform="translate(4 4)" fill="#f2f2f2"/></g></g><g transform="translate(0 155.138)"><rect width="214" height="30.869" rx="4" fill="#fff"/><g transform="translate(9 9.261)"><rect width="156" height="4.63" rx="2.315" fill="#dde3e9"/><rect width="104.712" height="4.63" rx="2.315" transform="translate(0 7.717)" fill="#dde3e9"/></g><g transform="translate(184.13 8.435)"><circle cx="7" cy="7" r="7" fill="#dde3e9"/><circle cx="3" cy="3" r="3" transform="translate(4 4)" fill="#f2f2f2"/></g></g><g transform="translate(0 117.936)"><rect width="214" height="30.869" rx="4" fill="#fff"/><g transform="translate(9 9.261)"><rect width="156" height="4.63" rx="2.315" fill="#dde3e9"/><rect width="104.712" height="4.63" rx="2.315" transform="translate(0 7.717)" fill="#dde3e9"/></g><g transform="translate(184.13 8.435)"><circle cx="7" cy="7" r="7" fill="#dde3e9"/><circle cx="3" cy="3" r="3" transform="translate(4 4)" fill="#f2f2f2"/></g></g></g></g><g transform="translate(425 92) rotate(180)"><g transform="translate(425 -0.798) rotate(-180)"><g transform="translate(38.024 13.84) rotate(-8)"><g transform="translate(38.515 22.058)"><path d="M27.205,6.5c4.133,7.685,3.642,27.18-1.7,28.554-2.13.548-6.668-.794-11.287-3.571l2.9,20.461H0l5.893-27.4C2.606,20.692.382,15.976.754,10.691,1.825-4.536,23.072-1.186,27.205,6.5Z" fill="#b28b67" fill-rule="evenodd"/></g><path d="M58.959,20.186A22.392,22.392,0,0,0,51.8,19.4a12.264,12.264,0,0,0,.872-6.213,18.9,18.9,0,0,0-2.02-5.617,7.682,7.682,0,0,0-1.494-2.323,5.107,5.107,0,0,0-2.418-1.3,6.484,6.484,0,0,0-2.785,0c-.4.085-.768.27-1.165.372s-.6-.149-.9-.4a5.1,5.1,0,0,0-2.654-1.027,6.859,6.859,0,0,0-3.02.361A5.913,5.913,0,0,0,33.7,4.858a4.207,4.207,0,0,0-.754,1.152c-.073.175-.085.279-.26.343s-.351.061-.518.118a6.517,6.517,0,0,0-3.75,3.391,10.728,10.728,0,0,0-.59,4.417c.057,1.841,1.724,6.646,3.282,8.4a10.478,10.478,0,0,0,5.41,3.048,15.43,15.43,0,0,0-2.827,5.259A25.684,25.684,0,0,0,32.4,37.374a20.8,20.8,0,0,0,.321,6.3,6.826,6.826,0,0,0,3.059,4.444,14.628,14.628,0,0,0,2.355,1.1A15.528,15.528,0,0,0,40.558,50a4.877,4.877,0,0,0,4.608-.983,8.634,8.634,0,0,0,1.239-1.57c.115-.2.184-.328.045-.522a3.738,3.738,0,0,0-.652-.592,6.127,6.127,0,0,1-2.173-4.06c-.194-1.667.255-3.818,1.879-4.545,2-.9,4.213.133,6,1.093a9.781,9.781,0,0,1,4.751-6.291c2.7-1.353,5.792-1.512,8.564-2.673a5.111,5.111,0,0,0,1.99-1.263,2.566,2.566,0,0,0,.572-.933,1.508,1.508,0,0,0-.4-1.172C65.793,24.636,61.3,20.9,58.959,20.186Z" fill="#191847" fill-rule="evenodd"/></g><g transform="translate(0 137.187)"><path d="M92.3,0l52.758,87.842,39.553,74.263h8.519L126.858,0Z" fill="#915b3c" fill-rule="evenodd"/><g transform="translate(177.5 140.715)"><path d="M1.66,18.4A13.363,13.363,0,0,0,.7,22.474,34.889,34.889,0,0,0,1.34,28H41.1q1.55-5.088-1.789-5.493t-5.548-.733l-18.206-8.06a1,1,0,0,0-1.319.51l-.009.021-1.072,2.582h0a12.746,12.746,0,0,1-5.024,1.432,10.389,10.389,0,0,1-3.8-1.023h0A2,2,0,0,0,1.7,18.287Q1.681,18.344,1.66,18.4Z" fill="#e4e4e4" fill-rule="evenodd"/></g><path d="M173.626,150.214l16.429-4.95q-10.8-32.147-26.467-70.753T129.93,0h-46.4a725.656,725.656,0,0,0,42.4,82.538A558.652,558.652,0,0,0,173.626,150.214Z" fill="#571563" fill-rule="evenodd"/><path d="M88.833,0C83.853,30.868,74.25,70.306,73.343,71.524Q72.437,72.741,8.087,93.3l1.84,7.482Q86.665,89.756,90.8,83.673C94.926,77.59,115.551,29.531,123.54,0Z" fill="#915b3c" fill-rule="evenodd"/><path d="M23.167,86.834l3.241,12.05q57.4,5.013,70.335-7.245T126.237,0H81.989Q71.5,65,70.262,67.731T23.167,86.834Z" fill="#7a1b8b" fill-rule="evenodd"/><g transform="translate(27.562 85.114) rotate(80)"><path d="M1.66,18.4A13.363,13.363,0,0,0,.7,22.474,34.889,34.889,0,0,0,1.34,28H41.1q1.55-5.088-1.789-5.493t-5.548-.733l-18.206-8.06a1,1,0,0,0-1.319.51l-.009.021-1.072,2.582h0a12.746,12.746,0,0,1-5.024,1.432,10.389,10.389,0,0,1-3.8-1.023h0A2,2,0,0,0,1.7,18.287Q1.681,18.344,1.66,18.4Z" fill="#e4e4e4" fill-rule="evenodd"/></g></g><g transform="translate(3.93 77.259) rotate(-8)"><path d="M48.322,52.553l15.568.058q-25.606,57.212-26.7,59.911c-1.645,4.048,1.836,10.213,3.325,13.526-4.849,2.154-4.332-5.824-10.448-3-5.583,2.579-9.83,7.252-16.28,3.3-.793-.486-1.662-2.315.438-3.745,5.231-3.561,12.769-9.794,13.787-11.846q2.083-4.2,20.313-58.206ZM180.36,39.046c-3.145,2.6-6.336,5.483-5.776,6.873s3.485.872,3.97,3.009q.485,2.137-14.241.694l-22.776,8.966L136.5,46.1l28.07-3.8a61.441,61.441,0,0,1,15.5-6.3C181.394,35.964,183.505,36.443,180.36,39.046Z" fill="#997659" fill-rule="evenodd"/><path d="M87.805,6.848l12.213-.259c5.341,26.6,23.114,42.144,59.082,33.209l7.872,34.169c-33.7,7.356-64.784-3.578-74.12-39.729C90.434,24.88,88.317,15.106,87.805,6.848Z" transform="translate(4.09 -10.945) rotate(5)" fill="#cca8d2" fill-rule="evenodd"/><path d="M84.941,0l.009.011,18.468,4.2c0,31.184,9.892,51.207,15.131,74.068l.177.78H68.85c-.7,8.012-1.134,16.248-1.359,24.706H30.145Q42.839,36.7,83.731,0h1.21Z" fill="#c5cfd6" fill-rule="evenodd"/><path d="M76.719,34.066q-1.928,29.479,2.268,44.993H68.85a241.428,241.428,0,0,1,7.785-44.7Z" fill="rgba(0,0,0,0.1)" fill-rule="evenodd"/></g></g><g transform="translate(73.688 -0.631) rotate(-7)"><g transform="translate(38.515 -22.058)"><path d="M27.205-6.5c4.133-7.685,3.642-27.18-1.7-28.554-2.13-.548-6.668.794-11.287,3.571l2.9-20.461H0l5.893,27.4C2.606-20.693.382-15.976.754-10.691,1.825,4.536,23.072,1.186,27.205-6.5Z" fill="#b28b67" fill-rule="evenodd"/></g><path d="M55.963-19.7c-2.256.369-8.331.623-9.451.623-.716,0-1.492-.163-1.916.493-.347.537-.22,1.445-.324,2.068-.12.724-.291,1.439-.464,2.151a21.843,21.843,0,0,1-2.277,5.77A17.762,17.762,0,0,1,33.106-.984,27.117,27.117,0,0,1,20.313.771C15.722.4,11.566-1.112,7.231-2.535A27.48,27.48,0,0,0-5.548-3.762C-9.9-3.1-13.19-.741-16.862,1.493a21.115,21.115,0,0,1-12.5,3.439A24.1,24.1,0,0,1-40.761.619,18.57,18.57,0,0,1-48.113-7.7c-1.608-3.89-1.607-8.16,1.038-11.6,3.833-4.983,10.95-6.272,16.871-6.144a32.3,32.3,0,0,1,10.021,1.832c4.312,1.513,8.038,4.078,12.072,6.158a31.458,31.458,0,0,0,5.9,2.356c1.99.561,3.951.818,5.753-.382a27.184,27.184,0,0,1,5.8-3.31,18.731,18.731,0,0,1,6.537-1.171c4.337.033,8.612,1.382,12.824,2.284,3.435.736,7.11,1.47,10.612.762,1.461-.3,3.6-.905,4.123-2.42C34.552-20.939,31.063-31.9,33.568-39.944c1.352-4.342,9.476-9.419,12.635-7.136,2,1.446.786,3.345,0,4.6-1.506,2.4-2.021,5.484.765,7.155,2.4,1.441,4.93-1.981,4.978-1.978.661.052,6.368,3.272,10.3,7.972,3.88-.229,4.468,2.323,3.542,4.41S59.081-20.21,55.963-19.7Z" fill="#191847" fill-rule="evenodd"/></g><g transform="translate(0 -137.985)"><path d="M147.082,6.97C133.562-4.06,138.9-101,138-102.223q-.6-.812-64.354-13.723l1.85-7.506q74.6,3.565,78.934,9.1,6.21,7.927,15.218,88.773Z" transform="matrix(0.574, 0.819, -0.819, 0.574, 4.164, -124.48)" fill="#b28b67" fill-rule="evenodd"/><path d="M147.082,6.97C133.562-4.06,138.9-101,138-102.223q-.6-.812-64.354-13.723l1.85-7.506q74.6,3.565,78.934,9.1,6.21,7.927,15.218,88.773Z" transform="matrix(0.574, 0.819, -0.819, 0.574, 4.164, -124.48)" fill="rgba(0,0,0,0.1)" fill-rule="evenodd"/><path d="M80.832-108.06l3.256-12.089c37.082-4.334,61.513.9,70.1,9.074q8.587,8.178,15.258,88.532L145.309,11.928c-32.188-24.291-12.822-104.05-13.642-105.872S111.3-97.172,80.832-108.06Z" transform="matrix(0.574, 0.819, -0.819, 0.574, 8.398, -125.914)" fill="#2f3676" fill-rule="evenodd"/><g transform="translate(143.09 -111.732) rotate(-20)"><path d="M1.66-18.4A13.363,13.363,0,0,1,.7-22.474,34.889,34.889,0,0,1,1.34-28H41.1q1.55,5.088-1.789,5.493t-5.548.733l-18.206,8.06a1,1,0,0,1-1.319-.51l-.009-.021-1.072-2.582h0a12.746,12.746,0,0,0-5.024-1.432,10.389,10.389,0,0,0-3.8,1.023h0A2,2,0,0,1,1.7-18.287Q1.681-18.344,1.66-18.4Z" fill="#e4e4e4" fill-rule="evenodd"/></g><path d="M92.3,0,55.56-87.842,19.451-162.106H27.97L121.178,0Z" fill="#b28b67" fill-rule="evenodd"/><g transform="translate(17.04 -140.715)"><path d="M1.66-18.4A13.363,13.363,0,0,1,.7-22.474,34.889,34.889,0,0,1,1.34-28H41.1q1.55,5.088-1.789,5.493t-5.548.733l-18.206,8.06a1,1,0,0,1-1.319-.51l-.009-.021-1.072-2.582h0a12.746,12.746,0,0,0-5.024-1.432,10.389,10.389,0,0,0-3.8,1.023h0A2,2,0,0,1,1.7-18.287Q1.681-18.344,1.66-18.4Z" fill="#e4e4e4" fill-rule="evenodd"/></g><path d="M22.712-146.678l18.93-3.536C56.279-128.783,117.534-40.908,124.25,0H82.107C59.679-29.572,36.664-124.893,22.712-146.678Z" fill="#5c63ab" fill-rule="evenodd"/></g><g transform="translate(24.357 -53.066) rotate(-7)"><path d="M36.619-57.883l14.568-2.87q-21.976-40.664-23.571-43.1c-2.392-3.66-.16-10.367.664-13.9-5.172-1.2-3.132,6.534-9.677,4.92-5.974-1.473-11.039-5.253-16.61-.155-.685.627-1.186,2.586,1.149,3.591,5.817,2.5,14.412,7.191,15.806,9.011Q21.8-96.667,36.619-57.883Zm144.093,21.7c-2.291-3.322-4.55-6.918-3.634-8.082s3.567.121,4.614-1.772q1.047-1.893-13.408-4.529L148.992-65.252l-8.226,10.463,25.761,11.233A60.987,60.987,0,0,0,179.6-33.376C180.856-32.978,183-32.858,180.713-36.18Z" fill="#b28b67" fill-rule="evenodd"/><path d="M87.667-6.995,93.7-5.416c14.463-11.68,22.607-42.07,31.854-45.378,8.743-3.127,20.33,1.653,34.05,7.939l5.179-9.242c-11.658-14.948-38.049-29.024-49.744-23.329C96.341-66.322,88.909-28.612,87.667-6.995Z" transform="translate(4.06 10.845) rotate(-5)" fill="#571563" fill-rule="evenodd"/><path d="M63.985-80.471h54.4c2.486,0,2.017,3.564,1.658,5.362C115.891-54.356,99.7-31.985,99.7-2.443L84.013,0C71.035-20.724,66.547-46.239,63.985-80.471Z" fill="#dde3e9" fill-rule="evenodd"/><path d="M85.833,0h3.38q21.128-71.51,11.649-95.294H51.9a176.356,176.356,0,0,0,6.662,35.84Q41.927-89.248,30.6-102.353l-11.4,2.217Q30.212-32.3,83,0Z" fill="#7a1b8b" fill-rule="evenodd"/></g></g><g transform="translate(124.465 120.816) rotate(-14)"><path d="M50.828,54.607l-.007.016s.007-.025.007-.016" fill="#c5cfd6" fill-rule="evenodd"/><path d="M50.823,54.614a.043.043,0,0,0,0,.005c0-.005.009-.02,0-.005" fill="#c5cfd6" fill-rule="evenodd"/><path d="M50.858,54.53c-.007.02-.016.039-.024.059l.012-.028c-.1.26-.038.091.012-.031" fill="#c5cfd6" fill-rule="evenodd"/><path d="M50.836,54.59l-.012.028c-.029.056.012-.028.012-.028" fill="#c5cfd6" fill-rule="evenodd"/><path d="M50.825,54.614Z" fill="#c5cfd6" fill-rule="evenodd"/><path d="M50.824,54.615v0" fill="#c5cfd6" fill-rule="evenodd"/><path d="M50.819,54.622c-.006.012.028-.046,0,0" fill="#c5cfd6" fill-rule="evenodd"/><path d="M50.824,54.615l0,0,0,0" fill="#c5cfd6" fill-rule="evenodd"/><rect width="100" height="66" rx="4" transform="translate(0.575 0.818)" fill="#571563"/><g transform="translate(9.058 20.093)"><path d="M29.312,0,.471,47H58.152Z" fill="rgba(0,0,0,0.2)" fill-rule="evenodd"/><path d="M59.047,12.589,33.551,47H84.544Z" fill="rgba(0,0,0,0.2)" fill-rule="evenodd"/></g><circle cx="9.5" cy="9.5" r="9.5" transform="translate(69.517 14.142)" fill="#fff"/></g></g></g></svg>