<?xml version="1.0" encoding="UTF-8"?>
<svg width="375px" height="375px" viewBox="0 0 375 375" version="1.1" xmlns="http://www.w3.org/2000/svg"
>
    <!-- Generator: Sketch 62 (91390) - https://sketch.com -->
    <title>Placeholder3</title>
    <desc>Created with Sketch.</desc>
    <defs>
        <linearGradient x1="0%" y1="20.6111111%" x2="100%" y2="79.3888889%" id="linearGradient-1">
            <stop stop-color="#972C86" offset="0%"></stop>
            <stop stop-color="#794997" offset="40%"></stop>
            <stop stop-color="#007180" offset="100%"></stop>
        </linearGradient>
    </defs>
    <g id="Screens-←" stroke="none" stroke-width="1" fill="none" fill-rule="evenodd">
        <g id="Empty-states" transform="translate(-419.000000, -650.000000)">
            <g id="Group-72">
                <g id="Placeholder3" transform="translate(419.000000, 650.000000)">
                    <g id="Group-56">
                        <circle id="Oval" fill="#FFFFFF" cx="187.5" cy="187.5" r="187.5"></circle>
                        <text id="Start-typing-already-Copy-2" font-family="OpenSans-SemiBold, Open Sans" font-size="18"
                              font-weight="500" line-spacing="20" letter-spacing="-0.3" fill="#972C86">
                            <tspan x="103" y="304"></tspan>
                        </text>
                        <text id="Driff-isn’t-filling-Copy-2" font-family="Helvetica" font-size="14"
                              font-weight="normal" line-spacing="24" letter-spacing="-0.0875" fill="#999999">
                            <tspan x="127.258301" y="320"></tspan>
                        </text>
                    </g>
                    <g id="Group-67" transform="translate(20.000000, 9.000000)">
                        <path d="M275.299994,245.231911 C275.299994,248.076771 226.87968,250.381911 167.149997,250.381911 C107.420314,250.381911 59,248.076771 59,245.231911 C59,242.388081 107.420314,240.081911 167.149997,240.081911 C226.87968,240.081911 275.299994,242.388081 275.299994,245.231911"
                              id="Fill-1-Copy" fill="#DEDEDE" opacity="0.5"></path>
                        <path d="M178.529733,117.501375 C178.529733,117.501375 201.562823,117.550869 206.320259,130.840772 L214.19488,151.713187 L202.471706,165.097835 L205.907001,196.776957 L134.961562,195.587682 L143.517845,120.558703 L178.529733,117.501375 Z"
                              id="Fill-85-Copy" fill="#794997"></path>
                        <path d="M171.721629,103.467787 C171.721629,103.467787 172.506961,111.813925 173.674308,115.335084 C174.593132,117.845148 178.529733,117.501516 178.529733,117.501516 C178.529733,117.501516 175.502016,130.722127 164.386657,130.722127 C153.272719,130.722127 151.554362,119.37664 151.554362,119.37664 L159.444605,118.167567 L155.799131,106.09098 L171.721629,103.467787 Z"
                              id="Fill-87-Copy" fill="#F6BCA7"></path>
                        <path d="M176.22756,84.9718011 L175.652407,68.6471968 L147.755372,81.560943 L149.327456,90.297378 C149.327456,90.297378 151.331259,111.57706 165.133504,109.045784 C180.063331,106.308048 176.892181,84.7823089 176.22756,84.9718011"
                              id="Fill-89-Copy" fill="#FECFBE"></path>
                        <path d="M214.195164,151.712904 L218.18857,165.815925 C221.101257,176.105064 219.412722,187.152172 211.555142,194.434891 L193.435702,209.567392 L187.610329,192.631888 L197.632187,182.641128 C200.922628,179.358955 201.903938,174.426503 200.117415,170.144547 L196.968986,159.465111 L214.195164,151.712904 Z"
                              id="Fill-91-Copy" fill="#FFD7C9"></path>
                        <path d="M120.362624,155.369819 L118.144381,162.229716 C114.101271,174.730539 115.798326,188.430536 124.857336,197.975848 L135.857664,209.567392 L141.533924,182.470019 L127.270137,155.369819 L120.362624,155.369819 Z"
                              id="Fill-93-Copy" fill="#FFD7C9"></path>
                        <path d="M118.145091,162.22915 L134.993515,170.623368 L141.144098,151.822639 C141.144098,151.822639 133.333382,134.074016 128.844351,133.450389 C124.206206,132.80555 118.145091,162.22915 118.145091,162.22915"
                              id="Fill-95-Copy" fill="#794997"></path>
                        <path d="M149.344923,91.219243 C166.004469,94.7163624 175.39295,76.2422953 175.39295,76.2422953 C175.39295,76.2422953 174.884543,80.0986012 176.458047,85.8059906 C182.066141,78.5614525 178.399365,69.4333062 178.399365,69.4333062 C178.399365,69.4333062 173.86631,59.4609301 153.647917,64.3481298 C130.078018,70.0442062 126.148518,102.294633 126.148518,102.294633 C126.148518,102.294633 124.42448,109.31574 130.495537,120.572137 C132.209634,123.75108 132.113065,127.668193 129.907603,130.5332 C124.863301,137.089062 126.148518,145.179244 126.148518,145.179244 C126.148518,145.179244 126.641303,149.396151 130.258375,152.156513 C133.636864,154.737283 135.001609,160.269321 133.645385,164.289665 C130.742639,172.897415 133.220766,177.797342 133.220766,177.797342 C133.220766,177.797342 134.798531,183.326552 143.434342,183.665941 C156.026635,184.158055 155.761071,174.198406 154.626387,168.588591 C154.193247,166.454683 154.754199,164.247242 156.214093,162.628074 C157.759194,160.915574 159.436368,158.240059 159.542878,154.632638 C159.629505,151.589451 158.438016,148.370913 157.100254,145.751963 C155.367695,142.35666 155.667342,138.316518 157.93529,135.250706 C161.151885,130.902286 165.302925,122.250698 162.979592,116.639469 C159.050092,107.154964 152.338558,103.990163 149.344923,91.219243"
                              id="Fill-97-Copy" fill="#343434"></path>
                        <path d="M204.14746,215.427789 L132.273255,215.427789 L132.273255,173.217713 C132.273255,171.97753 133.282968,170.97209 134.528422,170.97209 L201.892293,170.97209 C203.137747,170.97209 204.14746,171.97753 204.14746,173.217713 L204.14746,215.427789 Z"
                              id="Fill-99-Copy" fill="#FFFFFF"></path>
                        <path d="M255.599483,202.376166 C264.860152,230.091509 142.031679,242.483445 142.031679,242.483445 L139.100531,226.819235 C139.100531,226.819235 246.338815,174.660823 255.599483,202.376166"
                              id="Fill-101-Copy" fill="#1A1A1A"></path>
                        <polygon id="Fill-103-Copy" fill="#F6BCA7"
                                 points="134.611074 242.428577 116.99436 243.47644 113.658474 239.826596 115.351269 233.214169 132.003715 230.824306"></polygon>
                        <path d="M116.993934,232.978577 L99.0718918,230.824872 C99.0718918,230.824872 92.1274556,229.009141 85.931428,230.015995 L85.931428,246.213329 C90.5724132,246.747866 95.187836,246.153936 95.187836,246.153936 L116.993934,243.477006 L116.746831,243.103678 C114.741607,240.080289 114.839596,235.897321 116.993934,232.978577"
                              id="Fill-105-Copy" fill="#794997"></path>
                        <path d="M76.8170331,237.150515 C78.0198832,232.573007 81.8613352,230.656874 86.0208962,229.999308 L86.0208962,246.22351 C80.6229817,245.618267 75.1483802,243.502743 76.8170331,237.150515"
                              id="Fill-107-Copy" fill="#FFFFFF"></path>
                        <polygon id="Fill-111-Copy" fill="#FFFFFF"
                                 points="106.408 241.135364 108.201624 241.135364 108.201624 234.163751 106.408 234.163751"></polygon>
                        <polygon id="Fill-114-Copy" fill="#FFFFFF"
                                 points="101.984295 241.135364 103.776499 241.135364 103.776499 234.163751 101.984295 234.163751"></polygon>
                        <polygon id="Fill-115-Copy" fill="#794997"
                                 points="139.100247 224.439978 142.385008 244.667554 134.618316 246.153794 130.735681 226.819942"></polygon>
                        <path d="M77.0097447,202.376166 C67.7490763,230.091509 190.577549,242.483445 190.577549,242.483445 L193.510117,226.819235 C193.510117,226.819235 86.2704131,174.660823 77.0097447,202.376166"
                              id="Fill-117-Copy" fill="#343434"></path>
                        <path d="M246.737587,230.027449 C240.525938,228.99797 233.538898,230.823599 233.538898,230.823599 L215.615436,232.978718 C217.769774,235.897463 217.869183,240.08043 215.863959,243.10382 L215.615436,243.477147 L237.421534,246.154077 C237.421534,246.154077 242.07672,246.753664 246.737587,246.207814 L246.737587,230.027449 Z"
                              id="Fill-119-Copy" fill="#946DAC"></path>
                        <path d="M255.792195,237.150515 C254.589345,232.573007 250.749313,230.656874 246.589752,229.999308 L246.589752,246.22351 C251.986246,245.618267 257.462268,243.502743 255.792195,237.150515"
                              id="Fill-120-Copy" fill="#FFFFFF"></path>
                        <path d="M176.205406,85.6242762 C175.509542,87.4244512 175.92422,89.2585652 177.129911,89.7209826 C178.338441,90.1833999 179.880703,89.0987696 180.575146,87.2971804 C181.27101,85.4970053 180.856332,83.6628914 179.649221,83.200474 C178.442111,82.7380567 176.89985,83.8241011 176.205406,85.6242762"
                              id="Fill-116-Copy" fill="#FECFBE"></path>
                        <polygon id="Fill-118-Copy" fill="#FFD7C9"
                                 points="197.998296 242.428577 215.61501 243.47644 218.950896 239.826596 217.259521 233.214169 200.605655 230.824306"></polygon>
                        <polygon id="Fill-122-Copy" fill="#FFFFFF"
                                 points="224.40945 241.135364 226.201654 241.135364 226.201654 234.163751 224.40945 234.163751"></polygon>
                        <polygon id="Fill-124-Copy" fill="#FFFFFF"
                                 points="228.833155 241.135364 230.626779 241.135364 230.626779 234.163751 228.833155 234.163751"></polygon>
                        <polygon id="Fill-125-Copy" fill="#946DAC"
                                 points="193.510401 224.439978 190.22564 244.667554 197.990912 246.153794 201.874968 226.819942"></polygon>
                        <path d="M176.324364,182.135286 C176.766551,181.673332 177.476323,181.929579 177.859908,182.320536 C178.405316,182.876485 178.667618,183.700983 178.816864,184.445325 C179.066856,185.692133 179.053276,186.982731 178.913931,188.241974 C178.789236,189.368313 178.552622,190.570063 178.033505,191.603945 C178.113982,191.59512 178.193789,191.582886 178.27246,191.565905 C178.488,191.519442 178.689894,191.451587 178.825494,191.377848 C178.997685,191.284253 179.133352,191.197545 179.208209,191.131962 C179.326482,191.02814 179.435055,190.91723 179.536671,190.79743 C179.543227,190.788338 179.586108,190.733518 179.619221,190.684181 C179.651599,190.635913 179.682506,190.586576 179.711739,190.536369 C179.753884,190.464101 179.785928,190.38595 179.826266,190.31308 C180.071375,189.63499 181.161388,189.934692 180.924708,190.628559 C180.742482,191.162782 180.374283,191.654887 179.937382,192.005664 C179.282999,192.530928 178.512618,192.743655 177.72063,192.748067 C178.89152,194.80119 179.188876,197.387866 178.936007,199.699844 C178.817533,200.783598 178.594366,201.848633 178.1485,202.847551 C177.890213,203.426163 177.525827,204.030247 176.986908,204.38878 C176.520773,204.698911 175.849666,204.728059 175.636601,204.111941 C175.491101,203.691369 175.49866,203.192311 175.480999,202.752151 C175.409955,200.988302 175.465881,199.216831 175.50729,197.452914 C175.535386,196.258251 175.56957,195.063788 175.601815,193.869259 C175.083567,194.046753 174.533276,194.115345 173.979506,194.102643 C174.401356,194.996601 174.565319,196.006549 174.669878,196.979528 C174.781863,198.021566 174.811231,199.090345 174.707207,200.134321 C174.581709,201.393832 174.267696,202.630613 173.705899,203.768451 C173.405132,204.377415 172.978532,205.150302 172.339469,205.46411 C170.825667,206.207449 171.112854,203.087018 171.118005,202.405786 C171.134729,200.211871 171.229454,198.018958 171.288859,195.825912 C171.108706,195.883205 170.917516,195.910682 170.714819,195.897913 C169.969725,195.851116 169.52105,195.252113 169.26604,194.612998 C169.164892,194.930416 169.049094,195.242687 168.91296,195.546601 C168.548507,196.360001 167.907504,197.05066 166.944796,196.683235 C165.785679,196.240869 165.928704,194.858416 166.13702,193.874674 C166.224855,193.459717 166.337174,193.05071 166.44956,192.641837 C166.182242,192.821472 165.894787,192.970955 165.591946,193.081998 C165.527458,193.105597 165.460361,193.128059 165.39139,193.149185 C165.258199,193.904423 164.964992,194.648564 164.598064,195.287813 C163.996329,196.336335 163.028536,197.266528 161.793358,197.459733 C161.486972,197.5076 161.179314,197.385994 161.08974,197.060487 C161.014548,196.787058 161.183797,196.405127 161.489246,196.357394 C162.476974,196.202897 163.155439,195.525943 163.642246,194.65438 C163.871099,194.244705 164.058275,193.769046 164.178355,193.300139 C163.776775,193.265242 163.400615,193.125987 163.131223,192.819399 C162.53203,192.137298 162.739677,191.038769 163.566719,190.651557 C164.06336,190.419042 164.642149,190.403064 165.038712,190.82484 C165.309375,191.112776 165.413132,191.514629 165.450728,191.902243 C165.597566,191.834186 165.740122,191.754297 165.876725,191.659165 C166.029584,191.552802 166.204987,191.390282 166.349416,191.233779 C166.409289,191.168865 166.467087,191.101745 166.522076,191.032686 C166.518263,191.035025 166.613056,190.906267 166.627037,190.885609 C166.705239,190.770154 166.778023,190.650621 166.861911,190.503611 C167.100732,189.931149 167.963229,189.970859 167.985439,190.655501 C168.022834,191.808715 167.510741,192.960191 167.263759,194.070085 C167.212583,194.300126 167.161206,194.566402 167.144817,194.74764 C167.134581,194.861224 167.127758,194.975275 167.129297,195.089326 C167.129965,195.132981 167.150302,195.314286 167.143345,195.295367 C167.155119,195.344303 167.180205,195.434889 167.190975,195.474867 C167.199471,195.494455 167.219205,195.529687 167.276001,195.581565 C167.289246,195.590389 167.324634,195.607303 167.33701,195.614055 C167.379824,195.627961 167.440299,195.645744 167.507597,195.6422 C167.546731,195.605298 167.583993,195.567258 167.620853,195.525943 C167.645738,195.48904 167.670824,195.452538 167.694372,195.414766 C167.917405,195.057972 167.9837,194.851329 168.115419,194.452417 C168.402606,193.582994 168.586839,192.678607 168.742173,191.777495 C168.793215,191.481737 168.839441,191.18511 168.882054,190.887949 C168.898243,190.69695 168.921924,190.507288 168.958249,190.321169 C169.081205,189.691079 170.156032,189.836485 170.081777,190.473126 C170.069066,190.581562 170.054483,190.68973 170.040502,190.798032 C170.032875,190.882734 170.02545,190.967303 170.020299,191.052207 C169.981231,191.698542 169.992938,192.352097 170.062444,192.995891 C170.091075,193.26103 170.145931,193.590348 170.235639,193.912111 C170.324076,194.229062 170.353711,194.343246 170.537677,194.600163 L170.534997,194.596765 L170.527087,194.583237 C170.523797,194.573141 170.586311,194.646003 170.624694,194.687583 L170.644109,194.707863 C170.660432,194.718827 170.678963,194.729791 170.699834,194.746571 C170.709601,194.747908 170.723382,194.749913 170.801918,194.759139 C170.80921,194.759072 170.836571,194.756866 170.908819,194.745167 C170.940327,194.738415 170.970765,194.727651 171.005083,194.716353 C171.142154,194.649901 171.22049,194.588664 171.318761,194.497877 C171.363582,191.954455 171.343045,189.409963 171.427134,186.867275 C171.460783,185.849372 171.482926,184.810877 171.661339,183.805475 C171.710307,183.529639 171.779277,183.220176 171.978629,183.010258 C172.237787,182.737498 172.694289,182.723191 173.033588,182.829889 C173.904983,183.103785 174.308637,184.120686 174.505246,184.925931 C174.79551,186.114711 174.810763,187.386723 174.662051,188.596696 C174.527322,189.692483 174.290575,190.77577 173.956895,191.828236 C173.839491,192.198335 173.711719,192.572645 173.566219,192.940871 C173.599868,192.944214 173.641544,192.947757 173.702153,192.952771 C174.341483,193.00612 174.75952,192.969751 175.336235,192.757159 C175.43163,192.721994 175.532309,192.673459 175.634326,192.615564 C175.64309,192.261778 175.651987,191.908059 175.659747,191.554206 C175.714937,189.008443 175.709986,186.44677 175.917165,183.907359 C175.959711,183.386106 175.92934,182.548036 176.324364,182.135286 Z M172.91871,194.501921 C172.87212,194.584123 172.824387,194.665458 172.77455,194.744925 C172.707881,194.85108 172.636282,194.957636 172.559813,195.061323 C172.547309,195.823496 172.532099,196.585602 172.511539,197.347908 C172.458336,199.312622 172.378321,201.280006 172.393711,203.245988 C172.395815,203.510476 172.400263,203.775165 172.411265,204.039453 C173.372411,202.512439 173.635001,200.51403 173.614441,198.695838 C173.60392,197.757651 173.539836,196.812859 173.354857,195.89569 C173.273699,195.493219 173.17637,195.081674 173.015498,194.708361 C172.98556,194.638902 172.953037,194.569511 172.91871,194.501921 Z M176.814024,193.271272 C176.775608,195.043239 176.74212,196.815207 176.710149,198.586173 C176.683295,200.075168 176.639698,201.575462 176.725502,203.063254 C176.726577,203.080969 176.72784,203.098684 176.728914,203.116466 L176.728914,203.116466 L176.756463,203.082173 C176.767899,203.065193 176.807074,203.010042 176.818826,202.991592 C177.754271,201.523654 177.952039,199.456881 177.887591,197.716399 C177.847532,196.635183 177.652418,195.556172 177.32506,194.531376 C177.190477,194.109692 177.029167,193.671363 176.814024,193.271272 Z M152.74897,186.262498 C155.506652,186.027441 158.780403,186.32487 160.798566,188.477353 C162.224771,189.998407 162.602238,192.078145 162.057711,194.070244 C161.365227,196.603472 159.247658,198.304858 156.877917,199.16403 C156.064881,199.458732 155.198749,199.672577 154.333869,199.723645 C154.0954,199.737808 153.832557,199.742795 153.602849,199.669186 C153.211153,199.543645 153.117609,199.215164 153.127688,198.842597 C153.218728,195.491158 153.30048,192.137923 153.256146,188.785088 C153.246462,188.051923 154.373,188.053984 154.382617,188.785088 C154.388941,189.257662 154.392499,189.730302 154.393684,190.202876 C154.398362,192.065976 154.371748,193.929077 154.331761,195.791711 C154.316808,196.486708 154.299746,197.181572 154.281037,197.876503 C154.274647,198.111028 154.278666,198.350606 154.272869,198.588456 C154.298231,198.587459 154.323527,198.587326 154.348889,198.58573 C154.424185,198.581009 154.499415,198.574293 154.574447,198.566314 L154.574447,198.566314 L154.692628,198.552549 L154.692628,198.552549 C155.08933,198.487917 155.478391,198.40686 155.86317,198.29801 C156.087015,198.234707 156.308686,198.163891 156.527854,198.08576 C156.767048,198.000515 156.981803,197.914272 157.138455,197.84412 C159.222098,196.910675 160.906865,195.233958 161.150275,192.841165 C161.175374,192.594273 161.190657,192.345252 161.184201,192.096963 C161.181961,192.012382 161.177284,191.927935 161.170301,191.84362 C161.167403,191.80891 161.152186,191.692944 161.149221,191.663088 C161.091909,191.318648 161.001396,190.988305 160.882557,190.659558 C160.876365,190.642414 160.871823,190.629865 160.868548,190.620842 L160.866417,190.616337 C160.866835,190.617312 160.864639,190.61101 160.862902,190.605984 L160.83567,190.546526 L160.83567,190.546526 L160.804033,190.477165 C160.763256,190.389991 160.719976,190.30408 160.674258,190.2195 C160.575709,190.037106 160.465828,189.860963 160.345474,189.692334 C160.334209,189.676575 160.290995,189.618858 160.275119,189.597247 C160.257991,189.576435 160.212603,189.520181 160.198703,189.503491 C160.129863,189.421104 160.058454,189.340979 159.984739,189.263114 C159.824135,189.093488 159.652134,188.93563 159.471503,188.78788 C159.406418,188.734618 159.485468,188.795328 159.392782,188.727038 C159.34074,188.688671 159.288435,188.650703 159.235273,188.613932 C159.133759,188.543514 159.029939,188.476488 158.924275,188.412521 C158.691075,188.271287 158.448719,188.145148 158.199907,188.034368 C157.713878,187.81793 157.049391,187.630616 156.469752,187.519969 C154.801322,187.201396 153.049165,187.30905 151.380208,187.562991 C151.0783,187.608939 150.775932,187.490978 150.687395,187.165888 C150.61368,186.895124 150.779752,186.512317 151.080738,186.466502 C151.634751,186.382254 152.190675,186.310042 152.74897,186.262498 Z M180.958115,194.194259 C181.296056,194.194259 181.569997,194.469741 181.569997,194.809583 C181.569997,195.149426 181.296056,195.424908 180.958115,195.424908 C180.620237,195.424908 180.346234,195.149426 180.346234,194.809583 C180.346234,194.469741 180.620237,194.194259 180.958115,194.194259 Z M172.727752,184.041402 C172.657612,184.320846 172.650977,184.467838 172.618459,184.792237 C172.570338,185.272539 172.541975,185.754449 172.518863,186.236291 C172.458857,187.485652 172.438879,188.736621 172.423422,189.987053 C172.412486,190.876908 172.40308,191.766494 172.391779,192.655947 C173.178196,190.871481 173.663855,188.887029 173.611724,186.95718 C173.587372,186.057945 173.483401,185.045218 172.950276,184.269996 C172.864825,184.145716 172.920164,184.218944 172.817287,184.117309 C172.792351,184.092587 172.764208,184.068871 172.734825,184.04569 C172.732856,184.044551 172.730304,184.04301 172.727752,184.041402 Z M164.28788,191.73296 C164.183683,191.73296 164.131383,191.901501 164.131383,192.042632 C164.131383,192.183763 164.196954,192.33837 164.28788,192.347853 C164.378807,192.357336 164.437324,192.208789 164.437324,192.067659 C164.437324,191.926528 164.392078,191.73296 164.28788,191.73296 Z M177.071539,183.426077 C177.070034,183.435269 177.06838,183.444527 177.066875,183.453719 C177.072968,183.419435 177.053713,183.542415 177.049727,183.573009 C177.039273,183.653117 177.029871,183.733292 177.021071,183.813601 C176.92292,184.710087 176.886443,185.612611 176.850567,186.512518 C176.781221,188.251212 176.724512,189.991247 176.674947,191.731618 C176.677128,191.732021 176.679234,191.73249 176.681415,191.73296 C177.06334,191.191124 177.309584,190.577364 177.485805,189.959513 C177.797031,188.868661 177.912781,187.72474 177.897363,186.601013 C177.885329,185.727942 177.761907,184.709953 177.403297,183.959057 C177.336058,183.818097 177.255657,183.680356 177.164801,183.550399 C177.135393,183.508198 177.104105,183.466668 177.071539,183.426077 Z M169.638314,188.041012 C169.976192,188.041012 170.250195,188.316494 170.250195,188.656337 C170.250195,188.996179 169.976192,189.271661 169.638314,189.271661 C169.300373,189.271661 169.026433,188.996179 169.026433,188.656337 C169.026433,188.316494 169.300373,188.041012 169.638314,188.041012 Z"
                              id="Combined-Shape-Copy" fill="url(#linearGradient-1)"></path>
                        <g id="Group-50"
                           transform="translate(284.061369, 35.171886) scale(-1, 1) rotate(-11.000000) translate(-284.061369, -35.171886) translate(264.561369, 20.671886)">
                            <polygon id="Fill-3" fill="#338D99"
                                     points="33.7039651 13.6857754 35.4191211 23.1954386 27.2305036 18.5409943 0.0005414857 0.000542634131"></polygon>
                            <polygon id="Fill-5" fill="#007180"
                                     points="35.4185796 23.1950316 20.8796886 18.2814795 27.2299621 18.5405873"></polygon>
                            <polygon id="Fill-7" fill="#7FB8BF"
                                     points="33.7039651 13.6857754 38.7248913 6.43482685 0.0005414857 0.000542634131"></polygon>
                            <polygon id="Fill-9" fill="#7FB8BF"
                                     points="-3.95752753e-12 7.86748422e-14 27.2299621 18.5404517 19.2768909 28.7786012"></polygon>
                        </g>
                        <g id="Group-49">
                            <polygon id="Fill-26" fill="#CB95C2"
                                     transform="translate(19.564410, 2.631275) scale(-1, 1) translate(-19.564410, -2.631275) "
                                     points="39.1288202 3.42418809 16.8845951 -5.26023654e-13 6.7503173 1.58310996 1.3905321e-12 5.26255076"></polygon>
                            <polyline id="Fill-29" fill="#972C86"
                                      transform="translate(19.564410, 5.337226) scale(-1, 1) translate(-19.564410, -5.337226) "
                                      points="39.1288202 3.42418809 1.22683801 7.25026343 1.3905321e-12 5.26255076"></polyline>
                            <polygon id="Fill-31" fill="#AC569E"
                                     transform="translate(18.397695, 10.971930) scale(-1, 1) translate(-18.397695, -10.971930) "
                                     points="0.0872057039 13.5726561 0.158974373 13.6296806 3.58626687 18.4849132 36.7081848 3.4589459"></polygon>
                            <polygon id="Fill-33" fill="#CB95C2"
                                     transform="translate(22.362982, 8.848851) scale(-1, 1) translate(-22.362982, -8.848851) "
                                     points="0.24739879 12.8487159 3.71666918 7.00777335 44.4785651 3.44917027 12.2232877 14.2485327"></polygon>
                            <path d="M54.97583,136.998208 C55.2507175,137.249388 55.2710294,137.677072 55.019162,137.95269 C53.8803422,139.204515 52.6494418,140.380307 51.3630223,141.44748 C50.8958489,141.834433 50.4219048,142.207808 49.9411901,142.568963 C49.7651538,142.703378 49.5444313,142.735963 49.348083,142.677581 C49.2126704,142.638207 49.0880909,142.555386 48.9987186,142.434548 C48.7752878,142.135848 48.8362235,141.713595 49.1314229,141.48957 C49.5972422,141.140634 50.0535826,140.778121 50.5045065,140.406103 C51.7421775,139.379662 52.9270376,138.248675 54.0252337,137.041655 C54.2757469,136.766037 54.6995883,136.748386 54.97583,136.998208 Z M60.8031751,127.951807 C61.1389983,128.112019 61.2825357,128.515264 61.1186864,128.85198 C60.1369452,130.917084 58.9602099,132.903439 57.6196253,134.754021 C57.4476513,134.991623 57.1497436,135.083948 56.884335,135.0052 C56.8125663,134.984834 56.7421517,134.950891 56.6771537,134.903371 C56.3778919,134.684777 56.3101856,134.262523 56.529554,133.961108 C57.8200359,132.177054 58.9575016,130.261301 59.9053897,128.269515 C60.0651765,127.932799 60.4632895,127.782091 60.8031751,127.951807 Z M63.7657316,117.59873 C64.124575,117.655754 64.3899836,117.997902 64.3344645,118.367203 C64.0934301,120.000549 63.7305244,121.644757 63.2606427,123.252306 C63.0859605,123.852421 62.8950287,124.447106 62.6892016,125.03636 C62.5713926,125.378507 62.2057787,125.564516 61.8631848,125.462686 C61.853706,125.459971 61.8428729,125.455897 61.8320399,125.453182 C61.4799672,125.330986 61.2958061,124.945392 61.4176774,124.592383 C61.6140257,124.023495 61.7995409,123.450534 61.9688066,122.872142 C62.4210847,121.324333 62.7677409,119.741223 63.0006505,118.168975 C63.0548156,117.799673 63.3974094,117.544421 63.7657316,117.59873 Z M64.4528151,107.422428 C64.710099,109.85276 64.7927007,112.090295 64.7087449,114.259943 C64.6965577,114.633318 64.3810464,114.923871 64.0100159,114.908936 C63.9531426,114.907579 63.8989776,114.898075 63.8461667,114.881782 C63.5577379,114.797603 63.3519108,114.523342 63.3627438,114.208349 C63.4439913,112.102514 63.3613897,109.930151 63.1135846,107.56499 C63.074315,107.19433 63.343786,106.861687 63.7121083,106.822313 C64.0804305,106.784297 64.4148996,107.053127 64.4528151,107.422428 Z M62.5426852,96.7095532 C63.1357923,99.2919504 63.5650502,101.408647 63.8941028,103.367848 C63.9550384,103.735792 63.7072334,104.084728 63.3402653,104.145825 C63.2359976,104.163476 63.133084,104.155329 63.0396494,104.128175 C62.798615,104.057573 62.6090373,103.855272 62.5629971,103.591873 C62.2407151,101.659827 61.8182279,99.5689268 61.2305372,97.0109687 C61.1452273,96.6484555 61.3727205,96.2859423 61.7342721,96.2017632 C62.1012402,96.1189419 62.4587294,96.3429669 62.5426852,96.7095532 Z M60.0498749,86.1959924 C60.4764246,88.1103878 60.9395356,90.0179945 61.4026466,91.9256013 L61.6030573,92.7565304 C61.6924296,93.1204013 61.4703529,93.4842722 61.1088013,93.5725244 C60.9882841,93.6010367 60.8691211,93.5969635 60.7594369,93.5643781 C60.5373602,93.4992072 60.351845,93.3186295 60.2949717,93.0755963 L60.0918528,92.2446672 C59.6287418,90.3302718 59.1629225,88.413161 58.7350187,86.4919769 C58.6537712,86.128106 58.8826185,85.7655928 59.2455242,85.6841292 C59.609784,85.605381 59.9672732,85.8307638 60.0498749,86.1959924 Z M58.2880218,75.6327387 C58.473537,77.6815491 58.7809236,79.8471241 59.2318475,82.251659 C59.3022621,82.6182453 59.0598735,82.9698967 58.6956137,83.0404985 C58.5872836,83.0595067 58.4816618,83.0540758 58.3801024,83.0242058 C58.1471927,82.9549617 57.956261,82.759449 57.9088666,82.5014808 C57.4484638,80.0534986 57.1343066,77.8458341 56.9474372,75.7549342 C56.9135841,75.3829169 57.1871175,75.0543469 57.5567938,75.0204037 C57.9264702,74.9905337 58.2568769,75.2607215 58.2880218,75.6327387 Z M57.9201058,64.240321 C58.2843657,64.2878415 58.5497743,64.6272733 58.5023799,64.9979328 C58.2153052,67.2096705 58.0771844,69.4458473 58.0907257,71.6412922 C58.0934339,72.0146672 57.7941721,72.3187981 57.4217875,72.3215135 C57.3540812,72.3215135 57.2890832,72.3120094 57.2281475,72.294359 C56.9505517,72.2128954 56.7447246,71.9562849 56.7433705,71.6507963 C56.7284751,69.3942536 56.8706583,67.0956214 57.1658577,64.822786 C57.2132521,64.4534842 57.5517836,64.1928006 57.9201058,64.240321 Z M60.5462975,53.7771319 C60.8983702,53.900685 61.0838854,54.2849219 60.96066,54.6365732 C60.6695229,55.4756486 60.4000519,56.320155 60.1495386,57.17145 C59.7744457,58.4545022 59.4467473,59.7619935 59.1732139,61.0559076 C59.0960287,61.4211362 58.7371853,61.6546653 58.3742796,61.5772748 L58.324177,61.5650553 L58.324177,61.5650553 C57.991062,61.4659412 57.7811725,61.1237939 57.8556494,60.7775735 C58.1345993,59.4483585 58.4717767,58.1082817 58.8577025,56.7899286 C59.1136323,55.9182677 59.389874,55.0520377 59.6904899,54.1925964 C59.8110071,53.840945 60.1617257,53.6250664 60.5462975,53.7771319 Z M65.1932511,44.0434495 C65.5141789,44.2321736 65.6211549,44.6462804 65.4329314,44.9680618 C64.3090069,46.8838149 63.2934125,48.8837471 62.4145849,50.9108339 C62.2778182,51.2271843 61.9284537,51.3846807 61.60888,51.2909975 C61.5804434,51.2814934 61.554715,51.2733471 61.5276325,51.2611275 C61.1863927,51.1131353 61.0306683,50.7153212 61.178268,50.3731739 C62.0787617,48.2958512 63.1200844,46.2456831 64.2710914,44.2837673 C64.4593149,43.9619859 64.8709691,43.8506523 65.1932511,44.0434495 Z M71.6307653,35.3949986 C71.9083611,35.6434627 71.9340895,36.069789 71.6862845,36.3494809 C70.2224744,37.9991194 68.8412661,39.7628071 67.5792208,41.5930234 C67.4099551,41.8401298 67.1066309,41.9365284 66.8358057,41.8577802 C66.7680994,41.8374143 66.7044555,41.8075443 66.6421657,41.7640971 C66.3361333,41.5536493 66.2589481,41.1327539 66.4715459,40.8259075 C67.7633819,38.9508862 69.1797976,37.1410358 70.680169,35.4506654 C70.9293281,35.1723313 71.3518154,35.14925 71.6307653,35.3949986 Z M79.6488152,28.1987727 C79.8708919,28.4974727 79.8086021,28.9210836 79.5106944,29.1437509 C77.7503308,30.4580308 76.0481946,31.9094413 74.4476179,33.4599658 C74.2675191,33.6351126 74.0156517,33.6880639 73.7908669,33.622893 C73.6811827,33.5903076 73.5796232,33.5305676 73.4956674,33.443673 C73.2356753,33.1762008 73.2438,32.7485167 73.5119169,32.4891908 C75.1531174,30.8979345 76.9012939,29.4085077 78.7063436,28.0602845 C79.0069596,27.8376173 79.4280927,27.9000727 79.6488152,28.1987727 Z M88.9882211,22.8443038 C89.1439456,23.1837356 88.9949917,23.5856229 88.6551062,23.7404038 C87.953669,24.0594697 87.2590024,24.3948283 86.5683982,24.7464797 C85.2914576,25.396831 84.0226417,26.1177842 82.8012202,26.8862578 C82.6319544,26.9935183 82.4328979,27.0152419 82.2541533,26.9636483 C82.099783,26.9174855 81.9643704,26.8197292 81.8722898,26.6744523 C81.6759416,26.3581019 81.7693763,25.9399219 82.0862417,25.7430515 C83.3415164,24.9514965 84.6455396,24.2115351 85.9590416,23.5421756 C86.6645412,23.1823779 87.3781655,22.8388729 88.0972063,22.5103029 C88.4343836,22.3568797 88.8352049,22.504872 88.9882211,22.8443038 Z M99.1650184,19.3161138 C99.2638696,19.6759115 99.0539801,20.0465711 98.6937826,20.1456852 C96.4648915,20.7607356 94.3280809,21.4531765 92.3442866,22.2026419 C92.2021034,22.256951 92.0545037,22.2596665 91.9177369,22.2189347 C91.7213887,22.1619101 91.5534771,22.0152756 91.4762919,21.8102588 C91.3449417,21.4599651 91.5209781,21.0702974 91.8703425,20.9385979 C93.8920524,20.1741974 96.0681326,19.469537 98.3362934,18.8436247 C98.6951368,18.7431529 99.0675214,18.9549584 99.1650184,19.3161138 Z M109.708513,17.0869973 C109.770803,17.4535836 109.525706,17.8025195 109.158738,17.8663327 C106.776831,18.2736509 104.627833,18.6999772 102.587165,19.1670354 C102.47071,19.1941899 102.354256,19.188759 102.24728,19.1561736 C102.021141,19.0910027 101.835625,18.9063517 101.778752,18.6592454 C101.69615,18.2953745 101.922289,17.9328613 102.286549,17.85004 C104.351591,17.3775509 106.526317,16.9457936 108.931245,16.5344023 C109.298213,16.4719468 109.643515,16.7190532 109.708513,17.0869973 Z"
                                  id="Combined-Shape" fill="#DEDEDE"
                                  transform="translate(79.291014, 79.615041) scale(-1, 1) translate(-79.291014, -79.615041) "></path>
                        </g>
                        <path d="M226.027632,51.8318325 C224.331428,50.3300925 221.98138,49.3736999 219.742337,49.2760257 C219.337576,49.2583901 219.023514,48.915174 219.041113,48.509555 C219.060065,48.1025794 219.402554,47.7919214 219.805961,47.8068438 C222.4078,47.920797 225.031298,48.987073 226.999599,50.7316418 C227.302831,51.0002457 227.331259,51.4641979 227.063223,51.7694296 C226.950865,51.8969486 226.800603,51.9756305 226.644925,52.0041188 C226.432392,52.0434598 226.203615,51.9878398 226.027632,51.8318325 M211.877257,56.3411221 C211.472496,56.3221299 211.159788,55.9775572 211.17874,55.5719382 C211.277561,53.4217505 212.060008,51.5401666 213.435382,50.1320311 C213.933549,49.621955 214.504816,49.1864911 215.128878,48.8378487 C215.482198,48.6384306 215.930277,48.7673062 216.127919,49.1227316 C216.324208,49.4768004 216.196959,49.9244735 215.843639,50.122535 C215.340058,50.4019915 214.883856,50.7519906 214.483157,51.1603227 C213.34739,52.3229164 212.728743,53.8300827 212.643459,55.6411241 C212.627214,55.9897665 212.371362,56.2692231 212.04241,56.3289128 C211.988261,56.3397655 211.932759,56.3438353 211.877257,56.3411221 M253.307681,50.0167213 C252.904274,50.0316437 252.563138,49.7155594 252.546894,49.3099404 C252.504929,48.2165326 252.385802,47.1204116 252.192221,46.0514224 C251.959382,44.7585966 251.614185,43.4901893 251.168813,42.2801152 C251.02938,41.8989147 251.222961,41.4770167 251.603355,41.3372884 C251.986456,41.1934903 252.404754,41.3888386 252.54554,41.7713957 C253.01934,43.0601517 253.38755,44.4126673 253.636634,45.7896014 C253.841045,46.9250633 253.968294,48.0903701 254.012966,49.2529638 C254.027857,49.6233116 253.765237,49.9407525 253.411917,50.004512 C253.378074,50.011295 253.344232,50.0153647 253.307681,50.0167213 M231.418122,61.7728898 C230.612662,58.9701845 229.743577,56.8511982 228.686327,55.1025597 C228.476501,54.7552739 228.587505,54.3021744 228.932703,54.0932602 C229.2779,53.8843461 229.73004,53.9942295 229.94122,54.3401588 C231.06751,56.2027504 231.983974,58.4356899 232.828692,61.3659142 C232.939697,61.7552542 232.716334,62.1622298 232.326464,62.2761829 C232.303451,62.2829658 232.27773,62.2883922 232.254717,62.2924619 C231.887861,62.3589346 231.525065,62.1391678 231.418122,61.7728898 M216.098138,66.6701628 C215.617569,66.2075672 215.15866,65.7191965 214.734948,65.2172599 C213.505775,63.7657136 212.525686,62.0374239 211.902977,60.2223127 C211.771667,59.8383991 211.974724,59.4192142 212.356472,59.2876254 C212.738219,59.1560367 213.15787,59.3595245 213.289181,59.7434381 C213.855033,61.3876195 214.741716,62.953119 215.853115,64.2676502 C216.244339,64.7302458 216.669405,65.1819887 217.113423,65.6106697 C217.405826,65.8914828 217.415302,66.3567916 217.135083,66.6484574 C217.024078,66.7651238 216.883292,66.8370228 216.737091,66.8641545 C216.513728,66.9034955 216.274121,66.839736 216.098138,66.6701628 M250.532567,61.4418829 C250.171125,61.2614571 250.024924,60.8192103 250.204968,60.4556454 C251.260865,58.3488684 251.974273,56.0480997 252.323531,53.6198119 C252.380387,53.2182627 252.752658,52.9374495 253.153358,52.9971393 C253.554057,53.0554724 253.831569,53.4285334 253.774713,53.8300827 C253.402441,56.4157343 252.643008,58.867084 251.516717,61.1149459 C251.409774,61.3292864 251.210778,61.4690147 250.990123,61.5083556 C250.83986,61.5354873 250.680122,61.5164951 250.532567,61.4418829 M226.86152,72.22131 C224.298939,71.6827456 221.908279,70.7561978 219.757227,69.4647286 C219.409323,69.2544578 219.295611,68.8040715 219.505437,68.4554291 C219.713909,68.1054301 220.164695,67.9941901 220.511246,68.2031042 C222.521512,69.4104652 224.759202,70.2786798 227.162044,70.7819729 C227.558683,70.8660812 227.811827,71.2554212 227.729251,71.6529007 C227.66698,71.9540627 227.427372,72.1738295 227.141739,72.2253797 C227.052393,72.2416587 226.957633,72.2403022 226.86152,72.22131 M242.178796,69.6220925 C241.981154,69.2680237 242.109757,68.8203505 242.46443,68.6236457 C243.762642,67.8992291 244.960679,67.0364408 246.024699,66.0542731 C246.690726,65.4438097 247.318849,64.7736565 247.892824,64.0628058 C248.147323,63.748078 248.608939,63.6965278 248.924355,63.954279 C249.238416,64.209317 249.28715,64.6719126 249.031298,64.987997 C248.412651,65.7544677 247.73444,66.4775277 247.018325,67.1368282 C245.869022,68.1963213 244.574871,69.1282954 243.17513,69.908332 C243.103383,69.9490295 243.027575,69.9748047 242.950414,69.9883705 C242.649889,70.0426339 242.335827,69.9042622 242.178796,69.6220925 M234.855202,73.8777006 C234.45721,73.9441733 234.07817,73.6742128 234.010485,73.2740202 C233.976642,73.0705324 233.942799,72.865688 233.906249,72.6622002 C233.077776,72.7300295 232.243888,72.7558046 231.408646,72.7395256 C231.003885,72.7300295 230.681701,72.3949529 230.689824,71.9879773 C230.697946,71.5837149 231.025545,71.2635607 231.438428,71.2689871 C232.173494,71.2839095 232.908561,71.2649173 233.640921,71.2092973 C233.33092,69.5895344 232.96271,67.8924462 232.524106,66.0529165 C232.429346,65.6581501 232.671661,65.2620272 233.065592,65.1684228 C233.454108,65.0734619 233.856161,65.3162906 233.950921,65.711057 C234.404416,67.6184159 234.786163,69.3738374 235.104286,71.0519334 C236.264419,70.8891432 237.415076,70.6354617 238.519707,70.2963154 C238.909577,70.1742227 239.317045,70.3980593 239.434818,70.7846861 C239.553945,71.1726695 239.335997,71.5837149 238.948834,71.7030944 C237.788701,72.0585197 236.583895,72.3244104 235.366906,72.49941 C235.398042,72.6771226 235.427824,72.8548353 235.458959,73.0311914 C235.523937,73.4273143 235.259963,73.804445 234.864678,73.8763441 C234.861971,73.8763441 234.85791,73.8763441 234.855202,73.8777006 M235.614636,85.7166208 C235.209876,85.7016984 234.893106,85.362552 234.906644,84.956933 C234.979744,82.667017 234.880923,80.2061712 234.61018,77.6422249 C234.568215,77.2393191 234.875508,76.8703279 235.26267,76.8350567 C235.664724,76.7916459 236.027519,77.0846684 236.069484,77.4889308 C236.346995,80.1193497 236.448524,82.6466682 236.371362,85.0044135 C236.360533,85.3571257 236.101973,85.6433652 235.76896,85.7044115 C235.720226,85.7125511 235.667431,85.7166208 235.614636,85.7166208 M233.21044,97.2910068 C232.8314,97.1472088 232.64188,96.7225976 232.78402,96.3427537 L232.899085,96.0320956 C233.654458,93.9253186 234.20542,91.6638909 234.535726,89.3115719 C234.592582,88.9100227 234.964853,88.6278529 235.364199,88.6875427 C235.764898,88.7431627 236.045117,89.1148671 235.988261,89.5177729 C235.644418,91.967766 235.069089,94.3282245 234.279874,96.5299625 L234.156686,96.865039 C234.061926,97.1146507 233.845332,97.2828673 233.600309,97.3276346 C233.474414,97.3506966 233.339042,97.3398439 233.21044,97.2910068 M226.426977,106.920049 C226.146759,106.627027 226.157588,106.163075 226.449991,105.882262 C228.190867,104.216375 229.69349,102.317155 230.917248,100.240223 C231.124366,99.8915809 231.575153,99.7762711 231.921704,99.9811155 C232.270962,100.188673 232.387381,100.640416 232.181617,100.989058 C230.88882,103.182657 229.300913,105.184977 227.463923,106.944468 C227.355625,107.048925 227.225669,107.112685 227.08759,107.137103 C226.853397,107.179157 226.60296,107.105902 226.426977,106.920049 M216.057526,112.406081 C215.960059,112.012671 216.199666,111.615191 216.593597,111.517517 C218.821811,110.966744 221.005352,109.981863 223.087364,108.590006 C223.423086,108.368883 223.879287,108.455704 224.104004,108.79485 C224.32872,109.13264 224.238022,109.588453 223.9023,109.815003 C221.678148,111.299107 219.33893,112.353174 216.945563,112.944645 C216.929318,112.948715 216.915781,112.951428 216.899537,112.954141 C216.52185,113.02197 216.150933,112.784568 216.057526,112.406081"
                              id="Fill-13" fill="#DEDEDE"
                              transform="translate(232.595746, 77.127840) scale(-1, 1) rotate(-62.000000) translate(-232.595746, -77.127840) "></path>
                    </g>
                </g>
            </g>
        </g>
    </g>
</svg>