<?xml version="1.0" encoding="UTF-8"?>
<svg width="48px" height="48px" viewBox="0 0 48 48" version="1.1" xmlns="http://www.w3.org/2000/svg"
>
    <!-- Generator: Sketch 62 (91390) - https://sketch.com -->
    <title>_icon/archive/l/active</title>
    <desc>Created with Sketch.</desc>
    <defs>
        <linearGradient x1="0%" y1="7.77940102%" x2="100%" y2="92.220599%" id="linearGradient-1">
            <stop stop-color="#972C86" offset="0%"></stop>
            <stop stop-color="#794997" offset="40%"></stop>
            <stop stop-color="#007180" offset="100%"></stop>
        </linearGradient>
    </defs>
    <g id="_icon/archive/l/active" stroke="none" stroke-width="1" fill="none" fill-rule="evenodd">
        <path d="M39,20.5 C39.7796961,20.5 40.4204487,21.0948881 40.4931334,21.85554 L40.5,22 L40.5,37.4285714 C40.5,39.5999931 38.8250623,41.3885867 36.7004613,41.4949924 L36.5,41.5 L11.5,41.5 C9.3484916,41.5 7.6083567,39.777207 7.50486965,37.630981 L7.5,37.4285714 L7.5,22 C7.5,21.1715729 8.17157288,20.5 9,20.5 C9.77969612,20.5 10.4204487,21.0948881 10.4931334,21.85554 L10.5,22 L10.5,37.4285714 C10.5,37.9895449 10.8983759,38.4367012 11.3927122,38.4938289 L11.5,38.5 L36.5,38.5 C37.006502,38.5 37.4386447,38.0902419 37.4940126,37.5469373 L37.5,37.4285714 L37.5,22 C37.5,21.1715729 38.1715729,20.5 39,20.5 Z M29.5,22 C30.8807119,22 32,23.1192881 32,24.5 C32,25.8807119 30.8807119,27 29.5,27 L18.5,27 C17.1192881,27 16,25.8807119 16,24.5 C16,23.1192881 17.1192881,22 18.5,22 L29.5,22 Z M38.6,7.5 C40.7539105,7.5 42.5,9.24608948 42.5,11.4 L42.5,11.4 L42.5,14.6 C42.5,16.7539105 40.7539105,18.5 38.6,18.5 L38.6,18.5 L9.4,18.5 C7.24608948,18.5 5.5,16.7539105 5.5,14.6 L5.5,14.6 L5.5,11.4 C5.5,9.24608948 7.24608948,7.5 9.4,7.5 L9.4,7.5 Z M38.6,10.5 L9.4,10.5 C8.90294373,10.5 8.5,10.9029437 8.5,11.4 L8.5,11.4 L8.5,14.6 C8.5,15.0970563 8.90294373,15.5 9.4,15.5 L9.4,15.5 L38.6,15.5 C39.0970563,15.5 39.5,15.0970563 39.5,14.6 L39.5,14.6 L39.5,11.4 C39.5,10.9029437 39.0970563,10.5 38.6,10.5 L38.6,10.5 Z"
              id="Combined-Shape" fill="url(#linearGradient-1)" fill-rule="nonzero"></path>
    </g>
</svg>