<?xml version="1.0" encoding="UTF-8"?>
<svg width="48px" height="48px" viewBox="0 0 48 48" version="1.1" xmlns="http://www.w3.org/2000/svg"
>
    <!-- Generator: Sketch 54.1 (76490) - https://sketchapp.com -->
    <title>_icon/post/l/white</title>
    <desc>Created with Sketch.</desc>
    <g id="_icon/post/l/white" stroke="none" stroke-width="1" fill="none" fill-rule="evenodd">
        <path d="M15.1666667,20.0003 C14.2461921,20.0003 13.5,19.3287271 13.5,18.5003 C13.5,17.6718729 14.2461921,17.0003 15.1666667,17.0003 L31.8333333,17.0003 C32.7538079,17.0003 33.5,17.6718729 33.5,18.5003 C33.5,19.3287271 32.7538079,20.0003 31.8333333,20.0003 L15.1666667,20.0003 Z M14.75,26.0003 C14.0596441,26.0003 13.5,25.3287271 13.5,24.5003 C13.5,23.6718729 14.0596441,23.0003 14.75,23.0003 L27.25,23.0003 C27.9403559,23.0003 28.5,23.6718729 28.5,24.5003 C28.5,25.3287271 27.9403559,26.0003 27.25,26.0003 L14.75,26.0003 Z M26.6459296,34.2146973 C27.1710038,33.0764115 28.3097064,32.348 29.563,32.348 L36.9199982,32.348 C37.984571,32.348 38.8499985,31.4855729 38.8499985,30.421 L38.8499985,27.423 C38.8499985,26.5945729 39.5215713,25.923 40.3499985,25.923 C41.1784256,25.923 41.8499985,26.5945729 41.8499985,27.423 L41.8499985,30.421 C41.8499985,33.1424271 39.6414253,35.348 36.9199982,35.348 L29.563,35.348 C29.4798417,35.348 29.404807,35.3959986 29.3334817,35.5452095 L25.7484817,42.3122095 C25.1849471,43.3759302 23.6610529,43.3759302 23.0975183,42.3122095 L19.4759296,35.4713027 C19.4413877,35.3964206 19.3656232,35.348 19.282,35.348 L10.9300003,35.348 C8.20779546,35.348 6,33.1426494 6,30.421 L6,12.427 C6,9.70462833 8.20751759,7.5 10.9300003,7.5 L36.9199982,7.5 C39.6417031,7.5 41.8499985,9.70485057 41.8499985,12.427 L41.8499985,20.569 C41.8499985,21.3974271 41.1784256,22.069 40.3499985,22.069 C39.5215713,22.069 38.8499985,21.3974271 38.8499985,20.569 L38.8499985,12.427 C38.8499985,11.3618402 37.9849842,10.5 36.9199982,10.5 L10.9300003,10.5 C9.86410116,10.5 9,11.3617534 9,12.427 L9,30.421 C9,31.4856598 9.86451436,32.348 10.9300003,32.348 L19.282,32.348 C20.5352676,32.348 21.6749848,33.0763867 22.1634817,34.1407905 L24.4234793,38.406733 L26.6459296,34.2146973 Z"
              id="Combined-Shape" fill="#FFFFFF"></path>
    </g>
</svg>