<?xml version="1.0" encoding="UTF-8"?>
<svg width="48px" height="48px" viewBox="0 0 48 48" version="1.1" xmlns="http://www.w3.org/2000/svg"
>
    <!-- Generator: Sketch 54.1 (76490) - https://sketchapp.com -->
    <title>_icon/roles/l/white</title>
    <desc>Created with Sketch.</desc>
    <g id="_icon/roles/l/white" stroke="none" stroke-width="1" fill="none" fill-rule="evenodd" strokeLinecap="round"
       stroke-linejoin="round">
        <path d="M10,39.175293 C8.5,35.1518967 7.75,31.1782382 7.75,27.2543175 C7.75,20.88803 9.04788737,14.1365908 13.1436621,7 C13.4336223,11.8666498 12.9964543,15.6833074 14.5,18.449973"
              id="Combined-Shape" stroke="#FFFFFF" stroke-width="3"></path>
        <path d="M19,17.5 C24.4179688,16.4562988 28.9179688,16.7700845 32.5,18.4413569 C34.0051626,15.6804354 33.5404555,11.8666498 33.8304157,7 C37.9261904,14.1365908 39.2240778,20.88803 39.2240778,27.2543175 C39.2240778,31.1782382 38.4740778,35.1518967 36.9740778,39.175293"
              id="Path" stroke="#FFFFFF" stroke-width="3"></path>
        <path d="M10.3865356,36.2499352 C9.84415376,38.1981428 10.7153085,39.1762922 13,39.1843835 C15.2846915,39.1924747 18.7846915,38.4424747 23.5,36.9343835 C27.980835,38.4343835 31.480835,39.1843835 34,39.1843835 C36.519165,39.1843835 37.4116211,38.2062341 36.6773682,36.2499352"
              id="Rectangle" stroke="#FFFFFF" stroke-width="3"
              transform="translate(23.578192, 37.717192) scale(1, -1) translate(-23.578192, -37.717192) "></path>
        <path d="M16.6916462,31.435076 C14.8992712,31.435076 13.2742712,30.685076 11.8166462,29.185076 C13.2742712,27.685076 14.8992712,26.935076 16.6916462,26.935076 C18.4840212,26.935076 20.1090212,27.685076 21.5666462,29.185076 C20.1090212,30.685076 18.4840212,31.435076 16.6916462,31.435076 Z"
              id="Shape" stroke="#FFFFFF" stroke-width="2" fill-rule="nonzero"
              transform="translate(16.691646, 29.185076) rotate(15.000000) translate(-16.691646, -29.185076) "></path>
        <path d="M30.1973433,31.435076 C28.4049683,31.435076 26.7799683,30.685076 25.3223433,29.185076 C26.7799683,27.685076 28.4049683,26.935076 30.1973433,26.935076 C31.9897183,26.935076 33.6147183,27.685076 35.0723433,29.185076 C33.6147183,30.685076 31.9897183,31.435076 30.1973433,31.435076 Z"
              id="Shape-Copy" stroke="#FFFFFF" stroke-width="2" fill-rule="nonzero"
              transform="translate(30.197343, 29.185076) rotate(-15.000000) translate(-30.197343, -29.185076) "></path>
    </g>
</svg>