<?xml version="1.0" encoding="UTF-8"?>
<svg width="12px" height="12px" viewBox="0 0 12 12" version="1.1" xmlns="http://www.w3.org/2000/svg"
>
    <!-- Generator: Sketch 54.1 (76490) - https://sketchapp.com -->
    <title>_icon/clap/xs/left/white</title>
    <desc>Created with Sketch.</desc>
    <g id="_icon/clap/xs/left/white" stroke="none" stroke-width="1" fill="none" fill-rule="evenodd">
        <path d="M9.58843902,5.4463295 L10.1692178,3.85065282 C10.3501949,3.35342245 10.8999906,3.09704848 11.397221,3.27802553 C11.8944514,3.45900259 12.1508254,4.00879834 11.9698483,4.50602871 L10.4687869,8.63016112 C10.3946687,8.99093496 10.2672092,9.3419868 10.0899668,9.67096081 L10.0537821,9.77037736 L10.0378404,9.76457507 C9.70577105,10.3419476 9.21731515,10.8457576 8.59249006,11.2065005 C6.75949009,12.2647835 4.4469988,11.6910627 3.42739618,9.92505916 C3.41658311,9.90633038 3.40595888,9.88754271 3.39552288,9.86869825 L0.342265877,7.30671143 C-0.0630800383,6.96658582 -0.115951544,6.36226175 0.224174064,5.95691583 C0.564299672,5.55156992 1.16862374,5.49869841 1.57396966,5.83882402 L3.09138739,7.11208868 C3.1217124,7.00576982 3.15674065,6.9006074 3.19637652,6.7969334 L0.981058992,4.15682078 C0.640933384,3.75147487 0.69380489,3.14715079 1.0991508,2.80702519 C1.50449672,2.46689958 2.10882079,2.51977108 2.4489464,2.925117 L4.35130168,5.19225574 C4.3995852,5.15234021 4.44902217,5.11340447 4.49959804,5.07549903 L2.65667029,1.88345453 C2.39209953,1.42520454 2.54910757,0.839242543 3.00735757,0.574671787 C3.46560756,0.310101031 4.05156955,0.467109074 4.31614031,0.925359065 L6.27898112,4.32509909 C6.31547643,4.31951812 6.35199042,4.31446578 6.38851165,4.30993925 L5.28790384,1.28604416 C5.10692679,0.788813782 5.36330076,0.23901803 5.86053113,0.0580409739 C6.3577615,-0.122936082 6.90755726,0.133437888 7.08853431,0.630668262 L8.56172572,4.6782284 C8.94307151,4.86926679 9.29178995,5.12690833 9.58843902,5.4463295 L9.58843902,5.4463295 Z"
              id="Combined-Shape" fill="#FFFFFF"></path>
    </g>
</svg>