<svg xmlns="http://www.w3.org/2000/svg" width="48" height="48">
    <path d="M15.167 20c-.92 0-1.667-.672-1.667-1.5s.746-1.5 1.667-1.5h16.667c.92 0 1.667.672 1.667 1.5s-.746 1.5-1.667 1.5H15.167zm-.417 6c-.7 0-1.25-.672-1.25-1.5s.56-1.5 1.25-1.5h12.5c.7 0 1.25.672 1.25 1.5s-.56 1.5-1.25 1.5h-12.5zm11.896 8.214a3.21 3.21 0 0 1 2.917-1.867h7.357a1.93 1.93 0 0 0 1.93-1.927v-2.998a1.5 1.5 0 1 1 3 0v2.998a4.93 4.93 0 0 1-4.93 4.927h-7.357c-.083 0-.158.048-.23.197l-3.585 6.767c-.564 1.064-2.087 1.064-2.65 0l-3.622-6.84c-.035-.075-.1-.123-.194-.123H10.93A4.93 4.93 0 0 1 6 30.421V12.427A4.93 4.93 0 0 1 10.93 7.5h26a4.93 4.93 0 0 1 4.93 4.927v8.142a1.5 1.5 0 1 1-3 0v-8.142a1.93 1.93 0 0 0-1.93-1.927h-26A1.93 1.93 0 0 0 9 12.427V30.42a1.93 1.93 0 0 0 1.93 1.927h8.352c1.253 0 2.393.728 2.88 1.793l2.26 4.266 2.222-4.192z"
          fill="#fff" fill-rule="evenodd"/>
</svg>