<?xml version="1.0" encoding="UTF-8"?>
<svg width="32px" height="32px" viewBox="0 0 32 32" version="1.1" xmlns="http://www.w3.org/2000/svg"
>
    <!-- Generator: Sketch 54.1 (76490) - https://sketchapp.com -->
    <title>_icon/limitations/m/white</title>
    <desc>Created with Sketch.</desc>
    <g id="_icon/limitations/m/white" stroke="none" stroke-width="1" fill="none" fill-rule="evenodd">
        <polyline id="Triangle" stroke="#FFFFFF" stroke-width="2" strokeLinecap="round" stroke-linejoin="round"
                  points="26.1503556 22.1775248 29 27 3 27 16 5 16 5 23.0319519 16.9002263"></polyline>
        <path d="M14.7,23.1176471 C14.7,22.7581681 14.8274497,22.4526156 15.0823529,22.2009804 C15.3372562,21.9493451 15.6467769,21.8235294 16.0109244,21.8235294 C16.3605059,21.8235294 16.6627438,21.9493451 16.9176471,22.2009804 C17.1725503,22.4526156 17.3,22.7581681 17.3,23.1176471 C17.3,23.4627468 17.1725503,23.7647046 16.9176471,24.0235294 C16.6627438,24.2823542 16.3605059,24.4117647 16.0109244,24.4117647 C15.6467769,24.4117647 15.3372562,24.2823542 15.0823529,24.0235294 C14.8274497,23.7647046 14.7,23.4627468 14.7,23.1176471 Z M14.8310924,13.7094118 C14.8310924,13.5109794 14.940335,13.3578437 15.1588235,13.25 C15.377312,13.1421563 15.6540599,13.0882353 15.9890756,13.0882353 C16.3240913,13.0882353 16.6008392,13.1443132 16.8193277,13.2564706 C17.0378162,13.368628 17.1470588,13.5196069 17.1470588,13.7094118 C17.1470588,14.3305913 16.8630252,19.1705851 16.8630252,19.7917647 C16.8630252,19.9211771 16.7683483,20.0225487 16.5789916,20.0958824 C16.3896349,20.1692161 16.1929982,20.2058824 15.9890756,20.2058824 C15.3918738,20.2058824 15.0932773,20.0678445 15.0932773,19.7917647 C15.0932773,19.1705851 14.8310924,14.3305913 14.8310924,13.7094118 Z"
              id="!" fill="#FFFFFF"></path>
    </g>
</svg>