<?xml version="1.0" encoding="UTF-8"?>
<svg width="24px" height="24px" viewBox="0 0 24 24" version="1.1" xmlns="http://www.w3.org/2000/svg"
>
    <!-- Generator: Sketch 54.1 (76490) - https://sketchapp.com -->
    <title>_icon/settings/r/inactive</title>
    <desc>Created with Sketch.</desc>
    <g id="_icon/settings/r/inactive" stroke="none" stroke-width="1" fill="none" fill-rule="evenodd"
       strokeLinecap="round" stroke-linejoin="round">
        <path d="M9.93,20.4133333 L9.93,22.7033333 L14.0711111,22.7033333 L14.0711111,20.4133333 C15.5644444,20.0277778 16.8955556,19.2422222 17.9377778,18.1688889 L19.93,19.32 L22,15.7344444 L19.9855556,14.57 C20.1722222,13.8788889 20.2811111,13.1544444 20.2811111,12.4033333 C20.2811111,11.6188889 20.1655556,10.8633333 19.9622222,10.1455556 L22,8.96777778 L19.93,5.38333333 L17.8755556,6.56888889 C16.8433333,5.52888889 15.5333333,4.77 14.0711111,4.39333333 L14.0711111,2 L9.93,2 L9.93,4.39333333 C8.46666667,4.77 7.15777778,5.52888889 6.12555556,6.56888889 L4.07111111,5.38333333 L2,8.96777778 L4.03888889,10.1455556 C3.83555556,10.8633333 3.71888889,11.6188889 3.71888889,12.4033333 C3.71888889,13.1544444 3.82777778,13.8788889 4.01555556,14.57 L2,15.7344444 L4.07111111,19.32 L6.06333333,18.1688889"
              id="Stroke-1" stroke="#767676" stroke-width="2"></path>
        <path d="M15.5,12.5 C15.5,14.4331667 13.9331667,16 12,16 C10.0668333,16 8.5,14.4331667 8.5,12.5 C8.5,10.5668333 10.0668333,9 12,9 C13.9331667,9 15.5,10.5668333 15.5,12.5 Z"
              id="Stroke-3" stroke="#767676" stroke-width="2"></path>
    </g>
</svg>