<?xml version="1.0" encoding="UTF-8"?>
<svg width="24px" height="24px" viewBox="0 0 24 24" version="1.1" xmlns="http://www.w3.org/2000/svg"
>
    <!-- Generator: Sketch 54.1 (76490) - https://sketchapp.com -->
    <title>_icon/settings/r/secundary</title>
    <desc>Created with Sketch.</desc>
    <g id="_icon/settings/r/secundary" stroke="none" stroke-width="1" fill="none" fill-rule="evenodd"
       strokeLinecap="round" stroke-linejoin="round">
        <path d="M9.9297,20.4136333 L9.9297,22.7036333 L14.0708111,22.7036333 L14.0708111,20.4136333 C15.5641444,20.0280778 16.8952556,19.2425222 17.9374778,18.1691889 L19.9297,19.3203 L21.9997,15.7347444 L19.9852556,14.5703 C20.1719222,13.8791889 20.2808111,13.1547444 20.2808111,12.4036333 C20.2808111,11.6191889 20.1652556,10.8636333 19.9619222,10.1458556 L21.9997,8.96807778 L19.9297,5.38363333 L17.8752556,6.56918889 C16.8430333,5.52918889 15.5330333,4.7703 14.0708111,4.39363333 L14.0708111,2.0003 L9.9297,2.0003 L9.9297,4.39363333 C8.46636667,4.7703 7.15747778,5.52918889 6.12525556,6.56918889 L4.07081111,5.38363333 L1.9997,8.96807778 L4.03858889,10.1458556 C3.83525556,10.8636333 3.71858889,11.6191889 3.71858889,12.4036333 C3.71858889,13.1547444 3.82747778,13.8791889 4.01525556,14.5703 L1.9997,15.7347444 L4.07081111,19.3203 L6.06303333,18.1691889"
              id="Stroke-1" stroke="#972C86" stroke-width="2"></path>
        <path d="M15.5,12.5 C15.5,14.4331667 13.9331667,16 12,16 C10.0668333,16 8.5,14.4331667 8.5,12.5 C8.5,10.5668333 10.0668333,9 12,9 C13.9331667,9 15.5,10.5668333 15.5,12.5 Z"
              id="Stroke-3" stroke="#972C86" stroke-width="2"></path>
    </g>
</svg>