<?xml version="1.0" encoding="UTF-8"?>
<svg width="48px" height="48px" viewBox="0 0 48 48" version="1.1" xmlns="http://www.w3.org/2000/svg"
>
    <!-- Generator: Sketch 54.1 (76490) - https://sketchapp.com -->
    <title>_icon/happy/l/active</title>
    <desc>Created with Sketch.</desc>
    <defs>
        <linearGradient x1="0%" y1="2.53122945%" x2="100%" y2="97.4687705%" id="linearGradient-1">
            <stop stop-color="#972C86" offset="0%"></stop>
            <stop stop-color="#794997" offset="40%"></stop>
            <stop stop-color="#007180" offset="100%"></stop>
        </linearGradient>
    </defs>
    <g id="_icon/happy/l/active" stroke="none" stroke-width="1" fill="none" fill-rule="evenodd">
        <path d="M15.256367,21.5478921 C14.9240617,20.7890346 15.2698505,19.9044724 16.0287079,19.572167 C16.7875654,19.2398617 17.6721276,19.5856505 18.004433,20.3445079 C19.1626869,22.9895138 21.7700418,24.7332 24.6994,24.7332 C27.6287582,24.7332 30.2361131,22.9895138 31.394367,20.3445079 C31.7266724,19.5856505 32.6112346,19.2398617 33.3700921,19.572167 C34.1289495,19.9044724 34.4747383,20.7890346 34.142433,21.5478921 C32.5110661,25.273306 28.8327568,27.7332 24.6994,27.7332 C20.5660432,27.7332 16.8877339,25.273306 15.256367,21.5478921 Z M30.832,31.3491 L38.334,31.3491 C39.8078752,31.3491 41,30.1573706 41,28.6841 L41,25.7421 C41,24.9136729 41.6715729,24.2421 42.5,24.2421 C43.3284271,24.2421 44,24.9136729 44,25.7421 L44,28.6841 C44,31.8144477 41.4645067,34.3491 38.334,34.3491 L30.832,34.3491 C30.604875,34.3491 30.3984271,34.4813115 30.3023438,34.6889755 L30.2353478,34.8171658 L25.8773478,42.2581658 C25.2979052,43.2475261 23.867745,43.247383 23.2885005,42.2579067 L18.9325005,34.8169067 L18.8656562,34.6889755 C18.7697501,34.4816944 18.5625467,34.3491 18.335,34.3491 L10.666,34.3491 C7.5354933,34.3491 5,31.8144477 5,28.6841 L5,10.6651 C5,7.53546262 7.53578315,5.0001 10.666,5.0001 L38.334,5.0001 C41.4642169,5.0001 44,7.53546262 44,10.6651 L44,17.9201 C44,18.7485271 43.3284271,19.4201 42.5,19.4201 C41.6715729,19.4201 41,18.7485271 41,17.9201 L41,10.6651 C41,9.19242826 39.807474,8.0001 38.334,8.0001 L10.666,8.0001 C9.19252603,8.0001 8,9.19242826 8,10.6651 L8,28.6841 C8,30.1573706 9.19212481,31.3491 10.666,31.3491 L18.335,31.3491 C19.7049513,31.3491 20.9520185,32.1299678 21.5531168,33.3553025 L24.5832971,38.5315127 L27.6149512,33.3551615 C28.2160457,32.1298922 29.4621168,31.3491 30.832,31.3491 Z M21.4116,14.2363 C21.4116,15.3403 20.5156,16.2363 19.4116,16.2363 C18.3086,16.2363 17.4116,15.3403 17.4116,14.2363 C17.4116,13.1323 18.3086,12.2363 19.4116,12.2363 C20.5156,12.2363 21.4116,13.1323 21.4116,14.2363 Z M31.9873,14.2363 C31.9873,15.3403 31.0903,16.2363 29.9873,16.2363 C28.8833,16.2363 27.9873,15.3403 27.9873,14.2363 C27.9873,13.1323 28.8833,12.2363 29.9873,12.2363 C31.0903,12.2363 31.9873,13.1323 31.9873,14.2363 Z"
              id="Combined-Shape" fill="url(#linearGradient-1)" fill-rule="nonzero"></path>
    </g>
</svg>