<?xml version="1.0" encoding="UTF-8"?>
<svg width="48px" height="48px" viewBox="0 0 48 48" version="1.1" xmlns="http://www.w3.org/2000/svg"
>
    <!-- Generator: Sketch 54.1 (76490) - https://sketchapp.com -->
    <title>_icon/happy/l/inactive</title>
    <desc>Created with Sketch.</desc>
    <g id="_icon/happy/l/inactive" stroke="none" stroke-width="1" fill="none" fill-rule="evenodd">
        <path d="M16.6304,20.9462 C17.9914,24.0542 21.0864,26.2332 24.6994,26.2332 C28.3124,26.2332 31.4074,24.0542 32.7684,20.9462"
              id="Stroke-1" stroke="#767676" stroke-width="3" strokeLinecap="round" stroke-linejoin="round"></path>
        <path d="M21.4116,14.2363 C21.4116,15.3403 20.5156,16.2363 19.4116,16.2363 C18.3086,16.2363 17.4116,15.3403 17.4116,14.2363 C17.4116,13.1323 18.3086,12.2363 19.4116,12.2363 C20.5156,12.2363 21.4116,13.1323 21.4116,14.2363"
              id="Fill-3" fill="#767676"></path>
        <path d="M31.9873,14.2363 C31.9873,15.3403 31.0903,16.2363 29.9873,16.2363 C28.8833,16.2363 27.9873,15.3403 27.9873,14.2363 C27.9873,13.1323 28.8833,12.2363 29.9873,12.2363 C31.0903,12.2363 31.9873,13.1323 31.9873,14.2363"
              id="Fill-5" fill="#767676"></path>
        <path d="M42.5,25.7421 L42.5,28.6841 C42.5,30.9861 40.636,32.8491 38.334,32.8491 L30.832,32.8491 C30.019,32.8491 29.282,33.3221 28.941,34.0591 L24.583,41.5001 L20.227,34.0591 C19.886,33.3221 19.148,32.8491 18.335,32.8491 L10.666,32.8491 C8.364,32.8491 6.5,30.9861 6.5,28.6841 L6.5,10.6651 C6.5,8.3641 8.364,6.5001 10.666,6.5001 L38.334,6.5001 C40.636,6.5001 42.5,8.3641 42.5,10.6651 L42.5,17.9201"
              id="Stroke-7" stroke="#767676" stroke-width="3" strokeLinecap="round" stroke-linejoin="round"></path>
    </g>
</svg>