<?xml version="1.0" encoding="UTF-8"?>
<svg width="24px" height="24px" viewBox="0 0 24 24" version="1.1" xmlns="http://www.w3.org/2000/svg"
>
    <!-- Generator: Sketch 54.1 (76490) - https://sketchapp.com -->
    <title>_icon/tip/r/quarternary</title>
    <desc>Created with Sketch.</desc>
    <g id="_icon/tip/r/quarternary" stroke="none" stroke-width="1" fill="none" fill-rule="evenodd"
       strokeLinecap="round" stroke-linejoin="round">
        <path d="M5.33,21.6481 L2.787,21.6481 C2.353,21.6481 2,21.2951 2,20.8621 L2,8.5451 L9.059,8.5451 L9.059,10.6861 L10.178,10.6861 C12.149,10.6861 11.83,6.7561 11.83,6.7561 L11.83,2.0001 C15.374,2.0001 15.879,3.7671 15.879,4.7921 L15.879,7.7391 C15.879,8.6051 16.584,9.3101 17.451,9.3101 L20.225,9.3101 C20.866,9.3101 21.601,9.4671 21.601,10.6861 C21.601,12.4891 21.309,17.6271 20.75,18.4651 C20.166,19.3401 18.799,20.2761 16.312,20.2761 L9.059,20.2761 L9.059,14.9131"
              id="Page-1" stroke="#007180" stroke-width="2"></path>
    </g>
</svg>