<svg xmlns="http://www.w3.org/2000/svg" width="48" height="48">
    <defs>
        <linearGradient id="A" x1="26.35%" x2="73.65%" y1="0%" y2="100%">
            <stop stop-color="#972c86" offset="0%"/>
            <stop stop-color="#794997" offset="40%"/>
            <stop stop-color="#007180" offset="100%"/>
        </linearGradient>
    </defs>
    <path fill="url(#A)"
          d="M24 33.5a1.5 1.5 0 0 1 1.493 1.356L25.5 35v3.617h4.926c1.3 0 1.96 1.506 1.153 2.46l-.092.1-6.364 6.364a1.5 1.5 0 0 1-2.007.103l-.114-.103-6.364-6.364c-.912-.912-.32-2.45.925-2.555l.136-.006H22.5V35a1.5 1.5 0 0 1 1.215-1.473l.14-.02L24 33.5zm2.805 8.118H21.32l2.743 2.743 2.743-2.743zM39 28a1.5 1.5 0 0 1 .144 2.993L39 31H9a1.5 1.5 0 0 1-.144-2.993L9 28h30zM9 22.5h30a1.5 1.5 0 0 1 .144 2.993L39 25.5H9a1.5 1.5 0 0 1-.144-2.993L9 22.5h30zM39 17a1.5 1.5 0 0 1 .144 2.993L39 20H9a1.5 1.5 0 0 1-.144-2.993L9 17h30zM25.123.44l6.364 6.364c.945.945.276 2.56-1.06 2.56L25.5 9.362V13a1.5 1.5 0 0 1-2.993.144L22.5 13V9.362l-4.802.001c-1.336 0-2.006-1.616-1.06-2.56L23.002.44a1.5 1.5 0 0 1 2.121 0zm-1.06 3.182L21.32 6.363h5.485L24.062 3.62z"/>
</svg>