<?xml version="1.0" encoding="UTF-8"?>
<svg width="48px" height="48px" viewBox="0 0 48 48" version="1.1" xmlns="http://www.w3.org/2000/svg"
>
    <!-- Generator: Sketch 54.1 (76490) - https://sketchapp.com -->
    <title>_icon/praise/positive/l/active</title>
    <desc>Created with Sketch.</desc>
    <defs>
        <linearGradient x1="16.8370697%" y1="0%" x2="83.1629303%" y2="100%" id="linearGradient-1">
            <stop stop-color="#972C86" offset="0%"></stop>
            <stop stop-color="#794997" offset="40%"></stop>
            <stop stop-color="#007180" offset="100%"></stop>
        </linearGradient>
    </defs>
    <g id="_icon/praise/positive/l/active" stroke="none" stroke-width="1" fill="none" fill-rule="evenodd">
        <path d="M37.870085,12.5699839 C39.0389736,7.4113648 34.735954,4.07642902 27.6967606,4.06226231 C20.4281148,4.04763382 13.9231534,7.69558045 12.4535936,13.2830069 C11.2171762,17.9840001 14.3814218,19.9724872 23.8964028,21.9459258 C24.1967858,22.0082262 24.5073001,22.0718976 24.9047405,22.1528525 C25.014339,22.1751767 25.7110454,22.3168321 25.9130914,22.3580399 C27.5473378,22.6913487 28.8656968,22.9775393 29.9739235,23.2532008 C34.233931,18.9945824 37.3021376,15.0764884 37.870085,12.5699839 Z M33.1814398,24.2405745 C32.430428,25.0259489 31.6398735,25.8214022 30.8167697,26.6214057 C23.7081572,33.5305159 14.1718054,40.7790025 6.71250637,44.8054402 C5.98350416,45.1989466 5.07353114,44.9269735 4.68002474,44.1979713 C4.28651834,43.4689691 4.55849143,42.5589961 5.28749363,42.1654897 C12.002669,38.5407208 20.6712245,32.001572 27.3925138,25.7409969 C28.2908758,24.9042135 29.1544504,24.0724068 29.9739235,23.2532008 C31.2759925,23.577079 32.287991,23.8864226 33.1814398,24.2405745 C33.5787856,24.3980774 33.9526838,24.5644428 34.3182217,24.7448906 C37.0948969,26.1155961 38.4420777,28.1715286 37.839533,30.9326081 C37.3403153,33.2202057 34.5966737,38.3605592 32.444987,41.481821 C31.63707,42.6537948 31.6864919,42.7454141 32.8775875,42.919207 C34.4150635,43.1435404 36.6599715,42.6765685 37.5987354,41.9854879 C38.2658827,41.4943606 39.2048497,41.637053 39.695977,42.3042003 C40.1871043,42.9713476 40.0444119,43.9103147 39.3772646,44.401442 C37.7651131,45.5882437 34.7252811,46.2205707 32.4444436,45.8877734 C29.1772129,45.4110514 27.8230782,42.9007305 29.975013,39.7791089 C31.9194464,36.9584911 34.5152266,32.0951636 34.9085139,30.2929778 C35.2567734,28.6971259 34.1961378,27.6533158 30.8167702,26.6214073 C29.8657481,26.3310074 28.7310887,26.0415501 27.3925138,25.7409969 C26.7476207,25.5961976 26.0553971,25.4488228 25.3135756,25.2975264 C25.1126195,25.2565409 24.4164239,25.1149894 24.3059637,25.0924897 C23.905329,25.0108841 23.5915922,24.9465519 23.2871586,24.8834113 C18.2738121,23.8436267 15.4146092,22.9794656 13.0919088,21.5198254 C9.83783401,19.4748875 8.51384932,16.4680954 9.55226578,12.519923 C11.4223195,5.40977523 19.2052213,1.04516662 27.7027983,1.06226839 C36.4079447,1.07978791 42.4828643,5.78798559 40.795915,13.232946 C40.1649606,16.0175173 37.2548435,19.9807921 33.1814398,24.2405745 Z"
              id="Page-1" fill="url(#linearGradient-1)" fill-rule="nonzero"></path>
    </g>
</svg>