<?xml version="1.0" encoding="UTF-8"?>
<svg width="48px" height="48px" viewBox="0 0 48 48" version="1.1" xmlns="http://www.w3.org/2000/svg"
>
    <!-- Generator: Sketch 59 (86127) - https://sketch.com -->
    <title>_icon/priority/critical/l/active</title>
    <desc>Created with Sketch.</desc>
    <defs>
        <linearGradient x1="0%" y1="8.17711563%" x2="100%" y2="91.8228844%" id="linearGradient-1">
            <stop stop-color="#972C86" offset="0%"></stop>
            <stop stop-color="#794997" offset="40%"></stop>
            <stop stop-color="#007180" offset="100%"></stop>
        </linearGradient>
    </defs>
    <g id="_icon/priority/critical/l/active" stroke="none" stroke-width="1" fill="none" fill-rule="evenodd">
        <path d="M24.0294118,35.5000815 C24.9705929,35.5000815 25.7843103,35.8403559 26.4705882,36.5209149 C27.1568662,37.2014738 27.5,38.0278545 27.5,39.0000815 C27.5,39.9334195 27.1568662,40.750078 26.4705882,41.4500815 C25.7843103,42.150085 24.9705929,42.5000815 24.0294118,42.5000815 C23.0490147,42.5000815 22.2156897,42.150085 21.5294118,41.4500815 C20.8431338,40.750078 20.5,39.9334195 20.5,39.0000815 C20.5,38.0278545 20.8431338,37.2014738 21.5294118,36.5209149 C22.2156897,35.8403559 23.0490147,35.5000815 24.0294118,35.5000815 Z M17.5658276,17.7135978 C18.2344962,18.114607 18.4780468,18.9543324 18.1491669,19.6440514 L18.0807578,19.7714721 L7.6486336,37.1666667 L16,37.1666667 C16.8284271,37.1666667 17.5,37.8382395 17.5,38.6666667 C17.5,39.4463628 16.9051119,40.0871153 16.14446,40.1598001 L16,40.1666667 L5,40.1666667 C3.87737747,40.1666667 3.16796813,38.9874407 3.65236361,38.007323 L3.71359775,37.8951945 L15.5079533,18.2285279 C15.9340256,17.5180675 16.8553673,17.2875255 17.5658276,17.7135978 Z M44.011696,39.7741411 C43.9933148,39.7911371 43.9799491,39.802778 43.9663396,39.81421 C43.9438998,39.8328745 43.9211472,39.8509535 43.8978717,39.8683722 C43.8885573,39.8753375 43.8797117,39.8817755 43.8707776,39.88813 C43.8407713,39.9096263 43.8094834,39.9302716 43.777407,39.9497481 C43.775223,39.9508138 43.7734847,39.9518614 43.7717436,39.9529061 L43.7527901,39.9643754 C43.7217346,39.9824294 43.6899717,39.9994005 43.6575532,40.0152372 L43.7717436,39.9529061 C43.7184738,39.9848679 43.6640174,40.0131377 43.6086721,40.0377899 C43.5843451,40.0488487 43.5595119,40.0591003 43.5343541,40.0686942 C43.5083683,40.0784764 43.4819692,40.0877318 43.455435,40.0962103 C43.4399406,40.1012116 43.424175,40.1059461 43.4083027,40.110426 C43.3756837,40.1196586 43.3430625,40.1277101 43.3103229,40.1346331 C43.2987206,40.1369691 43.2869876,40.1392914 43.2752064,40.141476 C43.2351681,40.14909 43.1947603,40.1549116 43.1543049,40.1590674 C43.1512001,40.1591446 43.1478317,40.1594779 43.14446,40.1598001 C43.1018028,40.1640532 43.0623067,40.1661756 43.0228696,40.1667399 L43,40.1666667 L32,40.1666667 C31.1715729,40.1666667 30.5,39.4950938 30.5,38.6666667 C30.5,37.8869705 31.0948881,37.246218 31.85554,37.1735332 L32,37.1666667 L40.3506843,37.166 L37.7014387,32.7512071 C37.2752165,32.0408367 37.505564,31.1194463 38.2159344,30.6932241 C38.8845184,30.2920737 39.7400265,30.4725216 40.1937054,31.0873792 L40.2739175,31.2077198 L44.2862394,37.894923 L44.304567,37.9257995 C44.3424057,37.992285 44.3753085,38.0619452 44.4027769,38.1342815 C44.4106442,38.1553492 44.4182339,38.1767268 44.4253124,38.1981965 C44.4331521,38.2217973 44.4404003,38.2458826 44.4470512,38.2702146 C44.4519065,38.2879016 44.456315,38.3051967 44.4604041,38.3225305 C44.4666733,38.3494786 44.4723761,38.3772343 44.4773009,38.4052579 C44.481335,38.427197 44.4847173,38.4492153 44.4876015,38.471258 C44.4903236,38.4937825 44.4927926,38.5168484 44.4947327,38.5400646 C44.4969215,38.5631975 44.4983003,38.5859497 44.4991593,38.6086916 C44.499623,38.6274992 44.5,38.6470389 44.5,38.6666667 L44.5001735,38.6778699 C44.4999122,38.7089188 44.4986871,38.7399142 44.49651,38.7708102 L44.5,38.6666667 C44.5,38.7188785 44.4973324,38.7704672 44.492126,38.821304 C44.4911626,38.8302291 44.4901788,38.8389064 44.4891199,38.8475727 C44.4748326,38.9670471 44.4464531,39.0821093 44.4057471,39.1911626 C44.3381577,39.3716043 44.2361146,39.5398636 44.1020054,39.6848785 L44.011696,39.7741411 L44.011696,39.7741411 Z M24.0294659,5.00004043 C25.4361519,5.00492158 26.8221939,5.44191589 27.1160221,5.66189973 C27.7053436,6.10311405 28,6.69704751 28,7.44371791 C28,9.88736649 26.3572744,28.9273421 26.3572744,31.3709906 C26.3572744,31.8800841 26.1019056,32.278868 25.5911602,32.5673543 C25.0804149,32.8558406 24.5500334,33.0000815 24,33.0000815 C22.3891878,33.0000815 21.5837937,32.4570567 21.5837937,31.3709906 C21.5837937,28.9273421 20,9.88736649 20,7.44371791 C20,6.66310795 20.2946564,6.06068973 20.8839779,5.63644518 C21.1794712,5.42372356 22.6148083,4.99521408 24.0294659,5.00004043 Z M32.4169749,18.1091982 L32.497059,18.229624 L36.6401151,25.1513841 C37.065582,25.8622072 36.8342551,26.7833522 36.123432,27.2088191 C35.4544221,27.6092585 34.5991062,27.4279014 34.1460812,26.8125619 L34.0659971,26.6921361 L29.922941,19.770376 C29.4974741,19.0595529 29.728801,18.1384079 30.439624,17.712941 C31.108634,17.3125016 31.9639499,17.4938587 32.4169749,18.1091982 Z"
              id="Combined-Shape" fill="url(#linearGradient-1)"></path>
    </g>
</svg>