<?xml version="1.0" encoding="UTF-8"?>
<svg width="48px" height="48px" viewBox="0 0 48 48" version="1.1" xmlns="http://www.w3.org/2000/svg"
>
    <!-- Generator: Sketch 59 (86127) - https://sketch.com -->
    <title>_icon/priority/critical/l/white</title>
    <desc>Created with Sketch.</desc>
    <g id="_icon/priority/critical/l/white" stroke="none" stroke-width="1" fill="none" fill-rule="evenodd">
        <path d="M20.5,39.0000815 C20.5,38.0278545 20.8431338,37.2014738 21.5294118,36.5209149 C22.2156897,35.8403559 23.0490147,35.5000815 24.0294118,35.5000815 C24.9705929,35.5000815 25.7843103,35.8403559 26.4705882,36.5209149 C27.1568662,37.2014738 27.5,38.0278545 27.5,39.0000815 C27.5,39.9334195 27.1568662,40.750078 26.4705882,41.4500815 C25.7843103,42.150085 24.9705929,42.5000815 24.0294118,42.5000815 C23.0490147,42.5000815 22.2156897,42.150085 21.5294118,41.4500815 C20.8431338,40.750078 20.5,39.9334195 20.5,39.0000815 Z"
              id="Path" fill="#FFFFFF"></path>
        <path d="M20,7.44371791 C20,6.66310795 20.2946564,6.06068973 20.8839779,5.63644518 C21.1794712,5.42372356 22.6148083,4.99521408 24.0294659,5.00004043 C25.4361519,5.00492158 26.8221939,5.44191589 27.1160221,5.66189973 C27.7053436,6.10311405 28,6.69704751 28,7.44371791 C28,9.88736649 26.3572744,28.9273421 26.3572744,31.3709906 C26.3572744,31.8800841 26.1019056,32.278868 25.5911602,32.5673543 C25.0804149,32.8558406 24.5500334,33.0000815 24,33.0000815 C22.3891878,33.0000815 21.5837937,32.4570567 21.5837937,31.3709906 C21.5837937,28.9273421 20,9.88736649 20,7.44371791 Z"
              id="Path" fill="#FFFFFF"></path>
        <path d="M16,38.6666667 L5,38.6666667 L16.7943555,19 M43,38.6666667 L32,38.6666667" id="Shape" stroke="#FFFFFF"
              stroke-width="3" strokeLinecap="round" stroke-linejoin="round"></path>
        <path d="M38.9876781,31.9794635 L43,38.6666667 M31.21,19 L35.3530561,25.9217601" id="Shape" stroke="#FFFFFF"
              stroke-width="3" strokeLinecap="round" stroke-linejoin="round"></path>
    </g>
</svg>