<?xml version="1.0" encoding="UTF-8"?>
<svg width="32px" height="32px" viewBox="0 0 32 32" version="1.1" xmlns="http://www.w3.org/2000/svg"
>
    <!-- Generator: Sketch 54.1 (76490) - https://sketchapp.com -->
    <title>_icon/tip/m/white</title>
    <desc>Created with Sketch.</desc>
    <g id="_icon/tip/m/white" stroke="none" stroke-width="1" fill="none" fill-rule="evenodd" strokeLinecap="round"
       stroke-linejoin="round">
        <path d="M7.15325132,28.0045702 L4.9815642,28.0045702 C4.44026958,28.0045702 4,27.5642217 4,27.0240776 L4,11.6592839 L11.8041445,11.6592839 L11.8041445,14.330066 L14.1997866,14.330066 C16.6580624,14.330066 16.2601984,9.42760282 16.2601984,9.42760282 L16.2601984,2.49456996 C20.6803553,2.49456996 21.3102027,4.69880723 21.3102027,5.97743948 L21.3102027,10.6538423 C21.3102027,11.7341307 22.1894947,12.6135802 23.2708367,12.6135802 L26.7306322,12.6135802 C27.5301019,12.6135802 28.4468106,12.8094292 28.4468106,14.330066 C28.4468106,16.5792113 28.0826216,22.9885894 27.3854241,24.0339492 C26.6570461,25.1254646 24.9520928,26.2930741 21.8502501,26.2930741 L11.8041445,26.2930741 L11.8041445,19.6030207"
              id="Page-1" stroke="#FFFFFF" stroke-width="3"></path>
    </g>
</svg>