<?xml version="1.0" encoding="UTF-8"?>
<svg width="48px" height="48px" viewBox="0 0 48 48" version="1.1" xmlns="http://www.w3.org/2000/svg"
>
    <!-- Generator: Sketch 54.1 (76490) - https://sketchapp.com -->
    <title>_icon/italic/l/inactive</title>
    <desc>Created with Sketch.</desc>
    <g id="_icon/italic/l/inactive" stroke="none" stroke-width="1" fill="none" fill-rule="evenodd">
        <path d="M19.4764401,35.9637681 L24.8871147,12.5362319 L23.093071,12.5362319 C22.6826479,12.5362319 22.3555968,12.3638701 22.1119081,12.0191414 C21.8682194,11.6744126 21.7463768,11.2574083 21.7463768,10.7681159 C21.7463768,10.3010641 21.8682194,9.88961986 22.1119081,9.53377085 C22.3555968,9.17792184 22.6826479,9 23.093071,9 L31.0468552,9 C31.4829298,9 31.8099809,9.17236178 32.0280182,9.51709051 C32.2460555,9.86181924 32.3550725,10.2788235 32.3550725,10.7681159 C32.3550725,11.2574083 32.2460555,11.6744126 32.0280182,12.0191414 C31.8099809,12.3638701 31.4829298,12.5362319 31.0468552,12.5362319 L29.2457261,12.5362319 L23.8350515,35.9637681 L25.3004784,35.9637681 C25.736553,35.9637681 26.0636041,36.1361299 26.2816413,36.4808586 C26.4996786,36.8255874 26.6086957,37.2425917 26.6086957,37.7318841 C26.6086957,38.2211765 26.4996786,38.6381808 26.2816413,38.9829095 C26.0636041,39.3276382 25.736553,39.5 25.3004784,39.5 L17.3466942,39.5 C16.9362711,39.5 16.60922,39.3276382 16.3655313,38.9829095 C16.1218425,38.6381808 16,38.2211765 16,37.7318841 C16,37.2648322 16.1218425,36.853388 16.3655313,36.497539 C16.60922,36.14169 16.9362711,35.9637681 17.3466942,35.9637681 L19.4764401,35.9637681 Z"
              id="Combined-Shape" fill="#767676"></path>
    </g>
</svg>