<?xml version="1.0" encoding="UTF-8"?>
<svg width="24px" height="24px" viewBox="0 0 24 24" version="1.1" xmlns="http://www.w3.org/2000/svg"
>
    <!-- Generator: Sketch 54.1 (76490) - https://sketchapp.com -->
    <title>_icon/clap/r/inactive</title>
    <desc>Created with Sketch.</desc>
    <g id="_icon/clap/r/inactive" stroke="none" stroke-width="1" fill="none" fill-rule="evenodd" strokeLinecap="round">
        <g id="Group" transform="translate(1.000000, 0.500000)" stroke="#767676" stroke-width="1.56293896">
            <path d="M10.9194778,25.693433 C8.50168325,25.053147 6.55429933,22.8631963 6.1706046,20.0238612 C6.16365417,19.9724281 5.76582344,17.0284869 4.97711243,11.1920376 C4.68577425,9.97770163 5.89400811,8.68027239 6.63233658,8.57235648"
                  id="Combined-Shape-Copy" stroke-linejoin="round"
                  transform="translate(7.926068, 17.132895) rotate(-40.000000) translate(-7.926068, -17.132895) "></path>
            <path d="M18.4503295,18.2207096 C17.3114247,19.2145904 15.9132166,19.6892929 14.5066385,19.673961 C12.6743163,19.6539884 10.8277904,18.8024385 9.52177901,17.183737 C9.47362685,17.1240561 9.42658979,17.0638037 9.38066604,17.0030089 C9.35774192,16.9784599 9.33550724,16.9528673 9.31402084,16.9262366 L4.00949268,10.3516785 C3.53024024,9.7576816 3.60473859,8.87210071 4.17588941,8.37367818 L4.21802177,8.3369108 C4.78917259,7.83848826 5.64069268,7.91596655 6.11994512,8.5099634 L4.79993485,6.87391134 C4.32068241,6.27991449 4.39518076,5.39433359 4.96633158,4.89591106 L5.00846394,4.85914368 C5.57961476,4.36072114 6.43113485,4.43819943 6.91038729,5.03219628 L5.59037702,3.39614422 C5.11112458,2.80214737 5.18562293,1.91656647 5.75677375,1.41814394 L5.79890611,1.38137656 C6.37005693,0.882954017 7.22157702,0.960432306 7.70082946,1.55442916 L8.58083631,2.64513053 C8.10158387,2.05113368 8.17608222,1.16555279 8.74723304,0.66713025 L8.7893654,0.630362871 C9.36051622,0.131940332 10.2120363,0.20941862 10.6912887,0.803415472 L17.0489495,8.68325115 L16.9071134,4.45913038 C16.8745878,3.49046105 17.6032798,2.67777746 18.5346926,2.64395079 L18.6034006,2.64145548 C19.5348134,2.6076288 20.3162399,3.3654685 20.3487656,4.33413783 L20.6510039,13.3353087 C20.6579849,13.5432163 20.629899,13.7439381 20.5722681,13.9313155 C20.435266,15.5612299 19.7205644,17.1122218 18.4503295,18.2207096 Z"
                  id="Combined-Shape" stroke-linejoin="round"
                  transform="translate(12.172836, 9.988089) rotate(2.000000) translate(-12.172836, -9.988089) "></path>
            <path d="M7.74414188,7.56666426 L7.74414188,13.2619024" id="Line"
                  transform="translate(7.744142, 10.414283) rotate(-38.000000) translate(-7.744142, -10.414283) "></path>
            <path d="M9.07224163,4.68069379 L9.07224163,10.3759319" id="Line-Copy"
                  transform="translate(9.072242, 7.528313) rotate(-38.000000) translate(-9.072242, -7.528313) "></path>
            <path d="M11.0324938,2.28025384 L11.0324938,8.6873967" id="Line-Copy-2"
                  transform="translate(11.032494, 5.483825) rotate(-38.000000) translate(-11.032494, -5.483825) "></path>
        </g>
    </g>
</svg>