<?xml version="1.0" encoding="UTF-8"?>
<svg width="48px" height="48px" viewBox="0 0 48 48" version="1.1" xmlns="http://www.w3.org/2000/svg"
>
    <!-- Generator: Sketch 54.1 (76490) - https://sketchapp.com -->
    <title>_icon/more/l/active</title>
    <desc>Created with Sketch.</desc>
    <defs>
        <linearGradient x1="0%" y1="21.9281729%" x2="100%" y2="78.0718271%" id="linearGradient-1">
            <stop stop-color="#972C86" offset="0%"></stop>
            <stop stop-color="#794997" offset="40%"></stop>
            <stop stop-color="#007180" offset="100%"></stop>
        </linearGradient>
    </defs>
    <g id="_icon/more/l/active" stroke="none" stroke-width="1" fill="none" fill-rule="evenodd">
        <path d="M39.5813768,33.0600967 C40.3768287,32.8286925 41.2092599,33.2859435 41.4406641,34.0813953 C41.6720683,34.8768471 41.2148173,35.7092784 40.4193655,35.9406826 C40.2160756,35.9998214 39.8423589,36.0954929 39.3001898,36.215144 C38.4168696,36.4100837 37.3690406,36.6039017 36.1586945,36.7840463 C32.7268366,37.2948344 28.6686817,37.6003896 24.0003712,37.6003896 C19.3345009,37.6003896 15.1859216,37.2952068 11.6016632,36.7854456 C10.3400001,36.6060091 9.23704664,36.4131429 8.29865207,36.2194098 C7.72548868,36.1010793 7.32861774,36.0070062 7.11387718,35.949742 C6.31342195,35.7362873 5.83756402,34.9143509 6.05101875,34.1138956 C6.26447348,33.3134404 7.0864099,32.8375825 7.88686513,33.0510372 C8.04712457,33.0937731 8.38853488,33.1747 8.90521524,33.2813694 C9.78322692,33.4626364 10.8248047,33.6447702 12.0240791,33.8153337 C15.4710707,34.3055725 19.4787414,34.6003896 24.0003712,34.6003896 C28.5195607,34.6003896 32.4301558,34.3059448 35.7170478,33.816733 C36.8582642,33.6468775 37.8377789,33.4656956 38.6536775,33.2856352 C39.1310397,33.1802863 39.4409167,33.1009578 39.5813768,33.0600967 Z M39.5813768,22.0600967 C40.3768287,21.8286925 41.2092599,22.2859435 41.4406641,23.0813953 C41.6720683,23.8768471 41.2148173,24.7092784 40.4193655,24.9406826 C40.2160756,24.9998214 39.8423589,25.0954929 39.3001898,25.215144 C38.4168696,25.4100837 37.3690406,25.6039017 36.1586945,25.7840463 C32.7268366,26.2948344 28.6686817,26.6003896 24.0003712,26.6003896 C19.3345009,26.6003896 15.1859216,26.2952068 11.6016632,25.7854456 C10.3400001,25.6060091 9.23704664,25.4131429 8.29865207,25.2194098 C7.72548868,25.1010793 7.32861774,25.0070062 7.11387718,24.949742 C6.31342195,24.7362873 5.83756402,23.9143509 6.05101875,23.1138956 C6.26447348,22.3134404 7.0864099,21.8375825 7.88686513,22.0510372 C8.04712457,22.0937731 8.38853488,22.1747 8.90521524,22.2813694 C9.78322692,22.4626364 10.8248047,22.6447702 12.0240791,22.8153337 C15.4710707,23.3055725 19.4787414,23.6003896 24.0003712,23.6003896 C28.5195607,23.6003896 32.4301558,23.3059448 35.7170478,22.816733 C36.8582642,22.6468775 37.8377789,22.4656956 38.6536775,22.2856352 C39.1310397,22.1802863 39.4409167,22.1009578 39.5813768,22.0600967 Z M39.5813768,11.0600967 C40.3768287,10.8286925 41.2092599,11.2859435 41.4406641,12.0813953 C41.6720683,12.8768471 41.2148173,13.7092784 40.4193655,13.9406826 C40.2160756,13.9998214 39.8423589,14.0954929 39.3001898,14.215144 C38.4168696,14.4100837 37.3690406,14.6039017 36.1586945,14.7840463 C32.7268366,15.2948344 28.6686817,15.6003896 24.0003712,15.6003896 C19.3345009,15.6003896 15.1859216,15.2952068 11.6016632,14.7854456 C10.3400001,14.6060091 9.23704664,14.4131429 8.29865207,14.2194098 C7.72548868,14.1010793 7.32861774,14.0070062 7.11387718,13.949742 C6.31342195,13.7362873 5.83756402,12.9143509 6.05101875,12.1138956 C6.26447348,11.3134404 7.0864099,10.8375825 7.88686513,11.0510372 C8.04712457,11.0937731 8.38853488,11.1747 8.90521524,11.2813694 C9.78322692,11.4626364 10.8248047,11.6447702 12.0240791,11.8153337 C15.4710707,12.3055725 19.4787414,12.6003896 24.0003712,12.6003896 C28.5195607,12.6003896 32.4301558,12.3059448 35.7170478,11.816733 C36.8582642,11.6468775 37.8377789,11.4656956 38.6536775,11.2856352 C39.1310397,11.1802863 39.4409167,11.1009578 39.5813768,11.0600967 Z"
              id="Combined-Shape" fill="url(#linearGradient-1)" fill-rule="nonzero"></path>
    </g>
</svg>