<?xml version="1.0" encoding="UTF-8"?>
<svg width="48px" height="48px" viewBox="0 0 48 48" version="1.1" xmlns="http://www.w3.org/2000/svg"
>
    <!-- Generator: Sketch 54.1 (76490) - https://sketchapp.com -->
    <title>_icon/settings/l/active</title>
    <desc>Created with Sketch.</desc>
    <defs>
        <linearGradient x1="3.10939319%" y1="0%" x2="96.8906068%" y2="100%" id="linearGradient-1">
            <stop stop-color="#972C86" offset="0%"></stop>
            <stop stop-color="#794997" offset="40%"></stop>
            <stop stop-color="#007180" offset="100%"></stop>
        </linearGradient>
    </defs>
    <g id="_icon/settings/l/active" stroke="none" stroke-width="1" fill="none" fill-rule="evenodd">
        <path d="M18.3205,44.4995 L18.3205,41.1972443 C17.6785381,40.985006 17.0501631,40.7360447 16.4384681,40.4518439 C15.6871708,40.1027823 15.3610945,39.2107653 15.7101561,38.4594681 C16.0592177,37.7081708 16.9512347,37.3820945 17.7025319,37.7311561 C18.5022411,38.1027104 19.3364379,38.401612 20.1950407,38.6230127 C20.8575434,38.7938468 21.3205,39.391326 21.3205,40.0755 L21.3205,42.9995 L26.3205,42.9995 L26.3205,40.0755 C26.3205,39.3912917 26.783502,38.7937917 27.4460483,38.6229898 C30.0355896,37.9554157 32.3719071,36.593921 34.2153883,34.6955198 C34.6941517,34.2024934 35.446723,34.0978816 36.041804,34.4416374 L38.5925727,35.9151205 L41.0924974,31.584626 L38.4975505,30.0865673 C37.9079661,29.7462011 37.6215294,29.0514671 37.7999055,28.3944732 C38.1433294,27.1295756 38.3205,25.865623 38.3205,24.6005 C38.3205,23.271349 38.129521,21.9505999 37.75951,20.6471095 C37.5718297,19.9859411 37.8575046,19.281804 38.4527926,18.938293 L41.0923577,17.415132 L38.5924676,13.0846974 L35.9226219,14.6264677 C35.3332089,14.9668393 34.5885011,14.8676967 34.1086658,14.3849766 C32.2851688,12.5505167 29.987799,11.2324528 27.4459471,10.5769841 C26.7834504,10.4061457 26.3205,9.80866936 26.3205,9.1245 L26.3205,5.9995 L21.3205,5.9995 L21.3205,9.1245 C21.3205,9.80866936 20.8575496,10.4061457 20.1950529,10.5769841 C17.6530466,11.2324926 15.3558367,12.5505982 13.5335991,14.38471 C13.0537863,14.8676495 12.3089122,14.9669092 11.7193781,14.6264677 L9.04953239,13.0846974 L6.54955989,17.4152748 L9.18835022,18.9383754 C9.78313305,19.281682 10.0688076,19.9850653 9.88183989,20.6458748 C9.51158038,21.9545019 9.3205,23.2741578 9.3205,24.6005 C9.3205,25.865623 9.49767058,27.1295756 9.84109454,28.3944732 C10.0194543,29.0514072 9.7330868,29.7460832 9.14359394,30.0864839 L6.54941919,31.5844815 L9.04942726,35.9151205 L11.600196,34.4416374 C12.317538,34.027256 13.2349811,34.272854 13.6493626,34.990196 C14.063744,35.707538 13.818146,36.6249811 13.100804,37.0393626 L9.25080398,39.2633626 C8.53331803,39.6778272 7.61568551,39.4320389 7.20142455,38.7144353 L3.20142455,31.7854353 C2.78728248,31.0680377 3.03305902,30.1507458 3.75040606,29.7365161 L6.67574372,28.0472896 C6.44129908,26.9047866 6.3205,25.7555614 6.3205,24.6005 C6.3205,23.3809937 6.45310999,22.1700904 6.71064,20.9721207 L3.75064978,19.2636246 C3.03312986,18.8494746 2.78722753,17.9320575 3.20142455,17.2145647 L7.20142455,10.2855647 C7.61564446,9.56803224 8.53314901,9.32220931 9.25062194,9.7365323 L12.2545931,11.4712518 C14.0132261,9.92466929 16.0748063,8.74349775 18.3205,8.00240431 L18.3205,4.4995 C18.3205,3.67107288 18.9920729,2.9995 19.8205,2.9995 L27.8205,2.9995 C28.6489271,2.9995 29.3205,3.67107288 29.3205,4.4995 L29.3205,8.00240373 C31.5661543,8.74348023 33.6278789,9.92464967 35.3872072,11.4713672 L38.3913781,9.7365323 C39.108851,9.32220931 40.0263555,9.56803224 40.4405754,10.2855647 L44.4405754,17.2145647 C44.8548047,17.9321132 44.6088286,18.8496037 43.8912074,19.263707 L40.9308405,20.9719868 C41.1881136,22.1680523 41.3205,23.3797149 41.3205,24.6005 C41.3205,25.7555181 41.19971,26.9047006 40.9652826,28.0471612 L43.8914495,29.7364327 C44.608899,30.1506152 44.8547501,31.0679813 44.4405754,31.7854353 L40.4405754,38.7144353 C40.0263145,39.4320389 39.108682,39.6778272 38.391196,39.2633626 L35.5176812,37.6034413 C33.7288991,39.2119535 31.621305,40.4372285 29.3205,41.1974121 L29.3205,44.4995 C29.3205,45.3279271 28.6489271,45.9995 27.8205,45.9995 L19.8205,45.9995 C18.9920729,45.9995 18.3205,45.3279271 18.3205,44.4995 Z M32.2384568,27.78463 C31.945177,28.5594064 31.0793464,28.9497365 30.30457,28.6564568 C29.5297936,28.363177 29.1394635,27.4973464 29.4327432,26.72257 C29.9179968,25.4406437 29.9557038,24.0367844 29.5149967,22.709203 C28.4709755,19.5643391 25.0750015,17.8614039 21.9298767,18.9063116 C18.7854415,19.9493906 17.0822095,23.3452156 18.1262393,26.4901053 C19.1702177,29.6356404 22.5661053,31.3390271 25.710997,30.2949967 C26.4972314,30.0339853 27.3461919,30.4597626 27.6072033,31.245997 C27.8682147,32.0322314 27.4424374,32.8811919 26.656203,33.1422033 C21.9387301,34.7082939 16.8448613,32.1531951 15.2789967,27.435203 C13.7129309,22.7178047 16.2679381,17.6237498 20.9846709,16.059105 C25.7018211,14.4919215 30.7960992,17.0464834 32.3622094,21.7640152 C33.022119,23.7519201 32.9653826,25.8642624 32.2384568,27.78463 Z"
              id="Combined-Shape" fill="url(#linearGradient-1)" fill-rule="nonzero"></path>
    </g>
</svg>