<?xml version="1.0" encoding="UTF-8"?>
<svg width="48px" height="48px" viewBox="0 0 48 48" version="1.1" xmlns="http://www.w3.org/2000/svg"
>
    <!-- Generator: Sketch 54.1 (76490) - https://sketchapp.com -->
    <title>_icon/settings/l/white</title>
    <desc>Created with Sketch.</desc>
    <g id="_icon/settings/l/white" stroke="none" stroke-width="1" fill="none" fill-rule="evenodd" strokeLinecap="round"
       stroke-linejoin="round">
        <path d="M17.0705,39.0915 C17.9465,39.4985 18.8665,39.8295 19.8205,40.0755 L19.8205,44.4995 L27.8205,44.4995 L27.8205,40.0755 C30.7065,39.3315 33.2775,37.8145 35.2915,35.7405 L39.1415,37.9645 L43.1415,31.0355 L39.2475,28.7875 C39.6105,27.4505 39.8205,26.0515 39.8205,24.6005 C39.8205,23.0855 39.5965,21.6255 39.2025,20.2375 L43.1415,17.9645 L39.1415,11.0355 L35.1725,13.3275 C33.1765,11.3195 30.6475,9.8535 27.8205,9.1245 L27.8205,4.4995 L19.8205,4.4995 L19.8205,9.1245 C16.9935,9.8535 14.4645,11.3195 12.4695,13.3275 L8.5005,11.0355 L4.5005,17.9645 L8.4385,20.2375 C8.0455,21.6265 7.8205,23.0855 7.8205,24.6005 C7.8205,26.0515 8.0305,27.4505 8.3935,28.7875 L4.5005,31.0355 L8.5005,37.9645 L12.3505,35.7405"
              id="Stroke-1" stroke="#FFFFFF" stroke-width="3"></path>
        <path d="M30.8356,27.2536 C31.4246,25.6976 31.5036,23.9386 30.9386,22.2366 C29.6336,18.3056 25.3886,16.1766 21.4576,17.4826 C17.5266,18.7866 15.3976,23.0316 16.7026,26.9626 C18.0076,30.8946 22.2526,33.0236 26.1836,31.7186"
              id="Stroke-3" stroke="#FFFFFF" stroke-width="3"></path>
    </g>
</svg>