<?xml version="1.0" encoding="UTF-8"?>
<svg width="24px" height="24px" viewBox="0 0 24 24" version="1.1" xmlns="http://www.w3.org/2000/svg"
>
    <!-- Generator: Sketch 54.1 (76490) - https://sketchapp.com -->
    <title>_icon/chat/r/secundary</title>
    <desc>Created with Sketch.</desc>
    <g id="_icon/chat/r/secundary" stroke="none" stroke-width="1" fill="none" fill-rule="evenodd">
        <path d="M22,13.7189 L22,15.4229 C22,16.7549 20.921,17.8339 19.588,17.8339 L15.6199999,17.8339 C15.1489999,17.8339 14.7170005,18.1079 14.5200005,18.5339 L12,22.9999 L9.47999954,18.5339 C9.28299954,18.1079 8.85000011,17.8339 8.38000011,17.8339 L4.412,17.8339 C3.079,17.8339 2,16.7549 2,15.4229 L2,6.4109 C2,5.0789 3.079,3.9999 4.412,3.9999 L19.588,3.9999 C20.921,3.9999 22,5.0789 22,6.4109 L22,9.6899"
              id="Page-1" stroke="#972C86" stroke-width="2" strokeLinecap="round" stroke-linejoin="round"></path>
        <circle id="Oval-Copy-2" fill="#972C86" cx="17" cy="11" r="1.5"></circle>
        <circle id="Oval" fill="#972C86" cx="7" cy="11" r="1.5"></circle>
        <circle id="Oval-Copy" fill="#972C86" cx="12" cy="11" r="1.5"></circle>
    </g>
</svg>