<svg xmlns="http://www.w3.org/2000/svg" width="19" height="21">
    <path d="M16.163 12.406l.09-.02c2.905-.444 3.912 3.747 1.015 4.612L3.75 20.888c-1.82.437-3.31-.444-3.673-1.954-.358-1.485.533-2.95 2.255-3.353.382-.09.766.142.857.517s-.145.75-.527.84c-.95.222-1.38.93-1.2 1.674.18.75.895 1.173 1.92.928l13.478-3.88c1.177-.35.787-2.034-.35-1.9l-2.63.748c-.663.19-1.183-.567-.758-1.1.634-.796 1.042-1.825 1.04-2.777-.002-1.236-.34-1.98-1.314-3.31l-.19-.26c-1.283-1.746-1.86-3.07-1.785-5.013a6.4 6.4 0 0 0-.5.435c-.592.572-1.053 1.24-1.335 2.014-.27.74-.288 1.322-.16 2.325.2 1.564.095 2.155-.946 2.734-1.132.63-2.34.33-3.003-.758-.345-.567-.522-1.31-.526-2.184-.882 1.304-1.32 2.825-1.097 4.564.44 3.458 3.706 5.362 7.423 3.8.36-.15.78.014.933.37s-.015.765-.376.916c-4.595 1.918-8.835-.554-9.39-4.922-.282-2.21.325-4.145 1.502-5.763.587-.807 1.178-1.363 1.594-1.663.538-.39 1.276.1 1.11.734-.755 2.913.07 4.27 1.13 3.682.345-.192.367-.315.235-1.347-.153-1.202-.13-1.976.233-2.97.36-.983.94-1.827 1.677-2.54.768-.74 1.537-1.205 2.076-1.432.515-.217 1.072.21.983.753-.394 2.4-.002 3.56 1.377 5.436l.192.26c1.133 1.544 1.58 2.53 1.582 4.123.001.693-.15 1.397-.42 2.06l.997-.284zm1.308 5.96a.58.58 0 0 1 .346-.749c.306-.113.648.04.764.34.66 1.722-1.1 3.478-3.198 2.786l-.06-.023-1.67-.76c-.297-.135-.426-.48-.288-.772s.5-.418.787-.283l1.64.747c1.134.357 1.984-.494 1.68-1.283z"
          fill="#767676" fill-rule="nonzero"/>
</svg>