<?xml version="1.0" encoding="UTF-8"?>
<svg width="48px" height="48px" viewBox="0 0 48 48" version="1.1" xmlns="http://www.w3.org/2000/svg"
>
    <!-- Generator: Sketch 54.1 (76490) - https://sketchapp.com -->
    <title>_icon/edit/l/active</title>
    <desc>Created with Sketch.</desc>
    <defs>
        <linearGradient x1="0%" y1="0%" x2="100%" y2="100%" id="linearGradient-1">
            <stop stop-color="#972C86" offset="0%"></stop>
            <stop stop-color="#794997" offset="40%"></stop>
            <stop stop-color="#007180" offset="100%"></stop>
        </linearGradient>
    </defs>
    <g id="_icon/edit/l/active" stroke="none" stroke-width="1" fill="none" fill-rule="evenodd">
        <path d="M30.0629682,23.0938861 C30.6487546,22.5080996 31.5985021,22.5080996 32.1842885,23.0938861 C32.770075,23.6796725 32.770075,24.62942 32.1842885,25.2152064 L18.6570284,38.7424666 C18.4714782,38.9280167 18.2404987,39.0616447 17.9871527,39.1300079 L7.33443533,42.0045506 C6.21733676,42.3059899 5.19401006,41.2826632 5.49544936,40.1655647 L8.36999214,29.5128473 C8.43835534,29.2595013 8.5719833,29.0285218 8.75753343,28.8429716 L29.0484237,8.55208139 C31.8656191,5.73488597 36.3730029,5.63898418 39.1170094,8.38299064 C41.8610158,11.1269971 41.765114,15.6343809 38.9479186,18.4515763 L36.2424666,21.1570284 C35.6566801,21.7428148 34.7069327,21.7428148 34.1211462,21.1570284 L30.2320589,17.2679411 C29.6462725,16.6821546 29.6462725,15.7324072 30.2320589,15.1466207 C30.8178454,14.5608343 31.7675928,14.5608343 32.3533793,15.1466207 L35.1818064,17.9750478 L36.8265983,16.330256 C38.4919425,14.6649117 38.5474498,12.0560717 36.995689,10.504311 C35.4439283,8.95255023 32.8350883,9.00805747 31.169744,10.6734017 L11.1620541,30.6810917 L9.07147752,38.4285225 L16.8189083,36.3379459 L30.0629682,23.0938861 Z"
              id="Rectangle-20" fill="url(#linearGradient-1)" fill-rule="nonzero"></path>
    </g>
</svg>