<svg xmlns="http://www.w3.org/2000/svg" width="24" height="24" stroke="#007180" fill="none">
    <g stroke-linejoin="round" stroke-width="1.563">
        <path d="M16.722 22.267c-2.264 1.064-5.163.638-7.282-1.29l-6.59-5.998c-1.004-.743-.912-2.513-.416-3.07"
              strokeLinecap="round"/>
        <path d="M19.16 18.935c-1.173.954-2.587 1.38-3.992 1.315-1.83-.084-3.646-1-4.895-2.663l-.135-.186-.064-.08-5.072-6.756c-.458-.6-.353-1.493.235-1.97l.043-.035c.588-.478 1.436-.37 1.895.24l-1.262-1.68c-.458-.6-.353-1.493.235-1.97l.043-.035c.588-.478 1.436-.37 1.895.24L6.824 3.67c-.458-.6-.353-1.493.235-1.97l.043-.035c.588-.478 1.436-.37 1.895.24l.84 1.12c-.458-.6-.353-1.493.235-1.97l.043-.035c.588-.478 1.436-.37 1.895.24l6.08 8.097.006-4.226c.001-.97.758-1.756 1.7-1.757h.07c.932-.001 1.687.783 1.685 1.753l-.012 9.006c0 .208-.035.408-.1.593-.194 1.624-.962 3.15-2.27 4.213z"/>
    </g>
    <path d="M7 8.67l3.506 4.488M8.32 5.784l3.506 4.488M10.06 3.46l3.945 5.05" stroke-width="1.563"
          strokeLinecap="round"/>
</svg>