<svg xmlns="http://www.w3.org/2000/svg" width="12" height="12">
    <path d="M9.588 5.446l.58-1.596a.96.96 0 0 1 1.228-.573.96.96 0 0 1 .573 1.228l-1.5 4.124c-.074.36-.202.712-.38 1.04l-.036.1-.016-.006c-.332.577-.82 1.08-1.445 1.442-1.833 1.058-4.145.485-5.165-1.28l-.032-.056L.342 7.307a.96.96 0 0 1-.118-1.35.96.96 0 0 1 1.35-.118L3.09 7.112l.105-.315L.98 4.157a.96.96 0 0 1 .118-1.35.96.96 0 0 1 1.35.118L4.35 5.192l.148-.117-1.843-3.192A.96.96 0 0 1 3.007.575.96.96 0 0 1 4.316.925l1.963 3.4.1-.015-1.1-3.024A.96.96 0 0 1 5.861.058.96.96 0 0 1 7.089.631l1.473 4.048a3.6 3.6 0 0 1 1.027.768z"
          fill="#fff" fill-rule="evenodd"/>
</svg>