<?xml version="1.0" encoding="UTF-8"?>
<svg width="48px" height="48px" viewBox="0 0 48 48" version="1.1" xmlns="http://www.w3.org/2000/svg"
>
    <!-- Generator: Sketch 54.1 (76490) - https://sketchapp.com -->
    <title>_icon/people_group/l/active</title>
    <desc>Created with Sketch.</desc>
    <defs>
        <linearGradient x1="0%" y1="12.9801605%" x2="100%" y2="87.0198395%" id="linearGradient-1">
            <stop stop-color="#972C86" offset="0%"></stop>
            <stop stop-color="#794997" offset="40%"></stop>
            <stop stop-color="#007180" offset="100%"></stop>
        </linearGradient>
    </defs>
    <g id="_icon/people_group/l/active" stroke="none" stroke-width="1" fill="none" fill-rule="evenodd">
        <path d="M12.1605324,40.5 L37.1408048,40.5 C37.9692319,40.5 38.6408048,41.1715729 38.6408048,42 C38.6408048,42.8284271 37.9692319,43.5 37.1408048,43.5 L11.7753972,43.5 C10.3250384,43.5 9.16053236,42.3128792 9.16053236,40.8634844 L9.16073729,38.565659 C9.23265279,34.2155132 11.0540444,30.8106852 14.0105019,28.3050396 C14.7544201,27.6745569 15.5337838,27.1336329 16.3239902,26.6749558 C16.0715504,26.4472055 15.8156988,26.1976741 15.5601811,25.9255934 C13.6567696,23.8988009 12.505127,21.3000315 12.505127,18.1331729 C12.505127,11.6845494 17.6576205,6.5 24.0389107,6.5 C30.4208047,6.5 35.5726945,11.6842601 35.5726945,18.1331729 C35.5726945,21.278514 34.4223423,23.8744136 32.5222759,25.9142949 C32.2607542,26.1950604 31.9989014,26.4523011 31.7407636,26.6867708 C32.5612872,27.1668374 33.3703952,27.7409388 34.1412325,28.4182656 C36.0246401,30.0731965 37.4636969,32.1526729 38.279694,34.6855863 L42.4579749,34.6855863 C42.2607948,32.672586 41.4031164,31.1223553 40.0714839,29.9288648 C39.5311485,29.4445831 38.9490243,29.055072 38.3694162,28.7550129 C38.0331127,28.5809109 37.7862375,28.4798079 37.6757331,28.4435173 C36.3828832,28.0189337 36.2779764,26.2306157 37.5123156,25.6577816 C37.5633512,25.6340969 37.7007866,25.5587801 37.8950572,25.4305756 C38.2377515,25.2044221 38.5835066,24.922077 38.9047618,24.5842386 C39.8083372,23.6340208 40.3397753,22.4506697 40.3397753,20.9600384 C40.3397753,18.9309236 39.2680252,17.1770483 37.491339,16.2357779 C36.7592996,15.8479509 36.4802604,14.9401197 36.8680874,14.2080803 C37.2559145,13.476041 38.1637457,13.1970017 38.895785,13.5848288 C41.6473499,15.0425801 43.3397753,17.8121651 43.3397753,20.9600384 C43.3397753,23.2696258 42.4852054,25.1724933 41.0787676,26.6515312 C41.030627,26.7021568 40.9824673,26.7517131 40.9343321,26.8002106 C41.3226009,27.0662331 41.7043597,27.3637556 42.0737591,27.6948339 C44.1595116,29.5642129 45.4444326,32.1202303 45.4996595,35.3788023 C45.5217316,36.652654 44.4857919,37.6855863 43.2219714,37.6855863 L41.967499,37.6855863 L41.5173004,37.6855863 L37.1408048,37.6855863 C36.4446351,37.6855863 35.8399609,37.2065943 35.6806224,36.5289046 C35.1108186,34.1054462 33.8758981,32.1787214 32.1610135,30.67187 C31.3078226,29.9221799 30.3903864,29.3258247 29.4754475,28.8705697 C28.9381449,28.6032189 28.5352581,28.4466204 28.3363864,28.3855619 C27.0322277,27.9851531 26.8963698,26.1928497 28.1252716,25.600433 C28.227317,25.55124 28.4533399,25.4231817 28.7613277,25.2139837 C29.2934865,24.8525194 29.8287555,24.4045107 30.3270591,23.8695398 C31.7370265,22.3558211 32.5726945,20.470042 32.5726945,18.1331729 C32.5726945,13.3369225 28.7597295,9.5 24.0389107,9.5 C19.3186541,9.5 15.505127,13.3372528 15.505127,18.1331729 C15.505127,20.4898936 16.339839,22.3734849 17.7470188,23.8718795 C18.2436552,24.4007084 18.7770553,24.8415476 19.3072549,25.1954926 C19.6137743,25.4001156 19.8383435,25.5245424 19.9389392,25.5717161 C21.1742996,26.1510303 21.057361,27.9450296 19.7572503,28.3590737 C19.5556395,28.4232804 19.1525043,28.5821345 18.616767,28.8472267 C17.7073527,29.297221 16.7961752,29.8766361 15.950145,30.5936604 C13.6170892,32.5709629 12.2169815,35.1882616 12.1605324,38.5904533 L12.1605324,40.5 Z M5.92615294,27.7845305 C6.29555234,27.4534522 6.67731109,27.1559297 7.06557988,26.8899072 C7.01744471,26.8414098 6.96928501,26.7918534 6.9211444,26.7412278 C5.51470663,25.2621899 4.66013676,23.3593225 4.66013676,21.049735 C4.66013676,17.9018617 6.35256209,15.1322767 9.10412699,13.6745254 C9.83616637,13.2866984 10.7439975,13.5657376 11.1318246,14.297777 C11.5196517,15.0298164 11.2406124,15.9376475 10.508573,16.3254746 C8.73188682,17.266745 7.66013676,19.0206202 7.66013676,21.049735 C7.66013676,22.5403663 8.19157481,23.7237174 9.09515025,24.6739352 C9.41640547,25.0117736 9.76216057,25.2941188 10.1048548,25.5202722 C10.2991254,25.6484767 10.4365608,25.7237935 10.4875964,25.7474782 C11.7219356,26.3203123 11.6170288,28.1086303 10.3062571,28.5398231 C10.27005,28.5530845 10.2253631,28.5703852 10.1729306,28.5918579 C10.0128112,28.6574317 9.83005054,28.7414014 9.63049587,28.8447095 C9.05088773,29.1447686 8.46876354,29.5342798 7.92842814,30.0185614 C6.59679567,31.2120519 5.73911725,32.7622826 5.54193708,34.7752829 L5.99991202,34.7752829 C6.82833915,34.7752829 7.49991202,35.4468558 7.49991202,36.2752829 C7.49991202,37.1037101 6.82833915,37.7752829 5.99991202,37.7752829 L4.77794061,37.7752829 C3.5141201,37.7752829 2.47818044,36.7423507 2.50025255,35.4684989 C2.55547942,32.209927 3.84040044,29.6539096 5.92615294,27.7845305 Z"
              id="Combined-Shape" fill="url(#linearGradient-1)" fill-rule="nonzero"></path>
    </g>
</svg>