<?xml version="1.0" encoding="UTF-8"?>
<svg width="48px" height="48px" viewBox="0 0 48 48" version="1.1" xmlns="http://www.w3.org/2000/svg"
>
    <!-- Generator: Sketch 54.1 (76490) - https://sketchapp.com -->
    <title>_icon/people_group/l/white</title>
    <desc>Created with Sketch.</desc>
    <g id="_icon/people_group/l/white" stroke="none" stroke-width="1" fill="none" fill-rule="evenodd"
       strokeLinecap="round" stroke-linejoin="round">
        <path d="M37.1408048,42 C31.4363161,42 23.1843746,42 11.7753972,42 C11.1599918,42 10.6605324,41.490841 10.6605324,40.8634844 L10.6605324,38.5904533 C10.8085864,29.6347105 19.3020729,26.9298034 19.3020729,26.9298034 C19.3020729,26.9298034 14.005127,24.445835 14.005127,18.1331729 C14.005127,12.4924188 18.5065053,8 24.0389107,8 C29.572208,8 34.0726945,12.4924188 34.0726945,18.1331729 C34.0726945,24.398556 28.7766405,26.9516245 28.7766405,26.9516245 C28.7766405,26.9516245 35.4515616,29.0009894 37.1408048,36.1855863 C42.7728109,36.1855863 41.1523982,36.1855863 43.2219714,36.1855863 C43.6513795,36.1855863 44.0073526,35.8357891 43.9998846,35.404789 C43.8897321,28.905432 38.1437541,27.018401 38.1437541,27.018401 C38.1437541,27.018401 41.8397753,25.3031455 41.8397753,20.9600384 C41.8397753,18.3301164 40.4202528,16.0899817 38.193562,14.9103034"
              id="Page-1-Copy" stroke="#FFFFFF" stroke-width="3"></path>
        <path d="M7.85624586,36.2752829 L9.07821727,36.2752829 C9.50762535,36.2752829 9.86359842,35.9254857 9.85613045,35.4944856 C9.74597795,28.9951287 4,27.1080977 4,27.1080977 C4,27.1080977 7.69602112,25.3928421 7.69602112,21.049735 C7.69602112,18.4198131 6.27649866,16.1796783 4.04980787,15"
              id="Page-1-Copy" stroke="#FFFFFF" stroke-width="3"
              transform="translate(6.928123, 25.637641) scale(-1, 1) translate(-6.928123, -25.637641) "></path>
    </g>
</svg>