<?xml version="1.0" encoding="UTF-8"?>
<svg width="24px" height="24px" viewBox="0 0 24 24" version="1.1" xmlns="http://www.w3.org/2000/svg"
>
    <!-- Generator: Sketch 54.1 (76490) - https://sketchapp.com -->
    <title>_icon/calender/r/inactive</title>
    <desc>Created with Sketch.</desc>
    <g id="_icon/calender/r/inactive" stroke="none" stroke-width="1" fill="none" fill-rule="evenodd">
        <path d="M8,3 L8,7" id="Path" stroke="#767676" stroke-width="2" strokeLinecap="round"
              stroke-linejoin="round"></path>
        <path d="M16,3 L16,7" id="Path-Copy" stroke="#767676" stroke-width="2" strokeLinecap="round"
              stroke-linejoin="round"></path>
        <path d="M9,5 C9.63218678,5 10.9655201,5 13,5 M16,5 C16.9039714,5 17.1920573,5 19,5 C20.1045695,5 21,5.8954305 21,7 L21,19 C21,20.1045695 20.1045695,21 19,21 L5,21 C3.8954305,21 3,20.1045695 3,19 L3,7 C3,5.8954305 3.8954305,5 5,5"
              id="Rectangle-18" stroke="#767676" stroke-width="2" strokeLinecap="round" stroke-linejoin="round"></path>
        <rect id="Rectangle-19" fill="#767676" x="7" y="10" width="5" height="4" rx="2"></rect>
    </g>
</svg>