<svg id="Laag_1" data-name="Laag 1" xmlns="http://www.w3.org/2000/svg" viewBox="0 0 1080 1080"><defs><style>.cls-1{fill:#3f034a;}</style></defs><path class="cls-1" d="M540,428.69c72.46,0,131.42-58.95,131.42-131.42S612.46,165.85,540,165.85s-131.42,59-131.42,131.42S467.54,428.69,540,428.69ZM540,196A101.27,101.27,0,1,1,438.73,297.27,101.38,101.38,0,0,1,540,196Z"/><path class="cls-1" d="M265.67,447.67A108.15,108.15,0,1,0,157.52,339.52,108.27,108.27,0,0,0,265.67,447.67Zm-78-108.15a78,78,0,1,1,78,78A78.08,78.08,0,0,1,187.68,339.52Z"/><path class="cls-1" d="M814.33,447.67A108.15,108.15,0,1,0,706.17,339.52,108.27,108.27,0,0,0,814.33,447.67Zm-78-108.15a78,78,0,1,1,78,78A78.09,78.09,0,0,1,736.33,339.52Z"/><path class="cls-1" d="M935,519.57c-31.23-26.92-74.09-41.74-120.68-41.74-47.19,0-90.41,15.15-121.72,42.67-1.46,1.29-2.89,2.61-4.29,3.94l-4-3.26c-37.91-30.86-89.16-47.86-144.32-47.86-57.32,0-110,18.19-148.35,51.22l-3.58-3.43c-.53-.51-1.1-1-1.71-1.54-31.23-26.92-74.09-41.74-120.69-41.74S176.22,492.65,145,519.57C112,548,93.84,588.64,93.84,634V728c0,25.08,19.53,43.29,46.43,43.29S186.7,753.12,186.7,728V664.75a15.08,15.08,0,1,0-30.16,0V728c0,2.19-.78,13.14-16.27,13.14S124,730.23,124,728V634c0-74.19,58.26-126,141.68-126,40.72,0,75.86,12,101.64,34.66l3.45,3a175.06,175.06,0,0,0-25.1,39.75C334.59,609.6,329,636.29,329,664.75V782.32c0,29.17,22.82,50.34,54.26,50.34s54.27-21.17,54.27-50.34V634c0-29.88-8.05-58.31-23.26-82.23l-3-4.74c32.6-28.08,78.32-43.54,128.77-43.54,49.39,0,92.66,14,125.15,40.47l3.78,3.09c-17.22,24.82-26.44,54.73-26.44,87V782.32c0,29.17,22.82,50.34,54.27,50.34S751,811.49,751,782.32V664.75c0-43.45-13.26-83.19-38.35-114.91l-3.3-4.18c1.21-1.13,2.44-2.25,3.71-3.35C738.63,520.17,774.59,508,814.33,508,897.75,508,956,559.79,956,634V728c0,9.7-8.77,13.14-16.28,13.14s-16.27-3.44-16.27-13.14V664.75a15.08,15.08,0,0,0-30.16,0V728c0,25.08,19.53,43.29,46.43,43.29s46.43-18.21,46.43-43.29V634C986.16,588.64,968,548,935,519.57ZM720.87,782.32c0,15.94-15.16,20.19-24.11,20.19s-24.12-4.25-24.12-20.19V634c0-24.08,5.91-45.91,17.32-64.53l1.79,2.46c19,26.06,29.12,58.16,29.12,92.84Zm-313.51,0c0,15.94-15.16,20.19-24.12,20.19s-24.11-4.25-24.11-20.19V664.75c0-36.51,10.58-68.94,30.85-95.32l1.5,2.62C402,590.4,407.36,611.24,407.36,634Z"/></svg>