<?xml version="1.0" encoding="UTF-8"?>
<svg width="14px" height="17px" viewBox="0 0 14 17" version="1.1" xmlns="http://www.w3.org/2000/svg"
>
    <!-- Generator: Sketch 55.2 (78181) - https://sketchapp.com -->
    <title>Combined Shape</title>
    <desc>Created with Sketch.</desc>
    <g id="Page-1" stroke="none" stroke-width="1" fill="none" fill-rule="evenodd">
        <path d="M12.0546768,14.5088833 C11.3918853,14.6974432 10.8713172,13.9423339 11.2962145,13.4086971 C11.9299572,12.6127672 12.3380851,11.5838561 12.3369761,10.6321021 C12.3348043,9.3959265 11.9977696,8.65111326 11.0229115,7.32288747 C10.9844954,7.27054627 10.851269,7.08965104 10.8316138,7.06291214 C9.54821704,5.31698143 8.9709308,3.99429556 9.04710208,2.05013998 C8.87675846,2.18348917 8.70930985,2.32833281 8.54724568,2.48478834 C7.95503248,3.05650652 7.4946155,3.72595005 7.21221256,4.49926918 C6.94132995,5.24066491 6.92415511,5.82081717 7.05180793,6.82457373 C7.2506474,8.38808335 7.1471386,8.97964093 6.10614706,9.55883135 C4.97462097,10.187854 3.7648746,9.88982531 3.10269156,8.80132691 C2.7578177,8.23442226 2.58047276,7.49261389 2.57706789,6.61721639 C1.69501952,7.92083381 1.2583596,9.44238174 1.47980008,11.1809373 C1.92001876,14.6384784 5.18604921,16.5427975 8.9025632,14.9914328 C9.26403337,14.8405462 9.68170008,15.0058046 9.83544792,15.3605478 C9.98919577,15.7152909 9.82080355,16.1251848 9.45933339,16.2760714 C4.86418582,18.1941994 0.624442232,15.722139 0.0682925294,11.3540588 C-0.213287563,9.1433401 0.393045825,7.20911637 1.57036772,5.59091801 C2.15733938,4.78414071 2.74874003,4.22809973 3.16393884,3.92787844 C3.70178813,3.53897123 4.43982435,4.02651064 4.27511893,4.66191299 C3.52013354,7.57450358 4.34637244,8.93267747 5.40481967,8.34427986 C5.75006762,8.15218961 5.77152663,8.02955043 5.64027129,6.99746669 C5.48736153,5.79511046 5.51026591,5.02141923 5.87316315,4.02818288 C6.23221421,3.04497405 6.81246332,2.20129532 7.54969385,1.48957849 C8.3176895,0.748161251 9.08675603,0.28478177 9.62596816,0.0577267102 C10.1412573,-0.159254698 10.6978222,0.26697626 10.6085991,0.81024942 C10.2143762,3.21064472 10.6062739,4.3702199 11.9852459,6.24617108 C12.0042573,6.27203413 12.1379048,6.45350115 12.1771473,6.5069683 C13.3101595,8.05067608 13.7566646,9.03740794 13.7594657,10.6301003 C13.7602702,11.3230963 13.6081689,12.0270567 13.3396022,12.6898408 L12.0546768,14.5088833 Z"
              id="Combined-Shape" fill="#767676"></path>
    </g>
</svg>