<svg xmlns="http://www.w3.org/2000/svg" viewBox="0 0 300.8 71.3">
    <style>
        <![CDATA[.A{fill:#383838}.B{fill:#8bc53f}.C{fill:#fff100}.D{fill:#f6921e}.E{fill:#ec1c24}.I{fill:#00bff2}]]></style>
    <path class="A"
          d="M119.8 34.1c0-11 6.2-19.8 18.3-19.7 3.7 0 7.4 1 9.9 4.2v-3.8h11v35.8c0 14.1-9.7 19.7-19.3 19.7-9.4 0-18.8-5.7-18.8-14.9h11.6c0 2.3 3.3 4.2 6.8 4.1 4-.1 8.3-2.2 8.6-8.9v-2c-2.5 2.9-6 3.9-9.8 3.9-12.2.2-18.3-7.9-18.3-18.4m11.1.2c.1 5.3 4.3 7.9 8.5 7.9 4.3-.1 8.6-2.8 8.6-8.1 0-5.1-3.9-9.2-8.6-9.2-5.7 0-8.6 4.8-8.5 9.4m46.2 18.5h-11v-38h10l.4 2.5c2.5-2.3 5.2-3.3 8.3-3.3 1.3 0 2.8.2 4.3.6l-.2 10.4c-1.1-.4-2.5-.6-3.7-.6-4 .1-8.1 2.2-8.1 7.3v21.1zM200.7 0c3.4-.1 6.9 2 6.9 6.5 0 4.1-3.2 6.1-6.4 6.2-3.4.1-6.9-2-6.9-6.2s3.2-6.4 6.4-6.5m-5.3 52.8h11.2v-38h-11.2v38zm40-38.5c-.9 0-1.8.1-2.7.2l-4.8 13.1c1.6-1.7 3.7-2.7 6.2-2.7 5.7 0 8.6 4.7 8.5 9.3s-2.9 9.1-8.5 9.1c-4.8 0-8.6-4.1-8.6-9.2V14.8h-11v49.1h11V49.3c2.5 2.9 6.1 4.1 9.8 4.1 12.3 0 18.3-8.6 18.4-19 0-10.4-6.2-20.1-18.3-20.1m44.4 0c-.9 0-1.8.1-2.7.2l-4.9 13.2c1.6-1.7 3.8-2.8 6.2-2.8 5.7 0 8.6 4.7 8.5 9.3s-2.9 9.1-8.5 9.1c-4.7 0-8.5-4-8.6-9V14.8h-11v49.1h11V49.3c2.5 2.9 6.1 4.1 9.8 4.1 12.3 0 18.3-8.6 18.4-19 .2-10.4-6.1-20.1-18.2-20.1"/>
    <path class="B"
          d="M62.7 32.2c-.1-5.1 3.9-9.3 9-9.4h.2c5 0 9.1 4 9.2 9 .1 5.1-3.9 9.3-9 9.4h-.2c-4.9 0-9-4-9.2-9m9.1-4.8c-2.5.1-4.5 2.1-4.4 4.6s2.1 4.4 4.6 4.4c2.5-.1 4.5-2.1 4.4-4.6s-2.1-4.4-4.5-4.4h-.1"/>
    <path class="C"
          d="M37.3 25.5c-.1-5.1 3.9-9.3 9-9.4 5.1-.2 9.3 3.9 9.4 9s-3.9 9.3-9 9.4h-.2c-5 0-9.1-4-9.2-9m9.1-4.8c-2.5.1-4.5 2.1-4.4 4.6s2.1 4.4 4.5 4.4h.1c2.5-.1 4.5-2.1 4.4-4.6s-2.1-4.4-4.5-4.4h-.1"/>
    <path class="D"
          d="M25.7 49.4c-.1-5.1 3.9-9.3 9-9.4 2.5-.1 4.8.8 6.6 2.5a9.3 9.3 0 0 1 2.9 6.4c.1 2.5-.8 4.8-2.5 6.6a9.3 9.3 0 0 1-6.4 2.9h-.2c-5.2 0-9.3-4-9.4-9m9.1-4.8c-2.5.1-4.5 2.1-4.4 4.6s2.1 4.5 4.6 4.4c1.2 0 2.3-.5 3.2-1.4.8-.9 1.3-2 1.2-3.2 0-1.2-.5-2.3-1.4-3.2-.8-.8-1.9-1.2-3.1-1.2h-.1"/>
    <path class="E"
          d="M1 33.4c-.1-5.1 3.9-9.3 9-9.4 2.5-.1 4.8.8 6.6 2.5a9.3 9.3 0 0 1 2.9 6.4c.1 2.5-.8 4.8-2.5 6.6a9.3 9.3 0 0 1-6.4 2.9h-.2c-5.2 0-9.3-4-9.4-9m9.1-4.7c-2.5.1-4.5 2.1-4.4 4.6s2.1 4.4 4.6 4.4c1.2 0 2.3-.5 3.2-1.4.8-.9 1.3-2 1.2-3.2 0-1.2-.5-2.3-1.4-3.2-.8-.8-1.9-1.2-3.1-1.2h-.1"/>
    <path d="M46.5 20.7h-.1c-1.2 0-2.3.5-3.2 1.4-.8.9-1.2 1.9-1.2 3.1h-.8c-1.4 0-2.7-.3-3.9-.8.2-2.1 1-4 2.5-5.5a9.3 9.3 0 0 1 6.4-2.9c1.8 0 3.5.4 4.9 1.3-.4 1.6-1.1 3-2.1 4.2-.7-.5-1.6-.8-2.5-.8"
          fill="#fff698"/>
    <path d="M31.4 52c.1.2.3.3.4.5.9.8 2 1.3 3.2 1.2 1.2 0 2.3-.5 3.2-1.4.5-.5.8-1.2 1-1.8 1.6.3 3.1 1 4.3 2-.4 1.1-1.1 2.1-1.9 3a9.3 9.3 0 0 1-6.4 2.9H35a9.1 9.1 0 0 1-6.3-2.5l-.4-.4c.7-1.4 1.8-2.6 3.1-3.5"
          fill="#fcb813"/>
    <path d="M11.3 24.1c-.5-.1-.9-.1-1.3-.1-5.1.1-9.1 4.4-9 9.4 0 .6.1 1.2.2 1.7A10.39 10.39 0 0 0 5.8 34c0-.2-.1-.5-.1-.7-.1-2.5 1.9-4.6 4.4-4.6h.5c.5-1.2.7-2.5.7-3.8v-.8"
          fill="#f05c2a"/>
    <path class="I"
          d="M88.3 21.3c-.1-5.1 3.9-9.3 9-9.4 2.5-.1 4.8.8 6.6 2.5a9.3 9.3 0 0 1 2.9 6.4c.1 2.5-.8 4.8-2.5 6.6a9.3 9.3 0 0 1-6.4 2.9h-.2c-5.1-.1-9.2-4-9.4-9m9.1-4.8c-2.5.1-4.5 2.1-4.4 4.6s2.1 4.4 4.5 4.4h.1c1.2 0 2.3-.5 3.2-1.4.8-.9 1.3-2 1.2-3.2 0-1.2-.5-2.3-1.4-3.2-.8-.8-1.9-1.2-3.1-1.2h-.1"/>
    <path d="M102.1 20.9a4.1 4.1 0 0 0-1.4-3.1c-.8-.8-1.9-1.2-3.1-1.2h-.1c-.3 0-.6 0-.9.1-.8-1.3-1.4-2.8-1.6-4.4.7-.2 1.5-.4 2.3-.4 2.4-.1 4.8.8 6.6 2.5a9.3 9.3 0 0 1 2.9 6.4v.5c-.5.1-1 .1-1.5.1-1.2 0-2.2-.2-3.2-.5"
          fill="#6dcef5"/>
    <path d="M72.2 41.2H72a9.1 9.1 0 0 1-6.3-2.5c-.3-.3-.6-.6-.8-.9.9-1.3 2-2.4 3.4-3.3.2.3.4.5.6.7.9.8 2 1.2 3.2 1.2 1.9-.1 3.6-1.3 4.1-3.1 1.6.4 3 1.2 4.2 2.2-1.4 3.3-4.5 5.6-8.2 5.7"
          fill="#bcd752"/>
    <path class="E" d="M17.5 35.4l-2.5 4 5.8 3.6 4.1-3z"/>
    <path class="D" d="M41.9 39.5l-2.7-4.8-3.9 7.1 4.1 2.2z"/>
    <path class="C" d="M39.1 34.7h.1m14.6-10.8l-1.3 4.5 4.7 1.3 3.6-3.9-7-1.9z"/>
    <path class="B" d="M66.2 27.4l-1.3 4.5 1.3-4.5zm12.4 0l2 4.2 7-3.2-4.7-3z"/>
    <path class="D" d="M24.9 40l-4.1 3 7.2 4.6 2.5-4z"/>
    <path class="C" d="M45.6 32.8l-4.2-2.3-2.2 4.2 2.7 4.8z"/>
    <path class="B" d="M60.9 25.9l-3.6 3.9 4.5 1.3 3.2.9 1.3-4.5-5.4-1.6z"/>
    <path class="I" d="M90.2 21.9l-7.3 3.5 4.7 3 4.6-2.2z"/>
</svg>