<?xml version="1.0" encoding="UTF-8"?>
<svg width="32px" height="32px" viewBox="0 0 32 32" version="1.1" xmlns="http://www.w3.org/2000/svg"
>
    <!-- Generator: Sketch 54.1 (76490) - https://sketchapp.com -->
    <title>_icon/settings/m/white</title>
    <desc>Created with Sketch.</desc>
    <g id="_icon/settings/m/white" stroke="none" stroke-width="1" fill="none" fill-rule="evenodd" strokeLinecap="round"
       stroke-linejoin="round">
        <g id="Group-2" transform="translate(3.000000, 3.000000)" stroke="#FFFFFF" stroke-width="2">
            <path d="M10.0672173,23.3769143 L10.0672173,26.2841797 L15.3245575,26.2841797 L15.3245575,23.3769143 C17.2204161,22.8874329 18.9103258,21.8901323 20.2334772,20.5274839 L22.7626993,21.9888749 L25.3906641,17.4368393 L22.8332298,15.9585209 C23.0702121,15.0811221 23.2084518,14.1614049 23.2084518,13.2078332 C23.2084518,12.2119431 23.0617485,11.2527289 22.803607,10.3414754 L25.3906641,8.84622978 L22.7626993,4.29560476 L20.1544831,5.80072469 C18.8440272,4.48039456 17.1809191,3.51694853 15.3245575,3.03875204 L15.3245575,0.0003 L10.0672173,0.0003 L10.0672173,3.03875204 C8.20944506,3.51694853 6.54774752,4.48039456 5.23729165,5.80072469 L2.6290754,4.29560476 L-0.0003,8.84622978 L2.58816773,10.3414754 C2.33002626,11.2527289 2.1819123,12.2119431 2.1819123,13.2078332 C2.1819123,14.1614049 2.320152,15.0811221 2.55854494,15.9585209 L-0.0003,17.4368393 L2.6290754,21.9888749 L5.15829754,20.5274839"
                  id="Stroke-1"></path>
            <path d="M16.9274326,13.1418167 C16.9274326,15.479196 15.0329845,17.373644 12.6956052,17.373644 C10.3582259,17.373644 8.46377789,15.479196 8.46377789,13.1418167 C8.46377789,10.8044374 10.3582259,8.90998931 12.6956052,8.90998931 C15.0329845,8.90998931 16.9274326,10.8044374 16.9274326,13.1418167 Z"
                  id="Stroke-3"></path>
        </g>
    </g>
</svg>