<?xml version="1.0" encoding="UTF-8"?>
<svg width="32px" height="32px" viewBox="0 0 32 32" version="1.1" xmlns="http://www.w3.org/2000/svg"
>
    <!-- Generator: Sketch 54.1 (76490) - https://sketchapp.com -->
    <title>_icon/chat/m/white</title>
    <desc>Created with Sketch.</desc>
    <g id="_icon/chat/m/white" stroke="none" stroke-width="1" fill="none" fill-rule="evenodd">
        <path d="M30,17.1066 L30,19.4922 C30,21.357 28.4894,22.8676 26.6232,22.8676 L21.0689655,22.8676 C20.4095655,22.8676 19.809593,23.2512 19.533793,23.8476 L16,30.1 L12.4758624,23.8476 C12.2000624,23.2512 11.5986899,22.8676 10.9406899,22.8676 L5.3768,22.8676 C3.5106,22.8676 2,21.357 2,19.4922 L2,6.8754 C2,5.0106 3.5106,3.5 5.3768,3.5 L26.6232,3.5 C28.4894,3.5 30,5.0106 30,6.8754 L30,11.466"
              id="Page-1" stroke="#FFFFFF" stroke-width="3" strokeLinecap="round" stroke-linejoin="round"></path>
        <circle id="Oval-Copy-2" fill="#FFFFFF" cx="23" cy="13" r="2"></circle>
        <circle id="Oval" fill="#FFFFFF" cx="9" cy="13" r="2"></circle>
        <circle id="Oval-Copy" fill="#FFFFFF" cx="16" cy="13" r="2"></circle>
    </g>
</svg>