<?xml version="1.0" encoding="UTF-8"?>
<svg width="48px" height="48px" viewBox="0 0 48 48" version="1.1" xmlns="http://www.w3.org/2000/svg"
>
    <!-- Generator: Sketch 54.1 (76490) - https://sketchapp.com -->
    <title>_icon/underline/l/white</title>
    <desc>Created with Sketch.</desc>
    <g id="_icon/underline/l/white" stroke="none" stroke-width="1" fill="none" fill-rule="evenodd">
        <path d="M15,30.4329682 L15,10.417745 C15,9.94516096 15.2183892,9.59072826 15.6551743,9.35443624 C16.0919593,9.11814423 16.6203203,9 17.2402733,9 C17.8602262,9 18.3885872,9.11814423 18.8253723,9.35443624 C19.2621573,9.59072826 19.4805465,9.94516096 19.4805465,10.417745 L19.4805465,30.4329682 C19.4805465,32.2399071 19.9314146,33.5881413 20.8331643,34.4777112 C21.734914,35.3672811 23.0029806,35.8120594 24.6374019,35.8120594 C28.1035024,35.8120594 29.8365267,34.019047 29.8365267,30.4329682 L29.8365267,10.417745 C29.8365267,9.94516096 30.0549159,9.59072826 30.4917009,9.35443624 C30.9284859,9.11814423 31.456847,9 32.0767999,9 C32.6967528,9 33.2251139,9.11814423 33.6618989,9.35443624 C34.0986839,9.59072826 34.3170732,9.94516096 34.3170732,10.417745 L34.3170732,30.4329682 C34.3170732,33.6298601 33.4364714,35.9788455 31.6752415,37.4799947 C29.9140116,38.981144 27.5680885,39.7317073 24.6374019,39.7317073 C21.734895,39.7317073 19.4030616,38.981144 17.6418317,37.4799947 C15.8806018,35.9788455 15,33.6298601 15,30.4329682 Z M16.3170732,45 C15.5896737,45 15,44.4103263 15,43.6829268 C15,42.9555274 15.5896737,42.3658537 16.3170732,42.3658537 L33,42.3658537 C33.7273994,42.3658537 34.3170732,42.9555274 34.3170732,43.6829268 C34.3170732,44.4103263 33.7273994,45 33,45 L16.3170732,45 Z"
              id="Combined-Shape" fill="#FFFFFF"></path>
    </g>
</svg>