<?xml version="1.0" encoding="UTF-8"?>
<svg width="24px" height="24px" viewBox="0 0 24 24" version="1.1" xmlns="http://www.w3.org/2000/svg"
>
    <!-- Generator: Sketch 54.1 (76490) - https://sketchapp.com -->
    <title>_icon/happy/r/white</title>
    <desc>Created with Sketch.</desc>
    <g id="_icon/happy/r/white" stroke="none" stroke-width="1" fill="none" fill-rule="evenodd">
        <path d="M8,12 C8.67472974,13.4696277 10.2091405,14.5 12.0004281,14.5 C13.7908595,14.5 15.3252703,13.4696277 16,12"
              id="Stroke-1" stroke="#FFFFFF" stroke-width="2" strokeLinecap="round" stroke-linejoin="round"></path>
        <path d="M10.2119,8.0575 C10.2119,8.6975 9.6929,9.2155 9.0539,9.2155 C8.4159,9.2155 7.8969,8.6975 7.8969,8.0575 C7.8969,7.4175 8.4159,6.9005 9.0539,6.9005 C9.6929,6.9005 10.2119,7.4175 10.2119,8.0575"
              id="Fill-3" fill="#FFFFFF"></path>
        <path d="M16.3345,8.0575 C16.3345,8.6975 15.8155,9.2155 15.1765,9.2155 C14.5385,9.2155 14.0195,8.6975 14.0195,8.0575 C14.0195,7.4175 14.5385,6.9005 15.1765,6.9005 C15.8155,6.9005 16.3345,7.4175 16.3345,8.0575"
              id="Fill-5" fill="#FFFFFF"></path>
        <path d="M22,13.7189 L22,15.4229 C22,16.7549 20.921,17.8339 19.588,17.8339 L15.166,17.8339 C14.695,17.8339 14.268,18.1079 14.071,18.5339 L11.548,22.9999 L9.026,18.5339 C8.829,18.1079 8.401,17.8339 7.931,17.8339 L4.412,17.8339 C3.079,17.8339 2,16.7549 2,15.4229 L2,6.4109 C2,5.0789 3.079,3.9999 4.412,3.9999 L19.588,3.9999 C20.921,3.9999 22,5.0789 22,6.4109 L22,9.6899"
              id="Page-1" stroke="#FFFFFF" stroke-width="2" strokeLinecap="round" stroke-linejoin="round"></path>
    </g>
</svg>