<?xml version="1.0" encoding="UTF-8"?>
<svg width="24px" height="24px" viewBox="0 0 24 24" version="1.1" xmlns="http://www.w3.org/2000/svg"
>
    <!-- Generator: Sketch 54.1 (76490) - https://sketchapp.com -->
    <title>_icon/people/r/inactive</title>
    <desc>Created with Sketch.</desc>
    <g id="_icon/people/r/inactive" stroke="none" stroke-width="1" fill="none" fill-rule="evenodd"
       strokeLinecap="round" stroke-linejoin="round">
        <path d="M15.436,16.1249 C14.221,13.5589 11.64,12.8279 11.64,12.8279 C11.64,12.8279 14.313,11.5639 14.313,8.4629 C14.313,5.6719 12.042,3.5009 9.25,3.5009 C6.459,3.5009 4.188,5.6719 4.188,8.4629 C4.188,11.5869 6.86,12.8169 6.86,12.8169 C6.86,12.8169 2.575,14.1549 2.5,18.5879 L2.5,19.7129 C2.5,20.0239 2.752,20.2749 3.063,20.2749 L21.138,20.2749 C21.448,20.2749 21.706,20.0239 21.7,19.7129 C21.621,15.0309 17.466,13.6719 17.466,13.6719 C17.466,13.6719 20.138,12.4359 20.138,9.3069 C20.138,7.0579 18.693,5.3109 16.541,4.6609"
              id="Page-1" stroke="#767676" stroke-width="2"></path>
    </g>
</svg>