<?xml version="1.0" encoding="UTF-8"?>
<svg width="32px" height="32px" viewBox="0 0 32 32" version="1.1" xmlns="http://www.w3.org/2000/svg"
>
    <!-- Generator: Sketch 54.1 (76490) - https://sketchapp.com -->
    <title>_icon/people_group/m/white</title>
    <desc>Created with Sketch.</desc>
    <g id="_icon/people_group/m/white" stroke="none" stroke-width="1" fill="none" fill-rule="evenodd"
       strokeLinecap="round" stroke-linejoin="round">
        <g id="Group" transform="translate(1.800000, 6.000000)" stroke="#FFFFFF" stroke-width="3">
            <path d="M22.4218984,20 C18.880309,20 13.7571523,20 6.67397351,20 C6.29190363,20 5.98181794,19.7004947 5.98181794,19.3314614 L5.98181794,17.9943843 C6.0737362,12.7263003 11.3468542,11.1351785 11.3468542,11.1351785 C11.3468542,11.1351785 8.05828465,9.67402059 8.05828465,5.96068993 C8.05828465,2.64259928 10.852932,0 14.2876848,0 C17.7229913,0 20.5170849,2.64259928 20.5170849,5.96068993 C20.5170849,9.64620939 17.2290691,11.1480144 17.2290691,11.1480144 C17.2290691,11.1480144 21.3731443,12.3535232 22.4218984,16.5797567 C25.9184875,16.5797567 26.5051218,16.5797567 27.7900009,16.5797567 C28.1209103,16.5797567 28.3346364,16.3739936 28.3299999,16.1204641 C28.2616126,12.297313 24.6900005,11.1872947 24.6900005,11.1872947 C24.6900005,11.1872947 26.9899998,10.1783209 26.9899998,7.62355201 C26.9899998,6.07653907 26.1324244,4.75881274 24.75,4.06488433"
                  id="Page-1-Copy"></path>
            <path d="M1.86671594,16.6325194 L3.29277358,16.6325194 C3.55936839,16.6325194 3.78037163,16.4267563 3.7757352,16.1732268 C3.70734783,12.3500757 0.140000105,11.2400575 0.140000105,11.2400575 C0.140000105,11.2400575 2.43464737,10.2310836 2.43464737,7.67631473 C2.43464737,6.1293018 1.55334739,4.81157546 0.170922948,4.11764706"
                  id="Page-1-Copy"
                  transform="translate(1.957903, 10.375083) scale(-1, 1) translate(-1.957903, -10.375083) "></path>
        </g>
    </g>
</svg>