<svg xmlns="http://www.w3.org/2000/svg" width="32" height="32">
    <path d="M21.026 20.555c-1.834-3.873-5.73-4.977-5.73-4.977S19.33 13.67 19.33 9c0-4.213-3.428-7.5-7.642-7.5S4.048 4.777 4.048 9c0 4.716 4.033 6.572 4.033 6.572s-6.468 4.02-6.58 10.71v1.698a.85.85 0 0 0 .85.848h27.284c.468 0 .857-.38.848-.848-.12-7.067-6.39-11.12-6.39-11.12s4.033-1.866 4.033-6.59c0-3.395-2.18-6.032-5.43-7.013"
          stroke="#fff" stroke-width="3" fill="none" stroke-linecap="round" stroke-linejoin="round"/>
</svg>