<?xml version="1.0" encoding="UTF-8"?>
<svg width="24px" height="24px" viewBox="0 0 24 24" version="1.1" xmlns="http://www.w3.org/2000/svg"
>
    <!-- Generator: Sketch 54.1 (76490) - https://sketchapp.com -->
    <title>_icon/roles/r/white</title>
    <desc>Created with Sketch.</desc>
    <g id="_icon/roles/r/white" stroke="none" stroke-width="1" fill="none" fill-rule="evenodd" strokeLinecap="round"
       stroke-linejoin="round">
        <path d="M3,22.4501953 C2,19.7679311 1.5,17.1188254 1.5,14.5028783 C1.5,10.2586867 2.36525825,5.75772721 5.09577474,1 C5.28908155,4.24443318 4.99763619,6.78887162 6,8.63331531"
              id="Combined-Shape" stroke="#FFFFFF" stroke-width="2"></path>
        <path d="M9,8 C12.6119792,7.30419922 15.6119792,7.51338964 18,8.62757126 C19.0034417,6.78695694 18.693637,4.24443318 18.8869438,1 C21.6174603,5.75772721 22.4827185,10.2586867 22.4827185,14.5028783 C22.4827185,17.1188254 21.9827185,19.7679311 20.9827185,22.4501953"
              id="Path" stroke="#FFFFFF" stroke-width="2"></path>
        <path d="M3.25769043,20.4999568 C2.89610251,21.7987619 3.47687237,22.4508615 5,22.4562556 C6.52312763,22.4616498 8.85646097,21.9616498 12,20.9562556 C14.9872233,21.9562556 17.3205566,22.4562556 19,22.4562556 C20.6794434,22.4562556 21.2744141,21.804156 20.7849121,20.4999568"
              id="Rectangle" stroke="#FFFFFF" stroke-width="2"
              transform="translate(12.052128, 21.478128) scale(1, -1) translate(-12.052128, -21.478128) "></path>
        <path d="M7.46109746,17.2900506 C6.2661808,17.2900506 5.18284746,16.7900506 4.21109746,15.7900506 C5.18284746,14.7900506 6.2661808,14.2900506 7.46109746,14.2900506 C8.65601413,14.2900506 9.73934746,14.7900506 10.7110975,15.7900506 C9.73934746,16.7900506 8.65601413,17.2900506 7.46109746,17.2900506 Z"
              id="Shape" stroke="#FFFFFF" stroke-width="1.5" fill-rule="nonzero"
              transform="translate(7.461097, 15.790051) rotate(15.000000) translate(-7.461097, -15.790051) "></path>
        <path d="M16.4648955,17.2900506 C15.2699789,17.2900506 14.1866455,16.7900506 13.2148955,15.7900506 C14.1866455,14.7900506 15.2699789,14.2900506 16.4648955,14.2900506 C17.6598122,14.2900506 18.7431455,14.7900506 19.7148955,15.7900506 C18.7431455,16.7900506 17.6598122,17.2900506 16.4648955,17.2900506 Z"
              id="Shape-Copy" stroke="#FFFFFF" stroke-width="1.5" fill-rule="nonzero"
              transform="translate(16.464896, 15.790051) rotate(-15.000000) translate(-16.464896, -15.790051) "></path>
    </g>
</svg>