<?xml version="1.0" encoding="UTF-8"?>
<svg width="48px" height="48px" viewBox="0 0 48 48" version="1.1" xmlns="http://www.w3.org/2000/svg"
>
    <!-- Generator: Sketch 59 (86127) - https://sketch.com -->
    <title>_icon/priority/medium/l/active</title>
    <desc>Created with Sketch.</desc>
    <defs>
        <linearGradient x1="0%" y1="14.2621595%" x2="100%" y2="85.7378405%" id="linearGradient-1">
            <stop stop-color="#972C86" offset="0%"></stop>
            <stop stop-color="#794997" offset="40%"></stop>
            <stop stop-color="#007180" offset="100%"></stop>
        </linearGradient>
    </defs>
    <g id="_icon/priority/medium/l/active" stroke="none" stroke-width="1" fill="none" fill-rule="evenodd">
        <path d="M22.7137606,6.22825637 C23.2963657,5.25724788 24.7036343,5.25724788 25.2862394,6.22825637 L25.2862394,6.22825637 L36.6392955,25.1500165 C37.0655177,25.8603869 36.8351701,26.7817773 36.1247997,27.2079995 C35.4144293,27.6342217 34.4930389,27.4038741 34.0668167,26.6935037 L34.0668167,26.6935037 L24,9.91547595 L7.64928557,37.1666667 L40.3507144,37.1666667 L37.7014387,32.7512071 C37.2752165,32.0408367 37.505564,31.1194463 38.2159344,30.6932241 C38.9263048,30.2670018 39.8476952,30.4973494 40.2739175,31.2077198 L40.2739175,31.2077198 L44.2862394,37.894923 C44.8861115,38.8947098 44.1659417,40.1666667 43,40.1666667 L43,40.1666667 L5,40.1666667 C3.83405829,40.1666667 3.11388855,38.8947098 3.71376061,37.894923 L3.71376061,37.894923 Z M18.5864997,26.9723122 C20.607468,25.1758959 22.892532,25.1758959 24.9135003,26.9723122 L24.9135003,26.9723122 L25.0516224,27.0907136 C25.96122,27.8405892 26.6540886,27.8011221 27.5864997,26.9723122 C28.154076,26.4677999 29.0231755,26.5189234 29.5276878,27.0864997 C30.0322001,27.654076 29.9810766,28.5231755 29.4135003,29.0276878 C27.392532,30.8241041 25.107468,30.8241041 23.0864997,29.0276878 L23.0864997,29.0276878 L22.9483776,28.9092864 C22.03878,28.1594108 21.3459114,28.1988779 20.4135003,29.0276878 C19.845924,29.5322001 18.9768245,29.4810766 18.4723122,28.9135003 C17.9677999,28.345924 18.0189234,27.4768245 18.5864997,26.9723122 Z"
              id="Combined-Shape" fill="url(#linearGradient-1)"></path>
    </g>
</svg>