<?xml version="1.0" encoding="UTF-8"?>
<svg width="48px" height="48px" viewBox="0 0 48 48" version="1.1" xmlns="http://www.w3.org/2000/svg"
>
    <!-- Generator: Sketch 54.1 (76490) - https://sketchapp.com -->
    <title>_icon/topic/l/inactive</title>
    <desc>Created with Sketch.</desc>
    <g id="_icon/topic/l/inactive" stroke="none" stroke-width="1" fill="none" fill-rule="evenodd">
        <path d="M37.5828344,28.1583133 L37.769508,28.1168882 C43.8957295,27.162209 46.0203777,36.169959 39.9105849,38.0273823 L11.4064575,46.3849015 C7.5698899,47.3249761 4.42743992,45.4296869 3.65979709,42.1862162 C2.90442093,38.9945751 4.78335527,35.8450145 8.41483797,34.9798393 C9.22071019,34.7878459 10.0296401,35.285493 10.2216335,36.0913652 C10.4136269,36.8972374 9.91597979,37.7061673 9.11010757,37.8981607 C7.10772943,38.3752133 6.20059314,39.895799 6.57914845,41.4952838 C6.961087,43.1090636 8.46593088,44.0166721 10.6273606,43.4886177 L39.0521608,35.1528582 C41.5341754,34.3982759 40.7114432,30.7815254 38.315029,31.069569 L32.7711112,32.6766867 C31.3732967,33.081897 30.2754284,31.459187 31.1715287,30.3124155 C32.50808,28.6019831 33.368814,26.3908803 33.366475,24.3455862 C33.3618948,21.6890774 32.6510951,20.0884934 30.595138,17.2341712 C30.5141192,17.1216913 30.2331472,16.7329522 30.1916948,16.675491 C27.4850355,12.923532 26.2675499,10.0811149 26.4281937,5.90317588 C26.0689422,6.18973977 25.7157963,6.50100493 25.3740061,6.83722374 C24.1250398,8.06583103 23.1540291,9.50444753 22.5584467,11.1662899 C21.9871605,12.7595298 21.9509391,14.0062617 22.2201564,16.1633081 C22.6395051,19.523249 22.421207,20.7944907 20.2257757,22.0391556 C17.8394088,23.3909087 15.2880769,22.7504529 13.8915455,20.4112985 C13.1642131,19.1930354 12.790196,17.5989088 12.7830152,15.7177026 C10.9227921,18.5191421 10.0018847,21.7889085 10.4688984,25.5250185 C11.3973112,32.9551832 18.285307,37.0475146 26.1233639,33.7136728 C26.8856976,33.3894215 27.7665487,33.7445575 28.0908,34.5068912 C28.4150512,35.2692248 28.0599153,36.150076 27.2975816,36.4743272 C17.6065032,40.5963338 8.66496505,35.2839412 7.49205595,25.8970521 C6.89820892,21.1462758 8.17695445,16.9896801 10.6599038,13.5122145 C11.8978158,11.7784713 13.1450685,10.5835539 14.0207148,9.93838631 C15.1550287,9.10263497 16.711533,10.1503443 16.3641724,11.5158072 C14.7719227,17.7748875 16.5144447,20.6935674 18.7466897,19.4291165 C19.474811,19.0163196 19.5200676,18.7527712 19.2432526,16.5348505 C18.9207689,13.9510187 18.9690738,12.2883766 19.7344171,10.1539379 C20.491649,8.04104807 21.7153832,6.22800471 23.2701883,4.69854402 C24.8898765,3.10525793 26.5118231,2.10946765 27.6490112,1.62153232 C28.7357461,1.15524499 29.9095308,2.07120408 29.721361,3.23868377 C28.8899526,8.39706997 29.7164571,10.8889664 32.6246829,14.920336 C32.6647775,14.9759151 32.9466376,15.3658829 33.0293993,15.4807824 C35.4189003,18.7981697 36.3605709,20.9186304 36.3664718,24.3412844 C36.3681751,25.8305144 36.0473963,27.3433068 35.4809944,28.7676124 L37.5828344,28.1583133 Z M40.3417665,40.9666802 C40.0983303,40.3206692 40.4246816,39.5996299 41.0706926,39.3561937 C41.7167036,39.1127575 42.4377429,39.4391089 42.6811791,40.0851198 C44.0757072,43.7858044 40.340534,47.5602376 35.9363403,46.0721272 L35.8102633,46.0217446 L32.2872633,44.3867446 C31.6610582,44.0961271 31.3890107,43.3528956 31.6796282,42.7266905 C31.9702456,42.1004854 32.7134771,41.8284379 33.3396822,42.1190554 L36.7969729,43.7235601 C39.1893734,44.4914866 40.9805957,42.6619529 40.3417665,40.9666802 Z"
              id="Combined-Shape" fill="#767676" fill-rule="nonzero"></path>
    </g>
</svg>