<?xml version="1.0" encoding="UTF-8"?>
<svg width="24px" height="24px" viewBox="0 0 24 24" version="1.1" xmlns="http://www.w3.org/2000/svg"
>
    <!-- Generator: Sketch 59 (86127) - https://sketch.com -->
    <title>_icon/priority/critical/r/inactive</title>
    <desc>Created with Sketch.</desc>
    <g id="_icon/priority/critical/r/inactive" stroke="none" stroke-width="1" fill="none" fill-rule="evenodd">
        <path d="M19.8079658,16.2735419 L22,20 L17,20 M7,20 L2,20 L7.86865266,10.0232905 M16.133977,10.027761 L17.4091938,12.1956294"
              id="Shape" stroke="#767676" stroke-width="2" strokeLinecap="round" stroke-linejoin="round"></path>
        <path d="M9.75,20 C9.75,19.3749969 9.97058603,18.8437522 10.4117647,18.40625 C10.8529434,17.9687478 11.3886523,17.75 12.0189076,17.75 C12.6239526,17.75 13.1470566,17.9687478 13.5882353,18.40625 C14.029414,18.8437522 14.25,19.3749969 14.25,20 C14.25,20.600003 14.029414,21.1249978 13.5882353,21.575 C13.1470566,22.0250022 12.6239526,22.25 12.0189076,22.25 C11.3886523,22.25 10.8529434,22.0250022 10.4117647,21.575 C9.97058603,21.1249978 9.75,20.600003 9.75,20 Z"
              id="Path" fill="#767676"></path>
        <path d="M10.25,3.22181818 C10.25,2.8315132 10.4150927,2.53030409 10.745283,2.31818182 C11.0754733,2.10605955 11.4937082,2 12,2 C12.5062918,2 12.9245267,2.11030193 13.254717,2.33090909 C13.5849073,2.55151625 13.75,2.84848298 13.75,3.22181818 C13.75,4.44364247 13.3207547,13.9636303 13.3207547,15.1854545 C13.3207547,15.4400013 13.1776744,15.6393932 12.8915094,15.7836364 C12.6053445,15.9278795 12.3081776,16 12,16 C11.0974798,16 10.6462264,15.7284876 10.6462264,15.1854545 C10.6462264,13.9636303 10.25,4.44364247 10.25,3.22181818 Z"
              id="Path" fill="#767676"></path>
    </g>
</svg>