<?xml version="1.0" encoding="UTF-8"?>
<svg width="48px" height="48px" viewBox="0 0 48 48" version="1.1" xmlns="http://www.w3.org/2000/svg"
>
    <!-- Generator: Sketch 54.1 (76490) - https://sketchapp.com -->
    <title>_icon/favourites/l/active</title>
    <desc>Created with Sketch.</desc>
    <defs>
        <linearGradient x1="0%" y1="4.29098808%" x2="100%" y2="95.7090119%" id="linearGradient-1">
            <stop stop-color="#972C86" offset="0%"></stop>
            <stop stop-color="#794997" offset="40%"></stop>
            <stop stop-color="#007180" offset="100%"></stop>
        </linearGradient>
    </defs>
    <g id="_icon/favourites/l/active" stroke="none" stroke-width="1" fill="none" fill-rule="evenodd">
        <path d="M22.907273,8.76152245 C23.3985461,9.18765501 23.7312849,9.52957109 24.1957047,10.0684392 C24.6506405,9.53443592 24.983032,9.18994825 25.4705746,8.76447917 C27.3886343,7.09062511 29.8654973,6.12922069 33.1703439,6.12922069 C39.3787583,6.12922069 44.4042829,11.2184237 44.4042829,17.4864983 C44.4042829,20.9247583 43.3096358,23.9992093 41.0994432,27.217451 C39.7943491,29.1177869 38.1461921,31.0341778 35.6632488,33.6271621 C35.0350321,34.2832205 30.1571904,39.2548052 28.5854388,40.9151764 C28.0159277,41.516798 27.066537,41.5428288 26.4649154,40.9733177 C25.8632937,40.4038066 25.837263,39.4544159 26.4067741,38.8527943 C28.0014738,37.1681811 32.8875021,32.1882525 33.4964495,31.5523173 C35.876633,29.066647 37.4327072,27.2573252 38.6264752,25.5190903 C40.5140357,22.7706302 41.4042829,20.2702615 41.4042829,17.4864983 C41.4042829,12.8668812 37.7133896,9.12922069 33.1703439,9.12922069 C30.6034262,9.12922069 28.8236356,9.82005364 27.4431178,11.0248051 C27.3603616,11.0970248 25.2412687,13.6600636 24.2021415,13.6600636 C23.169427,13.6600636 21.0207697,11.0964977 20.9415265,11.0277618 C19.5493899,9.82021607 17.7738213,9.12922069 15.233939,9.12922069 C10.6903478,9.12922069 7,12.8665583 7,17.4864983 C7,20.4204853 7.93911845,23.0173246 9.94197003,25.8646903 C11.3493658,27.8655227 13.1603875,29.8766238 16.3208158,33.0551497 C16.9091792,33.6468822 19.7480875,36.4739584 20.5678894,37.2989575 C22.3451062,39.0874411 23.8456128,40.6391751 25.33184,42.2404352 C25.8954103,42.8476255 25.8600494,43.7967144 25.2528592,44.3602848 C24.6456689,44.9238551 23.69658,44.8884941 23.1330096,44.2813039 C21.672682,42.707948 20.1948757,41.1796892 18.4398768,39.4135644 C17.6273689,38.5959056 14.7888927,35.7692597 14.1934478,35.1704051 C10.9206243,31.8788404 9.01959237,29.7677849 7.48820599,27.5906804 C5.15072053,24.2675805 4,21.0856216 4,17.4864983 C4,11.2181413 9.02493731,6.12922069 15.233939,6.12922069 C18.5113471,6.12922069 20.9803046,7.09006118 22.907273,8.76152245 Z M14,19.1292207 C12.3431458,19.1292207 11,17.7860749 11,16.1292207 C11,14.4723664 12.3431458,13.1292207 14,13.1292207 C15.6568542,13.1292207 17,14.4723664 17,16.1292207 C17,17.7860749 15.6568542,19.1292207 14,19.1292207 Z"
              id="Combined-Shape" fill="url(#linearGradient-1)" fill-rule="nonzero"></path>
    </g>
</svg>