<?xml version="1.0" encoding="UTF-8"?>
<svg width="48px" height="48px" viewBox="0 0 48 48" version="1.1" xmlns="http://www.w3.org/2000/svg"
>
    <!-- Generator: Sketch 54.1 (76490) - https://sketchapp.com -->
    <title>_icon/calender/l/active</title>
    <desc>Created with Sketch.</desc>
    <defs>
        <linearGradient x1="0%" y1="0%" x2="100%" y2="100%" id="linearGradient-1">
            <stop stop-color="#972C86" offset="0%"></stop>
            <stop stop-color="#794997" offset="40%"></stop>
            <stop stop-color="#007180" offset="100%"></stop>
        </linearGradient>
    </defs>
    <g id="_icon/calender/l/active" stroke="none" stroke-width="1" fill="none" fill-rule="evenodd">
        <path d="M34.5,7.5 L38,7.5 C41.0375661,7.5 43.5,9.96243388 43.5,13 L43.5,37 C43.5,40.0375661 41.0375661,42.5 38,42.5 L10,42.5 C6.96243388,42.5 4.5,40.0375661 4.5,37 L4.5,13 C4.5,9.96243388 6.96243388,7.5 10,7.5 C10.8284271,7.5 11.5,8.17157288 11.5,9 C11.5,9.82842712 10.8284271,10.5 10,10.5 C8.61928813,10.5 7.5,11.6192881 7.5,13 L7.5,37 C7.5,38.3807119 8.61928813,39.5 10,39.5 L38,39.5 C39.3807119,39.5 40.5,38.3807119 40.5,37 L40.5,13 C40.5,11.6192881 39.3807119,10.5 38,10.5 L34.5,10.5 L34.5,13 C34.5,13.8284271 33.8284271,14.5 33,14.5 C32.1715729,14.5 31.5,13.8284271 31.5,13 L31.5,5 C31.5,4.17157288 32.1715729,3.5 33,3.5 C33.8284271,3.5 34.5,4.17157288 34.5,5 L34.5,7.5 Z M16.5,7.58535285 C16.6563895,7.53007711 16.8246823,7.5 17,7.5 L28,7.5 C28.8284271,7.5 29.5,8.17157288 29.5,9 C29.5,9.82842712 28.8284271,10.5 28,10.5 L17,10.5 C16.8246823,10.5 16.6563895,10.4699229 16.5,10.4146471 L16.5,13 C16.5,13.8284271 15.8284271,14.5 15,14.5 C14.1715729,14.5 13.5,13.8284271 13.5,13 L13.5,5 C13.5,4.17157288 14.1715729,3.5 15,3.5 C15.8284271,3.5 16.5,4.17157288 16.5,5 L16.5,7.58535285 Z M18,19 L20,19 C22.209139,19 24,20.790861 24,23 C24,25.209139 22.209139,27 20,27 L18,27 C15.790861,27 14,25.209139 14,23 C14,20.790861 15.790861,19 18,19 Z"
              id="Combined-Shape" fill="url(#linearGradient-1)" fill-rule="nonzero"></path>
    </g>
</svg>