<?xml version="1.0" encoding="UTF-8"?>
<svg width="48px" height="48px" viewBox="0 0 48 48" version="1.1" xmlns="http://www.w3.org/2000/svg"
>
    <!-- Generator: Sketch 54.1 (76490) - https://sketchapp.com -->
    <title>_icon/clap/l/active</title>
    <desc>Created with Sketch.</desc>
    <defs>
        <linearGradient x1="8.30788138%" y1="0%" x2="91.6921186%" y2="100%" id="linearGradient-1">
            <stop stop-color="#972C86" offset="0%"></stop>
            <stop stop-color="#794997" offset="40%"></stop>
            <stop stop-color="#007180" offset="100%"></stop>
        </linearGradient>
    </defs>
    <g id="_icon/clap/l/active" stroke="none" stroke-width="1" fill="none" fill-rule="evenodd">
        <path d="M16.2533231,6.20212143 L15.7911114,5.61051738 C15.3830868,5.08826975 14.6289522,4.99567366 14.1067046,5.40369823 L14.0200235,5.47142086 C13.4977759,5.87944543 13.4051798,6.63358005 13.8132044,7.15582769 L14.6375552,8.21094866 C14.7348162,8.29897143 14.8259587,8.39823994 14.9088684,8.50826491 L15.9692803,9.91547899 L16.341814,10.3923004 L16.3334911,10.398803 L22.7726095,18.9438018 C23.367415,19.7331353 23.3132582,20.7771793 22.6516469,21.2757392 C21.9900355,21.774299 20.9715085,21.5385804 20.376703,20.7492469 L13.8826254,12.1313148 C13.46036,11.7061458 12.777311,11.6543734 12.2933749,12.0324657 L12.2066939,12.1001883 C11.6844463,12.5082129 11.5918502,13.2623475 11.9998748,13.7845952 L14.5284844,17.0210679 L14.4977528,17.0450781 L20.4893461,24.996191 C20.987906,25.6578024 20.8557267,26.598307 20.1941154,27.0968668 C19.5325041,27.5954267 18.5919995,27.4632474 18.0934396,26.8016361 L11.9608211,18.6633765 C11.5367434,18.3293228 10.9244417,18.3140327 10.4800453,18.6612332 L10.3933643,18.7289558 C9.87111666,19.1369804 9.77852057,19.891115 10.1865451,20.4133626 L20.3478911,33.4192923 C20.3603051,33.4351815 20.4127057,33.4987716 20.5050929,33.6100626 C20.5834712,33.7173361 20.6637354,33.8235547 20.7458723,33.9286851 C22.9113782,36.7004063 26.0956999,38.3362684 29.4284293,38.4876353 C31.9666293,38.6029161 34.4203917,37.8462428 36.4169911,36.2863283 C38.642528,34.5475484 40.0339772,32.0164418 40.3808233,29.1899457 C40.3943805,29.0794657 40.4201929,28.9708381 40.4577837,28.866069 C40.5297493,28.6654941 40.5670317,28.4527102 40.5670317,28.2326707 L40.5670317,10.9121756 C40.5670317,9.87664161 39.7275655,9.03717546 38.6920315,9.03717546 L38.5545318,9.03717546 C37.5189978,9.03717546 36.6795317,9.87664161 36.6795317,10.9121756 L36.6795317,19.0404363 C36.6795317,20.4670224 34.8758097,21.0880937 33.9975155,19.9639285 L21.8187904,4.37587115 C21.4107658,3.85362351 20.6566312,3.76102743 20.1343836,4.16905199 L20.0477025,4.23677463 C19.5254549,4.64479919 19.4328588,5.39893382 19.8408834,5.92118145 L19.8136042,5.94249429 L27.0630609,15.5628482 C27.6272099,16.3114993 27.5482011,17.3225635 26.8865898,17.8211234 C26.2249785,18.3196833 25.2313034,18.1169443 24.6671543,17.3682933 L16.2764077,6.23339645 C16.2685894,6.22302116 16.2608946,6.21259546 16.2533231,6.20212143 Z M4.03945415,31.151142 C1.61863457,29.3127402 1.42570298,24.9408533 3.17424917,22.9988961 C3.72857511,22.3832547 4.67702099,22.3335488 5.29266232,22.8878747 C5.90830365,23.4422007 5.95800959,24.3906466 5.40368365,25.0062879 C5.19876087,25.2338777 4.99513181,26.0031772 5.03393201,26.8092008 C5.07724794,27.7090326 5.38785927,28.4238794 5.87274977,28.7760445 L5.99497831,28.8750056 L18.7407967,40.351392 C22.3063531,43.5618335 27.3280283,44.308451 31.370306,42.3618188 C32.1166949,42.0023816 33.013144,42.316068 33.3725812,43.062457 C33.7320183,43.8088459 33.4183319,44.7052951 32.671943,45.0647322 C27.5268672,47.5424369 21.198933,46.6016062 16.7334049,42.5808265 L4.03945415,31.151142 Z M38.2639755,38.6503606 C35.6946369,40.657748 32.5357647,41.6318579 29.2923147,41.4845459 C25.0867831,41.2935377 21.0878317,39.2391809 18.38184,35.7756695 C18.2947035,35.6641398 18.2092347,35.5515844 18.1254464,35.4380303 C18.076846,35.3821324 18.0296352,35.3248679 17.9838588,35.2662767 L7.82251288,22.260347 C6.39442698,20.4324804 6.71851327,17.7930094 8.54637987,16.3649235 C8.96164845,16.0404802 9.31646356,15.8403821 9.68575417,15.6954636 C8.2077566,13.803713 8.53184289,11.164242 10.3597095,9.73615607 C10.7749781,9.4117127 11.1297932,9.21161458 11.4990838,9.06669613 C10.0210862,7.17494551 10.3451725,4.5354745 12.1730391,3.1073886 C13.7506331,1.87483707 15.7815042,1.8757232 17.2545489,2.90753338 C17.5028451,2.52205408 17.818989,2.17098182 18.2007181,1.87274236 C20.1152657,0.376933833 22.7547367,0.701020123 24.1828226,2.52888672 L33.6795317,14.68412 L33.6795317,10.9121756 C33.6795317,8.21978736 35.8621436,6.03717546 38.5545318,6.03717546 L38.6920315,6.03717546 C41.3844198,6.03717546 43.5670317,8.21978736 43.5670317,10.9121756 L43.5670317,28.2326707 C43.5670317,28.7389052 43.4893477,29.2362234 43.3385859,29.7105106 C42.8646266,33.2523158 41.0860649,36.4455027 38.2639755,38.6503606 Z"
              id="Combined-Shape" fill="url(#linearGradient-1)" fill-rule="nonzero"></path>
    </g>
</svg>