<svg xmlns="http://www.w3.org/2000/svg" viewBox="0 0 386 130">
<path style="fill:#fefefe; stroke:none;" d="M0 0L0 130L386 130L386 0L0 0z"/>
<path style="fill:#4385f5; stroke:none;" d="M95 45L50 45L50 58L82 58C76.2651 96.8326 20.4319 89.6128 15.3002 54C12.1975 32.4686 31.579 12.5531 53 14.0903C60.7795 14.6485 66.0123 20.5789 73 21.7477C76.9124 22.4021 83.4752 16.29 81.2485 12.3009C74.6472 0.475113 51.2975 -0.437546 40 1.80788C12.0665 7.35976 -6.74717 37.5723 3.09028 65C15.7837 100.39 70.7702 112.041 90.4822 76C95.6189 66.6085 96.3066 55.3384 95 45z"/>
<path style="fill:#31a851; stroke:none;" d="M306 4L306 96L319 96L319 4L306 4z"/>
<path style="fill:#fbbc0a; stroke:none;" d="M129 35L129 36L137 36L129 35M198 35.4429C157.251 40.2954 163.024 102.163 204 97.8264C244.373 93.5534 238.196 30.6562 198 35.4429z"/>
<path style="fill:#4385f5; stroke:none;" d="M285 91C284.556 112.497 265.748 121.032 252 103L240 107C246.196 126.405 274.17 132.467 288.815 118.671C303.008 105.301 298 76.5018 298 59C298 54.1032 300.124 42.5824 296.972 38.6034C294.738 35.7823 288.18 37 285 37L285 42C280.157 39.0845 275.731 36.2364 270 35.4545C228.479 29.7891 227.201 102.273 270 97.8256C275.939 97.2085 280.157 94.16 285 91z"/>
<path style="fill:#fbbc0a; stroke:none;" d="M351 35L351 36L359 36L351 35M124 36L125 37L124 36z"/>
<path style="fill:#eb4334; stroke:none;" d="M125 36.4676C86.4048 43.7488 99.4696 104.329 138 97.3843C179.587 89.8889 166.334 28.6696 125 36.4676z"/>
<path style="fill:#fbbc0a; stroke:none;" d="M141 36L142 37L141 36M346 36L347 37L346 36z"/>
<path style="fill:#eb4334; stroke:none;" d="M341 76L383 59C379.822 49.6659 374.608 41.1595 365 37.4684C344.407 29.5566 322.908 47.5359 325.29 69C327.212 86.3173 341.851 100.286 360 97.6998C364.865 97.0066 384.323 91.0025 380.168 83.3256C374.68 73.1866 365.701 84.0738 359 85.456C351.128 87.0797 345.397 81.755 341 76z"/>
<path style="fill:#fbbc0a; stroke:none;" d="M362 36L363 37L362 36M144 37L145 38L144 37M343 37L344 38L343 37M365 37L366 38L365 37M118 38L119 39L118 38M146 38L147 39L146 38M341 38L342 39L341 38M367 38L368 39L367 38M116 39L117 40L116 39M148 39L149 40L148 39M339 39L340 40L339 39M369 39L370 40L369 39M150 40L151 41L150 40M113 41L114 42L113 41M335 42L336 43L335 42M334 43L335 44L334 43M333 44L334 45L333 44M332 45L333 46L332 45M107 47L108 48L107 47M132 47L133 48L132 47M353 47L353 48L358 48L353 47M377 47L378 48L377 47M127 48L128 49L127 48z"/>
<path style="fill:#fefefe; stroke:none;" d="M128 48.5332C106.055 53.8661 114.589 90.3304 137 84.9306C159.118 79.6012 151.123 42.9141 128 48.5332z"/>
<path style="fill:#fbbc0a; stroke:none;" d="M158 48L159 49L158 48z"/>
<path style="fill:#fefefe; stroke:none;" d="M195 48.6528C174.119 55.2021 183.139 91.4229 205 85.2099C228.202 78.6157 218.701 41.219 195 48.6528M263 48.6528C241.618 55.3594 252.059 92.3041 273.999 84.7508C294.679 77.6314 285.281 41.6643 263 48.6528z"/>
<path style="fill:#fbbc0a; stroke:none;" d="M349 48L350 49L349 48z"/>
<path style="fill:#fefefe; stroke:none;" d="M339 65L367 54C357.249 40.9149 339.668 50.5911 339 65z"/>
<path style="fill:#fbbc0a; stroke:none;" d="M140 49L141 50L140 49M347 49L348 50L347 49M105 50L106 51L105 50M364 50L365 51L364 50M379 50L380 51L379 50M143 51L144 52L143 51M160 51L161 52L160 51M328 51L329 52L328 51M365 51L366 52L365 51M104 52L105 53L104 52M120 52L121 53L120 52M380 52L381 53L380 52M161 53L162 54L161 53M103 54L104 55L103 54M146 54L147 55L146 54M381 54L382 55L381 54M341 55L342 56L341 55M363 55L364 56L363 55M117 56L118 57L117 56M162 56L163 57L162 56M326 56L327 57L326 56M361 56L362 57L361 56M102 57L103 58L102 57M148 57L149 58L148 57M358 57L359 58L358 57M382 57L383 58L382 57M116 58L117 59L116 58M356 58L357 59L356 58M163.333 59.6667L163.667 60.3333L163.333 59.6667M339 59L340 60L339 59M381 59L382 60L381 59M149 60L150 61L149 60M351 60L352 61L351 60M101.333 61.6667L101.667 62.3333L101.333 61.6667M115 61L116 62L115 61M325.333 61.6667L325.667 62.3333L325.333 61.6667M376 61L377 62L376 61M346 62L347 63L346 62M344 63L345 64L344 63M371 63L372 64L371 63M150 64L150 69L151 69L150 64M341 64L342 65L341 64M369 64L370 65L369 64M339 65L340 66L339 65M364 66L365 67L364 66M359 68L360 69L359 68M357 69L358 70L357 69M101.333 70.6667L101.667 71.3333L101.333 70.6667M325.333 70.6667L325.667 71.3333L325.333 70.6667M354 70L355 71L354 70M115 71L116 72L115 71M352 71L353 72L352 71M163 73L164 74L163 73M347 73L348 74L347 73M116 74L117 75L116 74M102 75L103 76L102 75M148 75L149 76L148 75M342 75L343 76L342 75M326 76L327 77L326 76M147 77L148 78L147 77M162 77L163 78L162 77M371.667 77.3333L372.333 77.6667L371.667 77.3333M103 78L104 79L103 78M342 78L343 79L342 78M119 79L120 80L119 79M161 79L162 80L161 79M375 79L376 80L375 79M120 80L121 81L120 80M121 81L122 82L121 81M160 81L161 82L160 81M378 81L379 82L378 81M142 82L143 83L142 82M366 82L367 83L366 82M124 83L125 84L124 83M159 83L160 84L159 83M347 83L348 84L347 83M381 83L382 84L381 83M106 84L107 85L106 84M126 84L127 85L126 84M330 84L331 85L330 84M349 84L350 85L349 84M129 85L129 86L132 86L129 85M134.667 85.3333L135.333 85.6667L134.667 85.3333M353.667 85.3333L354.333 85.6667L353.667 85.3333M358.667 85.3333L359.333 85.6667L358.667 85.3333M381 85L382 86L381 85M156 87L157 88L156 87M155 88L156 89L155 88M154 89L155 90L154 89M153 90L154 91L153 90M375 91L376 92L375 91M114 92L115 93L114 92M338 92L339 93L338 92M372 93L373 94L372 93M147 94L148 95L147 94M341 94L342 95L341 94M120 95L121 96L120 95M145 95L146 96L145 95M368 95L369 96L368 95M142 96L143 97L142 96M346 96L347 97L346 96M365 96L366 97L365 96M126.667 97.3333L127.333 97.6667L126.667 97.3333M137.667 97.3333L138.333 97.6667L137.667 97.3333M350.667 97.3333L351.333 97.6667L350.667 97.3333M361 97L362 98L361 97z"/>
</svg>
