<?xml version="1.0" encoding="UTF-8"?>
<svg width="48px" height="48px" viewBox="0 0 48 48" version="1.1" xmlns="http://www.w3.org/2000/svg"
>
    <!-- Generator: Sketch 54.1 (76490) - https://sketchapp.com -->
    <title>_icon/tags/l/inactive</title>
    <desc>Created with Sketch.</desc>
    <g id="_icon/tags/l/inactive" stroke="none" stroke-width="1" fill="none" fill-rule="evenodd" strokeLinecap="round"
       stroke-linejoin="round">
        <path d="M16.5845,42.0071 L5.1375,30.5601 C4.2875,29.7101 4.2875,28.3331 5.1375,27.4841 L26.4835,6.1371 C26.8915,5.7291 27.4455,5.5001 28.0225,5.5001 L40.9665,5.5021 C42.1675,5.5031 43.1415,6.4761 43.1415,7.6771 L43.1445,20.6221 C43.1445,21.1991 42.9155,21.7521 42.5075,22.1601 L22.7235,41.8441"
              id="Stroke-1" stroke="#767676" stroke-width="3"></path>
        <path d="M37.4441,14 C37.4441,15.657 36.1011,17 34.4441,17 C32.7871,17 31.4441,15.657 31.4441,14 C31.4441,12.343 32.7871,11 34.4441,11 C36.1011,11 37.4441,12.343 37.4441,14 Z"
              id="Stroke-3" stroke="#767676" stroke-width="3"></path>
    </g>
</svg>