<?xml version="1.0" encoding="UTF-8"?>
<svg width="48px" height="48px" viewBox="0 0 48 48" version="1.1" xmlns="http://www.w3.org/2000/svg"
>
    <!-- Generator: Sketch 54.1 (76490) - https://sketchapp.com -->
    <title>_icon/admin/l/inactive</title>
    <desc>Created with Sketch.</desc>
    <g id="_icon/admin/l/inactive" stroke="none" stroke-width="1" fill="none" fill-rule="evenodd" strokeLinecap="round"
       stroke-linejoin="round">
        <path d="M28.1698078,42 L7.75229058,42 L6.03283095,26.312842 C5.73346498,24.6557543 7.54008179,23.3968458 9.06249039,24.2024001 L16.670744,28.2310911 L22.2383826,17.9565957 C23.0455339,16.6811348 24.9544657,16.6811348 25.761617,17.9565957 L32.2766163,28.2310911 L38.9384566,24.2024001 C40.4599178,23.3968458 42.2665346,24.6557543 41.9671687,26.312842 L40.2486564,42 L34.6194393,42"
              id="Stroke-1" stroke="#767676" stroke-width="3"></path>
        <path d="M27,9 C27,10.657 25.657,12 24,12 C22.343,12 21,10.657 21,9 C21,7.343 22.343,6 24,6 C25.657,6 27,7.343 27,9 Z"
              id="Stroke-3" stroke="#767676" stroke-width="3"></path>
        <path d="M7.5,17 C7.5,18.657 6.157,20 4.5,20 C2.843,20 1.5,18.657 1.5,17 C1.5,15.343 2.843,14 4.5,14 C6.157,14 7.5,15.343 7.5,17 Z"
              id="Stroke-5" stroke="#767676" stroke-width="3"></path>
        <path d="M46.5,17 C46.5,18.657 45.157,20 43.5,20 C41.843,20 40.5,18.657 40.5,17 C40.5,15.343 41.843,14 43.5,14 C45.157,14 46.5,15.343 46.5,17 Z"
              id="Stroke-7" stroke="#767676" stroke-width="3"></path>
    </g>
</svg>