<?xml version="1.0" encoding="UTF-8"?>
<svg width="48px" height="48px" viewBox="0 0 48 48" version="1.1" xmlns="http://www.w3.org/2000/svg"
>
    <!-- Generator: Sketch 54.1 (76490) - https://sketchapp.com -->
    <title>_icon/people/l/inactive</title>
    <desc>Created with Sketch.</desc>
    <g id="_icon/people/l/inactive" stroke="none" stroke-width="1" fill="none" fill-rule="evenodd"
       strokeLinecap="round" stroke-linejoin="round">
        <path d="M33.692,36.2696001 C31.798,28.3676001 24.312,26.2436001 24.312,26.2436001 C24.312,26.2436001 30.25,23.4356001 30.25,16.5446001 C30.25,10.3406001 25.204,5.3996001 19,5.3996001 C12.797,5.3996001 7.75,10.3406001 7.75,16.5446001 C7.75,23.4876001 13.689,26.2196001 13.689,26.2196001 C13.689,26.2196001 4.166,29.1946001 4,39.0446001 L4,41.5446001 C4,42.2346001 4.56,42.7946001 5.25,42.7946001 L42.75,42.7946001 C43.44,42.7946001 44.012,42.2346001 44,41.5446001 C43.823,31.1396001 34.59,28.1186001 34.59,28.1186001 C34.59,28.1186001 40.529,25.3726001 40.529,18.4196001 C40.529,13.4226001 37.316,9.3046001 32.535,7.8606001"
              id="Page-1" stroke="#767676" stroke-width="3"></path>
    </g>
</svg>