<?xml version="1.0" encoding="UTF-8"?>
<svg width="127px" height="86px" viewBox="0 0 127 86" version="1.1" xmlns="http://www.w3.org/2000/svg"
>
    <!-- Generator: Sketch 63.1 (92452) - https://sketch.com -->
    <title>Group</title>
    <desc>Created with Sketch.</desc>
    <defs>
        <linearGradient x1="0%" y1="14.2621595%" x2="100%" y2="85.7378405%" id="linearGradient-1">
            <stop stop-color="#972C86" offset="0%"></stop>
            <stop stop-color="#794997" offset="40%"></stop>
            <stop stop-color="#007180" offset="100%"></stop>
        </linearGradient>
    </defs>
    <g id="Profile-image-upload" stroke="none" stroke-width="1" fill="none" fill-rule="evenodd">
        <g id="Artboard" transform="translate(-32.000000, -21.000000)">
            <g id="Group" transform="translate(31.000000, 21.000000)">
                <g id="active" transform="translate(27.000000, 0.000000)" fill="url(#linearGradient-1)"
                   fill-rule="nonzero">
                    <path transform="translate(5, 5)"
                          d="M27.1428571,40 C27.1428571,39.2063453 27.4229664,38.5317489 27.9831933,37.9761904 C28.5434201,37.4206321 29.2236854,37.1428571 30.0240096,37.1428571 C30.7923207,37.1428571 31.4565799,37.4206321 32.0168067,37.9761904 C32.5770336,38.5317489 32.8571429,39.2063453 32.8571429,40 C32.8571429,40.7619086 32.5770336,41.4285686 32.0168067,42 C31.4565799,42.5714314 30.7923207,42.8571429 30.0240096,42.8571429 C29.2236854,42.8571429 28.5434201,42.5714314 27.9831933,42 C27.4229664,41.4285686 27.1428571,40.7619086 27.1428571,40 Z M27.4309724,17.4597403 C27.4309724,16.9021617 27.671066,16.471863 28.1512606,16.1688311 C28.631455,15.8657993 29.2396921,15.7142857 29.9759904,15.7142857 C30.7122886,15.7142857 31.3205259,15.8718599 31.8007203,16.187013 C32.2809147,16.5021661 32.5210084,16.9264043 32.5210084,17.4597403 C32.5210084,19.2052036 31.8967587,32.8051861 31.8967587,34.5506493 C31.8967587,34.9142876 31.6886776,35.1991331 31.272509,35.4051949 C30.8563404,35.6112564 30.4241719,35.7142857 29.9759904,35.7142857 C28.6634589,35.7142857 28.0072029,35.3264109 28.0072029,34.5506493 C28.0072029,32.8051861 27.4309724,19.2052036 27.4309724,17.4597403 Z M6.64183653,45.952381 L53.3581634,45.952381 L49.5734839,39.6445816 C48.964595,38.6297667 49.2936629,37.3134947 50.3084777,36.7046059 C51.3232926,36.0957169 52.6395646,36.4247849 53.2484536,37.4395997 L58.980342,46.9927471 C59.8373021,48.421014 58.8084881,50.2380953 57.1428571,50.2380953 L2.85714286,50.2380953 C1.19151184,50.2380953 0.162697929,48.421014 1.01965801,46.9927471 L28.1625151,1.75465196 C28.9948081,0.367496971 31.0051919,0.367496971 31.8374849,1.75465196 L48.0561364,28.7857379 C48.6650253,29.8005527 48.3359573,31.1168247 47.3211424,31.7257136 C46.3063276,32.3346024 44.9900556,32.0055344 44.3811667,30.9907196 L30,7.0221085 L6.64183653,45.952381 Z"
                          id="Combined-Shape"></path>
                </g>
                <text id="Image-not-found" text-anchor="middle" font-family="OpenSans-SemiBold, Open Sans"
                      font-size="14" font-weight="500" letter-spacing="0.0615384625" fill="#972C86">
                    <tspan x="50%" y="75" font-weight="600" font-family="Arial, Helvetica, sans-serif">Image not found
                    </tspan>
                </text>
            </g>
        </g>
    </g>
</svg>