<svg xmlns="http://www.w3.org/2000/svg" width="12" height="12">
    <path d="M10.17 3.85a.96.96 0 0 1 1.228-.573.96.96 0 0 1 .573 1.228l-1.5 4.124c-.074.36-.202.712-.38 1.04l-.036.1c-.348.572-.837 1.075-1.462 1.436-1.833 1.058-4.146.485-5.166-1.28l-.032-.056L.342 7.307a.96.96 0 0 1-.118-1.35.96.96 0 0 1 1.35-.118l1.518 1.273.105-.315L.98 4.157a.96.96 0 0 1 .118-1.35.96.96 0 0 1 1.35.118l1.903 2.267.148-.117-1.843-3.192A.96.96 0 0 1 3.008.575.96.96 0 0 1 4.317.925l1.963 3.4.1-.015-1.1-3.024A.96.96 0 0 1 5.862.058.96.96 0 0 1 7.09.631l1.473 4.048a3.6 3.6 0 0 1 1.027.768l.58-1.596z"
          fill="#972c86" fill-rule="evenodd"/>
</svg>