<?xml version="1.0" encoding="UTF-8"?>
<svg width="24px" height="24px" viewBox="0 0 24 24" version="1.1" xmlns="http://www.w3.org/2000/svg"
>
    <!-- Generator: Sketch 54.1 (76490) - https://sketchapp.com -->
    <title>_icon/edit/r/quarternary</title>
    <desc>Created with Sketch.</desc>
    <g id="_icon/edit/r/quarternary" stroke="none" stroke-width="1" fill="none" fill-rule="evenodd"
       strokeLinecap="round" stroke-linejoin="round">
        <path d="M15,9 L15,19 L12,24 L9,19 L9,4 C9,2.34314575 10.3431458,1 12,1 C13.6568542,1 15,2.34314575 15,4 L15,6 L12,6"
              id="Rectangle-20" stroke="#767676" stroke-width="2"
              transform="translate(12.000000, 12.500000) rotate(45.000000) translate(-12.000000, -12.500000) "></path>
        <path d="M15,9 L15,19 L12,24 L9,19 L9,4 C9,2.34314575 10.3431458,1 12,1 C13.6568542,1 15,2.34314575 15,4 L15,6 L12,6"
              id="Rectangle-20" stroke="#007180" stroke-width="2"
              transform="translate(12.000000, 12.500000) rotate(45.000000) translate(-12.000000, -12.500000) "></path>
    </g>
</svg>