<svg xmlns="http://www.w3.org/2000/svg" width="48" height="48" fill="none" fill-rule="evenodd">
    <path d="M35.345 19.423v7.998c0 1.893-1.534 3.427-3.427 3.427h-7.855a1.71 1.71 0 0 0-1.555.995L18.923 38.6l-3.585-6.767c-.28-.607-.888-.995-1.556-.995H4.928A3.43 3.43 0 0 1 1.5 27.421V9.427C1.5 7.533 3.034 6 4.928 6h27c1.893 0 3.427 1.533 3.427 3.427v2.142c0 .946.767 1.713 1.713 1.713h4.015c1.894 0 3.427 1.534 3.427 3.428v16.565c0 1.893-1.533 3.427-3.427 3.427H37.7c-.668 0-.918.388-1.2.995l-2.942 4.768-2.858-4.768c-.28-.607-.614-.995-1.283-.995h-2.57"
          stroke="#767676" stroke-width="3" stroke-linecap="round" stroke-linejoin="round"/>
    <g fill="#767676">
        <circle cx="10" cy="19" r="2"/>
        <circle cx="18" cy="19" r="2"/>
        <circle cx="26" cy="19" r="2"/>
    </g>
</svg>