<svg xmlns="http://www.w3.org/2000/svg" width="48" height="48">
    <defs>
        <linearGradient x1="0%" y1="13.1973943%" x2="100%" y2="86.8026057%" id="A">
            <stop stop-color="#972c86" offset="0%"/>
            <stop stop-color="#794997" offset="40%"/>
            <stop stop-color="#007180" offset="100%"/>
        </linearGradient>
    </defs>
    <path d="M10 21a2 2 0 1 0 0-4 2 2 0 1 0 0 4zm8 0a2 2 0 1 0 0-4 2 2 0 1 0 0 4zm8 0a2 2 0 1 1 0-4 2 2 0 1 1 0 4zm-9.337 10.14l2.26 4.266 2.222-4.192a3.21 3.21 0 0 1 2.917-1.867h7.855c1.065 0 1.927-.862 1.927-1.927v-7.998a1.5 1.5 0 1 1 3 0v7.998a4.93 4.93 0 0 1-4.927 4.927h-7.855c-.083 0-.158.048-.23.197l-3.585 6.767c-.564 1.064-2.087 1.064-2.65 0l-3.622-6.84c-.035-.075-.1-.123-.194-.123H4.928A4.93 4.93 0 0 1 0 27.421V9.427C0 6.704 2.206 4.5 4.928 4.5h27c2.722 0 4.927 2.205 4.927 4.927v2.142c0 .118.095.213.213.213h4.015c2.722 0 4.927 2.206 4.927 4.928v16.565c0 2.722-2.205 4.927-4.927 4.927H37.92l-.06.125-.085.158-2.942 4.768a1.5 1.5 0 0 1-2.563-.016l-2.858-4.768-.075-.143-.06-.123h-2.43a1.5 1.5 0 1 1 0-3h2.57c1.26 0 2.068.666 2.608 1.788l1.552 2.59 1.602-2.597c.554-1.16 1.235-1.78 2.52-1.78h3.374c1.065 0 1.927-.862 1.927-1.927V16.7c0-1.066-.862-1.928-1.927-1.928h-4.015c-1.774 0-3.213-1.44-3.213-3.213V9.427c0-1.065-.862-1.927-1.927-1.927h-27C3.862 7.5 3 8.36 3 9.427V27.42c0 1.065.863 1.927 1.928 1.927h8.854c1.253 0 2.393.728 2.88 1.793z"
          fill="url(#A)" fill-rule="nonzero"/>
</svg>