<svg xmlns="http://www.w3.org/2000/svg" width="24" height="24" fill="none" fill-rule="evenodd">
    <path d="M22 13.72v1.704a2.41 2.41 0 0 1-2.412 2.411H15.62c-.47 0-.903.274-1.1.7L12 23l-2.52-4.466c-.197-.426-.63-.7-1.1-.7H4.412A2.41 2.41 0 0 1 2 15.423V6.41A2.41 2.41 0 0 1 4.412 4h15.176A2.41 2.41 0 0 1 22 6.411V9.7"
          stroke="#972c86" stroke-width="2" stroke-linecap="round" stroke-linejoin="round"/>
    <g fill="#972c86">
        <circle cx="17" cy="11" r="1.5"/>
        <circle cx="7" cy="11" r="1.5"/>
        <circle cx="12" cy="11" r="1.5"/>
    </g>
</svg>