<?xml version="1.0" encoding="UTF-8"?>
<svg width="32px" height="32px" viewBox="0 0 32 32" version="1.1" xmlns="http://www.w3.org/2000/svg"
>
    <!-- Generator: Sketch 54.1 (76490) - https://sketchapp.com -->
    <title>_icon/mentioning/m/white</title>
    <desc>Created with Sketch.</desc>
    <g id="_icon/mentioning/m/white" stroke="none" stroke-width="1" fill="none" fill-rule="evenodd">
        <path d="M5,15.835277 C5,12.3260272 5.97883833,9.47620143 7.93654434,7.28571429 C9.89425036,5.09522714 12.8073201,4 16.675841,4 C20.2630149,4 23.0471359,4.9611177 25.0282875,6.88338192 C27.0094391,8.80564615 28,11.5101866 28,14.9970845 C28,17.120516 27.6014311,18.8695267 26.8042813,20.2441691 C26.0071316,21.6188115 24.7997023,22.3061224 23.1819572,22.3061224 C22.2441339,22.3061224 21.4469961,22.0826067 20.7905199,21.6355685 C20.1340436,21.1885303 19.7354747,20.629741 19.5948012,19.9591837 C18.3052943,21.367354 16.85169,22.0714286 15.233945,22.0714286 C13.9913292,22.0714286 12.9421551,21.7585065 12.0863914,21.1326531 C11.2306277,20.5067996 10.8027523,19.5568577 10.8027523,18.2827988 C10.8027523,16.8075728 11.4064669,15.7738125 12.6139144,15.1814869 C13.8213618,14.5891613 15.5504475,14.2930029 17.8012232,14.2930029 L19.1024465,14.2930029 L19.1024465,13.7230321 C19.1024465,12.0466388 18.0708564,11.2084548 16.0076453,11.2084548 C15.1401588,11.2084548 14.3723275,11.35374 13.7041284,11.6443149 C13.0359294,11.9348897 12.666667,12.0801749 12.5963303,12.0801749 C12.3384289,12.0801749 12.1156992,11.918126 11.9281346,11.5940233 C11.7405699,11.2699206 11.646789,10.9737623 11.646789,10.7055394 C11.646789,10.1690935 12.1508614,9.70529836 13.1590214,9.31413994 C14.1671814,8.92298152 15.2573846,8.72740525 16.4296636,8.72740525 C18.0239631,8.72740525 19.3251733,9.11296991 20.3333333,9.88411079 C21.3414933,10.6552517 21.8455657,11.7337151 21.8455657,13.1195335 L21.8455657,18.7521866 C22.0096848,19.8474302 22.5254799,20.3950437 23.3929664,20.3950437 C24.8231468,20.3950437 25.5382263,18.752203 25.5382263,15.4664723 C25.5382263,9.25264143 22.5724048,6.14577259 16.6406728,6.14577259 C14.9525909,6.14577259 13.4931254,6.4028157 12.2622324,6.91690962 C11.0313394,7.43100354 10.0818076,8.15184181 9.41360856,9.07944606 C8.7454095,10.0070503 8.25892099,11.0240469 7.95412844,12.1304665 C7.64933589,13.236886 7.4969419,14.4606347 7.4969419,15.8017493 C7.4969419,17.0534562 7.63175196,18.1989744 7.90137615,19.2383382 C8.17100033,20.277702 8.60473707,21.2332318 9.20259939,22.1049563 C9.8004617,22.9766807 10.6386287,23.6528159 11.7171254,24.1333819 C12.7956221,24.613948 14.0733871,24.8542274 15.5504587,24.8542274 C16.7227378,24.8542274 17.8012183,24.7033543 18.7859327,24.4016035 C19.7706471,24.0998527 20.2981648,23.9489796 20.3685015,23.9489796 C20.6498485,23.9489796 20.8784395,24.0663254 21.0542813,24.3010204 C21.2301232,24.5357155 21.3180428,24.7648191 21.3180428,24.9883382 C21.3180428,25.5694878 20.6322699,26.0500467 19.2607034,26.4300292 C17.8891369,26.8100116 16.5117296,27 15.1284404,27 C13.7920422,27 12.5259999,26.7708964 11.3302752,26.3126822 C10.1345506,25.8544681 9.06193135,25.1839208 8.11238532,24.3010204 C7.16283929,23.41812 6.40673064,22.2502502 5.8440367,20.7973761 C5.28134275,19.344502 5,17.6904855 5,15.835277 Z M13.8272171,18.2492711 C13.8272171,18.8527727 14.0089177,19.3053921 14.3723242,19.6071429 C14.7357307,19.9088936 15.2222192,20.0597668 15.8318043,20.0597668 C16.7461819,20.0597668 17.5374584,19.7747842 18.2056575,19.2048105 C18.8738566,18.6348368 19.2079511,18.0145806 19.2079511,17.3440233 L19.2079511,15.9693878 L18.1529052,15.9693878 C16.7227248,15.9693878 15.6442442,16.1370246 14.9174312,16.4723032 C14.1906182,16.8075819 13.8272171,17.3998986 13.8272171,18.2492711 Z"
              id="@" fill="#FFFFFF"></path>
    </g>
</svg>