<?xml version="1.0" encoding="UTF-8"?>
<svg width="24px" height="24px" viewBox="0 0 24 24" version="1.1" xmlns="http://www.w3.org/2000/svg"
>
    <!-- Generator: Sketch 54.1 (76490) - https://sketchapp.com -->
    <title>_icon/mentioning/r/secundary</title>
    <desc>Created with Sketch.</desc>
    <g id="_icon/mentioning/r/secundary" stroke="none" stroke-width="1" fill="none" fill-rule="evenodd">
        <path d="M2,12.2915452 C2,9.24002362 2.85116376,6.76191429 4.55351682,4.85714286 C6.25586988,2.95237143 8.78897401,2 12.1529052,2 C15.2721869,2 17.6931616,2.83575452 19.4159021,4.50728863 C21.1386427,6.17882274 22,8.53059708 22,11.5626822 C22,13.4091443 21.6534183,14.9300232 20.9602446,16.1253644 C20.2670709,17.3207057 19.2171324,17.9183673 17.8103976,17.9183673 C16.9948991,17.9183673 16.3017358,17.7240058 15.7308869,17.335277 C15.1600379,16.9465481 14.8134563,16.4606443 14.6911315,15.877551 C13.5698211,17.1020469 12.3058174,17.7142857 10.8990826,17.7142857 C9.81854709,17.7142857 8.90622187,17.4421796 8.16207951,16.8979592 C7.41793716,16.3537388 7.04587156,15.5277023 7.04587156,14.4198251 C7.04587156,13.1370198 7.57084083,12.2380978 8.62079511,11.7230321 C9.67074939,11.2079663 11.1743021,10.9504373 13.1314985,10.9504373 L14.2629969,10.9504373 L14.2629969,10.4548105 C14.2629969,8.99707726 13.3659621,8.26822157 11.5718654,8.26822157 C10.8175294,8.26822157 10.14985,8.39455656 9.56880734,8.64723032 C8.98776468,8.89990408 8.66666697,9.02623907 8.60550459,9.02623907 C8.38124251,9.02623907 8.18756453,8.88532697 8.02446483,8.60349854 C7.86136514,8.32167012 7.77981651,8.06414111 7.77981651,7.83090379 C7.77981651,7.36442915 8.21814037,6.96112901 9.09480122,6.62099125 C9.97146208,6.2808535 10.9194648,6.11078717 11.9388379,6.11078717 C13.3251853,6.11078717 14.4566725,6.44606079 15.3333333,7.11661808 C16.2099942,7.78717536 16.648318,8.72496968 16.648318,9.93002915 L16.648318,14.8279883 C16.7910303,15.7803741 17.2395477,16.2565598 17.9938838,16.2565598 C19.237519,16.2565598 19.8593272,14.8280026 19.8593272,11.9708455 C19.8593272,6.56751429 17.280352,3.86588921 12.1223242,3.86588921 C10.6544269,3.86588921 9.38532645,4.08940496 8.31498471,4.53644315 C7.24464297,4.98348134 6.41896315,5.61029723 5.83792049,6.41690962 C5.25687783,7.22352201 4.83384434,8.10786691 4.56880734,9.06997085 C4.30377034,10.0320748 4.17125382,11.0962041 4.17125382,12.2623907 C4.17125382,13.3508315 4.28847997,14.3469343 4.52293578,15.2507289 C4.75739159,16.1545235 5.13455398,16.985419 5.65443425,17.7434402 C6.17431453,18.5014615 6.90315535,19.0894051 7.84097859,19.5072886 C8.77880183,19.9251722 9.88990183,20.1341108 11.1743119,20.1341108 C12.193685,20.1341108 13.1314942,20.0029168 13.9877676,19.7405248 C14.844041,19.4781328 15.302752,19.3469388 15.3639144,19.3469388 C15.6085639,19.3469388 15.8073387,19.4489786 15.9602446,19.6530612 C16.1131506,19.8571439 16.1896024,20.0563644 16.1896024,20.2507289 C16.1896024,20.7560764 15.5932781,21.1739536 14.4006116,21.5043732 C13.2079451,21.8347927 12.0101997,22 10.8073394,22 C9.64525413,22 8.54434771,21.8007794 7.50458716,21.4023324 C6.46482661,21.0038853 5.53211422,20.4208007 4.70642202,19.6530612 C3.88072982,18.8853217 3.22324404,17.8697828 2.73394495,16.606414 C2.24464587,15.3430452 2,13.90477 2,12.2915452 Z M9.67584098,14.3906706 C9.67584098,14.9154545 9.83384144,15.3090366 10.1498471,15.5714286 C10.4658528,15.8338206 10.8888862,15.9650146 11.4189602,15.9650146 C12.2140713,15.9650146 12.9021378,15.7172036 13.4831804,15.2215743 C14.0642231,14.725945 14.3547401,14.1865918 14.3547401,13.6034985 L14.3547401,12.4081633 L13.4373089,12.4081633 C12.1936737,12.4081633 11.2558645,12.5539344 10.6238532,12.845481 C9.9918419,13.1370277 9.67584098,13.6520857 9.67584098,14.3906706 Z"
              id="@" fill="#972C86"></path>
    </g>
</svg>