<?xml version="1.0" encoding="UTF-8"?>
<svg width="32px" height="32px" viewBox="0 0 32 32" version="1.1" xmlns="http://www.w3.org/2000/svg"
>
    <!-- Generator: Sketch 54.1 (76490) - https://sketchapp.com -->
    <title>_icon/happy/m/white</title>
    <desc>Created with Sketch.</desc>
    <g id="_icon/happy/m/white" stroke="none" stroke-width="1" fill="none" fill-rule="evenodd">
        <path d="M30,17.1066 L30,19.4922 C30,21.357 28.4894,22.8676 26.6232,22.8676 L21.0689655,22.8676 C20.4095655,22.8676 19.809593,23.2512 19.533793,23.8476 L16,30.1 L12.4758624,23.8476 C12.2000624,23.2512 11.5986899,22.8676 10.9406899,22.8676 L5.3768,22.8676 C3.5106,22.8676 2,21.357 2,19.4922 L2,6.8754 C2,5.0106 3.5106,3.5 5.3768,3.5 L26.6232,3.5 C28.4894,3.5 30,5.0106 30,6.8754 L30,11.466"
              id="Page-1" stroke="#FFFFFF" stroke-width="3" strokeLinecap="round" stroke-linejoin="round"></path>
        <path d="M11.5,15 C12.3434122,16.7635532 14.2614257,18 16.5005352,18 C18.7385743,18 20.6565878,16.7635532 21.5,15"
              id="Stroke-1" stroke="#FFFFFF" stroke-width="3" strokeLinecap="round" stroke-linejoin="round"></path>
        <g id="Group-2" transform="translate(11.000000, 7.000000)" fill="#FFFFFF">
            <path d="M3.05336718,2.40921328 C3.05336718,3.24376514 2.37659778,3.91923055 1.54334991,3.91923055 C0.711406032,3.91923055 0.034636635,3.24376514 0.034636635,2.40921328 C0.034636635,1.57466142 0.711406032,0.9005 1.54334991,0.9005 C2.37659778,0.9005 3.05336718,1.57466142 3.05336718,2.40921328"
                  id="Fill-3"></path>
            <path d="M11.0371597,2.40921328 C11.0371597,3.24376514 10.3603903,3.91923055 9.52714241,3.91923055 C8.69519853,3.91923055 8.01842913,3.24376514 8.01842913,2.40921328 C8.01842913,1.57466142 8.69519853,0.9005 9.52714241,0.9005 C10.3603903,0.9005 11.0371597,1.57466142 11.0371597,2.40921328"
                  id="Fill-5"></path>
        </g>
    </g>
</svg>