<?xml version="1.0" encoding="UTF-8"?>
<svg width="48px" height="48px" viewBox="0 0 48 48" version="1.1" xmlns="http://www.w3.org/2000/svg"
>
    <!-- Generator: Sketch 54.1 (76490) - https://sketchapp.com -->
    <title>_icon/list/l/inactive</title>
    <desc>Created with Sketch.</desc>
    <g id="_icon/list/l/inactive" stroke="none" stroke-width="1" fill="none" fill-rule="evenodd">
        <path d="M40.5,14 C41.3284271,14 42,14.6715729 42,15.5 C42,16.3284271 41.3284271,17 40.5,17 L7.5,17 C6.67157288,17 6,16.3284271 6,15.5 C6,14.6715729 6.67157288,14 7.5,14 L40.5,14 Z M40.5,25 C41.3284271,25 42,25.6715729 42,26.5 C42,27.3284271 41.3284271,28 40.5,28 L7.5,28 C6.67157288,28 6,27.3284271 6,26.5 C6,25.6715729 6.67157288,25 7.5,25 L40.5,25 Z M40.5,36 C41.3284271,36 42,36.6715729 42,37.5 C42,38.3284271 41.3284271,39 40.5,39 L7.5,39 C6.67157288,39 6,38.3284271 6,37.5 C6,36.6715729 6.67157288,36 7.5,36 L40.5,36 Z"
              id="Combined-Shape" fill="#767676" fill-rule="nonzero"></path>
    </g>
</svg>