<svg xmlns="http://www.w3.org/2000/svg" width="24" height="24">
    <path d="M2 12.292c0-3.052.85-5.53 2.554-7.434S8.79 2 12.153 2c3.12 0 5.54.836 7.263 2.507S22 8.53 22 11.563c0 1.846-.347 3.367-1.04 4.563s-1.743 1.793-3.15 1.793c-.815 0-1.51-.194-2.08-.583s-.917-.875-1.04-1.458c-1.12 1.224-2.385 1.837-3.792 1.837-1.08 0-1.993-.272-2.737-.816s-1.116-1.37-1.116-2.478c0-1.283.525-2.182 1.575-2.697s2.554-.773 4.51-.773h1.13v-.496c0-1.458-.897-2.187-2.69-2.187-.754 0-1.422.126-2.003.38l-.963.38c-.224 0-.418-.14-.58-.423s-.245-.54-.245-.773c0-.466.438-.87 1.315-1.2s1.825-.5 2.844-.5c1.386 0 2.518.335 3.394 1.006s1.315 1.608 1.315 2.813v4.898c.143.952.59 1.43 1.346 1.43 1.244 0 1.865-1.43 1.865-4.286 0-5.403-2.58-8.105-7.737-8.105-1.468 0-2.737.224-3.807.67S6.42 5.6 5.838 6.417 4.834 8.108 4.57 9.07s-.398 2.026-.398 3.192c0 1.088.117 2.085.352 2.988a7.86 7.86 0 0 0 1.131 2.493c.52.758 1.25 1.346 2.187 1.764s2.05.627 3.333.627c1.02 0 1.957-.13 2.813-.394s1.315-.394 1.376-.394a.71.71 0 0 1 .596.306c.153.204.23.403.23.598 0 .505-.596.923-1.79 1.254S12 22 10.807 22a9.15 9.15 0 0 1-3.303-.598 8.59 8.59 0 0 1-2.798-1.749c-.826-.768-1.483-1.783-1.972-3.047S2 13.905 2 12.292zm7.676 2.1c0 .525.158.918.474 1.18s.74.394 1.27.394c.795 0 1.483-.248 2.064-.743s.872-1.035.872-1.618v-1.195h-.917c-1.244 0-2.18.146-2.813.437s-.948.807-.948 1.545z"
          fill="#767676" fill-rule="evenodd"/>
</svg>