<?xml version="1.0" encoding="UTF-8"?>
<svg width="24px" height="24px" viewBox="0 0 24 24" version="1.1" xmlns="http://www.w3.org/2000/svg"
>
    <!-- Generator: Sketch 54.1 (76490) - https://sketchapp.com -->
    <title>_icon/add/r/inactive</title>
    <desc>Created with Sketch.</desc>
    <g id="_icon/add/r/inactive" stroke="none" stroke-width="1" fill="none" fill-rule="evenodd">
        <path d="M13,10.9999053 L16.0152316,10.9999053 C16.5675163,10.9999053 17.0152316,11.4476205 17.0152316,11.9999053 C17.0152316,12.55219 16.5675163,12.9999053 16.0152316,12.9999053 L13,12.9999053 L13,16.0150421 C13,16.5673269 12.5522847,17.0150421 12,17.0150421 C11.4477153,17.0150421 11,16.5673269 11,16.0150421 L11,12.9999053 L7.98438947,12.9999053 C7.43210472,12.9999053 6.98438947,12.55219 6.98438947,11.9999053 C6.98438947,11.4476205 7.43210472,10.9999053 7.98438947,10.9999053 L11,10.9999053 L11,7.98514737 C11,7.43286262 11.4477153,6.98514737 12,6.98514737 C12.5522847,6.98514737 13,7.43286262 13,7.98514737 L13,10.9999053 Z M16.7750735,18.4203149 C17.2181866,18.0906647 17.844635,18.1826446 18.1742851,18.6257577 C18.5039353,19.0688708 18.4119554,19.6953192 17.9688423,20.0249694 C14.6003069,22.5309621 9.9786854,22.6818242 6.43406043,20.3063471 C1.84660212,17.2326027 0.619261321,11.0210211 3.69307788,6.43345521 C6.76795347,1.84587979 12.979609,0.618914228 17.5668742,3.69358186 C21.8352382,6.55483883 23.2290763,12.1772247 20.8357294,16.6829096 C20.5766473,17.1706544 19.9712246,17.356022 19.4834798,17.0969399 C18.9957351,16.8378578 18.8103674,16.2324351 19.0694495,15.7446904 C20.9829172,12.14242 19.8676355,7.64365951 16.4532973,5.35489054 C12.7836876,2.89529213 7.81435821,3.87686556 5.35450501,7.54685536 C2.89562139,11.2166549 3.87749501,16.1859251 7.54740417,18.6448822 C10.383181,20.5453154 14.080914,20.4246114 16.7750735,18.4203149 Z"
              id="Combined-Shape" fill="#767676" fill-rule="nonzero"></path>
    </g>
</svg>