<?xml version="1.0" encoding="UTF-8"?>
<svg width="24px" height="24px" viewBox="0 0 24 24" version="1.1" xmlns="http://www.w3.org/2000/svg"
>
    <!-- Generator: Sketch 54.1 (76490) - https://sketchapp.com -->
    <title>_icon/limitations/r/inactive</title>
    <desc>Created with Sketch.</desc>
    <g id="_icon/limitations/r/inactive" stroke="none" stroke-width="1" fill="none" fill-rule="evenodd">
        <polyline id="Triangle" stroke="#767676" stroke-width="2" strokeLinecap="round" stroke-linejoin="round"
                  points="19.8079658 16.2735419 22 20 2 20 12 3 12 3 17.4091938 12.1956294"></polyline>
        <path d="M11,17 C11,16.7222208 11.0980382,16.4861121 11.2941176,16.2916667 C11.4901971,16.0972212 11.7282899,16 12.0084034,16 C12.2773123,16 12.5098029,16.0972212 12.7058824,16.2916667 C12.9019618,16.4861121 13,16.7222208 13,17 C13,17.266668 12.9019618,17.499999 12.7058824,17.7 C12.5098029,17.900001 12.2773123,18 12.0084034,18 C11.7282899,18 11.4901971,17.900001 11.2941176,17.7 C11.0980382,17.499999 11,17.266668 11,17 Z M11.1008403,9.73 C11.1008403,9.5766659 11.1848731,9.45833375 11.3529412,9.375 C11.5210092,9.29166625 11.7338923,9.25 11.9915966,9.25 C12.249301,9.25 12.462184,9.2933329 12.6302521,9.38 C12.7983202,9.4666671 12.8823529,9.5833326 12.8823529,9.73 C12.8823529,10.2100024 12.6638655,13.9499976 12.6638655,14.43 C12.6638655,14.5300005 12.5910371,14.608333 12.4453782,14.665 C12.2997192,14.7216669 12.1484602,14.75 11.9915966,14.75 C11.5322106,14.75 11.302521,14.6433344 11.302521,14.43 C11.302521,13.9499976 11.1008403,10.2100024 11.1008403,9.73 Z"
              id="!" fill="#767676"></path>
    </g>
</svg>