<?xml version="1.0" encoding="UTF-8"?>
<svg width="24px" height="24px" viewBox="0 0 24 24" version="1.1" xmlns="http://www.w3.org/2000/svg"
>
    <!-- Generator: Sketch 54.1 (76490) - https://sketchapp.com -->
    <title>_icon/limitations/r/signal</title>
    <desc>Created with Sketch.</desc>
    <g id="_icon/limitations/r/signal" stroke="none" stroke-width="1" fill="none" fill-rule="evenodd">
        <path d="M18.9460316,16.780562 C18.6660121,16.3045289 18.8249126,15.6916272 19.3009457,15.4116077 C19.7769788,15.1315882 20.3898806,15.2904886 20.6699,15.7665218 L22.8619342,19.4929799 C23.2540716,20.1596135 22.7734158,21 22,21 L2,21 C1.22658416,21 0.745928385,20.1596135 1.13806578,19.4929799 L11.1380658,2.49297987 C11.5247167,1.83567338 12.4752833,1.83567338 12.8619342,2.49297987 L18.271128,11.6886093 C18.5511475,12.1646424 18.392247,12.7775442 17.9162139,13.0575637 C17.4401808,13.3375831 16.8272791,13.1786827 16.5472596,12.7026496 L12,4.97230829 L3.74841664,19 L20.2515834,19 L18.9460316,16.780562 Z"
              id="Triangle" fill="#C13064" fill-rule="nonzero"></path>
        <path d="M11,17 C11,16.7222208 11.0980382,16.4861121 11.2941176,16.2916667 C11.4901971,16.0972212 11.7282899,16 12.0084034,16 C12.2773123,16 12.5098029,16.0972212 12.7058824,16.2916667 C12.9019618,16.4861121 13,16.7222208 13,17 C13,17.266668 12.9019618,17.499999 12.7058824,17.7 C12.5098029,17.900001 12.2773123,18 12.0084034,18 C11.7282899,18 11.4901971,17.900001 11.2941176,17.7 C11.0980382,17.499999 11,17.266668 11,17 Z M11.1008403,9.73 C11.1008403,9.5766659 11.1848731,9.45833375 11.3529412,9.375 C11.5210092,9.29166625 11.7338923,9.25 11.9915966,9.25 C12.249301,9.25 12.462184,9.2933329 12.6302521,9.38 C12.7983202,9.4666671 12.8823529,9.5833326 12.8823529,9.73 C12.8823529,10.2100024 12.6638655,13.9499976 12.6638655,14.43 C12.6638655,14.5300005 12.5910371,14.608333 12.4453782,14.665 C12.2997192,14.7216669 12.1484602,14.75 11.9915966,14.75 C11.5322106,14.75 11.302521,14.6433344 11.302521,14.43 C11.302521,13.9499976 11.1008403,10.2100024 11.1008403,9.73 Z"
              id="!" fill="#C13064"></path>
    </g>
</svg>