<?xml version="1.0" encoding="UTF-8"?>
<svg width="48px" height="48px" viewBox="0 0 48 48" version="1.1" xmlns="http://www.w3.org/2000/svg"
>
    <!-- Generator: Sketch 54.1 (76490) - https://sketchapp.com -->
    <title>_icon/strikethrough/l/active</title>
    <desc>Created with Sketch.</desc>
    <defs>
        <linearGradient x1="11.3731725%" y1="0%" x2="88.6268275%" y2="100%" id="linearGradient-1">
            <stop stop-color="#972C86" offset="0%"></stop>
            <stop stop-color="#794997" offset="40%"></stop>
            <stop stop-color="#007180" offset="100%"></stop>
        </linearGradient>
    </defs>
    <g id="_icon/strikethrough/l/active" stroke="none" stroke-width="1" fill="none" fill-rule="evenodd">
        <path d="M31.6864369,25.0314075 C31.9495525,25.4237505 32.1864317,25.8598216 32.3970761,26.3396226 C32.89034,27.4631682 33.1369682,28.7648174 33.1369682,30.2446092 C33.1369682,33.0945785 32.2806201,35.2662773 30.5678982,36.7597709 C28.8551762,38.2532644 26.5875664,39 23.7650006,39 C21.2438739,39 19.0995782,38.4724896 17.3320491,37.4174528 C15.5645201,36.3624161 14.6807688,35.2731413 14.6807688,34.1495957 C14.6807688,33.6289282 14.8725908,33.1082686 15.2562405,32.5876011 C15.6398902,32.0669336 16.0783404,31.8066038 16.5716044,31.8066038 C16.8730434,31.8066038 17.236135,31.9778734 17.6608901,32.3204178 C18.0856451,32.6629622 18.503543,33.0329046 18.9145963,33.4302561 C19.3256495,33.8276076 19.949071,34.1975499 20.7848793,34.5400943 C21.6206876,34.8826387 22.5592452,35.0539084 23.6005801,35.0539084 C25.1625825,35.0539084 26.4162762,34.683966 27.3616987,33.9440701 C28.3071212,33.2041742 28.7798254,32.1217502 28.7798254,30.6967655 C28.7798254,29.381395 28.3208228,28.2852694 27.4028038,27.4083558 C26.4847849,26.5314422 25.3749577,25.8326621 24.073289,25.3119946 C23.8426909,25.2197554 23.6118785,25.1262264 23.3808514,25.0314075 L13.3403844,25.0314075 C12.6001105,25.0314075 12,24.4312969 12,23.6910231 C12,22.9507492 12.6001105,22.3506387 13.3403844,22.3506387 L37.4673034,22.3506387 C38.2075773,22.3506387 38.8076878,22.9507492 38.8076878,23.6910231 C38.8076878,24.4312969 38.2075773,25.0314075 37.4673034,25.0314075 L31.6864369,25.0314075 Z M16.7126313,20.7993672 C15.8513136,19.6131206 15.420661,18.144073 15.420661,16.3921833 C15.420661,14.9397951 15.7015431,13.6792506 16.2633159,12.6105121 C16.8250887,11.5417736 17.5855259,10.7196794 18.5446502,10.1442049 C19.5037745,9.56873028 20.5108399,9.15083239 21.5658766,8.89049865 C22.6209133,8.63016492 23.7375913,8.5 24.915944,8.5 C25.6558399,8.5 26.4299786,8.5479555 27.2383833,8.64386792 C28.0467881,8.73978035 28.8483299,8.89734841 29.6430329,9.11657682 C30.4377359,9.33580523 31.0954113,9.65094134 31.6160788,10.0619946 C32.1367462,10.4730479 32.3970761,10.9389013 32.3970761,11.4595687 C32.3970761,11.9802362 32.2326572,12.5008959 31.9038146,13.0215633 C31.574972,13.5422308 31.1365217,13.8025606 30.5884507,13.8025606 C30.3144152,13.8025606 29.9444728,13.6723957 29.4786124,13.412062 C29.0127521,13.1517283 28.3893306,12.8913984 27.6083294,12.6310647 C26.8273282,12.370731 25.9298754,12.240566 24.915944,12.240566 C23.3539416,12.240566 22.1070987,12.5488514 21.1753779,13.1654313 C20.2436572,13.7820112 19.7778038,14.7205687 19.7778038,15.9811321 C19.7778038,16.8032386 20.0244321,17.5088695 20.517696,18.0980458 C21.0109599,18.6872222 21.6480829,19.1736279 22.4290841,19.5572776 C23.2100854,19.9409273 24.0801351,20.3177205 25.0392593,20.6876685 C25.1342222,20.724297 25.2291177,20.7615299 25.323946,20.7993672 L16.7126313,20.7993672 Z"
              id="Combined-Shape" fill="url(#linearGradient-1)"></path>
    </g>
</svg>