<?xml version="1.0" encoding="UTF-8"?>
<svg width="48px" height="48px" viewBox="0 0 48 48" version="1.1" xmlns="http://www.w3.org/2000/svg"
>
    <!-- Generator: Sketch 54.1 (76490) - https://sketchapp.com -->
    <title>_icon/strikethrough/l/inactive</title>
    <desc>Created with Sketch.</desc>
    <g id="_icon/strikethrough/l/inactive" stroke="none" stroke-width="1" fill="none" fill-rule="evenodd">
        <g id="Group-2" transform="translate(12.000000, 8.000000)" fill="#767676">
            <path d="M9.57902162,15.9157714 L18.7098248,15.9157714 C19.1690205,16.4458271 19.5628198,17.084872 19.8912286,17.8329143 C20.3722595,18.928596 20.6127714,20.1979642 20.6127714,21.6410571 C20.6127714,24.4203472 19.7776607,26.538188 18.1074143,27.9946429 C16.4371678,29.4510978 14.2257947,30.1793143 11.4732286,30.1793143 C9.0146258,30.1793143 6.92350862,29.6648861 5.19981429,28.6360143 C3.47611995,27.6071425 2.61428571,26.5448817 2.61428571,25.4492 C2.61428571,24.9414451 2.80135051,24.4336978 3.17548571,23.9259429 C3.54962092,23.4181879 3.97719759,23.1643143 4.45822857,23.1643143 C4.75219195,23.1643143 5.10627888,23.3313364 5.5205,23.6653857 C5.93472112,23.999435 6.34225514,24.3602028 6.74311429,24.7477 C7.14397343,25.1351972 7.75193402,25.495965 8.56701429,25.8300143 C9.38209455,26.1640636 10.2973759,26.3310857 11.3128857,26.3310857 C12.8361505,26.3310857 14.0587525,25.9703179 14.9807286,25.2487714 C15.9027046,24.527225 16.3636857,23.471645 16.3636857,22.082 C16.3636857,20.7992507 15.9160664,19.730309 15.0208143,18.8751429 C14.1255622,18.0199767 13.0432587,17.3385263 11.7738714,16.8307714 C11.0444569,16.5390056 10.3128427,16.2340067 9.57902162,15.9157714 Z M4.59575809,12.4300571 C3.75580101,11.2732295 3.33582857,9.84061426 3.33582857,8.13217143 C3.33582857,6.71580244 3.60974488,5.4865195 4.15758571,4.44428571 C4.70542655,3.40205193 5.44700485,2.60034566 6.38234286,2.03914286 C7.31768087,1.47794005 8.29977105,1.07040603 9.32864286,0.816528571 C10.3575147,0.562651112 11.446499,0.435714286 12.5956286,0.435714286 C13.317175,0.435714286 14.0721151,0.482480485 14.8604714,0.576014286 C15.6488278,0.669548087 16.4304914,0.823208455 17.2054857,1.037 C17.9804801,1.25079155 18.6218451,1.55811228 19.1296,1.95897143 C19.6373549,2.35983058 19.8912286,2.81413079 19.8912286,3.32188571 C19.8912286,3.82964063 19.7308873,4.33738794 19.4102,4.84514286 C19.0895127,5.35289778 18.661936,5.60677143 18.1274571,5.60677143 C17.8602177,5.60677143 17.4994499,5.4798346 17.0451429,5.22595714 C16.5908358,4.97207968 15.9828752,4.71820603 15.2212429,4.46432857 C14.4596105,4.21045111 13.5844145,4.08351429 12.5956286,4.08351429 C11.0723638,4.08351429 9.85644264,4.38415414 8.94782857,4.98544286 C8.0392145,5.58673158 7.58491429,6.5020129 7.58491429,7.73131429 C7.58491429,8.53303258 7.82542617,9.22116379 8.30645714,9.79572857 C8.78748812,10.3702933 9.40881048,10.8446362 10.1704429,11.2187714 C10.9320752,11.5929066 11.7805477,11.9603553 12.7158857,12.3211286 C12.8084935,12.3568487 12.9010356,12.3931582 12.9935122,12.4300571 L4.59575809,12.4300571 Z"
                  id="Combined-Shape"></path>
            <path d="M1.30714286,16.5571429 L24.8357143,16.5571429 C25.5576294,16.5571429 26.1428571,15.9719151 26.1428571,15.25 C26.1428571,14.5280849 25.5576294,13.9428571 24.8357143,13.9428571 L1.30714286,13.9428571 C0.585227791,13.9428571 0,14.5280849 0,15.25 C0,15.9719151 0.585227791,16.5571429 1.30714286,16.5571429 Z"
                  id="Line-Copy-2" fill-rule="nonzero"></path>
        </g>
    </g>
</svg>