<?xml version="1.0" encoding="UTF-8"?>
<svg width="48px" height="48px" viewBox="0 0 48 48" version="1.1" xmlns="http://www.w3.org/2000/svg"
>
    <!-- Generator: Sketch 54.1 (76490) - https://sketchapp.com -->
    <title>_icon/documents/l/white</title>
    <desc>Created with Sketch.</desc>
    <g id="_icon/documents/l/white" stroke="none" stroke-width="1" fill="none" fill-rule="evenodd">
        <path d="M19,14 L19,10.038 C19,6.64534149 21.2437518,4 24.539,4 L35.987,4 C37.6571362,4 39,5.32508156 39,7.013 L39,37 C39,37.8284271 38.3284271,38.5 37.5,38.5 C36.6715729,38.5 36,37.8284271 36,37 C36.0061119,17 36.0017785,7 35.987,7 L24.539,7 C23.0201627,7 22,8.20275285 22,10.038 L22,15.5 C22,16.3284271 21.3284271,17 20.5,17 L14.038,17 C12.3934031,17 11,18.4362183 11,20.139 L11,40.88 C11,40.9370601 11.0573132,41 11.013,41 L34,41 C34.8284271,41 35.5,41.6715729 35.5,42.5 C35.5,43.3284271 34.8284271,44 34,44 L11.013,44 C9.33451006,44 8,42.5344764 8,40.88 L8,20.139 C8,16.7993421 10.7158906,14 14.038,14 L19,14 Z M16,25 C15.1715729,25 14.5,24.3284271 14.5,23.5 C14.5,22.6715729 15.1715729,22 16,22 L31,22 C31.8284271,22 32.5,22.6715729 32.5,23.5 C32.5,24.3284271 31.8284271,25 31,25 L16,25 Z M16,30 L31,30 C33,30 33,33 31,33 L16,33 C14,33 14,30 16,30 Z M26,14 L31,14 C33,14 33,17 31,17 L26,17 C24,17 24,14 26,14 Z"
              id="Combined-Shape" fill="#FFFFFF" fill-rule="nonzero"></path>
    </g>
</svg>