<?xml version="1.0" encoding="UTF-8"?>
<svg width="48px" height="48px" viewBox="0 0 48 48" version="1.1" xmlns="http://www.w3.org/2000/svg"
>
    <!-- Generator: Sketch 54.1 (76490) - https://sketchapp.com -->
    <title>_icon/link/l/active</title>
    <desc>Created with Sketch.</desc>
    <defs>
        <linearGradient x1="0.00150292255%" y1="0%" x2="99.9984971%" y2="100%" id="linearGradient-1">
            <stop stop-color="#972C86" offset="0%"></stop>
            <stop stop-color="#794997" offset="40%"></stop>
            <stop stop-color="#007180" offset="100%"></stop>
        </linearGradient>
    </defs>
    <g id="_icon/link/l/active" stroke="none" stroke-width="1" fill="none" fill-rule="evenodd">
        <path d="M23.0957398,33.8021398 C23.6815263,33.2163534 24.6312737,33.2163534 25.2170602,33.8021398 C25.8028466,34.3879263 25.8028466,35.3376737 25.2170602,35.9234602 L19.0992611,42.0412592 C15.8744622,45.2672801 10.6445598,45.2672801 7.41873983,42.0414602 C4.19395339,38.8166737 4.19395339,33.5859263 7.41873983,30.3611398 L16.9777398,20.8021398 C20.2035598,17.5763199 25.4334622,17.5763199 28.6568823,20.8009633 C29.2011852,21.3440593 29.6611964,21.9523817 30.0285871,22.6114509 C30.4319478,23.3350472 30.1723454,24.2486264 29.4487491,24.6519871 C28.7251528,25.0553478 27.8115736,24.7957454 27.4082129,24.0721491 C27.1763516,23.6562088 26.8850814,23.2710307 26.5365389,22.9232592 C24.4833378,20.8692801 21.1532402,20.8692801 19.0990602,22.9234602 L9.54006017,32.4824602 C7.48684661,34.5356737 7.48684661,37.8669263 9.54006017,39.9201398 C11.5942402,41.9743199 14.9243378,41.9743199 16.9777398,39.9201398 L23.0957398,33.8021398 Z M26.3644735,15.6579469 C25.7786392,16.2436854 24.8288917,16.2436078 24.2431531,15.6577735 C23.6574146,15.0719392 23.6574922,14.1221917 24.2433265,13.5364531 L30.3610389,7.41974077 C33.5858378,4.1937199 38.8157402,4.1937199 42.0415602,7.41953983 C45.2663466,10.6443263 45.2663466,15.8740737 42.0416156,19.0988047 L32.4825602,28.6588602 C29.2567402,31.8846801 24.0268378,31.8846801 20.8022398,28.6588602 C20.2581896,28.11481 19.7986483,27.5068015 19.4317129,26.8485491 C19.0283522,26.1249528 19.2879546,25.2113736 20.0115509,24.8080129 C20.7351472,24.4046522 21.6487264,24.6642546 22.0520871,25.3878509 C22.2838827,25.8036734 22.5754199,26.1893995 22.9237611,26.5377408 C24.9769622,28.5917199 28.3070598,28.5917199 30.3611844,26.5375953 L39.9202398,16.9775398 C41.9734534,14.9243263 41.9734534,11.5940737 39.9202398,9.54086017 C37.8660598,7.4866801 34.5359622,7.4866801 32.4824735,9.54094686 L26.3644735,15.6579469 Z"
              id="Combined-Shape" fill="url(#linearGradient-1)" fill-rule="nonzero"></path>
    </g>
</svg>