<?xml version="1.0" encoding="UTF-8"?>
<svg width="48px" height="48px" viewBox="0 0 48 48" version="1.1" xmlns="http://www.w3.org/2000/svg"
>
    <!-- Generator: Sketch 54.1 (76490) - https://sketchapp.com -->
    <title>_icon/link/l/inactive</title>
    <desc>Created with Sketch.</desc>
    <g id="_icon/link/l/inactive" stroke="none" stroke-width="1" fill="none" fill-rule="evenodd" strokeLinecap="round"
       stroke-linejoin="round">
        <path d="M24.1564,34.8628 L18.0384,40.9808 C15.3994,43.6208 11.1194,43.6208 8.4794,40.9808 C5.8404,38.3418 5.8404,34.0608 8.4794,31.4218 L18.0384,21.8628 C20.6784,19.2228 24.9584,19.2228 27.5974,21.8628 C28.0484,22.3128 28.4224,22.8108 28.7184,23.3418"
              id="Stroke-1" stroke="#767676" stroke-width="3"></path>
        <path d="M25.3039,14.5972 L31.4219,8.4802 C34.0609,5.8402 38.3409,5.8402 40.9809,8.4802 C43.6199,11.1192 43.6199,15.3992 40.9809,18.0382 L31.4219,27.5982 C28.7819,30.2382 24.5019,30.2382 21.8629,27.5982 C21.4119,27.1472 21.0379,26.6492 20.7419,26.1182"
              id="Stroke-3" stroke="#767676" stroke-width="3"></path>
    </g>
</svg>