<svg xmlns="http://www.w3.org/2000/svg" width="48" height="48">
    <defs>
        <linearGradient x1="0%" y1="0%" x2="100%" y2="100%" id="A">
            <stop stop-color="#972C86" offset="0%"/>
            <stop stop-color="#794997" offset="40%"/>
            <stop stop-color="#007180" offset="100%"/>
        </linearGradient>
    </defs>
    <path d="M14 19.5v-6c0-5.015 4.516-9 10-9s10 3.985 10 9v6h1.045A3.95 3.95 0 0 1 39 23.444V31a1.5 1.5 0 1 1-3 0v-7.556a.95.95 0 0 0-.955-.944h-22.09a.95.95 0 0 0-.955.944v17.11a.95.95 0 0 0 .955.944h22.09a.95.95 0 0 0 .955-.944V38a1.5 1.5 0 1 1 3 0v2.556a3.95 3.95 0 0 1-3.955 3.944h-22.09A3.95 3.95 0 0 1 9 40.556v-17.11a3.95 3.95 0 0 1 3.955-3.944H14zm3 0h14v-6c0-3.27-3.095-6-7-6s-7 2.73-7 6v6zM24 33a2.5 2.5 0 1 1 0-5 2.5 2.5 0 1 1 0 5z"
          fill="url(#A)" fill-rule="nonzero"/>
</svg>