<svg xmlns="http://www.w3.org/2000/svg" width="48" height="48">
    <defs>
        <linearGradient x1="0%" y1="12.9801605%" x2="100%" y2="87.0198395%" id="A">
            <stop stop-color="#972c86" offset="0%"/>
            <stop stop-color="#794997" offset="40%"/>
            <stop stop-color="#007180" offset="100%"/>
        </linearGradient>
    </defs>
    <path d="M12.16 40.5h24.98a1.5 1.5 0 1 1 0 3H11.775c-1.45 0-2.615-1.187-2.615-2.637v-2.298c.072-4.35 1.893-7.755 4.85-10.26.744-.63 1.523-1.17 2.313-1.63a12.94 12.94 0 0 1-.764-.749c-1.903-2.027-3.055-4.626-3.055-7.792 0-6.45 5.152-11.633 11.534-11.633s11.534 5.184 11.534 11.633c0 3.145-1.15 5.74-3.05 7.78-.262.28-.523.538-.782.772.82.48 1.63 1.054 2.4 1.73 1.883 1.655 3.322 3.734 4.138 6.267h4.178c-.197-2.013-1.055-3.563-2.386-4.757a8.22 8.22 0 0 0-1.702-1.174 5.42 5.42 0 0 0-.694-.311c-1.293-.425-1.398-2.213-.163-2.786.05-.024.188-.1.383-.227.343-.226.688-.508 1-.846a5.06 5.06 0 0 0 1.435-3.624c0-2.03-1.072-3.783-2.848-4.724a1.5 1.5 0 0 1 1.404-2.651c2.752 1.458 4.444 4.227 4.444 7.375a8.04 8.04 0 0 1-2.261 5.691l-.144.15c.388.266.77.564 1.14.895 2.086 1.87 3.37 4.425 3.426 7.684.022 1.274-1.014 2.307-2.278 2.307h-6.08a1.5 1.5 0 0 1-1.46-1.157c-.57-2.423-1.805-4.35-3.52-5.857a12.54 12.54 0 0 0-2.686-1.801c-.537-.267-.94-.424-1.14-.485-1.304-.4-1.44-2.193-.21-2.785.102-.05.328-.177.636-.386.532-.36 1.067-.81 1.566-1.344 1.4-1.514 2.246-3.4 2.246-5.736 0-4.796-3.813-8.633-8.534-8.633s-8.534 3.837-8.534 8.633c0 2.357.835 4.24 2.242 5.74a9.02 9.02 0 0 0 1.56 1.324c.307.205.53.33.632.376 1.235.58 1.118 2.373-.182 2.787-.202.064-.605.223-1.14.488-.91.45-1.82 1.03-2.667 1.746-2.333 1.977-3.733 4.595-3.8 7.997v1.9zM5.926 27.785c.37-.33.75-.63 1.14-.895l-.144-.15A8.04 8.04 0 0 1 4.66 21.05c0-3.148 1.692-5.917 4.444-7.375a1.5 1.5 0 1 1 1.404 2.651c-1.777.94-2.848 2.695-2.848 4.724a5.06 5.06 0 0 0 1.435 3.624c.32.338.667.62 1 .846.194.128.332.204.383.227 1.234.573 1.13 2.36-.18 2.792-.036.013-.08.03-.133.052a6.78 6.78 0 0 0-.542.253 8.22 8.22 0 0 0-1.702 1.174c-1.332 1.193-2.19 2.744-2.386 4.757H6a1.5 1.5 0 1 1 0 3H4.778c-1.264 0-2.3-1.033-2.278-2.307.055-3.26 1.34-5.815 3.426-7.684z"
          fill="url(#A)" fill-rule="nonzero"/>
</svg>