<?xml version="1.0" encoding="UTF-8"?>
<svg width="32px" height="32px" viewBox="0 0 32 32" version="1.1" xmlns="http://www.w3.org/2000/svg"
>
    <!-- Generator: Sketch 54.1 (76490) - https://sketchapp.com -->
    <title>_icon/topic/m/white</title>
    <desc>Created with Sketch.</desc>
    <g id="_icon/topic/m/white" stroke="none" stroke-width="1" fill="none" fill-rule="evenodd">
        <path d="M25.1182609,18.2989936 L25.2393849,18.2721147 C29.2144093,17.6526672 30.5929961,23.4973833 26.6286316,24.7025802 L8.13360953,30.1253914 C5.64423661,30.7353627 3.60524482,29.5055964 3.10715657,27.4010569 C2.61702759,25.3301473 3.83618198,23.2865417 6.1924847,22.7251692 C6.71537825,22.6005935 7.2402558,22.9234939 7.36483152,23.4463874 C7.48940724,23.969281 7.16650683,24.4941585 6.64361328,24.6187342 C5.34436186,24.9282718 4.75576269,25.9149101 5.00138988,26.9527425 C5.24921231,27.9998503 6.22563654,28.5887559 7.62808924,28.2461256 L26.0716395,22.8374332 C27.6821051,22.3478194 27.1482718,20.0010757 25.5933485,20.187974 L21.9961543,21.230759 C21.0891765,21.4936814 20.3768201,20.4407793 20.9582585,19.6966918 C21.8254854,18.5868706 22.3839762,17.1521873 22.3824586,15.8250897 C22.3794867,14.1014028 21.9182813,13.0628572 20.584265,11.2108183 C20.5316956,11.1378353 20.3493858,10.8856003 20.3224892,10.8483164 C18.566262,8.4138421 17.7762914,6.56952794 17.8805257,3.85865473 C17.6474239,4.0445929 17.4182837,4.2465586 17.1965117,4.46471558 C16.3861147,5.26190255 15.7560704,6.19535487 15.3696243,7.27364826 C14.9989428,8.3074286 14.9754404,9.1163758 15.1501232,10.5159843 C15.4222193,12.6960961 15.2805757,13.5209465 13.856061,14.3285525 C12.3076569,15.2056432 10.6522145,14.7900807 9.74606925,13.2723107 C9.2741366,12.4818356 9.03145404,11.4474798 9.02679475,10.2268514 C7.81978119,12.0445771 7.22224656,14.1661786 7.52527038,16.5903692 C8.12767489,21.4114626 12.5969797,24.0667889 17.6827357,21.9036118 C18.1773791,21.69322 18.748923,21.9236514 18.9593148,22.4182948 C19.1697066,22.9129382 18.9392751,23.4844821 18.4446317,23.6948739 C12.1565351,26.3694551 6.35478069,22.922487 5.59373373,16.8317648 C5.20841361,13.7492038 6.03813298,11.0521793 7.64920504,8.7958112 C8.45242942,7.67086471 9.26171453,6.89553757 9.82988131,6.47691786 C10.5658856,5.93463712 11.5758299,6.6144477 11.3504435,7.50043398 C10.3173056,11.5616644 11.4479483,13.455462 12.8963498,12.6350178 C13.3687944,12.3671728 13.3981593,12.1961683 13.2185468,10.7570612 C13.0093018,9.08053112 13.0406447,8.00171889 13.5372409,6.61677941 C14.0285739,5.24582202 14.822599,4.06942127 15.8314408,3.07702431 C16.8823822,2.04321399 17.934789,1.3970913 18.6726583,1.08049242 C19.3777908,0.777939946 20.1394059,1.37226382 20.0173111,2.1297879 C19.4778483,5.47682832 20.0141292,7.09370575 21.9011436,9.70947675 C21.9271592,9.74553942 22.1100453,9.99857169 22.1637456,10.0731247 C23.7141833,12.2256253 24.3251902,13.6014951 24.329019,15.8222984 C24.3301242,16.7885915 24.1219856,17.7701732 23.7544733,18.6943398 L25.1182609,18.2989936 Z M26.9084056,27.0972894 C26.750451,26.6781225 26.9622054,26.2102731 27.3813723,26.0523185 C27.8005392,25.894364 28.2683886,26.1061184 28.4263432,26.5252853 C29.3311886,28.9264899 26.9076059,31.3755467 24.0499264,30.40998 L23.9681208,30.3772891 L21.6822075,29.3164125 C21.2758918,29.1278441 21.0993726,28.6455953 21.2879409,28.2392795 C21.4765093,27.8329637 21.9587582,27.6564445 22.365074,27.8450129 L24.6083514,28.8861025 C26.1606705,29.3843748 27.3229126,28.1972742 26.9084056,27.0972894 Z"
              id="Combined-Shape" stroke="#FFFFFF" stroke-width="0.75" fill="#FFFFFF" fill-rule="nonzero"></path>
    </g>
</svg>