<svg xmlns="http://www.w3.org/2000/svg" width="22" height="20">
    <path d="M14.436 14.125c-1.215-2.566-3.796-3.297-3.796-3.297s2.673-1.264 2.673-4.365c0-2.79-2.27-4.962-5.063-4.962s-5.062 2.17-5.062 4.962c0 3.124 2.672 4.354 2.672 4.354s-4.285 1.338-4.36 5.77v1.125a.56.56 0 0 0 .563.562h18.075c.3 0 .568-.25.562-.562-.08-4.682-4.234-6.04-4.234-6.04s2.672-1.236 2.672-4.365c0-2.25-1.445-3.996-3.597-4.646"
          stroke="#972C86" stroke-width="2" fill="none" strokeLinecap="round" stroke-linejoin="round"/>
</svg>