<?xml version="1.0" encoding="UTF-8"?>
<svg width="48px" height="48px" viewBox="0 0 48 48" version="1.1" xmlns="http://www.w3.org/2000/svg"
>
    <!-- Generator: Sketch 54.1 (76490) - https://sketchapp.com -->
    <title>_icon/increase/l/inactive</title>
    <desc>Created with Sketch.</desc>
    <g id="_icon/increase/l/inactive" stroke="none" stroke-width="1" fill="none" fill-rule="evenodd"
       strokeLinecap="round" stroke-linejoin="round">
        <polyline id="Path-Copy" stroke="#767676" stroke-width="3"
                  transform="translate(24.000000, 23.000000) scale(1, -1) translate(-24.000000, -23.000000) "
                  points="37 10 37 24.4444444 37 36 11 36 11 26"></polyline>
        <g id="Group" transform="translate(8.000000, 28.000000)" stroke="#767676" stroke-width="3">
            <polyline id="Path"
                      transform="translate(18.818182, 1.500000) scale(-1, 1) translate(-18.818182, -1.500000) "
                      points="14.6363636 3 14.6363636 0 23 0"></polyline>
            <polyline id="Path-Copy-2"
                      transform="translate(18.818182, 10.500000) scale(-1, -1) translate(-18.818182, -10.500000) "
                      points="14.6363636 12 14.6363636 9 23 9"></polyline>
            <polyline id="Path" points="0 3 0 0 8.36363636 0"></polyline>
            <polyline id="Path-Copy-3"
                      transform="translate(4.181818, 10.500000) scale(1, -1) translate(-4.181818, -10.500000) "
                      points="0 12 0 9 8.36363636 9"></polyline>
        </g>
    </g>
</svg>