<?xml version="1.0" encoding="UTF-8"?>
<svg width="48px" height="48px" viewBox="0 0 48 48" version="1.1" xmlns="http://www.w3.org/2000/svg"
>
    <!-- Generator: Sketch 54.1 (76490) - https://sketchapp.com -->
    <title>_icon/limitations/l/active</title>
    <desc>Created with Sketch.</desc>
    <defs>
        <linearGradient x1="0%" y1="14.2621595%" x2="100%" y2="85.7378405%" id="linearGradient-1">
            <stop stop-color="#972C86" offset="0%"></stop>
            <stop stop-color="#794997" offset="40%"></stop>
            <stop stop-color="#007180" offset="100%"></stop>
        </linearGradient>
    </defs>
    <g id="_icon/limitations/l/active" stroke="none" stroke-width="1" fill="none" fill-rule="evenodd">
        <path d="M22,33 C22,32.4444417 22.1960765,31.9722242 22.5882353,31.5833333 C22.9803941,31.1944425 23.4565798,31 24.0168067,31 C24.5546245,31 25.0196059,31.1944425 25.4117647,31.5833333 C25.8039235,31.9722242 26,32.4444417 26,33 C26,33.533336 25.8039235,33.999998 25.4117647,34.4 C25.0196059,34.800002 24.5546245,35 24.0168067,35 C23.4565798,35 22.9803941,34.800002 22.5882353,34.4 C22.1960765,33.999998 22,33.533336 22,33 Z M22.2016807,17.2218182 C22.2016807,16.8315132 22.3697462,16.5303041 22.7058824,16.3181818 C23.0420185,16.1060595 23.4677845,16 23.9831933,16 C24.498602,16 24.9243681,16.1103019 25.2605042,16.3309091 C25.5966403,16.5515163 25.7647059,16.848483 25.7647059,17.2218182 C25.7647059,18.4436425 25.3277311,27.9636303 25.3277311,29.1854545 C25.3277311,29.4400013 25.1820743,29.6393932 24.8907563,29.7836364 C24.5994383,29.9278795 24.2969203,30 23.9831933,30 C23.0644212,30 22.605042,29.7284876 22.605042,29.1854545 C22.605042,27.9636303 22.2016807,18.4436425 22.2016807,17.2218182 Z M7.64928557,37.1666667 L40.3507144,37.1666667 L37.7014387,32.7512071 C37.2752165,32.0408367 37.505564,31.1194463 38.2159344,30.6932241 C38.9263048,30.2670018 39.8476952,30.4973494 40.2739175,31.2077198 L44.2862394,37.894923 C44.8861115,38.8947098 44.1659417,40.1666667 43,40.1666667 L5,40.1666667 C3.83405829,40.1666667 3.11388855,38.8947098 3.71376061,37.894923 L22.7137606,6.22825637 C23.2963657,5.25724788 24.7036343,5.25724788 25.2862394,6.22825637 L36.6392955,25.1500165 C37.0655177,25.8603869 36.8351701,26.7817773 36.1247997,27.2079995 C35.4144293,27.6342217 34.4930389,27.4038741 34.0668167,26.6935037 L24,9.91547595 L7.64928557,37.1666667 Z"
              id="Combined-Shape" fill="url(#linearGradient-1)"></path>
    </g>
</svg>