<?xml version="1.0" encoding="UTF-8"?>
<svg width="24px" height="24px" viewBox="0 0 24 24" version="1.1" xmlns="http://www.w3.org/2000/svg"
>
    <!-- Generator: Sketch 54.1 (76490) - https://sketchapp.com -->
    <title>_icon/comparement/r/quarternary</title>
    <desc>Created with Sketch.</desc>
    <g id="_icon/comparement/r/quarternary" stroke="none" stroke-width="1" fill="none" fill-rule="evenodd"
       strokeLinecap="round" stroke-linejoin="round">
        <path d="M1.55407715,15.3022461 L7.14242691,2.97607422 C7.88146973,1.46401122 10.0081587,1.91845876 10.0140129,3.68615723 C10.0140129,4.68615723 10.0100005,7.84729836 10.0100005,17.5543084"
              id="Rectangle-3-Copy-6" stroke="#007180" stroke-width="2"></path>
        <path d="M5.18628156,21.9892239 C2.70705421,21.8158595 0.837783005,19.6655089 1.01114747,17.1862816 C1.18451193,14.7070542 3.33486247,12.837783 5.81408983,13.0111475 C8.29331718,13.1845119 10.1625884,15.3348625 9.98922392,17.8140898 C9.81585946,20.2933172 7.66550892,22.1625884 5.18628156,21.9892239 Z"
              id="Oval-5" stroke="#007180" stroke-width="2"></path>
        <path d="M13.9859871,15.3022461 C15.04224,12.9724786 15.8344297,11.225153 16.3625562,10.0602692 C17.0762853,8.48600367 18.1468788,6.12460534 19.5743368,2.97607422 C20.3133796,1.46401122 22.4400686,1.91845876 22.4459229,3.68615723 C22.4459229,4.68615723 22.4419104,7.84729836 22.4419104,17.5543084"
              id="Rectangle-3-Copy-6" stroke="#007180" stroke-width="2"
              transform="translate(18.215955, 9.808597) scale(-1, 1) translate(-18.215955, -9.808597) "></path>
        <path d="M18.1859102,21.9892239 C15.7066828,21.8158595 13.8374116,19.6655089 14.0107761,17.1862816 C14.1841405,14.7070542 16.3344911,12.837783 18.8137184,13.0111475 C21.2929458,13.1845119 23.162217,15.3348625 22.9888525,17.8140898 C22.8154881,20.2933172 20.6651375,22.1625884 18.1859102,21.9892239 Z"
              id="Oval-5" stroke="#007180" stroke-width="2"
              transform="translate(18.499814, 17.500186) scale(-1, 1) translate(-18.499814, -17.500186) "></path>
        <path d="M14,7 C12.8954305,5.66666667 11.1045695,5.66666667 10,7" id="Oval-5-Copy" stroke="#007180"
              stroke-width="1.5"></path>
        <path d="M14,13 C12.8954305,11.6666667 11.1045695,11.6666667 10,13" id="Oval-5-Copy-2" stroke="#007180"
              stroke-width="1.5"></path>
    </g>
</svg>