<svg xmlns="http://www.w3.org/2000/svg" width="48" height="48">
    <defs>
        <linearGradient id="A" x1="14.761%" x2="85.239%" y1="0%" y2="100%">
            <stop stop-color="#972c86" offset="0%"/>
            <stop stop-color="#794997" offset="40%"/>
            <stop stop-color="#007180" offset="100%"/>
        </linearGradient>
    </defs>
    <path fill="url(#A)"
          d="M34 13a1.5 1.5 0 0 1-2.993.144L31 13V5a1.5 1.5 0 0 1 2.993-.144L34 5v2.5h3.433c1.894 0 3.46 1.454 3.56 3.307L41 11v29.5c0 1.944-1.608 3.5-3.567 3.5H10.567C8.608 44 7 42.444 7 40.5V11c0-1.944 1.608-3.5 3.567-3.5a1.5 1.5 0 1 1 0 3c-.324 0-.567.235-.567.5v29.5c0 .265.243.5.567.5h26.867c.324 0 .567-.235.567-.5V11c0-.265-.243-.5-.567-.5H34V13zm-1.5 20a1.5 1.5 0 0 1 .144 2.993L32.5 36h-17a1.5 1.5 0 0 1-.144-2.993L15.5 33h17zm0-7.5a1.5 1.5 0 0 1 .144 2.993l-.144.007h-17a1.5 1.5 0 0 1-.144-2.993l.144-.007h17zm0-7.5a1.5 1.5 0 0 1 .144 2.993L32.5 21h-17a1.5 1.5 0 0 1-.144-2.993L15.5 18h17zm-17-14.5a1.5 1.5 0 0 1 1.493 1.356L17 5v2.5h10a1.5 1.5 0 0 1 .144 2.993L27 10.5H17V13a1.5 1.5 0 0 1-2.993.144L14 13V5a1.5 1.5 0 0 1 1.5-1.5z"/>
</svg>