<?xml version="1.0" encoding="UTF-8"?>
<svg width="48px" height="48px" viewBox="0 0 48 48" version="1.1" xmlns="http://www.w3.org/2000/svg"
>
    <!-- Generator: Sketch 54.1 (76490) - https://sketchapp.com -->
    <title>_icon/praise/negative/l/active</title>
    <desc>Created with Sketch.</desc>
    <defs>
        <linearGradient x1="0%" y1="2.73932533%" x2="100%" y2="97.2606747%" id="linearGradient-1">
            <stop stop-color="#972C86" offset="0%"></stop>
            <stop stop-color="#794997" offset="40%"></stop>
            <stop stop-color="#007180" offset="100%"></stop>
        </linearGradient>
    </defs>
    <g id="_icon/praise/negative/l/active" stroke="none" stroke-width="1" fill="none" fill-rule="evenodd">
        <path d="M21.7477448,21.3948458 C26.4512021,16.4033904 31.2926982,11.7476731 36.0477873,7.84099566 C36.6878878,7.31510313 37.6331118,7.40768692 38.1590043,8.04778735 C38.6848969,8.68788777 38.5923131,9.63311181 37.9522127,10.1590043 C33.3058632,13.9763436 28.5535783,18.548318 23.9280605,23.4576044 C27.0630863,26.3823652 30.2696178,29.2006165 33.4761947,31.8792659 C35.4281442,33.5098484 37.2400362,34.9706441 38.864968,36.240129 C39.4326417,36.6836265 39.9360432,37.0712758 40.3693135,37.4003929 C40.6275804,37.5965755 40.8040248,37.7288801 40.8927896,37.7946259 C41.5584993,38.2876999 41.6984482,39.2270798 41.2053741,39.8927896 C40.7123001,40.5584993 39.7729202,40.6984482 39.1072104,40.2053741 C39.0088387,40.1325127 38.8227062,39.9929436 38.5546518,39.7893264 C38.1107199,39.4521105 37.5965668,39.0561819 37.0180296,38.6041972 C35.3680732,37.3151617 33.5308041,35.8339064 31.5528877,34.1816321 C28.3070927,31.4702215 25.0612523,28.6175408 21.8859607,25.6553629 C17.0476173,30.93387 12.3888999,36.5195769 8.18362107,41.9214343 C7.67472697,42.5751302 6.73226158,42.6925152 6.07856571,42.1836211 C5.42486984,41.674727 5.30748482,40.7322616 5.81637893,40.0785657 C10.0818497,34.5993892 14.7988264,28.9431331 19.7051187,23.5926031 C18.10197,22.0549072 16.5214608,20.4905596 14.9729944,18.9037926 C12.0627934,15.921609 9.34362375,12.9365172 6.8506677,9.96386476 C6.3183399,9.32910605 6.40137654,8.38299551 7.03613524,7.8506677 C7.67089395,7.3183399 8.61700449,7.40137654 9.1493323,8.03613524 C11.5915909,10.948335 14.2604016,13.878143 17.120069,16.8085431 C18.6338508,18.3597676 20.1794999,19.8899663 21.7477448,21.3948458 Z"
              id="Combined-Shape" fill="url(#linearGradient-1)" fill-rule="nonzero"></path>
    </g>
</svg>