<svg xmlns="http://www.w3.org/2000/svg" width="24" height="24" viewBox="0 0 24 24">
    <g fill="none" fill-rule="evenodd">
        <g stroke="#972C86" stroke-linecap="round" stroke-linejoin="round" stroke-width="2">
            <path d="M9.93 20.414v2.29h4.14v-2.29a8.266 8.266 0 0 0 3.867-2.245l1.993 1.151L22 15.735l-2.015-1.165a8.291 8.291 0 0 0 .296-2.166c0-.785-.116-1.54-.32-2.258L22 8.968l-2.07-3.584-2.055 1.185a8.259 8.259 0 0 0-3.804-2.175V2H9.93v2.394a8.253 8.253 0 0 0-3.805 2.175L4.071 5.384 2 8.968l2.039 1.178a8.266 8.266 0 0 0-.32 2.258c0 .75.108 1.475.296 2.166L2 15.735l2.07 3.585 1.993-1.15"/>
            <path d="M15.5 12.5a3.5 3.5 0 1 1-7 0 3.5 3.5 0 0 1 7 0z"/>
        </g>
    </g>
</svg>
