<svg xmlns="http://www.w3.org/2000/svg" width="24" height="24" viewBox="0 0 24 24">
    <g fill="none" fill-rule="evenodd">
        <path stroke="#972C86" stroke-linecap="round" stroke-linejoin="round" stroke-width="2"
              d="M19.808 16.274L22 20H2L12 3l5.41 9.196"/>
        <path fill="#972C86"
              d="M11 17a.96.96 0 0 1 .294-.708.977.977 0 0 1 .714-.292c.27 0 .502.097.698.292A.96.96 0 0 1 13 17c0 .267-.098.5-.294.7-.196.2-.429.3-.698.3-.28 0-.518-.1-.714-.3A.969.969 0 0 1 11 17zm.1-7.27c0-.153.085-.272.253-.355.168-.083.38-.125.639-.125.257 0 .47.043.638.13.168.087.252.203.252.35 0 .48-.218 4.22-.218 4.7 0 .1-.073.178-.219.235a1.24 1.24 0 0 1-.453.085c-.46 0-.69-.107-.69-.32 0-.48-.201-4.22-.201-4.7z"/>
    </g>
</svg>
