<svg xmlns="http://www.w3.org/2000/svg" width="24" height="24" fill="#C13064">
    <path d="M18.946 16.78a1 1 0 1 1 1.724-1.014l2.192 3.726A1 1 0 0 1 22 21H2a1 1 0 0 1-.862-1.507l10-17a1 1 0 0 1 1.724 0l5.41 9.196a1 1 0 1 1-1.724 1.014L12 4.972 3.748 19h16.503l-1.306-2.22z"
          fill-rule="nonzero"/>
    <path d="M11 17a.96.96 0 0 1 .294-.708c.196-.194.434-.292.714-.292.27 0 .5.097.697.292A.96.96 0 0 1 13 17c0 .267-.098.5-.294.7s-.43.3-.697.3a.96.96 0 0 1-.714-.3c-.196-.2-.294-.433-.294-.7zm.1-7.27c0-.153.084-.272.252-.355s.38-.125.64-.125.47.043.64.13.252.203.252.35l-.218 4.7c0 .1-.073.178-.218.235a1.24 1.24 0 0 1-.454.085c-.46 0-.69-.107-.69-.32l-.202-4.7z"/>
</svg>