<?xml version="1.0" encoding="UTF-8"?>
<svg width="48px" height="48px" viewBox="0 0 48 48" version="1.1" xmlns="http://www.w3.org/2000/svg"
>
    <!-- Generator: Sketch 54.1 (76490) - https://sketchapp.com -->
    <title>_icon/chat/l/active</title>
    <desc>Created with Sketch.</desc>
    <defs>
        <linearGradient x1="0%" y1="13.1973943%" x2="100%" y2="86.8026057%" id="linearGradient-1">
            <stop stop-color="#972C86" offset="0%"></stop>
            <stop stop-color="#794997" offset="40%"></stop>
            <stop stop-color="#007180" offset="100%"></stop>
        </linearGradient>
    </defs>
    <g id="_icon/chat/l/active" stroke="none" stroke-width="1" fill="none" fill-rule="evenodd">
        <path d="M10,21 C11.1045695,21 12,20.1045695 12,19 C12,17.8954305 11.1045695,17 10,17 C8.8954305,17 8,17.8954305 8,19 C8,20.1045695 8.8954305,21 10,21 Z M18,21 C19.1045695,21 20,20.1045695 20,19 C20,17.8954305 19.1045695,17 18,17 C16.8954305,17 16,17.8954305 16,19 C16,20.1045695 16.8954305,21 18,21 Z M26,21 C24.8954305,21 24,20.1045695 24,19 C24,17.8954305 24.8954305,17 26,17 C27.1045695,17 28,17.8954305 28,19 C28,20.1045695 27.1045695,21 26,21 Z M16.6634817,31.1404905 L18.9234793,35.406433 L21.1459296,31.2143973 C21.6710038,30.0761115 22.8097064,29.3477 24.063,29.3477 L31.918,29.3477 C32.9825729,29.3477 33.845,28.4852729 33.845,27.4207 L33.845,19.4227 C33.845,18.5942729 34.5165729,17.9227 35.345,17.9227 C36.1734271,17.9227 36.845,18.5942729 36.845,19.4227 L36.845,27.4207 C36.845,30.1421271 34.6394271,32.3477 31.918,32.3477 L24.063,32.3477 C23.9798417,32.3477 23.904807,32.3956986 23.8334817,32.5449095 L20.2484817,39.3119095 C19.6849471,40.3756302 18.1610529,40.3756302 17.5975183,39.3119095 L13.9759296,32.4710027 C13.9413877,32.3961206 13.8656232,32.3477 13.782,32.3477 L4.928,32.3477 C2.20579515,32.3477 0,30.1423494 0,27.4207 L0,9.4267 C0,6.70432833 2.20551729,4.4997 4.928,4.4997 L31.918,4.4997 C34.6397049,4.4997 36.845,6.70455057 36.845,9.4267 L36.845,11.5687 C36.845,11.6862729 36.9404271,11.7817 37.058,11.7817 L41.073,11.7817 C43.7953717,11.7817 46,13.9872173 46,16.7097 L46,33.2747 C46,35.9964049 43.7951494,38.2017 41.073,38.2017 L37.9206051,38.2017 C37.9036397,38.2365351 37.8837934,38.2780812 37.8612162,38.3268512 L37.7765489,38.4843692 L34.8345489,43.2523692 C34.2440736,44.2093327 32.8495474,44.2003656 32.2714273,43.2358879 L29.4134281,38.4678879 L29.3379304,38.3250027 C29.3145836,38.2743902 29.294355,38.2335661 29.2778819,38.2017 L26.847,38.2017 C26.0185729,38.2017 25.347,37.5301271 25.347,36.7017 C25.347,35.8732729 26.0185729,35.2017 26.847,35.2017 L29.417,35.2017 C30.67832,35.2017 31.4851628,35.8672587 32.024842,36.9893556 L33.5765615,39.5780891 L35.1790253,36.9810301 C35.7333351,35.8224591 36.4142344,35.2017 37.699,35.2017 L41.073,35.2017 C42.1381598,35.2017 43,34.339686 43,33.2747 L43,16.7097 C43,15.6438009 42.1382466,14.7817 41.073,14.7817 L37.058,14.7817 C35.2835729,14.7817 33.845,13.3431271 33.845,11.5687 L33.845,9.4267 C33.845,8.36154022 32.982986,7.4997 31.918,7.4997 L4.928,7.4997 C3.86210086,7.4997 3,8.36145338 3,9.4267 L3,27.4207 C3,28.4853598 3.86251406,29.3477 4.928,29.3477 L13.782,29.3477 C15.0352676,29.3477 16.1749848,30.0760867 16.6634817,31.1404905 Z"
              id="Combined-Shape" fill="url(#linearGradient-1)" fill-rule="nonzero"></path>
    </g>
</svg>