<?xml version="1.0" encoding="UTF-8"?>
<svg width="24px" height="24px" viewBox="0 0 24 24" version="1.1" xmlns="http://www.w3.org/2000/svg"
>
    <!-- Generator: Sketch 54.1 (76490) - https://sketchapp.com -->
    <title>_icon/share/r/white</title>
    <desc>Created with Sketch.</desc>
    <g id="_icon/share/r/white" stroke="none" stroke-width="1" fill="none" fill-rule="evenodd" strokeLinecap="round"
       stroke-linejoin="round">
        <path d="M18.3033009,9.19669914 C16.6488009,9.19669914 15.3033009,7.85119914 15.3033009,6.19669914 C15.3033009,4.54369914 16.6488009,3.19669914 18.3033009,3.19669914 C19.9578009,3.19669914 21.3033009,4.54369914 21.3033009,6.19669914 C21.3033009,7.85119914 19.9578009,9.19669914 18.3033009,9.19669914 Z"
              id="Shape" stroke="#FFFFFF" stroke-width="2" fill-rule="nonzero"
              transform="translate(18.303301, 6.196699) rotate(45.000000) translate(-18.303301, -6.196699) "></path>
        <path d="M4.86827202,12.732233 C3.21377202,12.732233 1.86827202,11.386733 1.86827202,9.73223305 C1.86827202,8.07923305 3.21377202,6.73223305 4.86827202,6.73223305 C6.52277202,6.73223305 7.86827202,8.07923305 7.86827202,9.73223305 C7.86827202,11.386733 6.52277202,12.732233 4.86827202,12.732233 Z"
              id="Shape" stroke="#FFFFFF" stroke-width="2" fill-rule="nonzero"
              transform="translate(4.868272, 9.732233) rotate(45.000000) translate(-4.868272, -9.732233) "></path>
        <path d="M14.767767,22.631728 C13.113267,22.631728 11.767767,21.286228 11.767767,19.631728 C11.767767,17.978728 13.113267,16.631728 14.767767,16.631728 C16.422267,16.631728 17.767767,17.978728 17.767767,19.631728 C17.767767,21.286228 16.422267,22.631728 14.767767,22.631728 Z"
              id="Shape" stroke="#FFFFFF" stroke-width="2" fill-rule="nonzero"
              transform="translate(14.767767, 19.631728) rotate(45.000000) translate(-14.767767, -19.631728) "></path>
        <path d="M18.9275781,15.3966275 C18.9019844,15.1366458 18.8888825,14.8730453 18.8888825,14.6064359 C18.8888825,12.5191948 19.6933612,10.614912 21.0088705,9.18830953"
              id="Shape" stroke="#FFFFFF" stroke-width="2" fill-rule="nonzero"
              transform="translate(19.948876, 12.292469) rotate(165.000000) translate(-19.948876, -12.292469) "></path>
        <path d="M7.59382165,21.0623446 C7.56822787,20.8023629 7.55512602,20.5387624 7.55512602,20.272153 C7.55512602,18.1849118 8.35960468,16.280629 9.67511398,14.8540266"
              id="Shape" stroke="#FFFFFF" stroke-width="2" fill-rule="nonzero"
              transform="translate(8.615120, 17.958186) rotate(285.000000) translate(-8.615120, -17.958186) "></path>
        <path d="M8.35404498,8.41416503 C8.32845119,8.15418333 8.31534935,7.89058283 8.31534935,7.62397343 C8.31534935,5.53673226 9.11982801,3.63244945 10.4353373,2.20584703"
              id="Shape" stroke="#FFFFFF" stroke-width="2" fill-rule="nonzero"
              transform="translate(9.375343, 5.310006) rotate(45.000000) translate(-9.375343, -5.310006) "></path>
    </g>
</svg>