<?xml version="1.0" encoding="UTF-8"?>
<svg width="32px" height="32px" viewBox="0 0 32 32" version="1.1" xmlns="http://www.w3.org/2000/svg"
>
    <!-- Generator: Sketch 54.1 (76490) - https://sketchapp.com -->
    <title>_icon/people/m/white</title>
    <desc>Created with Sketch.</desc>
    <g id="_icon/people/m/white" stroke="none" stroke-width="1" fill="none" fill-rule="evenodd" strokeLinecap="round"
       stroke-linejoin="round">
        <path d="M21.0264018,20.5554497 C19.1924054,16.6821699 15.2964837,15.5787531 15.2964837,15.5787531 C15.2964837,15.5787531 19.3312759,13.670793 19.3312759,8.98995099 C19.3312759,4.77704224 15.9032874,1.5 11.6888692,1.5 C7.47596049,1.5 4.04797204,4.77704224 4.04797204,8.98995099 C4.04797204,13.7055106 8.0812548,15.562149 8.0812548,15.562149 C8.0812548,15.562149 1.61320966,19.5818093 1.5,26.2732548 L1.5,27.9713997 C1.5,28.4408424 1.88038445,28.8197174 2.34982717,28.8197174 L29.6333548,28.8197174 C30.101288,28.8197174 30.4907293,28.4408424 30.4816725,27.9713997 C30.362425,20.9040981 24.0906099,16.8527391 24.0906099,16.8527391 C24.0906099,16.8527391 28.1238927,14.9870439 28.1238927,10.263937 C28.1238927,6.86915672 25.9427199,4.23212642 22.6943575,3.25097605"
              id="Page-1" stroke="#FFFFFF" stroke-width="3"></path>
    </g>
</svg>