<?xml version="1.0" encoding="UTF-8"?>
<svg width="48px" height="48px" viewBox="0 0 48 48" version="1.1" xmlns="http://www.w3.org/2000/svg"
>
    <!-- Generator: Sketch 54.1 (76490) - https://sketchapp.com -->
    <title>_icon/praise/neutral/l/active</title>
    <desc>Created with Sketch.</desc>
    <defs>
        <linearGradient x1="0%" y1="16.5311378%" x2="100%" y2="83.4688622%" id="linearGradient-1">
            <stop stop-color="#972C86" offset="0%"></stop>
            <stop stop-color="#794997" offset="40%"></stop>
            <stop stop-color="#007180" offset="100%"></stop>
        </linearGradient>
    </defs>
    <g id="_icon/praise/neutral/l/active" stroke="none" stroke-width="1" fill="none" fill-rule="evenodd">
        <path d="M8.32207344,36.3511789 C9.30630333,36.8498363 10.8806788,37.3586353 12.8285444,37.4774028 C16.1074846,37.6773302 19.2364837,36.5994615 21.8436936,33.8496754 C24.2211284,31.3422298 24.931267,28.9834277 25.4058638,24.2846079 C25.4199604,24.1447506 25.4199604,24.1447506 25.4339342,24.0055405 C25.8660552,19.7008538 26.360312,17.9769274 28.1212592,16.1059455 C30.9524931,13.0977989 34.1998521,12.6901332 38.2878788,14.8952594 C39.0169958,15.2885531 39.9268895,15.0163144 40.3201831,14.2871974 C40.7134768,13.5580804 40.4412382,12.6481868 39.7121212,12.2548932 C34.4643482,9.42418724 29.7310178,10.0183982 25.9366727,14.0498371 C23.5819413,16.5517065 22.9435977,18.7781954 22.4489363,23.7058949 C22.4349905,23.844825 22.4349905,23.844825 22.4210502,23.9831316 C22.0084344,28.0682992 21.4581566,29.8961064 19.6666854,31.7855448 C17.7057882,33.8536743 15.4477111,34.6315303 13.0111248,34.4829639 C12.1451755,34.4301643 11.3179963,34.260778 10.563861,34.0170602 C10.1223188,33.8743648 9.81580891,33.7449084 9.67792656,33.6750506 C8.93893416,33.3006421 8.03634439,33.5961958 7.66193588,34.3351882 C7.28752738,35.0741806 7.58308103,35.9767704 8.32207344,36.3511789 Z"
              id="Stroke-3" fill="url(#linearGradient-1)" fill-rule="nonzero"
              transform="translate(23.999984, 24.000874) rotate(46.000000) translate(-23.999984, -24.000874) "></path>
    </g>
</svg>