<?xml version="1.0" encoding="UTF-8"?>
<svg width="48px" height="48px" viewBox="0 0 48 48" version="1.1" xmlns="http://www.w3.org/2000/svg"
>
    <!-- Generator: Sketch 59 (86127) - https://sketch.com -->
    <title>_icon/priority/low/l/active</title>
    <desc>Created with Sketch.</desc>
    <defs>
        <linearGradient x1="0%" y1="14.2621595%" x2="100%" y2="85.7378405%" id="linearGradient-1">
            <stop stop-color="#972C86" offset="0%"></stop>
            <stop stop-color="#794997" offset="40%"></stop>
            <stop stop-color="#007180" offset="100%"></stop>
        </linearGradient>
    </defs>
    <g id="_icon/priority/low/l/active" stroke="none" stroke-width="1" fill="none" fill-rule="evenodd">
        <path d="M22.7137606,6.22825637 C23.2963657,5.25724788 24.7036343,5.25724788 25.2862394,6.22825637 L25.2862394,6.22825637 L36.6392955,25.1500165 C37.0655177,25.8603869 36.8351701,26.7817773 36.1247997,27.2079995 C35.4144293,27.6342217 34.4930389,27.4038741 34.0668167,26.6935037 L34.0668167,26.6935037 L24,9.91547595 L7.64928557,37.1666667 L40.3507144,37.1666667 L37.7014387,32.7512071 C37.2752165,32.0408367 37.505564,31.1194463 38.2159344,30.6932241 C38.9263048,30.2670018 39.8476952,30.4973494 40.2739175,31.2077198 L40.2739175,31.2077198 L44.2862394,37.894923 C44.8861115,38.8947098 44.1659417,40.1666667 43,40.1666667 L43,40.1666667 L5,40.1666667 C3.83405829,40.1666667 3.11388855,38.8947098 3.71376061,37.894923 L3.71376061,37.894923 Z M19.8838835,26.1161165 L24,30.232233 L28.1161165,26.1161165 C28.6042719,25.6279612 29.3957281,25.6279612 29.8838835,26.1161165 C30.3720388,26.6042719 30.3720388,27.3957281 29.8838835,27.8838835 L24.8838835,32.8838835 C24.3957281,33.3720388 23.6042719,33.3720388 23.1161165,32.8838835 L18.1161165,27.8838835 C17.6279612,27.3957281 17.6279612,26.6042719 18.1161165,26.1161165 C18.6042719,25.6279612 19.3957281,25.6279612 19.8838835,26.1161165 Z"
              id="Combined-Shape" fill="url(#linearGradient-1)"></path>
    </g>
</svg>