<?xml version="1.0" encoding="UTF-8"?>
<svg width="24px" height="24px" viewBox="0 0 24 24" version="1.1" xmlns="http://www.w3.org/2000/svg"
>
    <!-- Generator: Sketch 54.1 (76490) - https://sketchapp.com -->
    <title>_icon/topic/r/secundary</title>
    <desc>Created with Sketch.</desc>
    <g id="_icon/topic/r/secundary" stroke="none" stroke-width="1" fill="none" fill-rule="evenodd">
        <path d="M19.1633445,13.4063106 L19.2518582,13.3870339 C22.1566837,12.942785 23.1641126,17.1344371 20.267077,17.9987676 L6.75148388,21.8878424 C4.93232675,22.3252952 3.44229429,21.4433443 3.07830672,19.9340328 C2.72013555,18.4488395 3.61105606,16.983228 5.33296958,16.5806287 C5.71508411,16.4912868 6.09864847,16.7228611 6.18968457,17.0978644 C6.28072067,17.4728677 6.04475499,17.8492939 5.66264047,17.9386358 C4.71318751,18.1606267 4.28305735,18.8682136 4.46255415,19.6125154 C4.64365515,20.3634691 5.35719594,20.7858142 6.38206521,20.5400903 L19.8600443,16.6611411 C21.0369229,16.3100049 20.646814,14.6269919 19.5105239,14.7610297 L16.881805,15.5088833 C16.2190136,15.6974432 15.6984455,14.9423339 16.1233428,14.4086971 C16.7570855,13.6127672 17.1652134,12.5838561 17.1641043,11.6321021 C17.1619326,10.3959265 16.8248979,9.65111326 15.8500398,8.32288747 C15.8116237,8.27054627 15.6783973,8.08965104 15.6587421,8.06291214 C14.3753453,6.31698143 13.7980591,4.99429556 13.8742304,3.05013998 C13.7038867,3.18348917 13.5364381,3.32833281 13.374374,3.48478834 C12.7821608,4.05650652 12.3217438,4.72595005 12.0393408,5.49926918 C11.7684582,6.24066491 11.7512834,6.82081717 11.8789362,7.82457373 C12.0777757,9.38808335 11.9742669,9.97964093 10.9332753,10.5588313 C9.80174924,11.187854 8.59200288,10.8898253 7.92981984,9.80132691 C7.58494598,9.23442226 7.40760103,8.49261389 7.40419617,7.61721639 C6.52214779,8.92083381 6.08548787,10.4423817 6.30692836,12.1809373 C6.74714703,15.6384784 10.0131775,17.5427975 13.7296915,15.9914328 C14.0911616,15.8405462 14.5088284,16.0058046 14.6625762,16.3605478 C14.816324,16.7152909 14.6479318,17.1251848 14.2864617,17.2760714 C9.6913141,19.1941994 5.45157051,16.722139 4.8954208,12.3540588 C4.61384071,10.1433401 5.2201741,8.20911637 6.39749599,6.59091801 C6.98446765,5.78414071 7.57586831,5.22809973 7.99106711,4.92787844 C8.5289164,4.53897123 9.26695263,5.02651064 9.1022472,5.66191299 C8.34726182,8.57450358 9.17350071,9.93267747 10.2319479,9.34427986 C10.5771959,9.15218961 10.5986549,9.02955043 10.4673996,7.99746669 C10.3144898,6.79511046 10.3373942,6.02141923 10.7002914,5.02818288 C11.0593425,4.04497405 11.6395916,3.20129532 12.3768221,2.48957849 C13.1448178,1.74816125 13.9138843,1.28478177 14.4530964,1.05772671 C14.9683856,0.840745302 15.5249505,1.26697626 15.4357274,1.81024942 C15.0415045,4.21064472 15.4334021,5.3702199 16.8123742,7.24617108 C16.8313856,7.27203413 16.9650331,7.45350115 17.0042756,7.5069683 C18.1372878,9.05067608 18.5837928,10.0374079 18.5865908,11.6301003 C18.5873984,12.3230963 18.4352971,13.0270567 18.1667305,13.6898408 L19.1633445,13.4063106 Z M20.4715271,19.3665358 C20.3560988,19.0659221 20.5108424,18.7303948 20.8171567,18.6171146 C21.123471,18.5038344 21.4653609,18.6556982 21.5807893,18.9563119 C22.2420224,20.6783826 20.4709428,22.4347714 18.3826385,21.7422965 L18.3228575,21.7188515 L16.6523824,20.9580232 C16.3554594,20.8227877 16.2264646,20.4769335 16.3642645,20.1855363 C16.5020645,19.894139 16.8544771,19.7675448 17.1514002,19.9027803 L18.7907183,20.649418 C19.9251054,21.0067637 20.7744361,20.1554113 20.4715271,19.3665358 Z"
              id="Combined-Shape" fill="#972C86"></path>
    </g>
</svg>