<svg xmlns="http://www.w3.org/2000/svg" width="48" height="48">
    <defs>
        <linearGradient x1="0.00574071068%" y1="0%" x2="99.9942593%" y2="100%" id="A">
            <stop stop-color="#972c86" offset="0%"/>
            <stop stop-color="#794997" offset="40%"/>
            <stop stop-color="#007180" offset="100%"/>
        </linearGradient>
    </defs>
    <path d="M38.887 8.49c8.565 8.222 8.844 21.83.622 30.396a1.5 1.5 0 0 1-1.979.164l-.116-.096-2.406-2.204a1.5 1.5 0 0 1 1.908-2.31l.118.098 1.284 1.176c2.557-3.118 3.937-6.867 4.15-10.664H41a1.05 1.05 0 0 1-.114-2.094L41 22.95h1.468a18.43 18.43 0 0 0-4.666-11.266l-1.04 1.038a1.05 1.05 0 0 1-1.572-1.386l.087-.1 1.038-1.04A18.42 18.42 0 0 0 25.05 5.532V7a1.05 1.05 0 0 1-2.094.114L22.95 7V5.532a18.43 18.43 0 0 0-11.268 4.666l1.04 1.038a1.05 1.05 0 0 1-1.485 1.485l-1.04-1.038A18.42 18.42 0 0 0 5.532 22.95H7a1.05 1.05 0 0 1 .114 2.094L7 25.05H5.532c.23 4.06 1.8 8.05 4.666 11.267l1.04-1.04a1.05 1.05 0 0 1 1.572 1.386l-.087.1-1.038 1.04a18.47 18.47 0 0 0 11.266 4.669V41a1.05 1.05 0 0 1 2.094-.114l.006.114v1.47a18.51 18.51 0 0 0 5.885-1.317 1.5 1.5 0 0 1 1.123 2.782 21.5 21.5 0 0 1-22.946-4.427C.547 31.287.27 17.678 8.49 9.113S30.322.27 38.887 8.49zm-2.674 9.627a1.5 1.5 0 0 1-.218 2.005l-.113.09-11 8a1.5 1.5 0 0 1-1.63.087l-.124-.08-7-5a1.5 1.5 0 0 1 1.622-2.52l.122.078 6.12 4.372 10.126-7.364a1.5 1.5 0 0 1 2.095.331z"
          fill="url(#A)" fill-rule="nonzero"/>
</svg>