<?xml version="1.0" encoding="UTF-8"?>
<svg width="48px" height="48px" viewBox="0 0 48 48" version="1.1" xmlns="http://www.w3.org/2000/svg"
>
    <!-- Generator: Sketch 54.1 (76490) - https://sketchapp.com -->
    <title>_icon/add/l/inactive</title>
    <desc>Created with Sketch.</desc>
    <g id="_icon/add/l/inactive" stroke="none" stroke-width="1" fill="none" fill-rule="evenodd">
        <path d="M25.5022629,22.5022629 L32.8022629,22.5022629 C33.63069,22.5022629 34.3022629,23.1738357 34.3022629,24.0022629 C34.3022629,24.83069 33.63069,25.5022629 32.8022629,25.5022629 L25.5022629,25.5022629 L25.5022629,32.8022629 C25.5022629,33.63069 24.83069,34.3022629 24.0022629,34.3022629 C23.1738357,34.3022629 22.5022629,33.63069 22.5022629,32.8022629 L22.5022629,25.5022629 L15.2022629,25.5022629 C14.3738357,25.5022629 13.7022629,24.83069 13.7022629,24.0022629 C13.7022629,23.1738357 14.3738357,22.5022629 15.2022629,22.5022629 L22.5022629,22.5022629 L22.5022629,15.2022629 C22.5022629,14.3738357 23.1738357,13.7022629 24.0022629,13.7022629 C24.83069,13.7022629 25.5022629,14.3738357 25.5022629,15.2022629 L25.5022629,22.5022629 Z M35.8650273,39.9511529 C36.5297391,39.4567343 37.4694,39.5947841 37.9638186,40.2594959 C38.4582372,40.9242077 38.3201873,41.8638685 37.6554755,42.3582871 C29.9491684,48.0903078 19.3784963,48.4358905 11.2701316,43.0017154 C0.776196093,35.9694332 -2.03021634,21.7622043 5.00212993,11.2695185 C12.0355848,0.77584073 26.2414363,-2.02954972 36.7340324,5.00273646 C47.2279807,12.0336819 50.0345671,26.2422073 43.0021687,36.7349708 C42.5409513,37.4231351 41.6091934,37.6071118 40.9210292,37.1458944 C40.2328649,36.684677 40.0488882,35.7529191 40.5101056,35.0647549 C46.6199725,25.948464 44.1815248,13.6036642 35.0640006,7.494923 C25.947569,1.38496174 13.6051758,3.82235396 7.49416872,12.9397708 C1.38435775,22.0559782 3.82264922,34.3996254 12.9402561,40.5095909 C19.9852609,45.2311089 29.1701949,44.9308296 35.8650273,39.9511529 Z"
              id="Combined-Shape" fill="#767676" fill-rule="nonzero"></path>
    </g>
</svg>