<?xml version="1.0" encoding="UTF-8"?>
<svg width="48px" height="48px" viewBox="0 0 48 48" version="1.1" xmlns="http://www.w3.org/2000/svg"
>
    <!-- Generator: Sketch 54.1 (76490) - https://sketchapp.com -->
    <title>_icon/tip/l/active</title>
    <desc>Created with Sketch.</desc>
    <defs>
        <linearGradient x1="0%" y1="1.60967231%" x2="100%" y2="98.3903277%" id="linearGradient-1">
            <stop stop-color="#972C86" offset="0%"></stop>
            <stop stop-color="#794997" offset="40%"></stop>
            <stop stop-color="#007180" offset="100%"></stop>
        </linearGradient>
    </defs>
    <g id="_icon/tip/l/active" stroke="none" stroke-width="1" fill="none" fill-rule="evenodd">
        <path d="M7.9996,39.5249 L13.4046,39.5249 C14.2330271,39.5249 14.9046,40.1964729 14.9046,41.0249 C14.9046,41.8533271 14.2330271,42.5249 13.4046,42.5249 L7.8816,42.5249 C6.29131781,42.5249 4.9996,41.2344726 4.9996,39.6439 L4.9996,18.0009 C4.9996,17.1724729 5.67117288,16.5009 6.4996,16.5009 L20.3096,16.5009 C21.1380271,16.5009 21.8096,17.1724729 21.8096,18.0009 L21.8096,20.2629 L22.2736,20.2629 C22.8297616,20.2629 23.2877913,19.5808437 23.5462862,18.0591837 C23.705173,17.1238779 23.7380616,16.1045356 23.6968316,15.2102215 C23.6914189,15.0928152 23.6862939,15.0135563 23.6834914,14.9789378 L23.6786,14.8579 L23.6786,6.5009 C23.6786,5.67247288 24.3501729,5.0009 25.1786,5.0009 C31.1192967,5.0009 33.4406,7.54867195 33.4406,11.4059 L33.4406,16.5849 C33.4406,17.2785438 34.0080981,17.8459 34.7026,17.8459 L39.2266,17.8459 C41.5516043,17.8459 43.1426,19.001271 43.1426,21.7629 C43.1426,26.8710046 42.4636522,34.312029 41.3966754,35.9119503 C39.7823341,38.3334623 36.9699517,39.7629 32.7026,39.7629 L20.3096,39.7629 C19.4811729,39.7629 18.8096,39.0913271 18.8096,38.2629 L18.8096,27.2059 C18.8096,26.3774729 19.4811729,25.7059 20.3096,25.7059 C21.1380271,25.7059 21.8096,26.3774729 21.8096,27.2059 L21.8096,36.7629 L32.7026,36.7629 C35.98972,36.7629 37.8563053,35.8141786 38.9006551,34.2476539 C39.4724341,33.3902768 40.1426,26.0454994 40.1426,21.7629 C40.1426,20.903045 40.0639089,20.8459 39.2266,20.8459 L34.7026,20.8459 C32.3514117,20.8459 30.4406,18.9355659 30.4406,16.5849 L30.4406,11.4059 C30.4406,9.44260056 29.6525919,8.32035804 26.6786,8.05987871 L26.6786,14.8028233 C26.6832243,14.8701345 26.6885124,14.9606539 26.6936485,15.0720612 C26.7439122,16.1623244 26.7046202,17.3801353 26.5039138,18.5616163 C26.0292837,21.3555813 24.7484384,23.2629 22.2736,23.2629 L20.3096,23.2629 C19.4811729,23.2629 18.8096,22.5913271 18.8096,21.7629 L18.8096,19.5009 L7.9996,19.5009 L7.9996,39.5249 Z M12.0237,34.5005 C12.0237,33.3965 12.9197,32.5005 14.0237,32.5005 C15.1277,32.5005 16.0237,33.3965 16.0237,34.5005 C16.0237,35.6045 15.1277,36.5005 14.0237,36.5005 C12.9197,36.5005 12.0237,35.6045 12.0237,34.5005 Z"
              id="Combined-Shape" fill="url(#linearGradient-1)" fill-rule="nonzero"></path>
    </g>
</svg>