<?xml version="1.0" encoding="UTF-8"?>
<svg width="48px" height="48px" viewBox="0 0 48 48" version="1.1" xmlns="http://www.w3.org/2000/svg"
>
    <!-- Generator: Sketch 54.1 (76490) - https://sketchapp.com -->
    <title>_icon/tip/l/inactive</title>
    <desc>Created with Sketch.</desc>
    <g id="_icon/tip/l/inactive" stroke="none" stroke-width="1" fill="none" fill-rule="evenodd">
        <path d="M12.905,41.524 L7.382,41.524 C6.62,41.524 6,40.905 6,40.143 L6,18.5 L19.81,18.5 L19.81,22.262 L21.774,22.262 C25.238,22.262 24.679,15.357 24.679,15.357 L24.679,7 C30.905,7 31.441,10.105 31.441,11.905 L31.441,17.084 C31.441,18.606 32.68,19.845 34.203,19.845 L38.727,19.845 C39.852,19.845 41.143,20.12 41.143,22.262 C41.143,25.429 40.63,34.108 39.649,35.579 C38.623,37.118 36.572,38.762 32.203,38.762 L19.81,38.762 L19.81,27.705"
              id="Stroke-1" stroke="#757575" stroke-width="3" strokeLinecap="round"></path>
        <path d="M12.0237,34.5005 C12.0237,35.6045 12.9197,36.5005 14.0237,36.5005 C15.1277,36.5005 16.0237,35.6045 16.0237,34.5005 C16.0237,33.3965 15.1277,32.5005 14.0237,32.5005 C12.9197,32.5005 12.0237,33.3965 12.0237,34.5005"
              id="Fill-3" fill="#767676"></path>
    </g>
</svg>