<?xml version="1.0" encoding="UTF-8"?>
<svg width="48px" height="48px" viewBox="0 0 48 48" version="1.1" xmlns="http://www.w3.org/2000/svg"
>
    <!-- Generator: Sketch 54.1 (76490) - https://sketchapp.com -->
    <title>_icon/tip/l/white</title>
    <desc>Created with Sketch.</desc>
    <g id="_icon/tip/l/white" stroke="none" stroke-width="1" fill="none" fill-rule="evenodd">
        <path d="M13.4046,41.0249 L7.8816,41.0249 C7.1196,41.0249 6.4996,40.4059 6.4996,39.6439 L6.4996,18.0009 L20.3096,18.0009 L20.3096,21.7629 L22.2736,21.7629 C25.7376,21.7629 25.1786,14.8579 25.1786,14.8579 L25.1786,6.5009 C31.4046,6.5009 31.9406,9.6059 31.9406,11.4059 L31.9406,16.5849 C31.9406,18.1069 33.1796,19.3459 34.7026,19.3459 L39.2266,19.3459 C40.3516,19.3459 41.6426,19.6209 41.6426,21.7629 C41.6426,24.9299 41.1296,33.6089 40.1486,35.0799 C39.1226,36.6189 37.0716,38.2629 32.7026,38.2629 L20.3096,38.2629 L20.3096,27.2059"
              id="Stroke-1" stroke="#FFFFFF" stroke-width="3" strokeLinecap="round" stroke-linejoin="round"></path>
        <path d="M12.0237,34.5005 C12.0237,35.6045 12.9197,36.5005 14.0237,36.5005 C15.1277,36.5005 16.0237,35.6045 16.0237,34.5005 C16.0237,33.3965 15.1277,32.5005 14.0237,32.5005 C12.9197,32.5005 12.0237,33.3965 12.0237,34.5005"
              id="Fill-3" fill="#FFFFFF"></path>
    </g>
</svg>