<svg xmlns="http://www.w3.org/2000/svg" width="48" height="48" viewBox="0 0 48 48">
    <defs>
        <linearGradient id="a" x1="26.35%" x2="73.65%" y1="0%" y2="100%">
            <stop stop-color="#972C86" offset="0%"/>
            <stop stop-color="#794997" offset="40%"/>
            <stop stop-color="#007180" offset="100%"/>
        </linearGradient>
    </defs>
    <path fill="url(#a)"
          d="M24,33.5 C24.7796961,33.5 25.4204487,34.0948881 25.4931334,34.85554 L25.5,35 L25.5,38.6173772 L30.4264185,38.617591 C31.7166945,38.617591 32.3850775,40.1237965 31.5791125,41.078199 L31.4870787,41.1782511 L25.1231176,47.5422122 C24.5739429,48.0913869 23.7048804,48.1257104 23.1157197,47.6451824 L23.0017973,47.5422122 L16.6378363,41.1782511 C15.7254734,40.2658882 16.3179034,38.7282219 17.5626711,38.6232608 L17.6984964,38.617591 L22.5,38.6173772 L22.5,35 C22.5,34.2690349 23.0228509,33.6601881 23.7149651,33.5270472 L23.85554,33.5068666 L24,33.5 Z M26.8050982,41.617591 L21.3198168,41.617591 L24.0624575,44.3602316 L26.8050982,41.617591 Z M39,28 C39.8284271,28 40.5,28.6715729 40.5,29.5 C40.5,30.2796961 39.9051119,30.9204487 39.14446,30.9931334 L39,31 L9,31 C8.17157288,31 7.5,30.3284271 7.5,29.5 C7.5,28.7203039 8.09488808,28.0795513 8.85553999,28.0068666 L9,28 L39,28 Z M9,22.5 L39,22.5 C39.8284271,22.5 40.5,23.1715729 40.5,24 C40.5,24.7796961 39.9051119,25.4204487 39.14446,25.4931334 L39,25.5 L9,25.5 C8.17157288,25.5 7.5,24.8284271 7.5,24 C7.5,23.2203039 8.09488808,22.5795513 8.85553999,22.5068666 L9,22.5 L39,22.5 Z M39,17 C39.8284271,17 40.5,17.6715729 40.5,18.5 C40.5,19.2796961 39.9051119,19.9204487 39.14446,19.9931334 L39,20 L9,20 C8.17157288,20 7.5,19.3284271 7.5,18.5 C7.5,17.7203039 8.09488808,17.0795513 8.85553999,17.0068666 L9,17 L39,17 Z M25.1231176,0.438717031 L31.4870787,6.80267806 C32.432026,7.74762535 31.7627758,9.36333823 30.4264185,9.36333823 L25.5,9.3623772 L25.5,13 C25.5,13.8284271 24.8284271,14.5 24,14.5 C23.2203039,14.5 22.5795513,13.9051119 22.5068666,13.14446 L22.5,13 L22.5,9.3623772 L17.6984964,9.36333823 C16.3621392,9.36333823 15.692889,7.74762535 16.6378363,6.80267806 L23.0017973,0.438717031 C23.5875837,-0.147069407 24.5373312,-0.147069407 25.1231176,0.438717031 Z M24.0624575,3.62069755 L21.3198168,6.36333823 L26.8050982,6.36333823 L24.0624575,3.62069755 Z"/>
</svg>
