<?xml version="1.0" encoding="UTF-8"?>
<svg width="12px" height="12px" viewBox="0 0 12 12" version="1.1" xmlns="http://www.w3.org/2000/svg"
>
    <!-- Generator: Sketch 54.1 (76490) - https://sketchapp.com -->
    <title>_icon/people/xs/inactive</title>
    <desc>Created with Sketch.</desc>
    <g id="_icon/people/xs/inactive" stroke="none" stroke-width="1" fill="none" fill-rule="evenodd">
        <path d="M9.86279245,12 C9.8903256,11.8817515 9.90490074,11.7583608 9.90490074,11.6314534 L9.90490074,10.8937045 C9.87737486,9.22871042 9.18013116,7.92837175 8.06600061,6.98640325 C8.02961183,6.95563748 7.99323391,6.9255777 7.95689455,6.89621333 C8.49725286,6.17267611 8.81646574,5.28724668 8.81646574,4.25396447 C8.81646574,3.51936739 8.64419082,2.83011379 8.33831429,2.22294806 C8.35882134,2.22246497 8.37938407,2.22222222 8.4,2.22222222 L8.40077872,2.2222224 C9.88895563,2.2226635 11.0997333,3.48800936 11.0997333,5.11463508 C11.0997333,6.93565439 9.67466667,7.65263702 9.67466667,7.65263702 C9.67466667,7.65263702 11.96,8.43257422 12,11.0166263 L12,11.6724031 C12,11.8536889 11.8656,12 11.6997333,12 L9.86279245,12 Z"
              id="Combined-Shape" fill="#999999"></path>
        <path d="M4.35339186,1.0000002 L4.35245037,1 C2.55279274,1 1.088435,2.42369143 1.088435,4.25396447 C1.088435,6.30261118 2.81136053,7.10921664 2.81136053,7.10921664 C2.81136053,7.10921664 0.0483605596,7.986646 0,10.8937045 L0,11.6314534 C0,11.8354 0.16249148,12 0.363026601,12 L1.08683537,12 L8.34187413,12 C8.54240926,12 8.70490074,11.8354 8.70490074,11.6314534 L8.70490074,10.8937045 C8.65654018,7.986646 5.8935402,7.10921664 5.8935402,7.10921664 C5.8935402,7.10921664 7.61646574,6.30261118 7.61646574,4.25396447 C7.61646574,2.42401053 6.15261856,1.00049644 4.35339163,1.00000013 L4.35339186,1.0000002 Z"
              id="Combined-Shape" fill="#999999"></path>
    </g>
</svg>