<?xml version="1.0" encoding="UTF-8"?>
<svg width="48px" height="48px" viewBox="0 0 48 48" version="1.1" xmlns="http://www.w3.org/2000/svg"
>
    <!-- Generator: Sketch 54.1 (76490) - https://sketchapp.com -->
    <title>_icon/admin/l/active</title>
    <desc>Created with Sketch.</desc>
    <defs>
        <linearGradient x1="0%" y1="16.9921875%" x2="100%" y2="83.0078125%" id="linearGradient-1">
            <stop stop-color="#972C86" offset="0%"></stop>
            <stop stop-color="#794997" offset="40%"></stop>
            <stop stop-color="#007180" offset="100%"></stop>
        </linearGradient>
    </defs>
    <g id="_icon/admin/l/active" stroke="none" stroke-width="1" fill="none" fill-rule="evenodd">
        <path d="M25.5,9 C25.5,8.17142712 24.8285729,7.5 24,7.5 C23.1714271,7.5 22.5,8.17142712 22.5,9 C22.5,9.82857288 23.1714271,10.5 24,10.5 C24.8285729,10.5 25.5,9.82857288 25.5,9 Z M28.5,9 C28.5,11.4854271 26.4854271,13.5 24,13.5 C21.5145729,13.5 19.5,11.4854271 19.5,9 C19.5,6.51457288 21.5145729,4.5 24,4.5 C26.4854271,4.5 28.5,6.51457288 28.5,9 Z M9,17 C9,19.4854271 6.98542712,21.5 4.5,21.5 C2.01457288,21.5 0,19.4854271 0,17 C0,14.5145729 2.01457288,12.5 4.5,12.5 C6.98542712,12.5 9,14.5145729 9,17 Z M48,17 C48,19.4854271 45.9854271,21.5 43.5,21.5 C41.0145729,21.5 39,19.4854271 39,17 C39,14.5145729 41.0145729,12.5 43.5,12.5 C45.9854271,12.5 48,14.5145729 48,17 Z M9.09686027,40.5 L28.1698078,40.5 C28.9982349,40.5 29.6698078,41.1715729 29.6698078,42 C29.6698078,42.8284271 28.9982349,43.5 28.1698078,43.5 L7.75229058,43.5 C6.98711645,43.5 6.34459179,42.9240539 6.26122085,42.1634352 L4.54673126,26.5216203 C4.07266469,23.6417643 7.17085575,21.5044336 9.76442975,22.8767753 L16.0597426,26.2102433 L20.9195676,17.241944 L20.9708663,17.154472 C22.366868,14.9485093 25.6331316,14.9485093 27.0284096,17.1533297 L32.7572481,26.1880082 L38.2365741,22.8767452 C40.8290698,21.50412 43.9272725,23.6418629 43.4532767,26.5215695 L41.7397359,42.1633462 C41.6564066,42.9240039 41.0138647,43.5 40.2486564,43.5 L34.6194393,43.5 C33.7910122,43.5 33.1194393,42.8284271 33.1194393,42 C33.1194393,41.1715729 33.7910122,40.5 34.6194393,40.5 L38.904006,40.5 L40.4760892,26.1494957 L40.4910633,26.0461719 C40.5642895,25.6408411 40.0733888,25.2987721 39.7146705,25.4859468 L33.0528302,29.5146377 C32.3545573,29.9369123 31.4468151,29.7235156 31.0098237,29.0343571 L24.4941007,18.7587194 C24.2819781,18.4235231 23.7551552,18.4140365 23.5252195,18.7302596 L17.9895589,28.9457428 C17.5975483,29.6691574 16.6959547,29.9417534 15.9688046,29.5567159 L8.36094911,25.5282356 C7.92687708,25.2985545 7.43569422,25.6407531 7.50893632,26.0461719 L7.52390068,26.1494067 L9.09686027,40.5 Z M45,17 C45,16.1714271 44.3285729,15.5 43.5,15.5 C42.6714271,15.5 42,16.1714271 42,17 C42,17.8285729 42.6714271,18.5 43.5,18.5 C44.3285729,18.5 45,17.8285729 45,17 Z M6,17 C6,16.1714271 5.32857288,15.5 4.5,15.5 C3.67142712,15.5 3,16.1714271 3,17 C3,17.8285729 3.67142712,18.5 4.5,18.5 C5.32857288,18.5 6,17.8285729 6,17 Z"
              id="Combined-Shape" fill="url(#linearGradient-1)" fill-rule="nonzero"></path>
    </g>
</svg>