<?xml version="1.0" encoding="UTF-8"?>
<svg width="24px" height="24px" viewBox="0 0 24 24" version="1.1" xmlns="http://www.w3.org/2000/svg"
>
    <!-- Generator: Sketch 54.1 (76490) - https://sketchapp.com -->
    <title>_icon/people_group/r/inactive</title>
    <desc>Created with Sketch.</desc>
    <g id="_icon/people_group/r/inactive" stroke="none" stroke-width="1" fill="none" fill-rule="evenodd"
       strokeLinecap="round" stroke-linejoin="round">
        <path d="M18.4172059,20 C15.6345285,20 11.6091911,20 6.04383634,20 C5.74363858,20 5.49999982,19.7603958 5.49999982,19.4651691 L5.49999982,18.3955074 C5.57222131,14.1810402 9.71538545,12.9081428 9.71538545,12.9081428 C9.71538545,12.9081428 7.13150938,11.7392165 7.13150938,8.76855195 C7.13150938,6.11407942 9.32730371,4 12.0260381,4 C14.7252075,4 16.9205667,6.11407942 16.9205667,8.76855195 C16.9205667,11.7169675 14.3371257,12.9184116 14.3371257,12.9184116 C14.3371257,12.9184116 17.5931848,13.8828186 18.4172059,17.2638053 C21.1645259,17.2638053 21.2304526,17.2638053 22.2400005,17.2638053 C22.5000008,17.2638053 22.6736438,17.0991949 22.6700009,16.8963713 C22.6162679,13.8378504 19.8100002,12.9498358 19.8100002,12.9498358 C19.8100002,12.9498358 21.6099995,12.1426567 21.6099995,10.0988416 C21.6099995,8.86123126 20.9361899,7.80705019 19.8499992,7.25190747"
              id="Page-1-Copy" stroke="#767676" stroke-width="2"></path>
        <path d="M2.65670531,17.3060155 L3.77717917,17.3060155 C3.98664652,17.3060155 4.16029192,17.1414051 4.15664901,16.9385815 C4.10291608,13.8800605 1.30000001,12.992046 1.30000001,12.992046 C1.30000001,12.992046 3.10293715,12.1848669 3.10293715,10.1410518 C3.10293715,8.90344144 2.41048716,7.84926037 1.32429653,7.29411765"
              id="Page-1-Copy" stroke="#767676" stroke-width="2"
              transform="translate(2.728353, 12.300067) scale(-1, 1) translate(-2.728353, -12.300067) "></path>
    </g>
</svg>