<?xml version="1.0" encoding="UTF-8"?>
<svg width="24px" height="24px" viewBox="0 0 24 24" version="1.1" xmlns="http://www.w3.org/2000/svg"
>
    <!-- Generator: Sketch 54.1 (76490) - https://sketchapp.com -->
    <title>_icon/people_group/r/white</title>
    <desc>Created with Sketch.</desc>
    <g id="_icon/people_group/r/white" stroke="none" stroke-width="1" fill="none" fill-rule="evenodd"
       strokeLinecap="round" stroke-linejoin="round">
        <g id="Group" transform="translate(0.800000, 4.000000)" stroke="#FFFFFF" stroke-width="2">
            <path d="M17.6172059,16 C14.8345285,16 10.8091911,16 5.24383633,16 C4.94363857,16 4.69999981,15.7603958 4.69999981,15.4651691 L4.69999981,14.3955074 C4.7722213,10.1810402 8.91538544,8.9081428 8.91538544,8.9081428 C8.91538544,8.9081428 6.33150937,7.73921647 6.33150937,4.76855195 C6.33150937,2.11407942 8.5273037,0 11.226038,0 C13.9252075,0 16.1205667,2.11407942 16.1205667,4.76855195 C16.1205667,7.71696751 13.5371257,8.91841155 13.5371257,8.91841155 C13.5371257,8.91841155 16.7931848,9.88281856 17.6172059,13.2638053 C20.3645259,13.2638053 20.4304526,13.2638053 21.4400005,13.2638053 C21.7000008,13.2638053 21.8736437,13.0991949 21.8700008,12.8963713 C21.8162679,9.83785036 19.0100002,8.94983578 19.0100002,8.94983578 C19.0100002,8.94983578 20.8099995,8.14265669 20.8099995,6.09884161 C20.8099995,4.86123126 20.1361899,3.80705019 19.0499992,3.25190747"
                  id="Page-1-Copy"></path>
            <path d="M1.8567053,13.3060155 L2.97717916,13.3060155 C3.18664651,13.3060155 3.36029191,13.1414051 3.356649,12.9385815 C3.30291607,9.88006054 0.5,8.99204596 0.5,8.99204596 C0.5,8.99204596 2.30293713,8.18486687 2.30293713,6.14105179 C2.30293713,4.90344144 1.61048715,3.84926037 0.52429652,3.29411765"
                  id="Page-1-Copy"
                  transform="translate(1.928353, 8.300067) scale(-1, 1) translate(-1.928353, -8.300067) "></path>
        </g>
    </g>
</svg>