<?xml version="1.0" encoding="UTF-8"?>
<svg width="32px" height="32px" viewBox="0 0 32 32" version="1.1" xmlns="http://www.w3.org/2000/svg"
>
    <!-- Generator: Sketch 54.1 (76490) - https://sketchapp.com -->
    <title>_icon/add/m/white</title>
    <desc>Created with Sketch.</desc>
    <g id="_icon/add/m/white" stroke="none" stroke-width="1" fill="none" fill-rule="evenodd">
        <path d="M17.5,14.5 L22,14.5 C22.8284271,14.5 23.5,15.1715729 23.5,16 C23.5,16.8284271 22.8284271,17.5 22,17.5 L17.5,17.5 L17.5,22 C17.5,22.8284271 16.8284271,23.5 16,23.5 C15.1715729,23.5 14.5,22.8284271 14.5,22 L14.5,17.5 L10,17.5 C9.17157288,17.5 8.5,16.8284271 8.5,16 C8.5,15.1715729 9.17157288,14.5 10,14.5 L14.5,14.5 L14.5,10 C14.5,9.17157288 15.1715729,8.5 16,8.5 C16.8284271,8.5 17.5,9.17157288 17.5,10 L17.5,14.5 Z M23.4612968,26.0316478 C24.1260034,25.5372224 25.0656657,25.6752626 25.5600911,26.3399693 C26.0545166,27.0046759 25.9164764,27.9443382 25.2517697,28.4387636 C20.0296722,32.3230904 12.8668527,32.5572665 7.37246672,28.8748843 C0.261548829,24.1095552 -1.64013871,14.4822135 3.12515849,7.37194909 C7.89117125,0.261065544 17.5174329,-1.6399823 24.627423,3.12533608 C31.7383878,7.88978497 33.6401923,17.5180008 28.8748659,24.6283089 C28.4136553,25.3164777 27.4818992,25.5004637 26.7937304,25.0392532 C26.1055616,24.5780426 25.9215756,23.6462865 26.3827861,22.9581177 C30.2256109,17.2242675 28.6919311,9.45974699 22.9573664,5.617506 C17.2235556,1.77454228 9.46078269,3.30757797 5.61721388,9.04217658 C1.77442226,14.7759773 3.30800278,22.5397678 9.04261601,26.3827765 C13.47363,29.3524782 19.2506835,29.1636073 23.4612968,26.0316478 Z"
              id="Combined-Shape" fill="#FFFFFF" fill-rule="nonzero"></path>
    </g>
</svg>