<?xml version="1.0" encoding="UTF-8"?>
<svg width="48px" height="48px" viewBox="0 0 48 48" version="1.1" xmlns="http://www.w3.org/2000/svg"
>
    <!-- Generator: Sketch 54.1 (76490) - https://sketchapp.com -->
    <title>_icon/recent/l/white</title>
    <desc>Created with Sketch.</desc>
    <g id="_icon/recent/l/white" stroke="none" stroke-width="1" fill="none" fill-rule="evenodd">
        <path d="M11.6302989,13.0143 L16.5143,13.0143 C17.3427271,13.0143 18.0143,13.6858729 18.0143,14.5143 C18.0143,15.3427271 17.3427271,16.0143 16.5143,16.0143 L8.5003,16.0143 C7.67187288,16.0143 7.0003,15.3427271 7.0003,14.5143 L7.0003,6.5003 C7.0003,5.67187288 7.67187288,5.0003 8.5003,5.0003 C9.32872712,5.0003 10.0003,5.67187288 10.0003,6.5003 L10.0003,10.4212533 C13.4975345,7.18025766 18.0619963,5.3626 22.8926,5.3626 C33.3900271,5.3626 41.9286,13.9011729 41.9286,24.3986 C41.9286,34.8960271 33.3900271,43.4346 22.8926,43.4346 C22.0641729,43.4346 21.3926,42.7630271 21.3926,41.9346 C21.3926,41.1061729 22.0641729,40.4346 22.8926,40.4346 C31.7331729,40.4346 38.9286,33.2391729 38.9286,24.3986 C38.9286,15.5580271 31.7331729,8.3626 22.8926,8.3626 C18.6333282,8.3626 14.6265368,10.0374607 11.6302989,13.0143 Z M24.354,16.3667 L24.354,23.8837 L29.866,23.8837 C30.6944271,23.8837 31.366,24.5552729 31.366,25.3837 C31.366,26.2121271 30.6944271,26.8837 29.866,26.8837 L22.854,26.8837 C22.0255729,26.8837 21.354,26.2121271 21.354,25.3837 L21.354,16.3667 C21.354,15.5382729 22.0255729,14.8667 22.854,14.8667 C23.6824271,14.8667 24.354,15.5382729 24.354,16.3667 Z"
              id="Combined-Shape" fill="#FFFFFF" fill-rule="nonzero"></path>
    </g>
</svg>