<?xml version="1.0" encoding="UTF-8"?>
<svg width="48px" height="48px" viewBox="0 0 48 48" version="1.1" xmlns="http://www.w3.org/2000/svg"
>
    <!-- Generator: Sketch 54.1 (76490) - https://sketchapp.com -->
    <title>_icon/mentioning/l/inactive</title>
    <desc>Created with Sketch.</desc>
    <g id="_icon/mentioning/l/inactive" stroke="none" stroke-width="1" fill="none" fill-rule="evenodd">
        <path d="M28.711342,27.0772872 C28.711342,28.2496392 28.126811,29.3430303 26.9709091,30.3289466 C25.8248773,31.3060895 24.4507359,31.8017893 22.885772,31.8017893 C21.8274747,31.8017893 20.9665801,31.5320058 20.3261183,31.0023088 C19.6768831,30.4627417 19.3478788,29.650101 19.3478788,28.587417 C19.3478788,27.0959307 19.997114,26.0387302 21.2791342,25.4487157 C22.5107071,24.8795382 24.354228,24.5911111 26.7592496,24.5911111 L28.711342,24.5911111 L28.711342,27.0772872 Z M35.1510534,35.1664069 C37.7655411,35.1664069 39.7439538,34.0412121 41.0303608,31.8204329 C42.3376046,29.5678499 43,26.6528716 43,23.161039 C43,17.4232035 41.3505916,12.9136508 38.0989322,9.7574026 C34.8450794,6.6011544 30.2006349,5 24.2939105,5 C17.9243867,5 13.0649928,6.82268398 9.85281385,10.419798 C6.63186147,14.0212987 5,18.7787013 5,24.5593074 C5,27.6190476 5.47047619,30.3815873 6.39497835,32.7712554 C7.31948052,35.1565368 8.57737374,37.0998557 10.1335642,38.5463781 C11.6919481,39.9972872 13.4784416,41.1126118 15.440404,41.8660317 C17.4056566,42.6172583 19.515671,43 21.7112266,43 C23.9912266,43 26.2953535,42.6819625 28.5556133,42.0557576 C30.7412987,41.4503896 31.8489466,40.7024531 31.8489466,39.8338817 C31.8489466,39.505974 31.7140548,39.1583261 31.4475613,38.8019048 C31.1898413,38.4586436 30.8652237,38.2919481 30.4561616,38.2919481 C30.3991342,38.2974315 30.0207792,38.3796825 27.8701876,39.0387879 C26.2185859,39.5454545 24.3827417,39.8020779 22.4152958,39.8020779 C19.9346032,39.8020779 17.7565945,39.3919192 15.9393939,38.5836652 C14.1145166,37.7699278 12.675671,36.6085426 11.6634343,35.1313131 C10.6577778,33.6650505 9.91751804,32.0353824 9.46458874,30.2872727 C9.01275613,28.5446465 8.78354978,26.5980375 8.78354978,24.5033766 C8.78354978,22.2573737 9.04236652,20.1780664 9.55232323,18.325772 C10.06557,16.4647042 10.8957576,14.7308514 12.018759,13.1724675 C13.1494372,11.6031169 14.7758153,10.3660606 16.8529293,9.49858586 C18.9212698,8.63549784 21.4041558,8.1968254 24.2346898,8.1968254 C34.2155844,8.1968254 39.275671,13.4948918 39.275671,23.9440693 C39.275671,29.5294661 38.006811,32.3610967 35.503088,32.3610967 C33.9534776,32.3610967 33.0212987,31.3839538 32.7317749,29.4559885 L32.7295815,20.0267244 C32.7295815,17.7883983 31.9048773,16.0227417 30.2806926,14.780202 C28.6400577,13.5255988 26.4872727,12.8884271 23.8826551,12.8884271 C21.9590765,12.8884271 20.1451659,13.2141414 18.4946609,13.8556999 C16.9000866,14.474228 16.0918326,15.1947475 16.0918326,15.9986147 C16.0918326,16.4087734 16.2420779,16.8748629 16.5359885,17.3859163 C16.8145455,17.8673593 17.1260029,18.1009524 17.4857143,18.1009524 C17.5361616,18.0943723 17.8245887,18.0121212 19.2579509,17.3892063 C20.3919192,16.8956999 21.7112266,16.6456566 23.1785859,16.6456566 C26.7329293,16.6456566 28.5347763,18.1217893 28.5347763,21.0345743 L28.5347763,22.177316 L26.1725253,22.177316 C22.4635498,22.177316 19.5781818,22.6697258 17.5986724,23.6402886 C15.63671,24.6031746 14.6836941,26.2394228 14.6836941,28.6444444 C14.6836941,30.6952381 15.3778932,32.2437518 16.7476479,33.2450216 C18.1349495,34.2594517 19.8655123,34.7748918 21.8866955,34.7748918 C24.5187302,34.7748918 26.9193651,33.6102165 29.0227994,31.3115729 L29.2750361,31.0363059 L29.3518038,31.4015007 C29.5755267,32.4652814 30.2214719,33.3667532 31.2688023,34.0806926 C32.3270996,34.8012121 33.6321501,35.1664069 35.1510534,35.1664069 L35.1510534,35.1664069 Z"
              id="Fill-1" fill="#767676"></path>
    </g>
</svg>