<?xml version="1.0" encoding="UTF-8"?>
<svg width="48px" height="48px" viewBox="0 0 48 48" version="1.1" xmlns="http://www.w3.org/2000/svg"
>
    <!-- Generator: Sketch 54.1 (76490) - https://sketchapp.com -->
    <title>_icon/bold/l/inactive</title>
    <desc>Created with Sketch.</desc>
    <g id="_icon/bold/l/inactive" stroke="none" stroke-width="1" fill="none" fill-rule="evenodd">
        <path d="M14,37.0711354 L14,10.9699042 C14,10.3406261 14.2735951,9.85499487 14.8207934,9.5129959 C15.3679918,9.17099692 16.02462,9 16.7906977,9 L25.2038304,9 C30.675814,9 33.4117647,11.4349962 33.4117647,16.3050616 C33.4117647,19.5882517 32.2489856,21.7359731 29.9233926,22.74829 C31.3187484,23.2681285 32.3720895,24.013675 33.0834473,24.9849521 C33.7948052,25.9562292 34.1504788,27.3994432 34.1504788,29.3146375 L34.1504788,30.1764706 C34.1504788,33.2407814 33.4049322,35.4774211 31.9138167,36.8864569 C30.4227012,38.2954927 28.4186172,39 25.9015048,39 L16.7906977,39 C15.9425402,39 15.2653924,38.8084834 14.7592339,38.4254446 C14.2530754,38.0424057 14,37.5909739 14,37.0711354 Z M20.3611491,33.4186047 L24.4651163,33.4186047 C26.6539097,33.4186047 27.74829,32.1600673 27.74829,29.6429549 L27.74829,28.9863201 C27.74829,26.4692077 26.6539097,25.2106703 24.4651163,25.2106703 L20.3611491,25.2106703 L20.3611491,33.4186047 Z M20.3611491,20.2859097 L24.6703146,20.2859097 C25.4090324,20.2859097 25.9835821,20.0054748 26.3939808,19.4445964 C26.8043796,18.8837181 27.0095759,18.2202501 27.0095759,17.4541724 C27.0095759,16.6880947 26.8043796,16.0177867 26.3939808,15.4432285 C25.9835821,14.8686702 25.4090324,14.5813953 24.6703146,14.5813953 L20.3611491,14.5813953 L20.3611491,20.2859097 Z"
              id="B" fill="#767676"></path>
    </g>
</svg>