<?xml version="1.0" encoding="UTF-8"?>
<svg width="24px" height="24px" viewBox="0 0 24 24" version="1.1" xmlns="http://www.w3.org/2000/svg"
>
    <!-- Generator: Sketch 54.1 (76490) - https://sketchapp.com -->
    <title>_icon/tags/r/inactive</title>
    <desc>Created with Sketch.</desc>
    <g id="_icon/tags/r/inactive" stroke="none" stroke-width="1" fill="none" fill-rule="evenodd">
        <path d="M8.0306,20.6703 L2.3296,14.9693 C1.8906,14.5303 1.8906,13.8173 2.3296,13.3773 L12.3776,3.3293 C12.5886,3.1183 12.8746,3.0003 13.1736,3.0003 L19.8736,3.0013 C20.4946,3.0013 20.9986,3.5053 20.9986,4.1263 L20.9996,10.8263 C20.9996,11.1253 20.8816,11.4113 20.6706,11.6223 L11.6896,20.5513"
              id="Stroke-1" stroke="#767676" stroke-width="2" strokeLinecap="round" stroke-linejoin="round"></path>
        <path d="M18.2,7.3 C18.2,8.128 17.528,8.8 16.7,8.8 C15.872,8.8 15.2,8.128 15.2,7.3 C15.2,6.472 15.872,5.8 16.7,5.8 C17.528,5.8 18.2,6.472 18.2,7.3"
              id="Fill-3" fill="#767676"></path>
    </g>
</svg>