<?xml version="1.0" encoding="UTF-8"?>
<svg width="48px" height="48px" viewBox="0 0 48 48" version="1.1" xmlns="http://www.w3.org/2000/svg"
>
    <!-- Generator: Sketch 54.1 (76490) - https://sketchapp.com -->
    <title>_icon/ifeellike/l/active</title>
    <desc>Created with Sketch.</desc>
    <defs>
        <linearGradient x1="0%" y1="0%" x2="100%" y2="100%" id="linearGradient-1">
            <stop stop-color="#972C86" offset="0%"></stop>
            <stop stop-color="#794997" offset="40%"></stop>
            <stop stop-color="#007180" offset="100%"></stop>
        </linearGradient>
    </defs>
    <g id="_icon/ifeellike/l/active" stroke="none" stroke-width="1" fill="none" fill-rule="evenodd">
        <path d="M34.4460118,38.0443743 C35.1107192,37.5499498 36.0503812,37.6879914 36.5448057,38.3526988 C37.0392302,39.0174062 36.9011886,39.9570682 36.2364812,40.4514927 C29.3296742,45.5889328 19.8563125,45.8984673 12.5881964,41.0280038 C3.18414324,34.7259072 0.669901858,21.9932016 6.97217613,12.5888834 C13.2744012,3.18463856 26.0071701,0.669717332 35.4112966,6.97186314 C44.8155414,13.2740882 47.3304626,26.0068571 41.0283168,35.4109836 C40.5671314,36.0991692 39.635382,36.2831893 38.9471964,35.8220038 C38.2590107,35.3608184 38.0749907,34.429069 38.5361761,33.7408834 C43.9159394,25.7131455 41.7690872,14.8438697 33.7411964,9.46400382 C25.7134585,4.08424055 14.8441826,6.23109273 9.46431681,14.2589836 C4.08438736,22.2869694 6.2306537,33.1561635 14.258268,38.535844 C20.4629939,42.6937152 28.5506793,42.4294565 34.4460118,38.0443743 Z M20.5,17 C20.5,18.104 19.604,19 18.5,19 C17.397,19 16.5,18.104 16.5,17 C16.5,15.896 17.397,15 18.5,15 C19.604,15 20.5,15.896 20.5,17 Z M31.5,17 C31.5,18.104 30.603,19 29.5,19 C28.396,19 27.5,18.104 27.5,17 C27.5,15.896 28.396,15 29.5,15 C30.603,15 31.5,15.896 31.5,17 Z M9.50523706,25.192673 C9.42448816,24.2288796 10.2635123,23.4417064 11.2202039,23.5836895 C11.270028,23.591084 11.3697008,23.6054734 11.5153035,23.6258588 C11.7602181,23.6601486 12.0432602,23.6984422 12.3605041,23.7397406 C13.2688546,23.8579887 14.2672211,23.9763253 15.3240565,24.0867681 C17.3880607,24.3024634 19.4147089,24.4609714 21.3060113,24.5382767 C22.137097,24.5722466 22.929645,24.5898495 23.6779808,24.5898495 C24.6650657,24.5898495 25.7455763,24.5592531 26.9041396,24.5010171 C28.6201816,24.4147591 30.4536583,24.271029 32.3301311,24.0858917 C33.4518461,23.9752206 34.5195788,23.8566254 35.4972545,23.7380939 C35.8389043,23.696673 36.1446459,23.658253 36.4099888,23.6238331 C36.5680543,23.6033291 36.6767878,23.5888183 36.7317054,23.5813 C37.6830523,23.45106 38.5100903,24.235805 38.4299216,25.192673 C37.8017135,32.690767 31.5293117,38.5 23.9680901,38.5 C16.4060211,38.5 10.1334596,32.6909389 9.50523706,25.192673 Z M23.9680901,35.5 C29.3229926,35.5 33.8646879,31.8246245 35.1305852,26.8025855 C34.3379406,26.8945082 33.4974195,26.9852903 32.6246881,27.071396 C30.7034838,27.2609467 28.8233514,27.4083342 27.0547466,27.4972343 C25.8487489,27.5578547 24.7188512,27.5898495 23.6779808,27.5898495 C22.8868678,27.5898495 22.0537857,27.5713463 21.1834914,27.5357738 C19.2225677,27.4556228 17.1348293,27.2923368 15.0122445,27.0705196 C14.2439952,26.990235 13.5059303,26.9058861 12.8090594,26.8203236 C14.081196,31.833368 18.6186937,35.5 23.9680901,35.5 Z"
              id="Combined-Shape" fill="url(#linearGradient-1)" fill-rule="nonzero"></path>
    </g>
</svg>