<?xml version="1.0" encoding="UTF-8"?>
<svg width="48px" height="48px" viewBox="0 0 48 48" version="1.1" xmlns="http://www.w3.org/2000/svg"
>
    <!-- Generator: Sketch 54.1 (76490) - https://sketchapp.com -->
    <title>_icon/ifeellike/l/white</title>
    <desc>Created with Sketch.</desc>
    <g id="_icon/ifeellike/l/white" stroke="none" stroke-width="1" fill="none" fill-rule="evenodd">
        <path d="M35.3412465,39.2479335 C29.0682465,43.9139335 20.2892465,44.3829335 13.4232465,39.7819335 C4.70724647,33.9409335 2.37724647,22.1399335 8.21824647,13.4239335 C14.0592465,4.70793348 25.8602465,2.37693348 34.5762465,8.21793348 C43.2922465,14.0589335 45.6232465,25.8599335 39.7822465,34.5759335"
              id="Stroke-1" stroke="#FFFFFF" stroke-width="3" strokeLinecap="round" stroke-linejoin="round"></path>
        <path d="M20.5,17 C20.5,18.104 19.604,19 18.5,19 C17.397,19 16.5,18.104 16.5,17 C16.5,15.896 17.397,15 18.5,15 C19.604,15 20.5,15.896 20.5,17"
              id="Fill-3" fill="#FFFFFF"></path>
        <path d="M31.5,17 C31.5,18.104 30.603,19 29.5,19 C28.396,19 27.5,18.104 27.5,17 C27.5,15.896 28.396,15 29.5,15 C30.603,15 31.5,15.896 31.5,17"
              id="Fill-5" fill="#FFFFFF"></path>
        <path d="M11,25.0674382 C11.5597884,31.7488958 17.1464355,37 23.9680901,37 C30.7887232,37 36.3753703,31.7488958 36.9351587,25.0674382 C36.9351587,25.0674382 29.4668872,26.0898495 23.6779808,26.0898495 C17.8890744,26.0898495 11,25.0674382 11,25.0674382 Z"
              id="Page-1" stroke="#FFFFFF" stroke-width="3" strokeLinecap="round" stroke-linejoin="round"></path>
    </g>
</svg>